<svg width="286" height="230" viewBox="0 0 286 230" fill="none" xmlns="http://www.w3.org/2000/svg">
<g clip-path="url(#clip0_116_3434)">
<path d="M229.506 203.071H56.4932V203.272H229.506V203.071Z" fill="#263238"/>
<path d="M181.59 194.401V74.5762C181.59 70.6485 178.391 67.4645 174.443 67.4645H117.186C113.239 67.4645 110.039 70.6485 110.039 74.5762L110.039 194.401C110.039 198.328 113.239 201.512 117.186 201.512H174.443C178.391 201.512 181.59 198.328 181.59 194.401Z" fill="#E8E3D2"/>
<path d="M174.043 61.4525H117.584C116.305 61.4524 115.039 61.7029 113.857 62.1899C112.676 62.6768 111.602 63.3906 110.698 64.2905C109.793 65.1904 109.076 66.2587 108.587 67.4344C108.097 68.6102 107.846 69.8704 107.846 71.143V193.581C107.846 196.151 108.872 198.616 110.698 200.433C112.524 202.251 115.001 203.272 117.584 203.272H174.043C176.626 203.271 179.103 202.25 180.929 200.433C182.755 198.616 183.781 196.151 183.781 193.581V71.143C183.781 69.8704 183.529 68.6104 183.04 67.4347C182.55 66.259 181.833 65.1907 180.929 64.2908C180.025 63.391 178.951 62.6772 177.77 62.1902C176.588 61.7032 175.322 61.4525 174.043 61.4525ZM181.092 188.554C181.092 190.414 180.35 192.198 179.028 193.513C177.707 194.828 175.914 195.567 174.045 195.567H117.584C115.715 195.567 113.923 194.828 112.601 193.513C111.28 192.198 110.537 190.414 110.537 188.554V75.0095C110.537 73.1497 111.28 71.3662 112.601 70.0511C113.923 68.7361 115.715 67.9973 117.584 67.9973H174.043C174.969 67.997 175.886 68.1782 176.741 68.5305C177.596 68.8827 178.373 69.3992 179.028 70.0504C179.682 70.7016 180.201 71.4747 180.556 72.3256C180.91 73.1765 181.092 74.0885 181.092 75.0095V188.554Z" fill="#263238"/>
<path d="M151.739 65.4496H139.887C139.693 65.4496 139.508 65.3732 139.372 65.2373C139.235 65.1013 139.158 64.917 139.158 64.7247C139.158 64.5325 139.235 64.3481 139.372 64.2122C139.508 64.0762 139.693 63.9999 139.887 63.9999H151.739C151.933 63.9999 152.118 64.0762 152.255 64.2122C152.391 64.3481 152.468 64.5325 152.468 64.7247C152.468 64.917 152.391 65.1013 152.255 65.2373C152.118 65.3732 151.933 65.4496 151.739 65.4496Z" fill="#465A63"/>
<path d="M154.706 65.487C155.109 65.487 155.435 65.1453 155.435 64.7239C155.435 64.3025 155.109 63.9609 154.706 63.9609C154.304 63.9609 153.978 64.3025 153.978 64.7239C153.978 65.1453 154.304 65.487 154.706 65.487Z" fill="#465A63"/>
<path d="M176.57 138.226H144.699V157.138H173.222L176.57 160.228V138.226Z" fill="#7E9CFC"/>
<path d="M162.063 149.1C162.85 148.317 162.85 147.049 162.063 146.266C161.277 145.484 160.002 145.484 159.216 146.266C158.429 147.049 158.429 148.317 159.216 149.1C160.002 149.882 161.277 149.882 162.063 149.1Z" fill="white"/>
<path d="M168.907 149.533C169.934 149.11 170.422 147.938 169.996 146.915C169.571 145.893 168.393 145.407 167.366 145.831C166.338 146.254 165.85 147.426 166.276 148.449C166.701 149.471 167.879 149.957 168.907 149.533Z" fill="white"/>
<path d="M154.89 148.449C155.316 147.427 154.828 146.254 153.8 145.831C152.773 145.408 151.595 145.893 151.169 146.915C150.744 147.938 151.232 149.11 152.259 149.533C153.287 149.957 154.464 149.471 154.89 148.449Z" fill="white"/>
<path d="M115.056 165.101H146.928V184.012H118.404L115.056 187.103V165.101Z" fill="#AFC1FD"/>
<path d="M128.983 174.352C128.941 174.764 129.028 175.178 129.232 175.539C129.435 175.899 129.746 176.188 130.122 176.366C130.497 176.543 130.919 176.601 131.329 176.53C131.738 176.46 132.116 176.265 132.41 175.973C132.704 175.68 132.9 175.304 132.97 174.897C133.041 174.489 132.983 174.07 132.805 173.696C132.626 173.322 132.336 173.013 131.974 172.81C131.612 172.607 131.195 172.521 130.781 172.563C130.321 172.61 129.89 172.814 129.563 173.139C129.235 173.465 129.03 173.894 128.983 174.352Z" fill="white"/>
<path d="M121.484 174.352C121.441 174.764 121.528 175.178 121.732 175.539C121.936 175.9 122.247 176.188 122.623 176.366C122.998 176.543 123.42 176.601 123.83 176.53C124.239 176.46 124.617 176.265 124.911 175.972C125.205 175.68 125.4 175.304 125.471 174.896C125.542 174.488 125.484 174.069 125.305 173.695C125.126 173.322 124.836 173.012 124.473 172.81C124.111 172.607 123.694 172.521 123.281 172.563C122.82 172.61 122.39 172.814 122.062 173.14C121.735 173.466 121.531 173.894 121.484 174.352Z" fill="white"/>
<path d="M136.596 174.352C136.554 174.764 136.641 175.178 136.845 175.539C137.049 175.9 137.36 176.188 137.736 176.366C138.111 176.543 138.533 176.601 138.942 176.53C139.352 176.46 139.73 176.265 140.024 175.972C140.318 175.68 140.513 175.304 140.584 174.896C140.654 174.488 140.596 174.069 140.418 173.695C140.239 173.322 139.949 173.012 139.586 172.81C139.224 172.607 138.807 172.521 138.394 172.563C137.933 172.61 137.503 172.814 137.175 173.14C136.848 173.466 136.643 173.894 136.596 174.352Z" fill="white"/>
<path d="M176.57 87.2582H115.056V130.727H176.57V87.2582Z" fill="#AFC1FD"/>
<path d="M172.879 125.774H118.749V126.855H172.879V125.774Z" fill="#5E84FB"/>
<path d="M176.57 87.2582H115.056V121.901H176.57V87.2582Z" fill="#E7ECFE"/>
<path d="M152.286 104.628L139.345 97.1931V112.062L152.286 104.628Z" fill="#5E84FB"/>
<path d="M155.615 128.693C156.935 128.149 157.562 126.643 157.015 125.329C156.468 124.015 154.955 123.392 153.635 123.936C152.314 124.48 151.687 125.986 152.234 127.3C152.781 128.613 154.295 129.237 155.615 128.693Z" fill="white"/>
<path d="M107.057 84.9825C112.808 84.9825 117.47 80.3432 117.47 74.6204C117.47 68.8977 112.808 64.2584 107.057 64.2584C101.306 64.2584 96.6436 68.8977 96.6436 74.6204C96.6436 80.3432 101.306 84.9825 107.057 84.9825Z" fill="#7E9CFC"/>
<path d="M110.318 69.5887C109.641 69.5888 108.977 69.7762 108.401 70.1301C107.825 70.4839 107.36 70.9902 107.057 71.5924C106.687 70.8616 106.081 70.276 105.336 69.9304C104.591 69.5849 103.751 69.4995 102.951 69.688C102.151 69.8766 101.439 70.3282 100.929 70.9697C100.419 71.6112 100.141 72.4051 100.141 73.223C100.141 73.223 99.8379 78.1603 106.97 81.2547C106.997 81.2666 107.027 81.2728 107.057 81.2728C107.087 81.2728 107.117 81.2666 107.144 81.2547C114.277 78.1603 113.972 73.223 113.972 73.223C113.972 72.7456 113.877 72.273 113.694 71.8319C113.51 71.3909 113.241 70.9903 112.901 70.6528C112.562 70.3153 112.159 70.0477 111.716 69.8651C111.273 69.6825 110.797 69.5886 110.318 69.5887Z" fill="#E7ECFE"/>
<path d="M133.309 58.6923C134.036 54.5006 131.21 50.5163 126.998 49.793C122.785 49.0697 118.781 51.8814 118.054 56.0731C117.328 60.2648 120.153 64.2492 124.365 64.9725C128.578 65.6957 132.582 62.884 133.309 58.6923Z" fill="#AFC1FD"/>
<path d="M124.073 55.7908V60.4757C124.073 60.515 124.087 60.5529 124.114 60.5823C124.14 60.6117 124.176 60.6307 124.215 60.6355L125.675 60.8175C126.056 60.8649 126.44 60.8888 126.824 60.8889H129.188C129.338 60.8889 129.487 60.8594 129.626 60.8022C129.765 60.7449 129.891 60.661 129.997 60.5552C130.103 60.4494 130.187 60.3239 130.245 60.1857C130.302 60.0475 130.332 59.8994 130.332 59.7498V56.5901C130.331 56.2888 130.21 56.0001 129.996 55.7873C129.781 55.5745 129.491 55.455 129.188 55.455H127.087C127.45 54.3612 127.53 52.5034 126.756 52.427C125.929 52.3576 126.102 54.6387 124.16 55.6511C124.134 55.6645 124.112 55.6846 124.097 55.7092C124.082 55.7337 124.073 55.7619 124.073 55.7908Z" fill="#FAFAFA"/>
<path d="M123.564 55.3563H121.459C121.369 55.3563 121.297 55.4283 121.297 55.5172V60.7821C121.297 60.871 121.369 60.943 121.459 60.943H123.564C123.653 60.943 123.726 60.871 123.726 60.7821V55.5172C123.726 55.4283 123.653 55.3563 123.564 55.3563Z" fill="#6E90FC"/>
<path d="M135.894 94.508C139.503 90.9169 139.503 85.0944 135.894 81.5032C132.285 77.912 126.434 77.912 122.825 81.5032C119.216 85.0944 119.216 90.9169 122.825 94.5081C126.434 98.0992 132.285 98.0992 135.894 94.508Z" fill="#BFCEFE"/>
<path d="M123.383 88.9556C123.461 90.481 124.124 91.9187 125.236 92.9712C126.349 94.0237 127.825 94.6106 129.36 94.6106C130.895 94.6106 132.371 94.0237 133.483 92.9712C134.596 91.9187 135.259 90.481 135.336 88.9556H123.383Z" fill="#6E90FC"/>
<path d="M125.877 87.1873C126.312 87.1873 126.664 86.5122 126.664 85.6793C126.664 84.8465 126.312 84.1713 125.877 84.1713C125.442 84.1713 125.09 84.8465 125.09 85.6793C125.09 86.5122 125.442 87.1873 125.877 87.1873Z" fill="#263238"/>
<path d="M132.991 87.1873C133.425 87.1873 133.778 86.5122 133.778 85.6793C133.778 84.8465 133.425 84.1713 132.991 84.1713C132.556 84.1713 132.204 84.8465 132.204 85.6793C132.204 86.5122 132.556 87.1873 132.991 87.1873Z" fill="#263238"/>
<mask id="mask0_116_3434" style="mask-type:luminance" maskUnits="userSpaceOnUse" x="123" y="88" width="13" height="7">
<path d="M123.375 88.6479C123.395 90.2139 124.035 91.7089 125.155 92.8091C126.275 93.9093 127.786 94.5262 129.359 94.5262C130.933 94.5262 132.444 93.9093 133.564 92.8091C134.684 91.7089 135.324 90.2139 135.344 88.6479H123.375Z" fill="white"/>
</mask>
<g mask="url(#mask0_116_3434)">
<path d="M135.344 97.7264C135.324 96.1604 134.684 94.6654 133.564 93.5652C132.444 92.465 130.933 91.8481 129.359 91.8481C127.786 91.8481 126.275 92.465 125.155 93.5652C124.035 94.6654 123.395 96.1604 123.375 97.7264H135.344Z" fill="#8EA9FC"/>
</g>
<path d="M199.349 113.42L223.832 91.6624L203.853 103.897L199.349 113.42Z" fill="#E0E0E0"/>
<path d="M190.415 99.889L199.863 102.511L223.83 91.6624L190.415 99.889Z" fill="#F5F5F5"/>
<path d="M203.852 103.897L223.831 91.6624L213.931 108.148L203.852 103.897Z" fill="#F5F5F5"/>
<path d="M203.853 103.897L199.349 113.42L199.865 102.511L223.832 91.6624L203.853 103.897Z" fill="#EBEBEB"/>
<path d="M88.5502 117.272L68.0513 102.05L84.3999 110.188L88.5502 117.272Z" fill="#E0E0E0"/>
<path d="M94.5534 106.163L87.3995 108.84L68.0513 102.05L94.5534 106.163Z" fill="#F5F5F5"/>
<path d="M84.3999 110.188L68.0513 102.05L76.8681 114.172L84.3999 110.188Z" fill="#F5F5F5"/>
<path d="M84.3999 110.188L88.5502 117.272L87.3995 108.84L68.0513 102.05L84.3999 110.188Z" fill="#EBEBEB"/>
<path d="M82.8908 177.881C83.1444 176.918 84.2486 176.464 85.2337 176.299C89.2223 175.629 93.7717 177.851 95.8135 181.325C92.2855 182.632 88.2979 182.282 84.9023 180.659C84.3405 180.389 83.7839 180.074 83.3767 179.603C82.9696 179.133 82.7301 178.481 82.8908 177.881Z" fill="#5E84FB"/>
<path d="M98.4491 178.903L98.3905 178.859C97.9662 176.804 98.929 173.933 100.007 172.13C101.105 170.312 102.839 168.962 104.877 168.339C105.584 168.125 106.517 168.082 106.906 168.71C107.153 169.113 107.068 169.622 106.95 170.076C105.895 174.105 102.418 177.598 98.4491 178.903Z" fill="#5E84FB"/>
<path d="M88.6662 188.202C89.1764 187.768 89.8402 187.547 90.5039 187.447C92.3225 187.174 94.1966 187.764 95.7575 188.731C97.3184 189.698 99.1379 191.787 100.405 193.119C97.6558 192.148 94.8139 192.122 91.8991 191.996C91.0828 191.961 90.2473 191.957 89.4805 191.679C88.7137 191.4 88.0115 190.774 87.9044 189.97C87.8206 189.308 88.156 188.635 88.6662 188.202Z" fill="#5E84FB"/>
<path d="M106.009 179.88C106.632 179.467 107.439 179.269 108.146 179.515C109.001 179.817 109.547 180.722 109.582 181.626C109.617 182.531 109.213 183.401 108.644 184.102C108.076 184.804 107.348 185.359 106.629 185.912L101.629 189.715C101.922 187.021 102.989 183.784 104.499 181.527C104.916 180.898 105.384 180.293 106.009 179.88Z" fill="#5E84FB"/>
<path d="M92.1861 172.677C90.1888 170.189 89.3047 168.236 88.3672 165.562C88.1803 165.031 88.0055 164.483 88.0025 163.918C87.9994 163.353 88.1874 162.763 88.6218 162.401C89.1471 161.959 89.9352 161.939 90.5737 162.199C91.2122 162.46 91.7224 162.947 92.178 163.46C94.8866 166.513 96.0172 170.964 95.3302 174.979C94.5644 174.776 92.5902 173.173 92.1861 172.677Z" fill="#5E84FB"/>
<path d="M103.181 203.171C102.953 200.914 102.534 198.678 102.042 196.465C101.463 193.863 100.769 191.287 100.006 188.732C99.1978 186.032 98.3125 183.356 97.35 180.705C96.4327 178.176 95.4496 175.669 94.3807 173.198C93.4543 171.054 92.4612 168.932 91.3499 166.876C91.2296 166.655 91.1084 166.434 90.9851 166.214C90.8508 165.975 91.2347 165.789 91.368 166.026C92.4864 168.021 93.4715 170.087 94.3989 172.175C95.481 174.62 96.4731 177.101 97.4005 179.615C98.3792 182.259 99.2837 184.931 100.114 187.629C100.906 190.21 101.63 192.813 102.244 195.441C102.777 197.719 103.238 200.021 103.518 202.345C103.548 202.596 103.6 202.924 103.626 203.175L103.181 203.171Z" fill="#263238"/>
<path d="M98.0806 182.931C95.5271 181.232 92.7117 179.959 89.7456 179.163C88.9724 178.955 88.1921 178.78 87.4047 178.64C87.137 178.591 87.1683 178.167 87.4391 178.216C90.4117 178.748 93.2821 179.74 95.9458 181.157C96.7611 181.591 97.5532 182.068 98.321 182.58C98.5493 182.732 98.3089 183.082 98.0806 182.931Z" fill="#263238"/>
<path d="M97.2974 180.096C98.8273 177.629 100.511 175.259 102.339 173.001C102.51 172.788 102.863 173.027 102.691 173.24C100.864 175.498 99.1803 177.868 97.65 180.336C97.5055 180.569 97.1539 180.329 97.2974 180.096Z" fill="#263238"/>
<path d="M100.799 190.926C101.797 188.343 103.273 185.934 104.875 183.687C105.284 183.113 105.705 182.549 106.14 181.995C106.309 181.781 106.663 182.019 106.493 182.235C104.839 184.336 103.338 186.593 102.135 188.981C101.792 189.664 101.477 190.361 101.201 191.074C101.1 191.328 100.696 191.187 100.797 190.931L100.799 190.926Z" fill="#263238"/>
<path d="M101.538 194.358C99.0687 192.354 96.1247 190.847 93.0827 189.915C92.82 189.834 92.9635 189.434 93.2261 189.513C96.2984 190.454 99.2879 191.98 101.778 194.005C101.99 194.176 101.751 194.529 101.538 194.356V194.358Z" fill="#263238"/>
<path d="M211.144 184.013C210.952 183.284 210.116 182.941 209.369 182.815C206.348 182.312 202.903 183.991 201.355 186.623C204.028 187.613 207.048 187.347 209.619 186.12C210.045 185.919 210.466 185.678 210.774 185.322C211.083 184.966 211.264 184.469 211.144 184.013Z" fill="#EBEBEB"/>
<path d="M199.359 184.788L199.404 184.755C199.725 183.199 199 181.023 198.178 179.657C197.346 178.281 196.033 177.258 194.49 176.786C193.951 176.624 193.247 176.591 192.952 177.068C192.765 177.369 192.83 177.758 192.919 178.101C193.72 181.153 196.347 183.799 199.359 184.788Z" fill="#EBEBEB"/>
<path d="M206.768 191.833C206.382 191.503 205.879 191.336 205.376 191.261C203.996 191.054 202.58 191.501 201.393 192.234C200.207 192.967 198.832 194.546 197.873 195.558C199.956 194.822 202.108 194.802 204.316 194.707C204.935 194.68 205.567 194.677 206.148 194.466C206.729 194.255 207.259 193.782 207.342 193.172C207.41 192.67 207.159 192.162 206.768 191.833Z" fill="#EBEBEB"/>
<path d="M193.633 185.529C193.161 185.216 192.55 185.066 192.017 185.253C191.369 185.478 190.956 186.167 190.93 186.849C190.904 187.532 191.21 188.193 191.637 188.725C192.064 189.257 192.619 189.676 193.164 190.092L196.95 192.973C196.729 190.932 195.921 188.479 194.777 186.77C194.462 186.3 194.106 185.847 193.633 185.529Z" fill="#EBEBEB"/>
<path d="M204.1 180.07C205.615 178.186 206.282 176.707 206.992 174.682C207.134 174.28 207.266 173.863 207.269 173.436C207.272 173.009 207.129 172.562 206.8 172.286C206.396 171.952 205.803 171.937 205.321 172.132C204.839 172.327 204.45 172.699 204.109 173.088C202.057 175.401 201.201 178.772 201.721 181.813C202.3 181.663 203.797 180.448 204.1 180.07Z" fill="#EBEBEB"/>
<path d="M195.775 203.171C195.962 201.463 196.25 199.767 196.637 198.092C197.076 196.121 197.601 194.171 198.18 192.234C198.79 190.189 199.461 188.162 200.192 186.154C200.887 184.238 201.631 182.334 202.44 180.468C203.148 178.843 203.891 177.236 204.734 175.678C204.825 175.511 204.917 175.343 205.011 175.176C205.112 174.994 204.821 174.853 204.72 175.034C203.873 176.542 203.126 178.109 202.426 179.691C201.607 181.542 200.855 183.424 200.153 185.32C199.412 187.325 198.727 189.349 198.097 191.392C197.497 193.346 196.95 195.313 196.481 197.308C196.064 199.032 195.742 200.777 195.517 202.536C195.494 202.725 195.454 202.974 195.435 203.164L195.775 203.171Z" fill="#263238"/>
<path d="M199.637 187.84C201.57 186.552 203.703 185.588 205.949 184.985C206.535 184.829 207.126 184.697 207.723 184.589C207.925 184.552 207.902 184.231 207.696 184.269C205.444 184.671 203.271 185.423 201.253 186.495C200.636 186.825 200.036 187.184 199.454 187.573C199.422 187.599 199.401 187.635 199.395 187.675C199.389 187.716 199.399 187.757 199.422 187.79C199.445 187.824 199.48 187.847 199.52 187.857C199.559 187.866 199.601 187.86 199.637 187.84Z" fill="#263238"/>
<path d="M200.229 185.692C199.069 183.823 197.793 182.028 196.409 180.317C196.28 180.157 196.012 180.337 196.142 180.499C197.526 182.21 198.802 184.004 199.961 185.873C200.07 186.05 200.337 185.873 200.229 185.692Z" fill="#263238"/>
<path d="M197.579 193.896C196.823 191.939 195.704 190.115 194.491 188.409C194.182 187.974 193.862 187.547 193.532 187.128C193.405 186.965 193.137 187.145 193.265 187.309C194.534 188.899 195.64 190.61 196.566 192.419C196.827 192.936 197.065 193.464 197.273 194.003C197.348 194.196 197.653 194.09 197.576 193.896H197.579Z" fill="#263238"/>
<path d="M197.02 196.496C198.92 194.977 201.094 193.834 203.425 193.13C203.628 193.068 203.515 192.765 203.316 192.828C200.959 193.542 198.76 194.697 196.838 196.231C196.679 196.362 196.86 196.633 197.02 196.498V196.496Z" fill="#263238"/>
</g>
<defs>
<clipPath id="clip0_116_3434">
<rect width="173.012" height="153.593" fill="white" transform="translate(56.4937 49.6792)"/>
</clipPath>
</defs>
</svg>
