<svg width="162" height="208" viewBox="0 0 162 208" fill="none" xmlns="http://www.w3.org/2000/svg">
<rect width="162" height="208" rx="16" fill="url(#paint0_linear_444_2976)"/>
<path d="M49.92 149L54.96 137.8H57.008L62.064 149H59.888L55.552 138.904H56.384L52.064 149H49.92ZM52.24 146.408L52.8 144.776H58.848L59.408 146.408H52.24ZM66.8343 149.112C66.0129 149.112 65.2716 148.931 64.6103 148.568C63.9596 148.195 63.4476 147.683 63.0743 147.032C62.7009 146.381 62.5143 145.613 62.5143 144.728C62.5143 143.843 62.7009 143.075 63.0743 142.424C63.4476 141.773 63.9596 141.267 64.6103 140.904C65.2716 140.541 66.0129 140.36 66.8343 140.36C67.5489 140.36 68.1889 140.52 68.7543 140.84C69.3196 141.149 69.7676 141.624 70.0983 142.264C70.4289 142.904 70.5943 143.725 70.5943 144.728C70.5943 145.72 70.4343 146.541 70.1143 147.192C69.7943 147.832 69.3516 148.312 68.7863 148.632C68.2209 148.952 67.5703 149.112 66.8343 149.112ZM67.0743 147.4C67.5543 147.4 67.9809 147.293 68.3543 147.08C68.7383 146.867 69.0423 146.557 69.2663 146.152C69.5009 145.747 69.6183 145.272 69.6183 144.728C69.6183 144.173 69.5009 143.699 69.2663 143.304C69.0423 142.899 68.7383 142.589 68.3543 142.376C67.9809 142.163 67.5543 142.056 67.0743 142.056C66.5943 142.056 66.1623 142.163 65.7783 142.376C65.4049 142.589 65.1009 142.899 64.8663 143.304C64.6423 143.699 64.5303 144.173 64.5303 144.728C64.5303 145.272 64.6423 145.747 64.8663 146.152C65.1009 146.557 65.4049 146.867 65.7783 147.08C66.1623 147.293 66.5943 147.4 67.0743 147.4ZM69.6663 149V146.984L69.7463 144.712L69.5863 142.44V137.128H71.5703V149H69.6663ZM73.7706 145.384V143.72H78.1706V145.384H73.7706ZM79.7029 149V147.608L86.9349 138.776L87.1749 139.56H79.8149V137.8H89.0469V139.192L81.8149 148.024L81.5589 147.24H89.2549V149H79.7029ZM96.2479 149V147.272L96.1359 146.904V143.88C96.1359 143.293 95.9599 142.84 95.6079 142.52C95.2559 142.189 94.7225 142.024 94.0079 142.024C93.5279 142.024 93.0532 142.099 92.5839 142.248C92.1252 142.397 91.7359 142.605 91.4159 142.872L90.6319 141.416C91.0905 141.064 91.6345 140.803 92.2639 140.632C92.9039 140.451 93.5652 140.36 94.2479 140.36C95.4852 140.36 96.4399 140.659 97.1119 141.256C97.7945 141.843 98.1359 142.755 98.1359 143.992V149H96.2479ZM93.5599 149.112C92.9199 149.112 92.3599 149.005 91.8799 148.792C91.3999 148.568 91.0265 148.264 90.7599 147.88C90.5039 147.485 90.3759 147.043 90.3759 146.552C90.3759 146.072 90.4879 145.64 90.7119 145.256C90.9465 144.872 91.3252 144.568 91.8479 144.344C92.3705 144.12 93.0639 144.008 93.9279 144.008H96.4079V145.336H94.0719C93.3892 145.336 92.9305 145.448 92.6959 145.672C92.4612 145.885 92.3439 146.152 92.3439 146.472C92.3439 146.835 92.4879 147.123 92.7759 147.336C93.0639 147.549 93.4639 147.656 93.9759 147.656C94.4665 147.656 94.9039 147.544 95.2879 147.32C95.6825 147.096 95.9652 146.765 96.1359 146.328L96.4719 147.528C96.2799 148.029 95.9332 148.419 95.4319 148.696C94.9412 148.973 94.3172 149.112 93.5599 149.112ZM105.439 149.112C104.745 149.112 104.111 148.952 103.535 148.632C102.969 148.312 102.516 147.832 102.175 147.192C101.844 146.541 101.679 145.72 101.679 144.728C101.679 143.725 101.839 142.904 102.159 142.264C102.489 141.624 102.937 141.149 103.503 140.84C104.068 140.52 104.713 140.36 105.439 140.36C106.281 140.36 107.023 140.541 107.663 140.904C108.313 141.267 108.825 141.773 109.199 142.424C109.583 143.075 109.775 143.843 109.775 144.728C109.775 145.613 109.583 146.387 109.199 147.048C108.825 147.699 108.313 148.205 107.663 148.568C107.023 148.931 106.281 149.112 105.439 149.112ZM100.703 152.104V140.456H102.607V142.472L102.543 144.744L102.703 147.016V152.104H100.703ZM105.215 147.4C105.695 147.4 106.121 147.293 106.495 147.08C106.879 146.867 107.183 146.557 107.407 146.152C107.631 145.747 107.743 145.272 107.743 144.728C107.743 144.173 107.631 143.699 107.407 143.304C107.183 142.899 106.879 142.589 106.495 142.376C106.121 142.163 105.695 142.056 105.215 142.056C104.735 142.056 104.303 142.163 103.919 142.376C103.535 142.589 103.231 142.899 103.007 143.304C102.783 143.699 102.671 144.173 102.671 144.728C102.671 145.272 102.783 145.747 103.007 146.152C103.231 146.557 103.535 146.867 103.919 147.08C104.303 147.293 104.735 147.4 105.215 147.4Z" fill="#E8E3D2"/>
<path d="M27.3116 164L29.8316 158.4H30.8556L33.3836 164H32.2956L30.1276 158.952H30.5436L28.3836 164H27.3116ZM28.4716 162.704L28.7516 161.888H31.7756L32.0556 162.704H28.4716ZM36.4238 159.68C36.7651 159.68 37.0691 159.747 37.3358 159.88C37.6078 160.013 37.8211 160.219 37.9758 160.496C38.1304 160.768 38.2078 161.12 38.2078 161.552V164H37.2078V161.68C37.2078 161.301 37.1171 161.019 36.9358 160.832C36.7598 160.645 36.5118 160.552 36.1918 160.552C35.9571 160.552 35.7491 160.6 35.5678 160.696C35.3864 160.792 35.2451 160.936 35.1438 161.128C35.0478 161.315 34.9998 161.552 34.9998 161.84V164H33.9998V159.728H34.9518V160.88L34.7838 160.528C34.9331 160.256 35.1491 160.048 35.4318 159.904C35.7198 159.755 36.0504 159.68 36.4238 159.68ZM43.6953 164.056C43.2206 164.056 42.8046 163.963 42.4473 163.776C42.0953 163.584 41.8206 163.323 41.6233 162.992C41.4313 162.661 41.3353 162.285 41.3353 161.864C41.3353 161.437 41.4286 161.061 41.6153 160.736C41.8073 160.405 42.0686 160.147 42.3993 159.96C42.7353 159.773 43.1166 159.68 43.5433 159.68C43.9593 159.68 44.3299 159.771 44.6553 159.952C44.9806 160.133 45.2366 160.389 45.4233 160.72C45.6099 161.051 45.7033 161.44 45.7033 161.888C45.7033 161.931 45.7006 161.979 45.6953 162.032C45.6953 162.085 45.6926 162.136 45.6873 162.184H42.1273V161.52H45.1593L44.7673 161.728C44.7726 161.483 44.7219 161.267 44.6153 161.08C44.5086 160.893 44.3619 160.747 44.1753 160.64C43.9939 160.533 43.7833 160.48 43.5433 160.48C43.2979 160.48 43.0819 160.533 42.8953 160.64C42.7139 160.747 42.5699 160.896 42.4633 161.088C42.3619 161.275 42.3113 161.496 42.3113 161.752V161.912C42.3113 162.168 42.3699 162.395 42.4873 162.592C42.6046 162.789 42.7699 162.941 42.9833 163.048C43.1966 163.155 43.4419 163.208 43.7193 163.208C43.9593 163.208 44.1753 163.171 44.3673 163.096C44.5593 163.021 44.7299 162.904 44.8793 162.744L45.4153 163.36C45.2233 163.584 44.9806 163.757 44.6873 163.88C44.3993 163.997 44.0686 164.056 43.6953 164.056ZM47.7217 164L45.8897 159.728H46.9297L48.5057 163.496H47.9937L49.6257 159.728H50.5857L48.7537 164H47.7217ZM53.1015 164.056C52.6268 164.056 52.2108 163.963 51.8535 163.776C51.5015 163.584 51.2268 163.323 51.0295 162.992C50.8375 162.661 50.7415 162.285 50.7415 161.864C50.7415 161.437 50.8348 161.061 51.0215 160.736C51.2135 160.405 51.4748 160.147 51.8055 159.96C52.1415 159.773 52.5228 159.68 52.9495 159.68C53.3655 159.68 53.7362 159.771 54.0615 159.952C54.3868 160.133 54.6428 160.389 54.8295 160.72C55.0162 161.051 55.1095 161.44 55.1095 161.888C55.1095 161.931 55.1068 161.979 55.1015 162.032C55.1015 162.085 55.0988 162.136 55.0935 162.184H51.5335V161.52H54.5655L54.1735 161.728C54.1788 161.483 54.1282 161.267 54.0215 161.08C53.9148 160.893 53.7682 160.747 53.5815 160.64C53.4002 160.533 53.1895 160.48 52.9495 160.48C52.7042 160.48 52.4882 160.533 52.3015 160.64C52.1202 160.747 51.9762 160.896 51.8695 161.088C51.7682 161.275 51.7175 161.496 51.7175 161.752V161.912C51.7175 162.168 51.7762 162.395 51.8935 162.592C52.0108 162.789 52.1762 162.941 52.3895 163.048C52.6028 163.155 52.8482 163.208 53.1255 163.208C53.3655 163.208 53.5815 163.171 53.7735 163.096C53.9655 163.021 54.1362 162.904 54.2855 162.744L54.8215 163.36C54.6295 163.584 54.3868 163.757 54.0935 163.88C53.8055 163.997 53.4748 164.056 53.1015 164.056ZM58.4941 159.68C58.8354 159.68 59.1394 159.747 59.4061 159.88C59.6781 160.013 59.8914 160.219 60.0461 160.496C60.2007 160.768 60.2781 161.12 60.2781 161.552V164H59.2781V161.68C59.2781 161.301 59.1874 161.019 59.0061 160.832C58.8301 160.645 58.5821 160.552 58.2621 160.552C58.0274 160.552 57.8194 160.6 57.6381 160.696C57.4567 160.792 57.3154 160.936 57.2141 161.128C57.1181 161.315 57.0701 161.552 57.0701 161.84V164H56.0701V159.728H57.0221V160.88L56.8541 160.528C57.0034 160.256 57.2194 160.048 57.5021 159.904C57.7901 159.755 58.1207 159.68 58.4941 159.68ZM63.1546 164.056C62.6853 164.056 62.3226 163.936 62.0666 163.696C61.8106 163.451 61.6826 163.091 61.6826 162.616V158.784H62.6826V162.592C62.6826 162.795 62.7333 162.952 62.8346 163.064C62.9413 163.176 63.088 163.232 63.2746 163.232C63.4986 163.232 63.6853 163.173 63.8346 163.056L64.1146 163.768C63.9973 163.864 63.8533 163.936 63.6826 163.984C63.512 164.032 63.336 164.056 63.1546 164.056ZM60.9786 160.56V159.76H63.8266V160.56H60.9786ZM68.7562 164.056C68.2869 164.056 67.9242 163.936 67.6682 163.696C67.4122 163.451 67.2842 163.091 67.2842 162.616V158.784H68.2842V162.592C68.2842 162.795 68.3349 162.952 68.4362 163.064C68.5429 163.176 68.6895 163.232 68.8762 163.232C69.1002 163.232 69.2869 163.173 69.4362 163.056L69.7162 163.768C69.5989 163.864 69.4549 163.936 69.2842 163.984C69.1135 164.032 68.9375 164.056 68.7562 164.056ZM66.5802 160.56V159.76H69.4282V160.56H66.5802ZM72.3182 164.056C71.8809 164.056 71.4915 163.963 71.1502 163.776C70.8089 163.584 70.5395 163.323 70.3422 162.992C70.1449 162.661 70.0462 162.285 70.0462 161.864C70.0462 161.437 70.1449 161.061 70.3422 160.736C70.5395 160.405 70.8089 160.147 71.1502 159.96C71.4915 159.773 71.8809 159.68 72.3182 159.68C72.7609 159.68 73.1529 159.773 73.4942 159.96C73.8409 160.147 74.1102 160.403 74.3022 160.728C74.4995 161.053 74.5982 161.432 74.5982 161.864C74.5982 162.285 74.4995 162.661 74.3022 162.992C74.1102 163.323 73.8409 163.584 73.4942 163.776C73.1529 163.963 72.7609 164.056 72.3182 164.056ZM72.3182 163.2C72.5635 163.2 72.7822 163.147 72.9742 163.04C73.1662 162.933 73.3155 162.779 73.4222 162.576C73.5342 162.373 73.5902 162.136 73.5902 161.864C73.5902 161.587 73.5342 161.349 73.4222 161.152C73.3155 160.949 73.1662 160.795 72.9742 160.688C72.7822 160.581 72.5662 160.528 72.3262 160.528C72.0809 160.528 71.8622 160.581 71.6702 160.688C71.4835 160.795 71.3342 160.949 71.2222 161.152C71.1102 161.349 71.0542 161.587 71.0542 161.864C71.0542 162.136 71.1102 162.373 71.2222 162.576C71.3342 162.779 71.4835 162.933 71.6702 163.04C71.8622 163.147 72.0782 163.2 72.3182 163.2ZM79.0854 164.056C78.728 164.056 78.384 164.011 78.0534 163.92C77.728 163.824 77.4694 163.709 77.2774 163.576L77.6614 162.816C77.8534 162.939 78.0827 163.04 78.3494 163.12C78.616 163.2 78.8827 163.24 79.1494 163.24C79.464 163.24 79.6907 163.197 79.8294 163.112C79.9734 163.027 80.0454 162.912 80.0454 162.768C80.0454 162.651 79.9974 162.563 79.9014 162.504C79.8054 162.44 79.68 162.392 79.5254 162.36C79.3707 162.328 79.1974 162.299 79.0054 162.272C78.8187 162.245 78.6294 162.211 78.4374 162.168C78.2507 162.12 78.08 162.053 77.9254 161.968C77.7707 161.877 77.6454 161.757 77.5494 161.608C77.4534 161.459 77.4054 161.261 77.4054 161.016C77.4054 160.744 77.4827 160.509 77.6374 160.312C77.792 160.109 78.008 159.955 78.2854 159.848C78.568 159.736 78.9014 159.68 79.2854 159.68C79.5734 159.68 79.864 159.712 80.1574 159.776C80.4507 159.84 80.6934 159.931 80.8854 160.048L80.5014 160.808C80.2987 160.685 80.0934 160.603 79.8854 160.56C79.6827 160.512 79.48 160.488 79.2774 160.488C78.9734 160.488 78.7467 160.533 78.5974 160.624C78.4534 160.715 78.3814 160.829 78.3814 160.968C78.3814 161.096 78.4294 161.192 78.5254 161.256C78.6214 161.32 78.7467 161.371 78.9014 161.408C79.056 161.445 79.2267 161.477 79.4134 161.504C79.6054 161.525 79.7947 161.56 79.9814 161.608C80.168 161.656 80.3387 161.723 80.4934 161.808C80.6534 161.888 80.7814 162.003 80.8774 162.152C80.9734 162.301 81.0214 162.496 81.0214 162.736C81.0214 163.003 80.9414 163.235 80.7814 163.432C80.6267 163.629 80.4054 163.784 80.1174 163.896C79.8294 164.003 79.4854 164.056 79.0854 164.056ZM84.3066 159.68C84.6479 159.68 84.9519 159.747 85.2186 159.88C85.4906 160.013 85.7039 160.219 85.8586 160.496C86.0132 160.768 86.0906 161.12 86.0906 161.552V164H85.0906V161.68C85.0906 161.301 84.9999 161.019 84.8186 160.832C84.6426 160.645 84.3946 160.552 84.0746 160.552C83.8399 160.552 83.6319 160.6 83.4506 160.696C83.2692 160.792 83.1279 160.936 83.0266 161.128C82.9306 161.315 82.8826 161.552 82.8826 161.84V164H81.8826V158.064H82.8826V160.88L82.6666 160.528C82.8159 160.256 83.0319 160.048 83.3146 159.904C83.6026 159.755 83.9332 159.68 84.3066 159.68ZM89.2869 164.056C88.8496 164.056 88.4603 163.963 88.1189 163.776C87.7776 163.584 87.5083 163.323 87.3109 162.992C87.1136 162.661 87.0149 162.285 87.0149 161.864C87.0149 161.437 87.1136 161.061 87.3109 160.736C87.5083 160.405 87.7776 160.147 88.1189 159.96C88.4603 159.773 88.8496 159.68 89.2869 159.68C89.7296 159.68 90.1216 159.773 90.4629 159.96C90.8096 160.147 91.0789 160.403 91.2709 160.728C91.4683 161.053 91.5669 161.432 91.5669 161.864C91.5669 162.285 91.4683 162.661 91.2709 162.992C91.0789 163.323 90.8096 163.584 90.4629 163.776C90.1216 163.963 89.7296 164.056 89.2869 164.056ZM89.2869 163.2C89.5323 163.2 89.7509 163.147 89.9429 163.04C90.1349 162.933 90.2843 162.779 90.3909 162.576C90.5029 162.373 90.5589 162.136 90.5589 161.864C90.5589 161.587 90.5029 161.349 90.3909 161.152C90.2843 160.949 90.1349 160.795 89.9429 160.688C89.7509 160.581 89.5349 160.528 89.2949 160.528C89.0496 160.528 88.8309 160.581 88.6389 160.688C88.4523 160.795 88.3029 160.949 88.1909 161.152C88.0789 161.349 88.0229 161.587 88.0229 161.864C88.0229 162.136 88.0789 162.373 88.1909 162.576C88.3029 162.779 88.4523 162.933 88.6389 163.04C88.8309 163.147 89.0469 163.2 89.2869 163.2ZM93.35 164L91.782 159.728H92.726L94.07 163.496H93.622L95.03 159.728H95.87L97.238 163.496H96.798L98.182 159.728H99.07L97.494 164H96.534L95.286 160.664H95.582L94.31 164H93.35ZM101.6 164.056C101.152 164.056 100.752 163.963 100.4 163.776C100.054 163.584 99.7817 163.323 99.5844 162.992C99.387 162.661 99.2884 162.285 99.2884 161.864C99.2884 161.437 99.387 161.061 99.5844 160.736C99.7817 160.405 100.054 160.147 100.4 159.96C100.752 159.773 101.152 159.68 101.6 159.68C102.016 159.68 102.382 159.765 102.696 159.936C103.016 160.101 103.259 160.347 103.424 160.672L102.656 161.12C102.528 160.917 102.371 160.768 102.184 160.672C102.003 160.576 101.806 160.528 101.592 160.528C101.347 160.528 101.126 160.581 100.928 160.688C100.731 160.795 100.576 160.949 100.464 161.152C100.352 161.349 100.296 161.587 100.296 161.864C100.296 162.141 100.352 162.381 100.464 162.584C100.576 162.781 100.731 162.933 100.928 163.04C101.126 163.147 101.347 163.2 101.592 163.2C101.806 163.2 102.003 163.152 102.184 163.056C102.371 162.96 102.528 162.811 102.656 162.608L103.424 163.056C103.259 163.376 103.016 163.624 102.696 163.8C102.382 163.971 102.016 164.056 101.6 164.056ZM106.921 164V163.136L106.865 162.952V161.44C106.865 161.147 106.777 160.92 106.601 160.76C106.425 160.595 106.158 160.512 105.801 160.512C105.561 160.512 105.323 160.549 105.089 160.624C104.859 160.699 104.665 160.803 104.505 160.936L104.113 160.208C104.342 160.032 104.614 159.901 104.929 159.816C105.249 159.725 105.579 159.68 105.921 159.68C106.539 159.68 107.017 159.829 107.353 160.128C107.694 160.421 107.865 160.877 107.865 161.496V164H106.921ZM105.577 164.056C105.257 164.056 104.977 164.003 104.737 163.896C104.497 163.784 104.31 163.632 104.177 163.44C104.049 163.243 103.985 163.021 103.985 162.776C103.985 162.536 104.041 162.32 104.153 162.128C104.27 161.936 104.459 161.784 104.721 161.672C104.982 161.56 105.329 161.504 105.761 161.504H107.001V162.168H105.833C105.491 162.168 105.262 162.224 105.145 162.336C105.027 162.443 104.969 162.576 104.969 162.736C104.969 162.917 105.041 163.061 105.185 163.168C105.329 163.275 105.529 163.328 105.785 163.328C106.03 163.328 106.249 163.272 106.441 163.16C106.638 163.048 106.779 162.883 106.865 162.664L107.033 163.264C106.937 163.515 106.763 163.709 106.513 163.848C106.267 163.987 105.955 164.056 105.577 164.056ZM110.468 164.056C110.111 164.056 109.767 164.011 109.436 163.92C109.111 163.824 108.852 163.709 108.66 163.576L109.044 162.816C109.236 162.939 109.466 163.04 109.732 163.12C109.999 163.2 110.266 163.24 110.532 163.24C110.847 163.24 111.074 163.197 111.212 163.112C111.356 163.027 111.428 162.912 111.428 162.768C111.428 162.651 111.38 162.563 111.284 162.504C111.188 162.44 111.063 162.392 110.908 162.36C110.754 162.328 110.58 162.299 110.388 162.272C110.202 162.245 110.012 162.211 109.82 162.168C109.634 162.12 109.463 162.053 109.308 161.968C109.154 161.877 109.028 161.757 108.932 161.608C108.836 161.459 108.788 161.261 108.788 161.016C108.788 160.744 108.866 160.509 109.02 160.312C109.175 160.109 109.391 159.955 109.668 159.848C109.951 159.736 110.284 159.68 110.668 159.68C110.956 159.68 111.247 159.712 111.54 159.776C111.834 159.84 112.076 159.931 112.268 160.048L111.884 160.808C111.682 160.685 111.476 160.603 111.268 160.56C111.066 160.512 110.863 160.488 110.66 160.488C110.356 160.488 110.13 160.533 109.98 160.624C109.836 160.715 109.764 160.829 109.764 160.968C109.764 161.096 109.812 161.192 109.908 161.256C110.004 161.32 110.13 161.371 110.284 161.408C110.439 161.445 110.61 161.477 110.796 161.504C110.988 161.525 111.178 161.56 111.364 161.608C111.551 161.656 111.722 161.723 111.876 161.808C112.036 161.888 112.164 162.003 112.26 162.152C112.356 162.301 112.404 162.496 112.404 162.736C112.404 163.003 112.324 163.235 112.164 163.432C112.01 163.629 111.788 163.784 111.5 163.896C111.212 164.003 110.868 164.056 110.468 164.056ZM115.273 164.056C114.799 164.056 114.383 163.963 114.025 163.776C113.673 163.584 113.399 163.323 113.201 162.992C113.009 162.661 112.913 162.285 112.913 161.864C112.913 161.437 113.007 161.061 113.193 160.736C113.385 160.405 113.647 160.147 113.977 159.96C114.313 159.773 114.695 159.68 115.121 159.68C115.537 159.68 115.908 159.771 116.233 159.952C116.559 160.133 116.815 160.389 117.001 160.72C117.188 161.051 117.281 161.44 117.281 161.888C117.281 161.931 117.279 161.979 117.273 162.032C117.273 162.085 117.271 162.136 117.265 162.184H113.705V161.52H116.737L116.345 161.728C116.351 161.483 116.3 161.267 116.193 161.08C116.087 160.893 115.94 160.747 115.753 160.64C115.572 160.533 115.361 160.48 115.121 160.48C114.876 160.48 114.66 160.533 114.473 160.64C114.292 160.747 114.148 160.896 114.041 161.088C113.94 161.275 113.889 161.496 113.889 161.752V161.912C113.889 162.168 113.948 162.395 114.065 162.592C114.183 162.789 114.348 162.941 114.561 163.048C114.775 163.155 115.02 163.208 115.297 163.208C115.537 163.208 115.753 163.171 115.945 163.096C116.137 163.021 116.308 162.904 116.457 162.744L116.993 163.36C116.801 163.584 116.559 163.757 116.265 163.88C115.977 163.997 115.647 164.056 115.273 164.056ZM122.061 164.056C121.592 164.056 121.229 163.936 120.973 163.696C120.717 163.451 120.589 163.091 120.589 162.616V158.784H121.589V162.592C121.589 162.795 121.64 162.952 121.741 163.064C121.848 163.176 121.994 163.232 122.181 163.232C122.405 163.232 122.592 163.173 122.741 163.056L123.021 163.768C122.904 163.864 122.76 163.936 122.589 163.984C122.418 164.032 122.242 164.056 122.061 164.056ZM119.885 160.56V159.76H122.733V160.56H119.885ZM126.268 159.68C126.609 159.68 126.913 159.747 127.18 159.88C127.452 160.013 127.665 160.219 127.82 160.496C127.974 160.768 128.052 161.12 128.052 161.552V164H127.052V161.68C127.052 161.301 126.961 161.019 126.78 160.832C126.604 160.645 126.356 160.552 126.036 160.552C125.801 160.552 125.593 160.6 125.412 160.696C125.23 160.792 125.089 160.936 124.988 161.128C124.892 161.315 124.844 161.552 124.844 161.84V164H123.844V158.064H124.844V160.88L124.628 160.528C124.777 160.256 124.993 160.048 125.276 159.904C125.564 159.755 125.894 159.68 126.268 159.68ZM131.336 164.056C130.861 164.056 130.445 163.963 130.088 163.776C129.736 163.584 129.461 163.323 129.264 162.992C129.072 162.661 128.976 162.285 128.976 161.864C128.976 161.437 129.069 161.061 129.256 160.736C129.448 160.405 129.709 160.147 130.04 159.96C130.376 159.773 130.757 159.68 131.184 159.68C131.6 159.68 131.971 159.771 132.296 159.952C132.621 160.133 132.877 160.389 133.064 160.72C133.251 161.051 133.344 161.44 133.344 161.888C133.344 161.931 133.341 161.979 133.336 162.032C133.336 162.085 133.333 162.136 133.328 162.184H129.768V161.52H132.8L132.408 161.728C132.413 161.483 132.363 161.267 132.256 161.08C132.149 160.893 132.003 160.747 131.816 160.64C131.635 160.533 131.424 160.48 131.184 160.48C130.939 160.48 130.723 160.533 130.536 160.64C130.355 160.747 130.211 160.896 130.104 161.088C130.003 161.275 129.952 161.496 129.952 161.752V161.912C129.952 162.168 130.011 162.395 130.128 162.592C130.245 162.789 130.411 162.941 130.624 163.048C130.837 163.155 131.083 163.208 131.36 163.208C131.6 163.208 131.816 163.171 132.008 163.096C132.2 163.021 132.371 162.904 132.52 162.744L133.056 163.36C132.864 163.584 132.621 163.757 132.328 163.88C132.04 163.997 131.709 164.056 131.336 164.056ZM23.6027 169.68C23.944 169.68 24.2454 169.747 24.5067 169.88C24.7734 170.013 24.9814 170.219 25.1307 170.496C25.28 170.768 25.3547 171.12 25.3547 171.552V174H24.3547V171.68C24.3547 171.301 24.272 171.019 24.1067 170.832C23.9414 170.645 23.704 170.552 23.3947 170.552C23.176 170.552 22.9814 170.6 22.8107 170.696C22.6454 170.792 22.5147 170.933 22.4187 171.12C22.328 171.307 22.2827 171.544 22.2827 171.832V174H21.2827V171.68C21.2827 171.301 21.2 171.019 21.0347 170.832C20.8694 170.645 20.632 170.552 20.3227 170.552C20.104 170.552 19.9094 170.6 19.7387 170.696C19.5734 170.792 19.4427 170.933 19.3467 171.12C19.256 171.307 19.2107 171.544 19.2107 171.832V174H18.2107V169.728H19.1627V170.864L18.9947 170.528C19.1387 170.251 19.3467 170.04 19.6187 169.896C19.896 169.752 20.2107 169.68 20.5627 169.68C20.9627 169.68 21.3094 169.779 21.6027 169.976C21.9014 170.173 22.0987 170.472 22.1947 170.872L21.8027 170.736C21.9414 170.416 22.1707 170.16 22.4907 169.968C22.8107 169.776 23.1814 169.68 23.6027 169.68ZM29.2646 174V173.136L29.2086 172.952V171.44C29.2086 171.147 29.1206 170.92 28.9446 170.76C28.7686 170.595 28.5019 170.512 28.1446 170.512C27.9046 170.512 27.6672 170.549 27.4326 170.624C27.2032 170.699 27.0086 170.803 26.8486 170.936L26.4566 170.208C26.6859 170.032 26.9579 169.901 27.2726 169.816C27.5926 169.725 27.9232 169.68 28.2646 169.68C28.8832 169.68 29.3606 169.829 29.6966 170.128C30.0379 170.421 30.2086 170.877 30.2086 171.496V174H29.2646ZM27.9206 174.056C27.6006 174.056 27.3206 174.003 27.0806 173.896C26.8406 173.784 26.6539 173.632 26.5206 173.44C26.3926 173.243 26.3286 173.021 26.3286 172.776C26.3286 172.536 26.3846 172.32 26.4966 172.128C26.6139 171.936 26.8032 171.784 27.0646 171.672C27.3259 171.56 27.6726 171.504 28.1046 171.504H29.3446V172.168H28.1766C27.8352 172.168 27.6059 172.224 27.4886 172.336C27.3712 172.443 27.3126 172.576 27.3126 172.736C27.3126 172.917 27.3846 173.061 27.5286 173.168C27.6726 173.275 27.8726 173.328 28.1286 173.328C28.3739 173.328 28.5926 173.272 28.7846 173.16C28.9819 173.048 29.1232 172.883 29.2086 172.664L29.3766 173.264C29.2806 173.515 29.1072 173.709 28.8566 173.848C28.6112 173.987 28.2992 174.056 27.9206 174.056ZM31.4919 174V169.728H32.4439V170.904L32.3319 170.56C32.4599 170.272 32.6599 170.053 32.9319 169.904C33.2093 169.755 33.5533 169.68 33.9639 169.68V170.632C33.9213 170.621 33.8813 170.616 33.8439 170.616C33.8066 170.611 33.7693 170.608 33.7319 170.608C33.3533 170.608 33.0519 170.72 32.8279 170.944C32.6039 171.163 32.4919 171.491 32.4919 171.928V174H31.4919ZM35.6283 173.048L35.6523 171.792L37.8843 169.728H39.0843L37.1883 171.632L36.6603 172.072L35.6283 173.048ZM34.8123 174V168.064H35.8123V174H34.8123ZM38.0363 174L36.4763 172.072L37.1083 171.272L39.2523 174H38.0363ZM41.7265 174.056C41.2518 174.056 40.8358 173.963 40.4785 173.776C40.1265 173.584 39.8518 173.323 39.6545 172.992C39.4625 172.661 39.3665 172.285 39.3665 171.864C39.3665 171.437 39.4598 171.061 39.6465 170.736C39.8385 170.405 40.0998 170.147 40.4305 169.96C40.7665 169.773 41.1478 169.68 41.5745 169.68C41.9905 169.68 42.3612 169.771 42.6865 169.952C43.0118 170.133 43.2678 170.389 43.4545 170.72C43.6412 171.051 43.7345 171.44 43.7345 171.888C43.7345 171.931 43.7318 171.979 43.7265 172.032C43.7265 172.085 43.7238 172.136 43.7185 172.184H40.1585V171.52H43.1905L42.7985 171.728C42.8038 171.483 42.7532 171.267 42.6465 171.08C42.5398 170.893 42.3932 170.747 42.2065 170.64C42.0252 170.533 41.8145 170.48 41.5745 170.48C41.3292 170.48 41.1132 170.533 40.9265 170.64C40.7452 170.747 40.6012 170.896 40.4945 171.088C40.3932 171.275 40.3425 171.496 40.3425 171.752V171.912C40.3425 172.168 40.4012 172.395 40.5185 172.592C40.6358 172.789 40.8012 172.941 41.0145 173.048C41.2278 173.155 41.4732 173.208 41.7505 173.208C41.9905 173.208 42.2065 173.171 42.3985 173.096C42.5905 173.021 42.7612 172.904 42.9105 172.744L43.4465 173.36C43.2545 173.584 43.0118 173.757 42.7185 173.88C42.4305 173.997 42.0998 174.056 41.7265 174.056ZM46.3031 174.056C45.8337 174.056 45.4711 173.936 45.2151 173.696C44.9591 173.451 44.8311 173.091 44.8311 172.616V168.784H45.8311V172.592C45.8311 172.795 45.8817 172.952 45.9831 173.064C46.0897 173.176 46.2364 173.232 46.4231 173.232C46.6471 173.232 46.8337 173.173 46.9831 173.056L47.2631 173.768C47.1457 173.864 47.0017 173.936 46.8311 173.984C46.6604 174.032 46.4844 174.056 46.3031 174.056ZM44.1271 170.56V169.76H46.9751V170.56H44.1271ZM49.9531 174.056C49.4784 174.056 49.0624 173.963 48.7051 173.776C48.3531 173.584 48.0784 173.323 47.8811 172.992C47.6891 172.661 47.5931 172.285 47.5931 171.864C47.5931 171.437 47.6864 171.061 47.8731 170.736C48.0651 170.405 48.3264 170.147 48.6571 169.96C48.9931 169.773 49.3744 169.68 49.8011 169.68C50.2171 169.68 50.5877 169.771 50.9131 169.952C51.2384 170.133 51.4944 170.389 51.6811 170.72C51.8677 171.051 51.9611 171.44 51.9611 171.888C51.9611 171.931 51.9584 171.979 51.9531 172.032C51.9531 172.085 51.9504 172.136 51.9451 172.184H48.3851V171.52H51.4171L51.0251 171.728C51.0304 171.483 50.9797 171.267 50.8731 171.08C50.7664 170.893 50.6197 170.747 50.4331 170.64C50.2517 170.533 50.0411 170.48 49.8011 170.48C49.5557 170.48 49.3397 170.533 49.1531 170.64C48.9717 170.747 48.8277 170.896 48.7211 171.088C48.6197 171.275 48.5691 171.496 48.5691 171.752V171.912C48.5691 172.168 48.6277 172.395 48.7451 172.592C48.8624 172.789 49.0277 172.941 49.2411 173.048C49.4544 173.155 49.6997 173.208 49.9771 173.208C50.2171 173.208 50.4331 173.171 50.6251 173.096C50.8171 173.021 50.9877 172.904 51.1371 172.744L51.6731 173.36C51.4811 173.584 51.2384 173.757 50.9451 173.88C50.6571 173.997 50.3264 174.056 49.9531 174.056ZM52.9216 174V169.728H53.8736V170.904L53.7616 170.56C53.8896 170.272 54.0896 170.053 54.3616 169.904C54.639 169.755 54.983 169.68 55.3936 169.68V170.632C55.351 170.621 55.311 170.616 55.2736 170.616C55.2363 170.611 55.199 170.608 55.1616 170.608C54.783 170.608 54.4816 170.72 54.2576 170.944C54.0336 171.163 53.9216 171.491 53.9216 171.928V174H52.9216ZM55.0647 174.8L57.7047 167.264H58.6007L55.9607 174.8H55.0647ZM61.038 174V173.136L60.982 172.952V171.44C60.982 171.147 60.894 170.92 60.718 170.76C60.542 170.595 60.2753 170.512 59.918 170.512C59.678 170.512 59.4407 170.549 59.206 170.624C58.9767 170.699 58.782 170.803 58.622 170.936L58.23 170.208C58.4593 170.032 58.7313 169.901 59.046 169.816C59.366 169.725 59.6967 169.68 60.038 169.68C60.6567 169.68 61.134 169.829 61.47 170.128C61.8113 170.421 61.982 170.877 61.982 171.496V174H61.038ZM59.694 174.056C59.374 174.056 59.094 174.003 58.854 173.896C58.614 173.784 58.4273 173.632 58.294 173.44C58.166 173.243 58.102 173.021 58.102 172.776C58.102 172.536 58.158 172.32 58.27 172.128C58.3873 171.936 58.5767 171.784 58.838 171.672C59.0993 171.56 59.446 171.504 59.878 171.504H61.118V172.168H59.95C59.6087 172.168 59.3793 172.224 59.262 172.336C59.1447 172.443 59.086 172.576 59.086 172.736C59.086 172.917 59.158 173.061 59.302 173.168C59.446 173.275 59.646 173.328 59.902 173.328C60.1473 173.328 60.366 173.272 60.558 173.16C60.7553 173.048 60.8967 172.883 60.982 172.664L61.15 173.264C61.054 173.515 60.8807 173.709 60.63 173.848C60.3847 173.987 60.0727 174.056 59.694 174.056ZM65.0812 174.056C64.6705 174.056 64.2999 173.965 63.9692 173.784C63.6439 173.597 63.3879 173.341 63.2012 173.016C63.0145 172.691 62.9212 172.307 62.9212 171.864C62.9212 171.421 63.0145 171.037 63.2012 170.712C63.3879 170.387 63.6439 170.133 63.9692 169.952C64.2999 169.771 64.6705 169.68 65.0812 169.68C65.4385 169.68 65.7585 169.76 66.0412 169.92C66.3239 170.075 66.5479 170.312 66.7132 170.632C66.8785 170.952 66.9612 171.363 66.9612 171.864C66.9612 172.36 66.8812 172.771 66.7212 173.096C66.5612 173.416 66.3399 173.656 66.0572 173.816C65.7745 173.976 65.4492 174.056 65.0812 174.056ZM65.2012 173.2C65.4412 173.2 65.6545 173.147 65.8412 173.04C66.0332 172.933 66.1852 172.779 66.2972 172.576C66.4145 172.373 66.4732 172.136 66.4732 171.864C66.4732 171.587 66.4145 171.349 66.2972 171.152C66.1852 170.949 66.0332 170.795 65.8412 170.688C65.6545 170.581 65.4412 170.528 65.2012 170.528C64.9612 170.528 64.7452 170.581 64.5532 170.688C64.3665 170.795 64.2145 170.949 64.0972 171.152C63.9852 171.349 63.9292 171.587 63.9292 171.864C63.9292 172.136 63.9852 172.373 64.0972 172.576C64.2145 172.779 64.3665 172.933 64.5532 173.04C64.7452 173.147 64.9612 173.2 65.2012 173.2ZM66.4972 174V172.992L66.5372 171.856L66.4572 170.72V168.064H67.4492V174H66.4972ZM69.9014 174L68.0694 169.728H69.1094L70.6854 173.496H70.1734L71.8054 169.728H72.7654L70.9334 174H69.9014ZM75.2812 174.056C74.8065 174.056 74.3905 173.963 74.0332 173.776C73.6812 173.584 73.4065 173.323 73.2092 172.992C73.0172 172.661 72.9212 172.285 72.9212 171.864C72.9212 171.437 73.0145 171.061 73.2012 170.736C73.3932 170.405 73.6545 170.147 73.9852 169.96C74.3212 169.773 74.7025 169.68 75.1292 169.68C75.5452 169.68 75.9159 169.771 76.2412 169.952C76.5665 170.133 76.8225 170.389 77.0092 170.72C77.1959 171.051 77.2892 171.44 77.2892 171.888C77.2892 171.931 77.2865 171.979 77.2812 172.032C77.2812 172.085 77.2785 172.136 77.2732 172.184H73.7132V171.52H76.7452L76.3532 171.728C76.3585 171.483 76.3079 171.267 76.2012 171.08C76.0945 170.893 75.9479 170.747 75.7612 170.64C75.5799 170.533 75.3692 170.48 75.1292 170.48C74.8839 170.48 74.6679 170.533 74.4812 170.64C74.2999 170.747 74.1559 170.896 74.0492 171.088C73.9479 171.275 73.8972 171.496 73.8972 171.752V171.912C73.8972 172.168 73.9559 172.395 74.0732 172.592C74.1905 172.789 74.3559 172.941 74.5692 173.048C74.7825 173.155 75.0279 173.208 75.3052 173.208C75.5452 173.208 75.7612 173.171 75.9532 173.096C76.1452 173.021 76.3159 172.904 76.4652 172.744L77.0012 173.36C76.8092 173.584 76.5665 173.757 76.2732 173.88C75.9852 173.997 75.6545 174.056 75.2812 174.056ZM78.2498 174V169.728H79.2018V170.904L79.0898 170.56C79.2178 170.272 79.4178 170.053 79.6898 169.904C79.9671 169.755 80.3111 169.68 80.7218 169.68V170.632C80.6791 170.621 80.6391 170.616 80.6018 170.616C80.5644 170.611 80.5271 170.608 80.4898 170.608C80.1111 170.608 79.8098 170.72 79.5858 170.944C79.3618 171.163 79.2498 171.491 79.2498 171.928V174H78.2498ZM83.3343 174.056C82.865 174.056 82.5023 173.936 82.2463 173.696C81.9903 173.451 81.8623 173.091 81.8623 172.616V168.784H82.8623V172.592C82.8623 172.795 82.913 172.952 83.0143 173.064C83.121 173.176 83.2676 173.232 83.4543 173.232C83.6783 173.232 83.865 173.173 84.0143 173.056L84.2943 173.768C84.177 173.864 84.033 173.936 83.8623 173.984C83.6916 174.032 83.5156 174.056 83.3343 174.056ZM81.1583 170.56V169.76H84.0063V170.56H81.1583ZM85.1169 174V169.728H86.1169V174H85.1169ZM85.6209 169.024C85.4343 169.024 85.2796 168.965 85.1569 168.848C85.0396 168.731 84.9809 168.589 84.9809 168.424C84.9809 168.253 85.0396 168.112 85.1569 168C85.2796 167.883 85.4343 167.824 85.6209 167.824C85.8076 167.824 85.9596 167.88 86.0769 167.992C86.1996 168.099 86.2609 168.235 86.2609 168.4C86.2609 168.576 86.2023 168.725 86.0849 168.848C85.9676 168.965 85.8129 169.024 85.6209 169.024ZM88.7494 174.056C88.3921 174.056 88.0481 174.011 87.7174 173.92C87.3921 173.824 87.1334 173.709 86.9414 173.576L87.3254 172.816C87.5174 172.939 87.7468 173.04 88.0134 173.12C88.2801 173.2 88.5468 173.24 88.8134 173.24C89.1281 173.24 89.3548 173.197 89.4934 173.112C89.6374 173.027 89.7094 172.912 89.7094 172.768C89.7094 172.651 89.6614 172.563 89.5654 172.504C89.4694 172.44 89.3441 172.392 89.1894 172.36C89.0348 172.328 88.8614 172.299 88.6694 172.272C88.4828 172.245 88.2934 172.211 88.1014 172.168C87.9148 172.12 87.7441 172.053 87.5894 171.968C87.4348 171.877 87.3094 171.757 87.2134 171.608C87.1174 171.459 87.0694 171.261 87.0694 171.016C87.0694 170.744 87.1468 170.509 87.3014 170.312C87.4561 170.109 87.6721 169.955 87.9494 169.848C88.2321 169.736 88.5654 169.68 88.9494 169.68C89.2374 169.68 89.5281 169.712 89.8214 169.776C90.1148 169.84 90.3574 169.931 90.5494 170.048L90.1654 170.808C89.9628 170.685 89.7574 170.603 89.5494 170.56C89.3468 170.512 89.1441 170.488 88.9414 170.488C88.6374 170.488 88.4108 170.533 88.2614 170.624C88.1174 170.715 88.0454 170.829 88.0454 170.968C88.0454 171.096 88.0934 171.192 88.1894 171.256C88.2854 171.32 88.4108 171.371 88.5654 171.408C88.7201 171.445 88.8908 171.477 89.0774 171.504C89.2694 171.525 89.4588 171.56 89.6454 171.608C89.8321 171.656 90.0028 171.723 90.1574 171.808C90.3174 171.888 90.4454 172.003 90.5414 172.152C90.6374 172.301 90.6854 172.496 90.6854 172.736C90.6854 173.003 90.6054 173.235 90.4454 173.432C90.2908 173.629 90.0694 173.784 89.7814 173.896C89.4934 174.003 89.1494 174.056 88.7494 174.056ZM93.5546 174.056C93.08 174.056 92.664 173.963 92.3066 173.776C91.9546 173.584 91.68 173.323 91.4826 172.992C91.2906 172.661 91.1946 172.285 91.1946 171.864C91.1946 171.437 91.288 171.061 91.4746 170.736C91.6666 170.405 91.928 170.147 92.2586 169.96C92.5946 169.773 92.976 169.68 93.4026 169.68C93.8186 169.68 94.1893 169.771 94.5146 169.952C94.84 170.133 95.096 170.389 95.2826 170.72C95.4693 171.051 95.5626 171.44 95.5626 171.888C95.5626 171.931 95.56 171.979 95.5546 172.032C95.5546 172.085 95.552 172.136 95.5466 172.184H91.9866V171.52H95.0186L94.6266 171.728C94.632 171.483 94.5813 171.267 94.4746 171.08C94.368 170.893 94.2213 170.747 94.0346 170.64C93.8533 170.533 93.6426 170.48 93.4026 170.48C93.1573 170.48 92.9413 170.533 92.7546 170.64C92.5733 170.747 92.4293 170.896 92.3226 171.088C92.2213 171.275 92.1706 171.496 92.1706 171.752V171.912C92.1706 172.168 92.2293 172.395 92.3466 172.592C92.464 172.789 92.6293 172.941 92.8426 173.048C93.056 173.155 93.3013 173.208 93.5786 173.208C93.8186 173.208 94.0346 173.171 94.2266 173.096C94.4186 173.021 94.5893 172.904 94.7386 172.744L95.2746 173.36C95.0826 173.584 94.84 173.757 94.5466 173.88C94.2586 173.997 93.928 174.056 93.5546 174.056ZM96.5232 174V169.728H97.4752V170.904L97.3632 170.56C97.4912 170.272 97.6912 170.053 97.9632 169.904C98.2405 169.755 98.5845 169.68 98.9952 169.68V170.632C98.9525 170.621 98.9125 170.616 98.8752 170.616C98.8379 170.611 98.8005 170.608 98.7632 170.608C98.3845 170.608 98.0832 170.72 97.8592 170.944C97.6352 171.163 97.5232 171.491 97.5232 171.928V174H96.5232ZM102.094 174V169.728H103.094V174H102.094ZM102.598 169.024C102.411 169.024 102.256 168.965 102.134 168.848C102.016 168.731 101.958 168.589 101.958 168.424C101.958 168.253 102.016 168.112 102.134 168C102.256 167.883 102.411 167.824 102.598 167.824C102.784 167.824 102.936 167.88 103.054 167.992C103.176 168.099 103.238 168.235 103.238 168.4C103.238 168.576 103.179 168.725 103.062 168.848C102.944 168.965 102.79 169.024 102.598 169.024ZM106.83 169.68C107.171 169.68 107.475 169.747 107.742 169.88C108.014 170.013 108.227 170.219 108.382 170.496C108.537 170.768 108.614 171.12 108.614 171.552V174H107.614V171.68C107.614 171.301 107.523 171.019 107.342 170.832C107.166 170.645 106.918 170.552 106.598 170.552C106.363 170.552 106.155 170.6 105.974 170.696C105.793 170.792 105.651 170.936 105.55 171.128C105.454 171.315 105.406 171.552 105.406 171.84V174H104.406V169.728H105.358V170.88L105.19 170.528C105.339 170.256 105.555 170.048 105.838 169.904C106.126 169.755 106.457 169.68 106.83 169.68ZM111.203 174.056C110.845 174.056 110.501 174.011 110.171 173.92C109.845 173.824 109.587 173.709 109.395 173.576L109.779 172.816C109.971 172.939 110.2 173.04 110.467 173.12C110.733 173.2 111 173.24 111.267 173.24C111.581 173.24 111.808 173.197 111.947 173.112C112.091 173.027 112.163 172.912 112.163 172.768C112.163 172.651 112.115 172.563 112.019 172.504C111.923 172.44 111.797 172.392 111.643 172.36C111.488 172.328 111.315 172.299 111.123 172.272C110.936 172.245 110.747 172.211 110.555 172.168C110.368 172.12 110.197 172.053 110.043 171.968C109.888 171.877 109.763 171.757 109.667 171.608C109.571 171.459 109.523 171.261 109.523 171.016C109.523 170.744 109.6 170.509 109.755 170.312C109.909 170.109 110.125 169.955 110.403 169.848C110.685 169.736 111.019 169.68 111.403 169.68C111.691 169.68 111.981 169.712 112.275 169.776C112.568 169.84 112.811 169.931 113.003 170.048L112.619 170.808C112.416 170.685 112.211 170.603 112.003 170.56C111.8 170.512 111.597 170.488 111.395 170.488C111.091 170.488 110.864 170.533 110.715 170.624C110.571 170.715 110.499 170.829 110.499 170.968C110.499 171.096 110.547 171.192 110.643 171.256C110.739 171.32 110.864 171.371 111.019 171.408C111.173 171.445 111.344 171.477 111.531 171.504C111.723 171.525 111.912 171.56 112.099 171.608C112.285 171.656 112.456 171.723 112.611 171.808C112.771 171.888 112.899 172.003 112.995 172.152C113.091 172.301 113.139 172.496 113.139 172.736C113.139 173.003 113.059 173.235 112.899 173.432C112.744 173.629 112.523 173.784 112.235 173.896C111.947 174.003 111.603 174.056 111.203 174.056ZM114 174V169.728H115V174H114ZM114.504 169.024C114.317 169.024 114.162 168.965 114.04 168.848C113.922 168.731 113.864 168.589 113.864 168.424C113.864 168.253 113.922 168.112 114.04 168C114.162 167.883 114.317 167.824 114.504 167.824C114.69 167.824 114.842 167.88 114.96 167.992C115.082 168.099 115.144 168.235 115.144 168.4C115.144 168.576 115.085 168.725 114.968 168.848C114.85 168.965 114.696 169.024 114.504 169.024ZM118.12 174.056C117.71 174.056 117.339 173.965 117.008 173.784C116.683 173.597 116.427 173.341 116.24 173.016C116.054 172.691 115.96 172.307 115.96 171.864C115.96 171.421 116.054 171.037 116.24 170.712C116.427 170.387 116.683 170.133 117.008 169.952C117.339 169.771 117.71 169.68 118.12 169.68C118.478 169.68 118.798 169.76 119.08 169.92C119.363 170.075 119.587 170.312 119.752 170.632C119.918 170.952 120 171.363 120 171.864C120 172.36 119.92 172.771 119.76 173.096C119.6 173.416 119.379 173.656 119.096 173.816C118.814 173.976 118.488 174.056 118.12 174.056ZM118.24 173.2C118.48 173.2 118.694 173.147 118.88 173.04C119.072 172.933 119.224 172.779 119.336 172.576C119.454 172.373 119.512 172.136 119.512 171.864C119.512 171.587 119.454 171.349 119.336 171.152C119.224 170.949 119.072 170.795 118.88 170.688C118.694 170.581 118.48 170.528 118.24 170.528C118 170.528 117.784 170.581 117.592 170.688C117.406 170.795 117.254 170.949 117.136 171.152C117.024 171.349 116.968 171.587 116.968 171.864C116.968 172.136 117.024 172.373 117.136 172.576C117.254 172.779 117.406 172.933 117.592 173.04C117.784 173.147 118 173.2 118.24 173.2ZM119.536 174V172.992L119.576 171.856L119.496 170.72V168.064H120.488V174H119.536ZM123.812 174.056C123.338 174.056 122.922 173.963 122.564 173.776C122.212 173.584 121.938 173.323 121.74 172.992C121.548 172.661 121.452 172.285 121.452 171.864C121.452 171.437 121.546 171.061 121.732 170.736C121.924 170.405 122.186 170.147 122.516 169.96C122.852 169.773 123.234 169.68 123.66 169.68C124.076 169.68 124.447 169.771 124.772 169.952C125.098 170.133 125.354 170.389 125.54 170.72C125.727 171.051 125.82 171.44 125.82 171.888C125.82 171.931 125.818 171.979 125.812 172.032C125.812 172.085 125.81 172.136 125.804 172.184H122.244V171.52H125.276L124.884 171.728C124.89 171.483 124.839 171.267 124.732 171.08C124.626 170.893 124.479 170.747 124.292 170.64C124.111 170.533 123.9 170.48 123.66 170.48C123.415 170.48 123.199 170.533 123.012 170.64C122.831 170.747 122.687 170.896 122.58 171.088C122.479 171.275 122.428 171.496 122.428 171.752V171.912C122.428 172.168 122.487 172.395 122.604 172.592C122.722 172.789 122.887 172.941 123.1 173.048C123.314 173.155 123.559 173.208 123.836 173.208C124.076 173.208 124.292 173.171 124.484 173.096C124.676 173.021 124.847 172.904 124.996 172.744L125.532 173.36C125.34 173.584 125.098 173.757 124.804 173.88C124.516 173.997 124.186 174.056 123.812 174.056ZM129.344 175.608C129.136 175.608 128.928 175.573 128.72 175.504C128.512 175.435 128.339 175.339 128.2 175.216L128.6 174.48C128.701 174.571 128.816 174.643 128.944 174.696C129.072 174.749 129.203 174.776 129.336 174.776C129.517 174.776 129.664 174.731 129.776 174.64C129.888 174.549 129.992 174.397 130.088 174.184L130.336 173.624L130.416 173.504L132.032 169.728H132.992L130.992 174.344C130.859 174.664 130.709 174.917 130.544 175.104C130.384 175.291 130.203 175.421 130 175.496C129.803 175.571 129.584 175.608 129.344 175.608ZM130.224 174.152L128.296 169.728H129.336L130.904 173.416L130.224 174.152ZM135.42 174.056C134.982 174.056 134.593 173.963 134.252 173.776C133.91 173.584 133.641 173.323 133.444 172.992C133.246 172.661 133.148 172.285 133.148 171.864C133.148 171.437 133.246 171.061 133.444 170.736C133.641 170.405 133.91 170.147 134.252 169.96C134.593 169.773 134.982 169.68 135.42 169.68C135.862 169.68 136.254 169.773 136.596 169.96C136.942 170.147 137.212 170.403 137.404 170.728C137.601 171.053 137.7 171.432 137.7 171.864C137.7 172.285 137.601 172.661 137.404 172.992C137.212 173.323 136.942 173.584 136.596 173.776C136.254 173.963 135.862 174.056 135.42 174.056ZM135.42 173.2C135.665 173.2 135.884 173.147 136.076 173.04C136.268 172.933 136.417 172.779 136.524 172.576C136.636 172.373 136.692 172.136 136.692 171.864C136.692 171.587 136.636 171.349 136.524 171.152C136.417 170.949 136.268 170.795 136.076 170.688C135.884 170.581 135.668 170.528 135.428 170.528C135.182 170.528 134.964 170.581 134.772 170.688C134.585 170.795 134.436 170.949 134.324 171.152C134.212 171.349 134.156 171.587 134.156 171.864C134.156 172.136 134.212 172.373 134.324 172.576C134.436 172.779 134.585 172.933 134.772 173.04C134.964 173.147 135.18 173.2 135.42 173.2ZM140.464 174.056C140.101 174.056 139.781 173.989 139.504 173.856C139.227 173.717 139.011 173.509 138.856 173.232C138.701 172.949 138.624 172.595 138.624 172.168V169.728H139.624V172.032C139.624 172.416 139.709 172.704 139.88 172.896C140.056 173.083 140.304 173.176 140.624 173.176C140.859 173.176 141.061 173.128 141.232 173.032C141.408 172.936 141.544 172.792 141.64 172.6C141.741 172.408 141.792 172.171 141.792 171.888V169.728H142.792V174H141.84V172.848L142.008 173.2C141.864 173.477 141.653 173.691 141.376 173.84C141.099 173.984 140.795 174.056 140.464 174.056Z" fill="#E8E3D2"/>
<g clip-path="url(#clip0_444_2976)">
<path d="M130 114.886H32V115H130V114.886Z" fill="#263238"/>
<path d="M102.859 109.975V42.1026C102.859 39.8778 101.047 38.0742 98.8112 38.0742H66.3786C64.1428 38.0742 62.3303 39.8778 62.3303 42.1026L62.3303 109.975C62.3303 112.2 64.1428 114.003 66.3786 114.003H98.8112C101.047 114.003 102.859 112.2 102.859 109.975Z" fill="#E8E3D2"/>
<path d="M98.5845 34.6689H66.604C65.8796 34.6689 65.1622 34.8108 64.493 35.0866C63.8237 35.3624 63.2156 35.7668 62.7033 36.2765C62.1911 36.7862 61.7848 37.3913 61.5076 38.0573C61.2304 38.7233 61.0878 39.4371 61.0879 40.1579V109.511C61.0879 110.967 61.669 112.363 62.7035 113.392C63.738 114.422 65.141 115 66.604 115H98.5845C100.047 115 101.45 114.422 102.485 113.392C103.519 112.363 104.1 110.967 104.1 109.511V40.1579C104.1 39.4371 103.957 38.7234 103.68 38.0574C103.403 37.3915 102.997 36.7864 102.485 36.2767C101.973 35.767 101.365 35.3626 100.695 35.0868C100.026 34.8109 99.3088 34.6689 98.5845 34.6689ZM102.577 106.664C102.577 107.717 102.157 108.727 101.408 109.472C100.66 110.217 99.6443 110.636 98.5856 110.636H66.604C65.5453 110.636 64.5301 110.217 63.7815 109.472C63.0329 108.727 62.6124 107.717 62.6124 106.664V42.3481C62.6124 41.2946 63.0329 40.2844 63.7815 39.5395C64.5301 38.7946 65.5453 38.3761 66.604 38.3761H98.5845C99.1088 38.376 99.6279 38.4786 100.112 38.6781C100.597 38.8777 101.037 39.1702 101.408 39.5391C101.778 39.9079 102.073 40.3458 102.273 40.8278C102.474 41.3098 102.577 41.8264 102.577 42.3481V106.664Z" fill="#263238"/>
<path d="M85.9507 36.933H79.2368C79.1274 36.933 79.0224 36.8897 78.9451 36.8127C78.8677 36.7357 78.8242 36.6313 78.8242 36.5224C78.8242 36.4135 78.8677 36.3091 78.9451 36.2321C79.0224 36.1551 79.1274 36.1118 79.2368 36.1118H85.9507C86.0601 36.1118 86.165 36.1551 86.2424 36.2321C86.3198 36.3091 86.3633 36.4135 86.3633 36.5224C86.3633 36.6313 86.3198 36.7357 86.2424 36.8127C86.165 36.8897 86.0601 36.933 85.9507 36.933Z" fill="#465A63"/>
<path d="M87.6314 36.9543C87.8592 36.9543 88.044 36.7608 88.044 36.5221C88.044 36.2834 87.8592 36.0898 87.6314 36.0898C87.4035 36.0898 87.2188 36.2834 87.2188 36.5221C87.2188 36.7608 87.4035 36.9543 87.6314 36.9543Z" fill="#465A63"/>
<path d="M100.016 78.1562H81.9629V88.8683H98.1191L100.016 90.6188V78.1562Z" fill="#7E9CFC"/>
<path d="M91.7983 84.3152C92.2437 83.872 92.2437 83.1534 91.7983 82.7102C91.3529 82.267 90.6308 82.267 90.1854 82.7102C89.74 83.1534 89.74 83.872 90.1854 84.3152C90.6308 84.7584 91.3529 84.7584 91.7983 84.3152Z" fill="white"/>
<path d="M95.6747 84.5607C96.2566 84.3208 96.533 83.6569 96.2919 83.0779C96.0509 82.4988 95.3837 82.2238 94.8018 82.4636C94.2198 82.7035 93.9435 83.3674 94.1845 83.9465C94.4256 84.5256 95.0927 84.8006 95.6747 84.5607Z" fill="white"/>
<path d="M87.7353 83.9466C87.9763 83.3675 87.7 82.7036 87.118 82.4637C86.5361 82.2238 85.8689 82.4988 85.6279 83.0779C85.3868 83.657 85.6632 84.3209 86.2451 84.5608C86.8271 84.8007 87.4942 84.5257 87.7353 83.9466Z" fill="white"/>
<path d="M65.1719 93.3789H83.2252V104.091H67.0684L65.1719 105.841V93.3789Z" fill="#AFC1FD"/>
<path d="M73.0606 98.6191C73.0367 98.8522 73.0858 99.087 73.2013 99.2912C73.3168 99.4954 73.493 99.659 73.7057 99.7596C73.9184 99.8602 74.1571 99.8928 74.3892 99.8529C74.6212 99.8131 74.8352 99.7027 75.0017 99.5371C75.1682 99.3714 75.2791 99.1584 75.3191 98.9275C75.3592 98.6966 75.3264 98.459 75.2253 98.2474C75.1243 98.0358 74.9598 97.8604 74.7546 97.7455C74.5494 97.6306 74.3135 97.5817 74.0792 97.6055C73.8182 97.6322 73.5744 97.7475 73.3889 97.9321C73.2033 98.1168 73.0874 98.3594 73.0606 98.6191Z" fill="white"/>
<path d="M68.8125 98.6192C68.7886 98.8523 68.8378 99.0871 68.9533 99.2913C69.0689 99.4955 69.2451 99.6591 69.4578 99.7597C69.6705 99.8602 69.9093 99.8928 70.1414 99.8529C70.3734 99.813 70.5874 99.7026 70.7539 99.5368C70.9203 99.3711 71.0312 99.1581 71.0711 98.9272C71.1111 98.6962 71.0783 98.4586 70.9771 98.247C70.8759 98.0354 70.7114 97.8601 70.5061 97.7453C70.3009 97.6304 70.0649 97.5816 69.8306 97.6056C69.5696 97.6322 69.3259 97.7476 69.1405 97.9322C68.955 98.1169 68.8392 98.3595 68.8125 98.6192Z" fill="white"/>
<path d="M77.3731 98.6192C77.3492 98.8523 77.3983 99.0871 77.5139 99.2913C77.6294 99.4955 77.8056 99.6591 78.0183 99.7597C78.2311 99.8602 78.4698 99.8928 78.7019 99.8529C78.934 99.813 79.1479 99.7026 79.3144 99.5368C79.4809 99.3711 79.5917 99.1581 79.6317 98.9272C79.6717 98.6962 79.6388 98.4586 79.5376 98.247C79.4365 98.0354 79.272 97.8601 79.0667 97.7453C78.8614 97.6304 78.6254 97.5816 78.3912 97.6056C78.1302 97.6322 77.8865 97.7476 77.701 97.9322C77.5156 98.1169 77.3998 98.3595 77.3731 98.6192Z" fill="white"/>
<path d="M100.015 49.2861H65.1719V73.9083H100.015V49.2861Z" fill="#AFC1FD"/>
<path d="M97.9245 71.103H67.2637V71.7152H97.9245V71.103Z" fill="#5E84FB"/>
<path d="M100.015 49.2861H65.1719V68.9091H100.015V49.2861Z" fill="#E7ECFE"/>
<path d="M86.2598 59.1247L78.9297 54.9136V63.3359L86.2598 59.1247Z" fill="#5E84FB"/>
<path d="M88.1456 72.7563C88.8934 72.448 89.2485 71.5949 88.9388 70.8508C88.629 70.1067 87.7717 69.7533 87.0239 70.0615C86.2761 70.3698 85.921 71.2229 86.2308 71.967C86.5405 72.7111 87.3978 73.0645 88.1456 72.7563Z" fill="white"/>
<path d="M60.6405 47.9971C63.8981 47.9971 66.5389 45.3693 66.5389 42.1277C66.5389 38.8861 63.8981 36.2583 60.6405 36.2583C57.383 36.2583 54.7422 38.8861 54.7422 42.1277C54.7422 45.3693 57.383 47.9971 60.6405 47.9971Z" fill="#7E9CFC"/>
<path d="M62.4881 39.2773C62.1047 39.2774 61.7289 39.3835 61.4027 39.584C61.0764 39.7844 60.8127 40.0712 60.6409 40.4123C60.4318 39.9983 60.0885 39.6666 59.6665 39.4709C59.2445 39.2751 58.7685 39.2268 58.3155 39.3336C57.8624 39.4404 57.4588 39.6962 57.17 40.0596C56.8811 40.4229 56.7239 40.8726 56.7237 41.3359C56.7237 41.3359 56.552 44.1325 60.5917 45.8853C60.6073 45.8921 60.6241 45.8956 60.6412 45.8956C60.6582 45.8956 60.675 45.8921 60.6907 45.8853C64.7309 44.1325 64.558 41.3359 64.558 41.3359C64.558 41.0655 64.5044 40.7978 64.4003 40.548C64.2962 40.2982 64.1437 40.0712 63.9515 39.8801C63.7593 39.6889 63.5312 39.5373 63.2801 39.4339C63.029 39.3305 62.7599 39.2773 62.4881 39.2773Z" fill="#E7ECFE"/>
<path d="M75.511 33.1054C75.9227 30.7311 74.3222 28.4742 71.9362 28.0645C69.5502 27.6549 67.2822 29.2475 66.8705 31.6218C66.4588 33.9961 68.0593 36.253 70.4453 36.6627C72.8313 37.0724 75.0993 35.4797 75.511 33.1054Z" fill="#AFC1FD"/>
<path d="M70.2793 31.4619V34.1156C70.2794 34.1379 70.2876 34.1594 70.3025 34.176C70.3173 34.1927 70.3378 34.2034 70.36 34.2062L71.1869 34.3092C71.4027 34.3361 71.6201 34.3496 71.8376 34.3497H73.1767C73.2618 34.3497 73.3461 34.333 73.4247 34.3005C73.5033 34.2681 73.5748 34.2206 73.635 34.1607C73.6951 34.1007 73.7428 34.0296 73.7753 33.9513C73.8079 33.8731 73.8246 33.7892 73.8245 33.7045V31.9147C73.824 31.744 73.7556 31.5805 73.6341 31.4599C73.5127 31.3394 73.3482 31.2717 73.1767 31.2717H71.9869C72.1924 30.6522 72.2376 29.5998 71.7992 29.5565C71.3305 29.5172 71.429 30.8093 70.3285 31.3828C70.314 31.3904 70.3017 31.4018 70.2931 31.4157C70.2844 31.4296 70.2797 31.4456 70.2793 31.4619Z" fill="#FAFAFA"/>
<path d="M69.9912 31.2158H68.7986C68.748 31.2158 68.707 31.2566 68.707 31.3069V34.2892C68.707 34.3395 68.748 34.3803 68.7986 34.3803H69.9912C70.0418 34.3803 70.0828 34.3395 70.0828 34.2892V31.3069C70.0828 31.2566 70.0418 31.2158 69.9912 31.2158Z" fill="#6E90FC"/>
<path d="M76.9752 53.3927C79.0194 51.3585 79.0194 48.0604 76.9752 46.0263C74.931 43.9921 71.6167 43.9921 69.5725 46.0263C67.5283 48.0604 67.5283 51.3585 69.5725 53.3927C71.6167 55.4268 74.931 55.4268 76.9752 53.3927Z" fill="#BFCEFE"/>
<path d="M69.8887 50.2476C69.9324 51.1116 70.3082 51.9259 70.9382 52.5221C71.5683 53.1183 72.4045 53.4508 73.2739 53.4508C74.1434 53.4508 74.9795 53.1183 75.6096 52.5221C76.2397 51.9259 76.6154 51.1116 76.6592 50.2476H69.8887Z" fill="#6E90FC"/>
<path d="M71.3013 49.246C71.5475 49.246 71.7471 48.8635 71.7471 48.3918C71.7471 47.92 71.5475 47.5376 71.3013 47.5376C71.0551 47.5376 70.8555 47.92 70.8555 48.3918C70.8555 48.8635 71.0551 49.246 71.3013 49.246Z" fill="#263238"/>
<path d="M75.3306 49.246C75.5768 49.246 75.7764 48.8635 75.7764 48.3918C75.7764 47.92 75.5768 47.5376 75.3306 47.5376C75.0844 47.5376 74.8848 47.92 74.8848 48.3918C74.8848 48.8635 75.0844 49.246 75.3306 49.246Z" fill="#263238"/>
<mask id="mask0_444_2976" style="mask-type:luminance" maskUnits="userSpaceOnUse" x="69" y="50" width="8" height="4">
<path d="M69.8848 50.0732C69.8963 50.9603 70.2586 51.8071 70.893 52.4303C71.5275 53.0535 72.3831 53.4029 73.2746 53.4029C74.1661 53.4029 75.0217 53.0535 75.6561 52.4303C76.2906 51.8071 76.6528 50.9603 76.6644 50.0732H69.8848Z" fill="white"/>
</mask>
<g mask="url(#mask0_444_2976)">
<path d="M76.6644 55.2154C76.6528 54.3283 76.2906 53.4816 75.6561 52.8584C75.0217 52.2352 74.1661 51.8857 73.2746 51.8857C72.3831 51.8857 71.5275 52.2352 70.893 52.8584C70.2586 53.4816 69.8963 54.3283 69.8848 55.2154H76.6644Z" fill="#8EA9FC"/>
</g>
<path d="M112.918 64.105L126.786 51.7808L115.469 58.7111L112.918 64.105Z" fill="#E0E0E0"/>
<path d="M107.857 56.4406L113.209 57.9258L126.785 51.7808L107.857 56.4406Z" fill="#F5F5F5"/>
<path d="M115.469 58.7111L126.786 51.7808L121.178 61.1187L115.469 58.7111Z" fill="#F5F5F5"/>
<path d="M115.469 58.7111L112.918 64.105L113.21 57.9258L126.786 51.7808L115.469 58.7111Z" fill="#EBEBEB"/>
<path d="M50.1582 66.2867L38.5469 57.6646L47.8073 62.2743L50.1582 66.2867Z" fill="#E0E0E0"/>
<path d="M53.5586 59.9942L49.5063 61.5107L38.5469 57.6646L53.5586 59.9942Z" fill="#F5F5F5"/>
<path d="M47.8073 62.2743L38.5469 57.6646L43.541 64.5311L47.8073 62.2743Z" fill="#F5F5F5"/>
<path d="M47.8073 62.2743L50.1582 66.2867L49.5063 61.5107L38.5469 57.6646L47.8073 62.2743Z" fill="#EBEBEB"/>
<path d="M46.9524 100.618C47.096 100.072 47.7215 99.8151 48.2795 99.7217C50.5388 99.3424 53.1157 100.601 54.2723 102.569C52.2739 103.309 50.0152 103.111 48.0918 102.191C47.7736 102.039 47.4583 101.86 47.2277 101.593C46.997 101.327 46.8614 100.958 46.9524 100.618Z" fill="#5E84FB"/>
<path d="M55.7651 101.197L55.7319 101.172C55.4915 100.008 56.0369 98.3817 56.6475 97.3601C57.2695 96.3306 58.2518 95.566 59.4058 95.2133C59.8064 95.092 60.3352 95.0675 60.5555 95.4234C60.6951 95.6512 60.6471 95.9399 60.5801 96.1967C59.9827 98.4791 58.0129 100.457 55.7651 101.197Z" fill="#5E84FB"/>
<path d="M50.2239 106.464C50.5129 106.218 50.8889 106.093 51.2649 106.036C52.2949 105.882 53.3565 106.216 54.2406 106.764C55.1248 107.312 56.1555 108.495 56.8731 109.249C55.3159 108.699 53.7062 108.684 52.0552 108.613C51.5928 108.593 51.1195 108.591 50.6852 108.433C50.2508 108.276 49.8531 107.921 49.7924 107.465C49.7449 107.091 49.9349 106.71 50.2239 106.464Z" fill="#5E84FB"/>
<path d="M60.0472 101.75C60.4003 101.516 60.8575 101.404 61.2581 101.544C61.7422 101.714 62.0513 102.227 62.0713 102.739C62.0913 103.252 61.8624 103.744 61.5402 104.142C61.218 104.539 60.806 104.854 60.3986 105.167L57.5664 107.321C57.7324 105.795 58.3367 103.961 59.1922 102.683C59.4286 102.327 59.6935 101.984 60.0472 101.75Z" fill="#5E84FB"/>
<path d="M52.2174 97.6704C51.0861 96.261 50.5853 95.1545 50.0543 93.6403C49.9484 93.3391 49.8494 93.0287 49.8477 92.7087C49.846 92.3887 49.9524 92.055 50.1985 91.8494C50.4961 91.5994 50.9424 91.588 51.3041 91.7355C51.6658 91.883 51.9548 92.1592 52.2129 92.4496C53.7471 94.179 54.3875 96.7 53.9983 98.9744C53.5645 98.8594 52.4463 97.9511 52.2174 97.6704Z" fill="#5E84FB"/>
<path d="M58.4458 114.943C58.3165 113.664 58.079 112.398 57.8003 111.145C57.4724 109.671 57.0792 108.211 56.6472 106.764C56.1894 105.235 55.6879 103.719 55.1427 102.218C54.6231 100.785 54.0662 99.3648 53.4608 97.965C52.936 96.7509 52.3735 95.5488 51.744 94.3843C51.6759 94.259 51.6072 94.1337 51.5374 94.0096C51.4613 93.874 51.6788 93.7687 51.7543 93.9031C52.3878 95.0329 52.9457 96.2031 53.4711 97.3859C54.084 98.7708 54.646 100.176 55.1713 101.6C55.7256 103.098 56.238 104.611 56.7084 106.14C57.1571 107.601 57.5668 109.076 57.9147 110.564C58.2169 111.855 58.4778 113.159 58.6364 114.475C58.6535 114.617 58.6827 114.803 58.6976 114.945L58.4458 114.943Z" fill="#263238"/>
<path d="M55.5565 103.479C54.1102 102.516 52.5154 101.795 50.8353 101.344C50.3973 101.226 49.9554 101.127 49.5094 101.048C49.3577 101.02 49.3755 100.78 49.5288 100.808C51.2126 101.109 52.8385 101.671 54.3473 102.474C54.8091 102.72 55.2578 102.99 55.6927 103.279C55.822 103.366 55.6858 103.564 55.5565 103.479Z" fill="#263238"/>
<path d="M55.1129 101.873C55.9795 100.475 56.9332 99.1326 57.9685 97.8535C58.0652 97.7333 58.2655 97.8683 58.1682 97.989C57.1331 99.2683 56.1794 100.611 55.3126 102.008C55.2307 102.14 55.0316 102.004 55.1129 101.873Z" fill="#263238"/>
<path d="M57.0962 108.007C57.6616 106.544 58.4977 105.18 59.4053 103.907C59.6365 103.581 59.8753 103.262 60.1218 102.948C60.2173 102.827 60.4176 102.962 60.3215 103.084C59.3847 104.274 58.5343 105.553 57.8533 106.906C57.6587 107.292 57.4802 107.687 57.324 108.091C57.2667 108.235 57.0378 108.155 57.095 108.01L57.0962 108.007Z" fill="#263238"/>
<path d="M57.5147 109.951C56.1161 108.816 54.4485 107.962 52.7254 107.434C52.5766 107.389 52.6579 107.162 52.8067 107.206C54.5469 107.739 56.2403 108.604 57.6509 109.751C57.7711 109.848 57.6354 110.048 57.5147 109.95V109.951Z" fill="#263238"/>
<path d="M119.599 104.091C119.491 103.679 119.017 103.484 118.594 103.413C116.883 103.128 114.931 104.079 114.055 105.57C115.568 106.131 117.279 105.98 118.735 105.285C118.977 105.171 119.215 105.034 119.39 104.833C119.564 104.631 119.667 104.349 119.599 104.091Z" fill="#EBEBEB"/>
<path d="M112.924 104.53L112.949 104.512C113.131 103.63 112.72 102.397 112.255 101.624C111.784 100.844 111.04 100.265 110.166 99.9977C109.861 99.9061 109.462 99.8873 109.295 100.157C109.189 100.328 109.226 100.548 109.276 100.743C109.73 102.471 111.218 103.97 112.924 104.53Z" fill="#EBEBEB"/>
<path d="M117.121 108.521C116.902 108.334 116.617 108.239 116.332 108.197C115.551 108.079 114.748 108.333 114.076 108.748C113.405 109.163 112.626 110.058 112.082 110.631C113.262 110.214 114.481 110.202 115.732 110.149C116.082 110.133 116.44 110.132 116.769 110.012C117.099 109.893 117.399 109.625 117.446 109.279C117.484 108.995 117.342 108.707 117.121 108.521Z" fill="#EBEBEB"/>
<path d="M109.681 104.95C109.413 104.772 109.067 104.688 108.765 104.794C108.398 104.921 108.164 105.311 108.149 105.698C108.134 106.084 108.308 106.459 108.55 106.76C108.792 107.062 109.106 107.299 109.415 107.534L111.559 109.166C111.434 108.01 110.976 106.621 110.329 105.653C110.15 105.387 109.949 105.13 109.681 104.95Z" fill="#EBEBEB"/>
<path d="M115.609 101.858C116.468 100.791 116.846 99.9527 117.248 98.8058C117.328 98.5781 117.403 98.3423 117.405 98.1003C117.406 97.8583 117.325 97.6049 117.139 97.4488C116.91 97.2598 116.574 97.2512 116.301 97.3617C116.028 97.4722 115.808 97.6829 115.615 97.9033C114.452 99.213 113.968 101.122 114.262 102.845C114.59 102.76 115.438 102.072 115.609 101.858Z" fill="#EBEBEB"/>
<path d="M110.893 114.943C111 113.975 111.163 113.015 111.382 112.066C111.631 110.95 111.928 109.845 112.256 108.748C112.602 107.589 112.981 106.441 113.395 105.304C113.789 104.219 114.211 103.14 114.669 102.083C115.07 101.163 115.491 100.252 115.968 99.3702C116.02 99.2753 116.072 99.1804 116.125 99.0855C116.182 98.9824 116.018 98.9027 115.96 99.0052C115.481 99.8594 115.058 100.747 114.661 101.643C114.197 102.692 113.771 103.758 113.374 104.832C112.954 105.967 112.566 107.114 112.209 108.271C111.869 109.378 111.559 110.492 111.293 111.622C111.057 112.598 110.875 113.587 110.748 114.583C110.734 114.69 110.712 114.832 110.701 114.939L110.893 114.943Z" fill="#263238"/>
<path d="M113.081 106.259C114.176 105.53 115.384 104.983 116.657 104.642C116.988 104.553 117.323 104.478 117.661 104.418C117.776 104.397 117.763 104.215 117.646 104.236C116.371 104.464 115.139 104.89 113.997 105.497C113.647 105.684 113.307 105.888 112.977 106.108C112.959 106.122 112.948 106.143 112.944 106.166C112.941 106.189 112.946 106.212 112.959 106.231C112.972 106.25 112.992 106.263 113.015 106.268C113.037 106.274 113.061 106.27 113.081 106.259Z" fill="#263238"/>
<path d="M113.417 105.042C112.76 103.984 112.037 102.967 111.253 101.998C111.18 101.907 111.028 102.009 111.102 102.101C111.886 103.07 112.608 104.086 113.265 105.145C113.327 105.245 113.478 105.145 113.417 105.042Z" fill="#263238"/>
<path d="M111.916 109.689C111.487 108.581 110.854 107.547 110.167 106.581C109.991 106.335 109.81 106.093 109.623 105.856C109.551 105.763 109.4 105.865 109.472 105.958C110.191 106.859 110.817 107.828 111.342 108.853C111.49 109.145 111.625 109.444 111.743 109.75C111.785 109.859 111.958 109.799 111.914 109.689H111.916Z" fill="#263238"/>
<path d="M111.599 111.162C112.675 110.302 113.907 109.654 115.227 109.255C115.342 109.221 115.278 109.049 115.165 109.084C113.83 109.489 112.585 110.143 111.496 111.012C111.406 111.086 111.508 111.24 111.599 111.163V111.162Z" fill="#263238"/>
</g>
<defs>
<linearGradient id="paint0_linear_444_2976" x1="11.475" y1="10.9091" x2="148.31" y2="190.366" gradientUnits="userSpaceOnUse">
<stop stop-color="#6B2BB7"/>
<stop offset="1" stop-color="#150B54"/>
</linearGradient>
<clipPath id="clip0_444_2976">
<rect width="98" height="87" fill="white" transform="translate(32 28)"/>
</clipPath>
</defs>
</svg>
