<svg width="140" height="166" viewBox="0 0 140 166" fill="none" xmlns="http://www.w3.org/2000/svg">
<rect width="139.301" height="166" rx="5" fill="url(#paint0_linear_398_22645)"/>
<g clip-path="url(#clip0_398_22645)">
<path d="M48.3373 66.9102C48.3373 66.9102 39.941 79.7506 41.4862 96.8179C43.0314 113.885 53.5389 124.355 53.5389 124.355C53.5389 124.355 62.47 110.694 61.0832 95.3789C59.46 77.4495 48.3373 66.9102 48.3373 66.9102Z" fill="#43DDB4"/>
<path d="M53.9792 131.854C53.7842 131.726 53.7842 131.726 53.5141 128.925C53.3567 127.274 53.1383 124.92 52.8805 122.097C52.4232 117.104 51.7949 110.148 51.014 101.423C49.6686 86.3952 48.3394 71.3783 48.3394 71.3783L49.1934 71.3018C50.9969 91.6632 54.451 130.423 54.6294 131.394L54.2283 131.469L53.9792 131.854Z" fill="#CBC4CC"/>
<path d="M45.2878 81.5171L44.562 81.9766L50.093 90.8272L50.8188 90.3677L45.2878 81.5171Z" fill="#CBC4CC"/>
<path d="M57.511 86.6706L50.8467 98.8721L51.598 99.2878L58.2623 87.0863L57.511 86.6706Z" fill="#CBC4CC"/>
<path d="M57.2147 94.1202L51.3472 103.646L52.0759 104.1L57.9435 94.575L57.2147 94.1202Z" fill="#CBC4CC"/>
<path d="M43.8045 97.1467L43.0869 97.6191L51.9436 111.247L52.6611 110.775L43.8045 97.1467Z" fill="#CBC4CC"/>
<path d="M56.6691 108.888L52.3174 114.68L53.0013 115.2L57.353 109.409L56.6691 108.888Z" fill="#CBC4CC"/>
<path d="M36.3718 130.505C35.7235 126.667 29.1771 126.461 28.3869 119.042C27.5967 111.623 30.2299 112.683 29.3525 107.914C28.4751 103.145 25.4914 104.558 24.5268 98.2873C23.5621 92.0169 26.808 92.1052 26.3693 85.6578C25.9306 79.2103 25.8429 74.5297 28.6506 74.353C28.6506 74.353 32.6872 73.4699 34.3538 79.0342C36.0204 84.5985 38.2144 89.9852 41.2853 92.9879C44.3563 95.9906 45.2337 99.3662 45.2337 102.404C45.2337 105.441 44.0931 109.239 44.6195 111.447C45.146 113.654 48.1291 114.184 49.6207 117.452C51.1123 120.72 47.8659 125.454 47.9537 130.503C48.0414 135.552 37.2492 135.698 36.3718 130.505Z" fill="#35C99E"/>
<path d="M43.2693 137.584L42.8642 137.561C43.5725 124.156 41.1513 120.85 39.2083 118.194C38.2646 116.906 37.3731 115.689 36.9831 113.566C36.2783 109.729 36.407 107.521 36.5444 105.183C36.637 103.593 36.7326 101.948 36.5625 99.6951C36.3992 97.5398 35.5198 96.2666 34.501 94.7927C33.4608 93.2874 32.2817 91.5815 31.7869 88.6141C31.4389 86.5259 31.4803 85.2449 31.5164 84.1145C31.5807 82.1166 31.627 80.6731 29.51 76.1073L29.8775 75.9346C32.0355 80.5892 31.9853 82.1504 31.9214 84.1282C31.8858 85.2395 31.8454 86.499 32.1866 88.5474C32.6663 91.4245 33.7679 93.0185 34.8335 94.5601C35.8425 96.0198 36.795 97.3984 36.9666 99.6627C37.1386 101.943 37.0421 103.602 36.949 105.207C36.8145 107.519 36.6872 109.704 37.3833 113.492C37.7562 115.523 38.581 116.649 39.5359 117.952C41.5159 120.661 43.9854 124.032 43.2693 137.584Z" fill="#CBC4CC"/>
<path d="M34.0136 92.2816C33.6948 91.1105 33.6962 89.8284 34.0185 88.568C34.0872 88.2996 34.17 88.0327 34.2505 87.7751C34.3967 87.3046 34.5351 86.8601 34.599 86.3945C34.6643 85.9194 34.6478 85.4366 34.5503 84.9672L34.947 84.8838C35.0547 85.3988 35.073 85.9286 35.0012 86.4499C34.9329 86.9494 34.7833 87.4312 34.638 87.8968C34.5595 88.15 34.4776 88.4115 34.4118 88.6695C34.1077 89.8593 34.1052 91.0712 34.4055 92.1742L34.0136 92.2816Z" fill="#CBC4CC"/>
<path d="M35.3926 104.12C35.1787 102.456 34.3417 100.938 33.0529 99.875C32.3753 99.3201 31.5773 98.8997 30.8052 98.4924C30.4962 98.3295 30.1769 98.1613 29.8674 97.9856C28.9743 97.4788 27.7157 96.655 27.1011 95.3632L27.4667 95.1865C28.0321 96.3753 29.2215 97.1491 30.0662 97.6304C30.3704 97.8026 30.6872 97.9699 30.9924 98.1313C31.7821 98.5474 32.601 98.9782 33.3078 99.5586C34.6775 100.688 35.5668 102.301 35.7938 104.069L35.3926 104.12Z" fill="#CBC4CC"/>
<path d="M37.3734 110.489C37.276 109.528 37.3106 108.62 37.4743 107.791C37.7668 106.327 38.4751 104.994 39.1624 103.71C39.6986 102.702 40.2577 101.66 40.6013 100.569C41.0305 99.2016 41.134 97.7513 40.9036 96.3358L41.3033 96.2695C41.544 97.7484 41.436 99.2635 40.9879 100.693C40.6325 101.821 40.0666 102.879 39.5192 103.904C38.846 105.164 38.15 106.467 37.8721 107.872C37.7161 108.661 37.684 109.528 37.7771 110.449L37.3734 110.489Z" fill="#CBC4CC"/>
<path d="M40.3436 123.09C39.5919 120.797 37.8244 118.866 35.6153 117.924C35.3584 117.814 35.0884 117.715 34.8276 117.618C34.2466 117.403 33.6455 117.181 33.1118 116.827C32.3991 116.353 31.6372 115.422 31.8346 114.354L32.2334 114.428C32.0823 115.244 32.6779 116.047 33.335 116.486C33.8293 116.815 34.3821 117.019 34.9675 117.236C35.2327 117.334 35.5071 117.435 35.7733 117.548C38.0882 118.535 39.9405 120.559 40.7282 122.962L40.3436 123.09Z" fill="#CBC4CC"/>
<path d="M43.996 128.795L43.6217 128.639C44.2861 127.03 44.288 125.019 43.627 122.978C43.5203 122.648 43.396 122.313 43.2756 121.99C42.9972 121.241 42.7096 120.469 42.5995 119.652C42.481 118.772 42.5615 117.809 42.8432 116.708C43.1187 115.64 43.5363 114.614 44.0847 113.658L44.4357 113.862C43.9057 114.786 43.5019 115.778 43.2351 116.811C42.9646 117.86 42.8876 118.771 42.9987 119.597C43.1025 120.366 43.3823 121.118 43.6529 121.846C43.7747 122.174 43.9005 122.513 44.0102 122.851C44.7009 124.986 44.695 127.096 43.996 128.795Z" fill="#CBC4CC"/>
<path d="M30.794 86.9204C30.2711 86.4691 29.7762 85.9859 29.3122 85.4735C28.7916 84.8995 28.1184 84.0237 28.2744 83.0527L28.6746 83.118C28.5464 83.9143 29.1479 84.688 29.6114 85.1988C30.0645 85.6993 30.5475 86.1715 31.0577 86.6128L30.794 86.9204Z" fill="#CBC4CC"/>
<path d="M98.5714 132.518C99.8232 128.834 94.1702 125.502 96.9975 118.608C99.8247 111.713 101.635 113.908 103.127 109.296C104.62 104.685 101.328 104.491 103.457 98.5183C105.585 92.5452 108.395 94.184 111.07 88.3091C113.744 82.4342 115.889 78.28 118.439 79.4752C118.439 79.4752 122.404 80.6399 121.228 86.3294C120.052 92.0188 119.422 97.8068 120.694 101.922C121.967 106.037 121.136 109.424 119.695 112.092C118.253 114.76 115.448 117.548 114.863 119.741C114.278 121.933 116.647 123.834 116.406 127.422C116.165 131.01 111.069 133.607 108.746 138.088C106.424 142.568 96.8775 137.502 98.5714 132.518Z" fill="#35C99E"/>
<path d="M102.946 139.438L102.601 139.224C109.585 127.787 107.353 126.334 106.904 123.066C106.687 121.48 106.481 119.982 107.148 117.93C108.35 114.22 109.511 112.342 110.74 110.353C111.576 109.001 112.441 107.602 113.361 105.541C114.24 103.569 114.072 102.028 113.876 100.242C113.677 98.4199 113.451 96.3544 114.425 93.5097C115.107 91.5079 115.754 90.402 116.322 89.4261C117.327 87.702 118.053 86.4563 118.36 81.4287L118.765 81.4542C118.452 86.5804 117.666 87.9282 116.672 89.6346C116.113 90.5938 115.48 91.681 114.808 93.6446C113.864 96.4024 114.077 98.3326 114.279 100.199C114.474 101.966 114.655 103.634 113.73 105.709C112.799 107.796 111.927 109.206 111.084 110.571C109.868 112.537 108.72 114.398 107.533 118.057C106.897 120.02 107.087 121.407 107.307 123.013C107.764 126.343 110.007 127.875 102.946 139.438Z" fill="#CBC4CC"/>
<path d="M114.642 97.805C114.917 96.623 115.528 95.4956 116.409 94.5447C116.596 94.3421 116.796 94.1478 116.989 93.9599C117.341 93.6164 117.671 93.2926 117.95 92.9143C118.232 92.5289 118.447 92.0974 118.584 91.6387L118.974 91.7559C118.824 92.26 118.588 92.7342 118.278 93.1577C117.981 93.5639 117.62 93.9147 117.272 94.2543C117.083 94.4387 116.887 94.6296 116.706 94.8244C115.874 95.7232 115.297 96.7869 115.037 97.9002L114.642 97.805Z" fill="#CBC4CC"/>
<path d="M110.234 108.868C110.836 107.304 110.822 105.568 110.194 104.014C109.862 103.201 109.361 102.448 108.876 101.719C108.681 101.428 108.481 101.126 108.291 100.823C107.747 99.9478 107.032 98.6192 107.105 97.1885L107.51 97.2096C107.443 98.5255 108.12 99.7781 108.634 100.606C108.82 100.904 109.019 101.203 109.211 101.489C109.707 102.235 110.22 103.006 110.568 103.857C111.234 105.508 111.249 107.352 110.61 109.014L110.234 108.868Z" fill="#CBC4CC"/>
<path d="M108.952 115.416C109.323 114.525 109.783 113.744 110.321 113.094C111.27 111.947 112.526 111.12 113.741 110.32C114.692 109.694 115.676 109.044 116.495 108.253C117.522 107.257 118.301 106.033 118.77 104.679L119.154 104.813C118.663 106.228 117.849 107.507 116.777 108.547C115.929 109.367 114.929 110.025 113.963 110.662C112.773 111.447 111.543 112.255 110.632 113.355C110.121 113.974 109.681 114.72 109.326 115.574L108.952 115.416Z" fill="#CBC4CC"/>
<path d="M105.581 127.913C106.009 125.538 105.373 122.991 103.879 121.101C103.705 120.882 103.515 120.664 103.332 120.454C102.923 119.986 102.501 119.502 102.2 118.933C101.799 118.175 101.571 116.99 102.252 116.146L102.567 116.404C102.047 117.048 102.188 118.042 102.558 118.741C102.836 119.267 103.225 119.713 103.636 120.184C103.823 120.398 104.016 120.62 104.196 120.847C105.761 122.827 106.428 125.496 105.979 127.986L105.581 127.913Z" fill="#CBC4CC"/>
<path d="M106.079 134.681L105.824 134.363C107.172 133.269 108.127 131.504 108.516 129.393C108.579 129.05 108.628 128.698 108.676 128.355C108.787 127.564 108.902 126.745 109.192 125.977C109.505 125.147 110.032 124.34 110.805 123.51C111.554 122.703 112.408 122.003 113.343 121.427L113.555 121.775C112.65 122.331 111.825 123.008 111.1 123.787C110.365 124.578 109.865 125.341 109.571 126.12C109.297 126.846 109.185 127.641 109.077 128.411C109.029 128.757 108.98 129.116 108.914 129.466C108.509 131.674 107.502 133.525 106.079 134.681Z" fill="#CBC4CC"/>
<path d="M114.357 91.547C114.112 90.899 113.907 90.2365 113.742 89.5634C113.558 88.8088 113.382 87.7156 113.98 86.9375L114.3 87.1872C113.81 87.8251 113.971 88.7936 114.136 89.4658C114.296 90.1228 114.497 90.7694 114.736 91.4018L114.357 91.547Z" fill="#CBC4CC"/>
<path d="M21.8757 136.918C20.8925 130.291 24.9661 127.676 24.1233 124.318C23.2805 120.961 16.9578 119.345 16.6789 114.427C16.4001 109.508 19.3809 109.189 18.8725 104.895C18.3641 100.602 14.7126 99.8946 15.2741 96.9257C15.8356 93.9569 20.1052 92.2603 23.027 94.8047C25.9488 97.3491 27.6349 105.536 30.8652 106.744C34.0956 107.953 40.9789 106.931 44.2092 111.754C47.4395 116.578 47.44 123.465 45.8948 127.444C44.3496 131.422 45.052 135.611 45.052 135.611L21.8757 136.918Z" fill="#43DDB4"/>
<path d="M31.1156 137.048L31.9194 136.79C31.1332 134.303 31.277 135.505 32.7116 133.717C34.3767 131.641 35.4661 129.112 35.9497 126.2C36.5054 122.854 35.9736 118.26 32.6462 116.321C32.0028 115.946 31.2843 115.704 30.5239 115.446C29.1751 114.991 27.7805 114.519 26.614 113.248C25.6303 112.175 25.6221 110.075 25.6152 108.388C25.6152 108.2 25.6152 108.017 25.6113 107.841C25.5938 106.347 25.1975 102.651 21.9067 100.594L21.4612 101.315C24.3951 103.151 24.749 106.498 24.7651 107.851C24.7651 108.025 24.768 108.205 24.7685 108.391C24.7763 110.225 24.7856 112.508 25.9916 113.824C27.3043 115.255 28.8704 115.786 30.2528 116.251C30.9718 116.497 31.6513 116.724 32.2207 117.056C35.1746 118.777 35.626 122.982 35.1152 126.06C34.656 128.825 33.6255 131.222 32.0525 133.182C30.2743 135.402 30.3771 134.713 31.1156 137.048Z" fill="#CBC4CC"/>
<path d="M6.99854 118.054C6.99854 118.054 12.068 127.867 23.2565 132.876C34.445 137.884 44.6663 134.915 44.6663 134.915C44.6663 134.915 39.2751 124.477 29.2322 119.982C17.4787 114.72 6.99854 118.054 6.99854 118.054Z" fill="#64EDCC"/>
<path d="M49.5044 137.268C49.3547 137.347 49.3547 137.347 47.5131 136.532C46.4276 136.052 44.8809 135.365 43.0286 134.538C39.7524 133.076 35.1918 131.033 29.4736 128.467C19.6236 124.048 9.78833 119.621 9.78833 119.621L10.0403 119.054C23.3775 125.057 48.7761 136.468 49.443 136.696L49.3494 136.975L49.5044 137.268Z" fill="#CBC4CC"/>
<path d="M22.503 124.719L15.0405 125.11L15.0726 125.73L22.5351 125.339L22.503 124.719Z" fill="#CBC4CC"/>
<path d="M23.071 118.863L22.5481 119.192L27.823 127.686L28.3458 127.357L23.071 118.863Z" fill="#CBC4CC"/>
<path d="M27.6342 121.681L27.095 121.982L30.9809 129.033L31.5201 128.732L27.6342 121.681Z" fill="#CBC4CC"/>
<path d="M35.8877 130.704L24.2773 131.523L24.3205 132.143L35.9308 131.323L35.8877 130.704Z" fill="#CBC4CC"/>
<path d="M36.6853 127.258L36.1204 127.508L38.2079 132.29L38.7729 132.04L36.6853 127.258Z" fill="#CBC4CC"/>
<path d="M132 110.798C132 110.798 118.205 109.823 105.506 118.622C92.8079 127.42 89.2568 140.414 89.2568 140.414C89.2568 140.414 103.933 141.45 115.329 133.554C128.666 124.311 132 110.798 132 110.798Z" fill="#43DDB4"/>
<path d="M89.4453 139.854C89.4585 139.64 89.4585 139.64 91.5365 138.185C92.7614 137.328 88.6352 140.347 90.7341 138.89C94.4471 136.311 99.6238 132.727 106.12 128.235C117.309 120.499 128.494 112.78 128.494 112.78L128.933 113.425C113.764 123.89 90.7726 139.594 90.0922 140.165L89.8558 139.88L89.4453 139.854Z" fill="#CBC4CC"/>
<path d="M118.51 114.491L114.022 122.812L114.704 123.184L119.193 114.864L118.51 114.491Z" fill="#CBC4CC"/>
<path d="M120.567 126.863L108.041 126.979L108.048 127.761L120.574 127.644L120.567 126.863Z" fill="#CBC4CC"/>
<path d="M104.515 129.479L104.482 130.26L114.556 130.695L114.589 129.915L104.515 129.479Z" fill="#CBC4CC"/>
<path d="M105.585 120.242L98.8271 133.325L99.5161 133.686L106.274 120.602L105.585 120.242Z" fill="#CBC4CC"/>
<path d="M96.3086 135.161L96.2036 135.936L102.676 136.824L102.781 136.05L96.3086 135.161Z" fill="#CBC4CC"/>
<path d="M80.1564 131.24C75.5382 130.557 74.8597 128.821 73.8619 126.432C72.8641 124.042 71.7269 121.182 72.1368 118.247C72.5468 115.313 74.0832 116.048 74.5351 112.813C74.9869 109.577 71.2692 109.05 71.9516 104.919C72.634 100.787 78.5536 99.4598 79.0338 96.0219C79.5139 92.5841 76.7593 92.5036 77.2945 87.9387C77.8298 83.3738 82.6077 84.36 82.8905 81.6159C83.1732 78.8717 81.0172 78.8757 82.8783 73.2613C84.7394 67.647 92.1043 69.925 92.8754 74.6763C93.6466 79.4276 90.891 79.3452 90.4382 82.581C89.9853 85.8167 94.2637 86.7312 93.7835 90.1696C93.3034 93.608 89.6032 94.4244 89.1796 97.458C88.756 100.492 93.5091 102.402 93.0304 107.284C92.5518 112.165 88.5049 111.077 88.0813 114.111C87.6577 117.144 91.7465 117.311 91.2576 120.025C90.7687 122.74 88.6843 127.395 86.9812 129.319C85.278 131.244 84.5732 131.893 80.1564 131.24Z" fill="#43DDB4"/>
<path d="M87.7121 72.8448L80.4966 129.227L80.9921 129.291L88.2077 72.909L87.7121 72.8448Z" fill="#CBC4CC"/>
<path d="M84.5963 77.0154L84.1484 77.2383L86.471 81.9663L86.9189 81.7433L84.5963 77.0154Z" fill="#CBC4CC"/>
<path d="M86.7898 83.6845L86.3818 83.3941L89.7053 78.6565L89.7087 76.4736L90.2083 76.4746L90.2044 78.8159L86.7898 83.6845Z" fill="#CBC4CC"/>
<path d="M91.5141 77.9155L89.8716 78.5L90.0381 78.9741L91.6806 78.3897L91.5141 77.9155Z" fill="#CBC4CC"/>
<path d="M82.0247 88.46L81.5396 88.5801L84.2736 99.7753L84.7588 99.6553L82.0247 88.46Z" fill="#CBC4CC"/>
<path d="M84.0642 88.2821L82.561 92.2861L83.0284 92.4639L84.5316 88.4599L84.0642 88.2821Z" fill="#CBC4CC"/>
<path d="M89.1464 103.623L82.9546 110.351L83.3211 110.692L89.513 103.964L89.1464 103.623Z" fill="#CBC4CC"/>
<path d="M87.4363 102.947L87.0122 105.984L87.507 106.054L87.9311 103.017L87.4363 102.947Z" fill="#CBC4CC"/>
<path d="M88.7103 107.731L85.0171 108.189L85.0782 108.689L88.7715 108.23L88.7103 107.731Z" fill="#CBC4CC"/>
<path d="M76.4602 104.024L76.0024 104.226L81.9697 117.954L82.4274 117.752L76.4602 104.024Z" fill="#CBC4CC"/>
<path d="M79.2802 104.568L78.7163 110.409L79.2136 110.458L79.7775 104.617L79.2802 104.568Z" fill="#CBC4CC"/>
<path d="M75.5372 105.886L75.2588 106.304L77.6443 107.915L77.9227 107.498L75.5372 105.886Z" fill="#CBC4CC"/>
<path d="M86.9845 119.071L81.0776 125.336L81.4401 125.682L87.3469 119.417L86.9845 119.071Z" fill="#CBC4CC"/>
<path d="M84.8628 118.922L84.4585 121.817L84.9533 121.887L85.3575 118.992L84.8628 118.922Z" fill="#CBC4CC"/>
<path d="M88.0219 120.083L85.5708 120.645L85.6817 121.135L88.1328 120.573L88.0219 120.083Z" fill="#CBC4CC"/>
<path d="M89.0448 89.3855L85.1377 93.2949L85.4899 93.6516L89.3971 89.7422L89.0448 89.3855Z" fill="#CBC4CC"/>
<path d="M87.8449 90.7207L87.7754 91.2188L89.2332 91.425L89.3027 90.927L87.8449 90.7207Z" fill="#CBC4CC"/>
<path d="M106.195 136.032C107.267 128.814 102.831 125.966 103.747 122.309C104.663 118.651 111.546 116.892 111.855 111.536C112.163 106.18 108.912 105.831 109.466 101.155C110.021 96.4785 114 95.7087 113.385 92.4754C112.77 89.2421 108.124 87.3939 104.941 90.1655C101.759 92.9371 99.9231 101.853 96.4047 103.167C92.8862 104.482 85.3907 103.37 81.8718 108.623C78.3529 113.876 78.3534 121.38 80.0365 125.711C81.7197 130.041 80.9539 134.606 80.9539 134.606L106.195 136.032Z" fill="#64EDCC"/>
<path d="M95.6657 138.76L94.7883 138.48C95.6447 135.772 95.9581 134.492 94.3949 132.543C92.5811 130.282 91.3946 127.528 90.8682 124.357C90.2633 120.713 90.8423 115.709 94.4665 113.597C95.167 113.19 95.9494 112.925 96.778 112.645C98.2467 112.149 99.7656 111.635 101.036 110.251C102.108 109.083 102.117 106.795 102.124 104.958C102.124 104.753 102.124 104.553 102.128 104.362C102.147 102.735 102.579 98.7095 106.16 96.4688L106.647 97.2538C103.452 99.2531 103.066 102.896 103.049 104.372C103.049 104.562 103.046 104.759 103.045 104.961C103.037 106.959 103.027 109.445 101.713 110.878C100.283 112.437 98.5772 113.013 97.0725 113.522C96.2891 113.786 95.5492 114.036 94.9277 114.398C91.7105 116.272 91.2191 120.852 91.7758 124.204C92.2759 127.216 93.3981 129.826 95.111 131.961C97.0481 134.38 96.4675 136.217 95.6657 138.76Z" fill="#CBC4CC"/>
<path d="M92.1644 125.625C92.1678 126.536 92.3823 127.432 92.7908 128.245H44.3991L43.3662 127.362V123.64L44.5873 122.947L66.7112 123.018L92.7923 123.104C92.2907 124.052 92.1644 124.738 92.1644 125.625Z" fill="#FFFEFF"/>
<path opacity="0.15" d="M92.1647 125.625C92.168 126.536 92.3825 127.433 92.7911 128.245H65.0736C64.6638 127.433 64.4491 126.536 64.4468 125.625C64.4468 124.738 64.5711 124.052 65.0736 123.105L66.7115 123.019L92.7925 123.104C92.291 124.052 92.1647 124.738 92.1647 125.625Z" fill="#CBC4CC"/>
<path d="M45.0387 123.166H93.5211V122.397H44.4153C43.436 122.397 42.5459 123.204 42.5459 125.624C42.5459 128.044 43.436 128.85 44.4153 128.85H93.5211V128.082H45.0387C44.1486 128.082 43.4394 127.612 43.3473 125.624C43.4394 123.636 44.1486 123.166 45.0387 123.166Z" fill="#2E3D5B"/>
<path opacity="0.15" d="M93.5226 122.398H65.7827V123.2H93.5226V122.398Z" fill="#CBC4CC"/>
<path opacity="0.15" d="M93.5226 128.048H65.7827V128.85H93.5226V128.048Z" fill="#CBC4CC"/>
<path d="M40.7443 119.171C40.741 120.081 40.5265 120.978 40.1179 121.791H86.999L88.0319 120.907V117.186L86.8133 116.493L66.2019 116.565L40.1204 116.65C40.6185 117.598 40.7443 118.284 40.7443 119.171Z" fill="#FFFEFF"/>
<path d="M89.7429 119.116C89.7287 118.026 89.4407 116.821 88.7709 115.917L60.9755 115.944H39.5457V116.711H60.3257C60.799 117.626 60.9223 118.303 60.9223 119.171C60.9163 120.02 60.7272 120.857 60.3681 121.625H39.5457V122.397H88.0319V122.366H88.769C89.4387 121.463 89.7268 120.257 89.7409 119.167C89.7409 119.159 89.7409 119.15 89.7409 119.141C89.7409 119.133 89.7429 119.125 89.7429 119.116Z" fill="#415682"/>
<path opacity="0.15" d="M89.7417 119.157C89.7417 119.148 89.7417 119.139 89.7417 119.131C89.7276 118.04 89.4395 116.835 88.7697 115.932H60.79C61.5212 117.173 61.5821 118.067 61.5885 119.159C61.5821 120.25 61.5222 121.144 60.79 122.385H88.7697C89.4395 121.482 89.7276 120.276 89.7417 119.187C89.7427 119.175 89.7417 119.165 89.7417 119.157Z" fill="#CBC4CC"/>
<path d="M89.8653 132.077C89.8686 131.167 90.0831 130.269 90.4916 129.457H43.6101L42.5771 130.34V134.062L43.7958 134.755L64.4076 134.683L90.4887 134.598C89.991 133.65 89.8653 132.964 89.8653 132.077Z" fill="#FFFEFF"/>
<path d="M40.8662 132.131C40.8808 133.222 41.1689 134.427 41.8382 135.33L69.6336 135.303H91.0615V134.537H70.2849C69.8115 133.621 69.6882 132.944 69.6882 132.077C69.6944 131.228 69.8835 130.391 70.2424 129.623H91.0634V128.851H42.5772V128.881H41.8401C41.1709 129.785 40.8828 130.991 40.8682 132.08C40.8682 132.089 40.8682 132.098 40.8682 132.106C40.8682 132.115 40.8662 132.123 40.8662 132.131Z" fill="#F8DBA6"/>
<path opacity="0.15" d="M40.8671 132.091C40.8671 132.099 40.8671 132.108 40.8671 132.117C40.8818 133.207 41.1698 134.412 41.8391 135.316H69.8188C69.0876 134.074 69.0267 133.18 69.0204 132.089C69.0267 130.997 69.0871 130.104 69.8188 128.861H41.8391C41.1698 129.765 40.8818 130.971 40.8671 132.06C40.8662 132.073 40.8671 132.082 40.8671 132.091Z" fill="#CBC4CC"/>
<path d="M91.4672 108.209V104.491L90.4343 103.607H43.5527C43.5811 103.66 43.6061 103.714 43.6278 103.77C43.9909 104.538 44.1801 105.377 44.1815 106.227C44.1815 107.087 44.0607 107.761 43.5873 108.685C43.5745 108.705 43.5629 108.726 43.5527 108.748L64.5667 108.813L69.6362 108.83L90.2462 108.905L91.4672 108.209Z" fill="#FFFEFF"/>
<path d="M93.176 106.279V106.227C93.1643 105.135 92.8757 103.933 92.2064 103.026H91.4675V103H42.9812V103.772H63.8051C64.1624 104.542 64.3513 105.38 64.3589 106.23C64.3589 107.095 64.2321 107.775 63.7588 108.687H42.9812V109.454H64.411L92.2064 109.483C92.8757 108.574 93.1643 107.372 93.176 106.279Z" fill="#DF4E71"/>
<path opacity="0.15" d="M65.0228 106.256C65.0169 105.344 64.9765 104.566 64.5377 103.619C64.4452 103.417 64.3412 103.222 64.2263 103.032L42.9812 103.009V103.787H43.628L63.8051 103.77C63.8051 103.77 63.8685 106.878 61.1904 107.424C58.5991 107.952 49.8669 108.144 43.726 108.417C43.6856 108.51 43.6393 108.603 43.5876 108.702H42.9812V109.469H64.238C64.3598 109.262 64.4697 109.05 64.567 108.831C64.9765 107.906 65.0169 107.145 65.0228 106.256Z" fill="#CBC4CC"/>
<path d="M87.4606 114.644V110.926L86.4277 110.043H39.5457C39.5742 110.095 39.5993 110.15 39.6207 110.205C39.9842 110.973 40.1735 111.813 40.175 112.663C40.175 113.523 40.0536 114.196 39.5803 115.12C39.5691 115.138 39.5574 115.161 39.5457 115.184L60.5597 115.248L65.6292 115.265L86.2391 115.341L87.4606 114.644Z" fill="#FFFEFF"/>
<path d="M89.1692 112.714V112.665C89.1575 111.573 88.8689 110.371 88.1996 109.464H87.4606V109.436H38.9753V110.208H59.7988C60.1562 110.978 60.3453 111.816 60.353 112.665C60.353 113.531 60.2258 114.21 59.7529 115.123H38.9753V115.889H60.4037L88.1996 115.918C88.8689 115.01 89.1575 113.808 89.1692 112.714Z" fill="#F8DBA6"/>
<path opacity="0.15" d="M61.0154 112.692C61.0101 111.78 60.9696 111.002 60.5309 110.055C60.4381 109.853 60.3341 109.656 60.2194 109.466L38.9744 109.442V110.221H39.6207L59.7978 110.203C59.7978 110.203 59.8612 113.312 57.1836 113.858C54.5918 114.386 45.8596 114.578 39.7187 114.851C39.6787 114.944 39.6324 115.037 39.5803 115.136H38.9753V115.904H60.2316C60.3538 115.698 60.4637 115.485 60.5606 115.266C60.9696 114.342 61.0081 113.581 61.0154 112.692Z" fill="#CBC4CC"/>
<path d="M38.387 95.3424V91.6244L39.4199 90.7412H86.3014C86.2731 90.7937 86.2481 90.848 86.2264 90.9036C85.8632 91.6714 85.6741 92.5108 85.6726 93.3612C85.6726 94.2208 85.7935 94.8944 86.2668 95.8183C86.2797 95.8388 86.2912 95.8601 86.3014 95.8821L65.2874 95.9464L60.2179 95.9635L39.609 96.0396L38.387 95.3424Z" fill="#FFFEFF"/>
<path d="M36.6785 93.4137V93.3617C36.6902 92.2695 36.9787 91.067 37.648 90.1608H38.387V90.1318H86.8733V90.9041H66.0493C65.692 91.6739 65.5032 92.512 65.4956 93.3617C65.4956 94.2272 65.6223 94.9067 66.0956 95.8188H86.8733V96.5857H65.4439L37.6485 96.6146C36.9768 95.7084 36.6902 94.5059 36.6785 93.4137Z" fill="#DF4E71"/>
<path opacity="0.15" d="M64.8315 93.3906C64.8374 92.4785 64.8803 91.6999 65.319 90.7529C65.4114 90.5508 65.5154 90.3542 65.6305 90.1642L86.8755 90.1406V90.9193H86.2287L66.0516 90.9016C66.0516 90.9016 65.9883 94.0098 68.6663 94.5559C71.2576 95.0843 79.9898 95.2761 86.1307 95.5489C86.1712 95.6421 86.2175 95.7349 86.2692 95.834H86.8755V96.6003H65.6163C65.4945 96.3943 65.3847 96.1813 65.2873 95.9625C64.8779 95.0401 64.8374 94.2791 64.8315 93.3906Z" fill="#CBC4CC"/>
<path d="M42.3938 101.779V98.0609L43.4267 97.1777H90.3088C90.2803 97.2302 90.2552 97.2844 90.2337 97.3401C89.8702 98.1078 89.6809 98.9473 89.6795 99.7977C89.6795 100.657 89.8008 101.331 90.2742 102.255C90.2854 102.273 90.2971 102.296 90.3088 102.319L69.2948 102.383L64.2253 102.4L43.6153 102.476L42.3938 101.779Z" fill="#FFFEFF"/>
<path d="M40.6853 99.8502V99.7982C40.697 98.7061 40.9856 97.5035 41.6548 96.5973H42.3938V96.5684H90.8801V97.3406H70.0567C69.6992 98.1104 69.5102 98.9485 69.5024 99.7982C69.5024 100.664 69.6297 101.343 70.103 102.255H90.8801V103.022H69.4508L41.6563 103.049C40.9856 102.145 40.697 100.942 40.6853 99.8502Z" fill="#F8DBA6"/>
<path opacity="0.15" d="M68.8389 99.8271C68.8442 98.915 68.8847 98.1364 69.3234 97.1895C69.4162 96.9875 69.5202 96.7909 69.6349 96.6007L90.8799 96.5771V97.3578H90.2336L70.0565 97.3401C70.0565 97.3401 69.9932 100.448 72.6707 100.994C75.2625 101.523 83.9947 101.715 90.1356 101.987C90.1756 102.081 90.2219 102.173 90.274 102.272H90.8799V103.039H69.6237C69.5015 102.833 69.3916 102.62 69.2946 102.401C68.8847 101.479 68.8442 100.716 68.8389 99.8271Z" fill="#CBC4CC"/>
<path d="M57.7908 90.3593C57.7094 90.4174 57.6203 90.4638 57.5261 90.4972C57.3115 90.5725 57.0902 90.6267 56.8651 90.6591C56.1949 90.7675 55.2863 90.8063 54.3748 90.8166C52.8919 90.8338 51.4052 90.9265 51.0718 90.7185C50.7384 90.5104 51.3891 89.0346 51.3131 87.7256C51.2205 86.0928 50.5946 84.9147 50.5015 83.3516C50.4084 81.7884 50.1642 79.7527 50.5502 79.4834C50.7618 79.3362 51.1971 79.1846 51.92 79.0673C52.5161 78.9692 53.0533 78.9035 54.0828 78.8711C55.1332 78.8372 55.6426 78.9324 56.1817 79.0914C56.9578 79.3176 57.2444 79.5408 57.4189 79.6522C57.7923 79.8891 57.5958 80.3577 57.6426 80.9175C57.6494 81.0015 57.6625 81.0848 57.6816 81.1668C57.8279 81.8046 57.5749 82.6843 57.5139 83.1043C57.2161 85.1576 57.0626 85.0668 57.0655 87.2747C57.067 88.5224 58.0345 90.1704 57.7908 90.3593Z" fill="#F7F7F7"/>
<path d="M54.2815 87.2737C55.9208 87.1947 56.9406 86.919 57.3525 88.4213C57.7643 89.9237 57.7219 91.3848 57.0673 91.3848C56.4126 91.3848 54.205 91.2817 53.0395 90.7676C51.874 90.2534 52.0475 87.3817 54.2815 87.2737Z" fill="#66B3E2"/>
<path d="M54.8608 99.5615C54.8165 99.9266 54.7507 100.723 54.6956 100.988C54.6405 101.254 54.3544 102.019 54.388 102.58C54.4216 103.142 54.4986 103.518 54.7068 103.553C55.3107 103.656 55.8723 103.498 56.0093 103.078C56.1462 102.658 55.8713 101.497 55.9264 101.021C55.9815 100.546 56.0478 99.639 56.0478 99.639L54.8608 99.5615Z" fill="#D28E56"/>
<path d="M59.1753 90.1488C59.3005 90.1778 59.427 90.2002 59.5545 90.2161C59.6818 90.2259 59.8811 90.0753 60.1331 90.0792C60.3851 90.0831 60.564 90.3211 60.5635 90.6076C60.5631 90.8941 60.3881 91.2812 60.3944 91.5624C60.4007 91.8435 60.3593 92.9254 60.3008 93.0833C60.2423 93.2413 59.905 93.4224 59.9035 93.1123C59.9021 92.8022 59.7359 91.8518 59.674 91.6698C59.612 91.4878 59.2065 91.4996 59.0588 91.4961C58.9111 91.4927 59.0939 90.1312 59.1753 90.1488Z" fill="#D28E56"/>
<path d="M53.7719 79.0672C52.8809 79.1074 52.3096 79.0907 52.3096 79.6069C52.3096 80.123 52.9052 80.8555 53.9357 80.8791C54.9662 80.9026 55.2694 80.0548 55.2323 79.6304C55.1953 79.206 54.661 79.0264 53.7719 79.0672Z" fill="#D28E56"/>
<path d="M58.6418 85.0426C58.6457 85.0553 58.6496 85.0691 58.6525 85.0823C58.6613 85.1206 58.6686 85.1579 58.674 85.1956C58.6772 85.214 58.6791 85.2325 58.6798 85.2511C58.6804 85.2594 58.6804 85.2678 58.6798 85.2761C58.6826 85.3919 58.662 85.507 58.6193 85.6146C58.5766 85.7221 58.5126 85.8198 58.4312 85.9017C58.4218 85.9129 58.4117 85.9235 58.401 85.9336C58.0232 86.3128 55.371 87.4545 54.4312 87.8441C54.2084 87.9358 54.0495 87.9996 53.9925 88.0217C53.6878 88.1336 53.0493 87.1646 53.3403 86.9914C53.4378 86.933 53.5947 86.828 53.7868 86.697C54.2889 86.3467 55.7078 85.6078 56.3108 85.1554C56.7895 84.7972 57.1775 84.5019 57.2799 84.4194C57.5606 84.1952 58.052 84.2934 58.362 84.5941C58.4906 84.7181 58.5867 84.8721 58.6418 85.0426Z" fill="#D0894E"/>
<path d="M56.9455 85.8717C56.952 85.8838 56.9592 85.8956 56.967 85.907C56.9884 85.9394 57.0099 85.9708 57.0337 86.0007C57.0448 86.0154 57.0567 86.0295 57.0693 86.0429C57.0742 86.0493 57.08 86.0547 57.0864 86.0615C57.1553 86.1398 57.2397 86.2028 57.3343 86.2462C57.4288 86.2896 57.5313 86.3126 57.6353 86.3137C57.6599 86.3143 57.6845 86.313 57.7089 86.3098C58.1056 86.2681 58.8339 85.8584 58.7062 84.8565C58.6828 84.6755 58.6574 84.4684 58.6277 84.2452C58.4815 83.1535 58.2841 81.6904 58.2299 81.2135C58.1641 80.6375 58.0038 79.5164 56.8339 79.696C55.8448 79.8466 55.9691 80.7921 55.9916 81.3396C56.014 81.8872 56.6165 84.6323 56.7252 85.2363C56.7604 85.4596 56.8351 85.6748 56.9455 85.8717Z" fill="#D0894E"/>
<path d="M49.298 85.3042C49.2936 85.3169 49.2887 85.3307 49.2853 85.3434C49.2746 85.3812 49.2648 85.418 49.2575 85.4553C49.2534 85.4734 49.2504 85.4918 49.2487 85.5102C49.2487 85.5181 49.2487 85.5259 49.2458 85.5353C49.2367 85.6507 49.2511 85.7668 49.288 85.8765C49.325 85.9861 49.3838 86.0871 49.4608 86.1731C49.47 86.1849 49.4788 86.1962 49.4891 86.2069C49.8464 86.6058 52.4347 87.8874 53.3526 88.3275C53.5695 88.431 53.725 88.5036 53.782 88.5286C54.0804 88.6567 54.7691 87.723 54.4879 87.5346C54.3904 87.4713 54.2441 87.358 54.0575 87.2152C53.5749 86.8384 52.1968 86.0244 51.6202 85.5407C51.161 85.157 50.7891 84.8415 50.6911 84.7556C50.423 84.5162 49.9273 84.5883 49.6017 84.8714C49.4665 84.9883 49.3622 85.1369 49.298 85.3042Z" fill="#D0894E"/>
<path d="M50.9296 86.0467C50.9238 86.0585 50.9174 86.0717 50.9106 86.083C50.8922 86.1168 50.872 86.1495 50.8502 86.1812C50.8402 86.1967 50.8293 86.2116 50.8175 86.2258C50.8131 86.2322 50.8073 86.2386 50.8014 86.2454C50.7378 86.3282 50.6576 86.3966 50.5661 86.4463C50.4746 86.496 50.3738 86.5258 50.2701 86.5339C50.2458 86.5359 50.2213 86.5359 50.197 86.5339C49.7983 86.5192 49.0447 86.1591 49.1061 85.1503C49.1173 84.9683 49.1304 84.7578 49.1441 84.5356C49.2162 83.4365 49.3186 81.9636 49.3415 81.4838C49.3693 80.9048 49.4551 79.7754 50.6342 79.8765C51.6316 79.9609 51.5697 80.9127 51.5828 81.4602C51.596 82.0078 51.1768 84.7877 51.1076 85.3976C51.087 85.6229 51.0268 85.8427 50.9296 86.0467Z" fill="#D0894E"/>
<path d="M49.3173 80.7409C48.7324 82.2815 48.7987 84.4 48.7987 84.4L51.4177 84.7547C51.4177 84.7547 51.9968 81.1864 51.8842 80.367C51.8082 79.8145 51.9993 79.0521 51.5527 79.1561C50.4399 79.4171 49.736 79.6389 49.3173 80.7409Z" fill="#F7F7F7"/>
<path d="M58.3491 80.6555C58.9341 82.1966 58.8678 84.3151 58.8678 84.3151L56.2492 84.6699C56.2492 84.6699 55.6696 81.1015 55.7827 80.2816C55.8583 79.7296 55.6672 78.9667 56.1137 79.0712C57.2265 79.3317 57.9304 79.554 58.3491 80.6555Z" fill="#F7F7F7"/>
<path d="M56.2764 88.5846C57.8309 88.7048 57.8084 90.4809 57.69 91.523C57.5715 92.5651 56.4714 100.502 56.4714 100.502C56.1677 100.681 55.8142 100.755 55.4648 100.713C54.8608 100.65 54.2769 100.162 54.2769 100.162C54.2769 100.162 54.661 92.8649 54.8248 91.5298C54.9885 90.1948 54.9359 88.481 56.2764 88.5846Z" fill="#66B3E2"/>
<path d="M47.7792 88.0911C48.058 86.7973 51.7412 87.126 53.3795 87.2737C55.0179 87.4214 54.8555 88.6853 54.7444 89.6396C54.6333 90.5938 51.5038 90.8313 50.0576 90.5193C48.6113 90.2072 47.4278 89.721 47.7792 88.0911Z" fill="#66B3E2"/>
<path d="M57.3191 84.6836L57.0266 88.4164C57.0231 88.4613 57.0028 88.5033 56.9698 88.5339C56.9368 88.5645 56.8936 88.5814 56.8487 88.5812H51.5029C51.4783 88.5812 51.454 88.576 51.4316 88.5659C51.4092 88.5559 51.3891 88.5412 51.3727 88.5228C51.3455 88.4943 51.3284 88.4576 51.324 88.4183L50.9774 84.6865C50.975 84.6617 50.9778 84.6366 50.9856 84.613C50.9934 84.5893 51.0061 84.5675 51.0227 84.549C51.0394 84.5305 51.0597 84.5158 51.0824 84.5057C51.105 84.4955 51.1295 84.4903 51.1543 84.4903H57.1393C57.1641 84.4897 57.1888 84.4944 57.2117 84.5041C57.2346 84.5138 57.2552 84.5282 57.2722 84.5464C57.2891 84.5647 57.3021 84.5863 57.3102 84.61C57.3183 84.6336 57.3213 84.6587 57.3191 84.6836Z" fill="#FDFFFF"/>
<path d="M54.7746 86.6889C54.8361 86.3075 54.5788 85.9481 54.1999 85.8862C53.8209 85.8242 53.4639 86.0833 53.4024 86.4647C53.3409 86.8461 53.5982 87.2055 53.9771 87.2674C54.3561 87.3293 54.7131 87.0703 54.7746 86.6889Z" fill="#F5F7F7"/>
<path opacity="0.05" d="M57.319 84.6835L57.0265 88.4163C57.0229 88.4613 57.0026 88.5033 56.9696 88.5338C56.9367 88.5644 56.8934 88.5813 56.8486 88.5812H51.5027C51.4782 88.5811 51.4539 88.5759 51.4315 88.5659C51.4091 88.5558 51.389 88.5411 51.3726 88.5228C52.5151 88.4664 55.7791 88.2603 56.2958 87.7579C56.8808 87.1838 56.9831 85.5274 56.8808 84.4902H57.144C57.1684 84.4903 57.1925 84.4956 57.2149 84.5055C57.2372 84.5155 57.2572 84.5301 57.2736 84.5482C57.2901 84.5664 57.3026 84.5878 57.3104 84.6111C57.3182 84.6344 57.3211 84.6591 57.319 84.6835Z" fill="#CBC4CC"/>
<path d="M47.7229 88.2519C47.3534 89.7768 49.039 90.3067 50.0578 90.5191C51.0766 90.7315 58.9011 92.4326 58.9011 92.4326C58.9011 92.4326 59.3013 91.8438 59.4295 91.2457C59.5577 90.6476 59.2779 89.9377 59.2779 89.9377C59.2779 89.9377 52.2679 88.0375 50.9562 87.7789C49.6444 87.5203 48.0417 86.9375 47.7229 88.2519Z" fill="#66B3E2"/>
<path d="M55.2331 76.5463C55.2551 75.7328 55.5743 75.8756 55.5743 75.5768C55.5743 75.278 55.2536 75.1956 55.2497 74.9915C55.2458 74.7874 55.5002 74.5744 55.4895 74.2437C55.4788 73.913 54.8641 73.9606 54.6838 73.6859C54.5034 73.4111 54.8007 72.9421 54.3659 72.8356C53.9311 72.7291 53.5373 73.2517 53.0625 73.2517C52.5877 73.2517 52.0978 72.921 51.8224 72.921C51.547 72.921 51.6952 73.3135 51.4622 73.55C51.2292 73.7865 51.0391 73.6309 50.944 74.0254C50.849 74.4199 51.294 74.7613 51.2297 75.0263C51.1653 75.2912 51.0484 75.2716 51.1015 75.5277C51.1546 75.7838 51.4178 76.1351 51.7318 76.64C52.0457 77.1449 55.2151 77.2077 55.2331 76.5463Z" fill="#121445"/>
<path d="M54.7774 79.3519C54.7686 79.8567 54.2095 79.8145 53.8717 79.8234C53.5339 79.8322 52.8183 79.8337 52.7993 79.4122C52.7842 79.1291 52.7803 78.8426 52.7754 78.3863C52.7754 78.324 52.7754 78.2587 52.7754 78.19C52.7754 78.0883 52.7744 77.9781 52.7725 77.8593C52.7725 77.7759 52.7725 77.6915 52.7691 77.6032C52.7683 77.5101 52.7895 77.4181 52.831 77.3349C53.1566 76.6754 54.6964 76.7014 54.7145 77.3398C54.7194 77.5036 54.7252 77.6724 54.7325 77.8427C54.7374 77.956 54.7423 78.0718 54.7486 78.1861C54.7486 78.2352 54.7525 78.2808 54.7544 78.3279C54.7642 78.5982 54.7705 78.6184 54.7744 78.8617C54.7725 78.9898 54.7793 79.24 54.7774 79.3519Z" fill="#D28E56"/>
<path opacity="0.15" d="M54.7447 78.1871C54.306 78.5428 53.4222 78.6444 52.7734 78.3873C52.7734 78.325 52.7734 78.2597 52.7734 78.191C52.7734 78.0893 52.7725 77.9791 52.7705 77.8603C52.7705 77.7769 52.7705 77.6925 52.7671 77.6042C52.7664 77.5111 52.7876 77.4191 52.829 77.3358C53.1546 76.6764 54.6945 76.7024 54.7125 77.3407C54.7174 77.5046 54.7233 77.6734 54.7306 77.8436C54.7335 77.957 54.7384 78.0728 54.7447 78.1871Z" fill="#CBC4CC"/>
<path d="M54.9752 77.6932C54.6793 78.462 52.7661 78.6254 52.1675 77.7344C51.8999 77.3365 51.6995 76.6452 51.5986 75.9931C51.5202 75.4897 51.5012 75.0084 51.5592 74.7037C51.6352 74.2916 52.1256 74.1149 53.119 73.8696C53.9993 73.6538 54.829 74.294 55.1093 75.4637C55.1456 75.6208 55.1718 75.7801 55.1877 75.9406C55.2487 76.5392 55.3003 76.8488 54.9752 77.6932Z" fill="#D28E56"/>
<path d="M51.6002 76.132C51.6916 76.0409 51.764 75.9324 51.8134 75.8129C51.8628 75.6934 51.8881 75.5652 51.8878 75.4358C51.8952 75.1267 51.9595 74.9501 52.2022 74.9226C52.696 74.8662 52.9822 75.2209 53.5271 75.2788C53.9312 75.322 54.4387 75.1385 54.7458 75.2454C54.9346 75.317 55.0891 75.4584 55.1776 75.6409L54.9212 74.2519C54.9212 74.2519 54.35 73.5022 53.7728 73.4899C53.1957 73.4777 52.4859 73.6332 52.0131 73.8589C51.5403 74.0846 51.3984 74.3863 51.3984 74.7116C51.3984 75.0369 51.6002 76.132 51.6002 76.132Z" fill="#121445"/>
<path d="M54.9752 77.6941C54.6793 78.4629 52.7661 78.6263 52.1675 77.7353C51.8999 77.3374 51.6995 76.6461 51.5986 75.994L51.6644 75.5034C51.7093 76.3218 52.148 77.0734 52.3805 77.2809C52.613 77.4885 53.1434 77.3668 53.5991 77.2809C54.0549 77.1951 54.5253 77.202 54.7442 76.9777C54.963 76.7535 55.0283 75.6599 54.8865 75.1055L55.1102 75.4666C55.1466 75.6237 55.1728 75.783 55.1887 75.9435C55.2487 76.5401 55.3003 76.8497 54.9752 77.6941Z" fill="#121445"/>
<path d="M53.3481 77.6426C53.3481 77.6426 53.4573 77.8982 53.7249 77.884C53.9926 77.8698 54.131 77.7417 54.1607 77.5926C54.1905 77.4434 53.3779 77.4787 53.3481 77.6426Z" fill="#D28E56"/>
<path d="M54.3789 77.7933C54.2101 77.9089 54.0177 77.9848 53.8159 78.0156C53.5488 78.0593 53.2573 78.0293 53.0311 77.8586C52.6163 77.5456 52.3545 76.6811 52.7113 76.6197C53.0682 76.5584 53.112 76.2665 53.5722 76.2086L53.6131 76.2047C54.0577 76.1698 54.2512 76.5089 54.5646 76.4613C54.9551 76.4014 54.6782 77.5755 54.3789 77.7933Z" fill="#EFEFEF"/>
<path d="M53.5811 76.3126C54.0008 76.2596 54.1739 76.5795 54.4585 76.5358C54.8051 76.4833 54.5594 77.5235 54.2943 77.7163C54.0291 77.9091 53.4656 78.0514 53.1005 77.7742C52.7354 77.497 52.5009 76.7306 52.8173 76.6766C53.1336 76.6227 53.1731 76.3641 53.5811 76.3126Z" fill="#CBC4CC"/>
<path d="M53.2241 76.7507L53.1826 76.6869C53.2279 76.6654 53.2705 76.6383 53.3094 76.6065C53.3846 76.5408 53.4773 76.4985 53.576 76.4848C53.7315 76.4652 53.8602 76.5162 53.9737 76.5613C54.001 76.5721 54.0264 76.5824 54.0513 76.5913L54.0103 76.658C53.9835 76.6487 53.9567 76.6384 53.9284 76.6271C53.8226 76.5849 53.713 76.5417 53.5872 76.5574C53.5073 76.5693 53.4326 76.6044 53.3722 76.6585C53.3266 76.695 53.2769 76.7259 53.2241 76.7507Z" fill="#CFE2DA"/>
<path d="M53.4362 77.3324C53.3875 77.197 53.2807 77.1111 53.1925 77.1362H53.1891H53.1861L53.172 77.1421L53.1491 77.1592C53.0921 77.2122 53.077 77.3275 53.1179 77.4428C53.1559 77.5498 53.231 77.6258 53.3031 77.6391L53.3519 77.6415L53.3616 77.6371H53.3675C53.4528 77.6082 53.485 77.4708 53.4362 77.3324Z" fill="#C2D3CC"/>
<path d="M53.4203 77.3395C53.469 77.4778 53.4383 77.6152 53.3506 77.6466C53.2628 77.678 53.1526 77.5917 53.1034 77.4533C53.0542 77.3149 53.0854 77.1776 53.1731 77.1462C53.2609 77.1148 53.371 77.1996 53.4203 77.3395Z" fill="#A5B5AE"/>
<path d="M53.3942 77.3469C53.3454 77.2115 53.2387 77.1261 53.1505 77.1507H53.147H53.1441L53.13 77.1566L53.1076 77.1742C53.05 77.2272 53.0349 77.342 53.0759 77.4573C53.1139 77.5643 53.189 77.6403 53.2611 77.6536H53.3099L53.3191 77.6492H53.325C53.4122 77.6227 53.4434 77.4873 53.3942 77.3469Z" fill="#C2D3CC"/>
<path d="M53.3788 77.3532C53.4275 77.4916 53.3968 77.6289 53.3095 77.6603C53.2223 77.6917 53.1111 77.6054 53.0619 77.467C53.0127 77.3287 53.0439 77.1918 53.1316 77.1599C53.2194 77.128 53.3295 77.2153 53.3788 77.3532Z" fill="#CFE2DA"/>
<path d="M53.147 77.1534L53.1904 77.1387H53.2396L53.1952 77.1534H53.147Z" fill="#C2D3CC"/>
<path d="M53.4096 77.502L53.4525 77.4838L53.4408 77.3759L53.413 77.2979L53.3721 77.3136L53.4033 77.3999L53.4096 77.502Z" fill="#C2D3CC"/>
<path opacity="0.02" d="M54.3786 77.7929C54.2098 77.9084 54.0174 77.9843 53.8156 78.0151C53.8098 77.9651 53.8116 77.9145 53.8209 77.865C53.8492 77.6889 53.9184 77.5215 53.9672 77.3508C54.0159 77.1801 54.0491 76.9951 54.0023 76.8234C53.9765 76.7372 53.9398 76.6548 53.8931 76.578C53.8201 76.4386 53.7253 76.3118 53.6123 76.2027C54.0569 76.1679 54.2504 76.5069 54.5638 76.4593C54.9547 76.4009 54.6779 77.575 54.3786 77.7929Z" fill="#CBC4CC"/>
<path d="M52.575 76.8528C52.2991 76.8474 51.877 76.551 51.642 76.24L51.6157 76.0928C51.7673 76.3592 52.265 76.7826 52.5974 76.7885L52.575 76.8528Z" fill="#CBC4CC"/>
<path d="M52.8226 77.5785C52.4692 77.5785 52.1197 77.394 51.9023 77.1958L51.8667 77.0977C52.0407 77.2561 52.4122 77.5157 52.7709 77.5157L52.8226 77.5785Z" fill="#CBC4CC"/>
<path d="M54.7021 76.6438L54.6763 76.5845C54.7864 76.5354 54.9161 76.3951 55.0034 76.1772C55.0804 75.9783 55.1438 75.7742 55.193 75.5664V75.7371C55.1457 75.9609 55.0073 76.5084 54.7021 76.6438Z" fill="#CBC4CC"/>
<path d="M54.5347 77.4979L54.5761 77.4037C54.8247 77.309 55.0928 76.9037 55.2327 76.5117V76.6285C55.0962 77.0666 54.8042 77.3949 54.5347 77.4979Z" fill="#CBC4CC"/>
<path d="M62.8793 73.0474C62.2232 73.0474 62.1588 75.0399 62.8793 75.0399H72.8233C73.3317 75.0399 73.3473 73.0449 72.8233 73.0449L62.8793 73.0474Z" fill="#2D3551"/>
<path d="M62.8794 75.04V78.1639L65.9923 82.1989H69.6579L72.8341 78.1639V75.04H62.8794Z" fill="#3B446D"/>
<path d="M62.8792 75.3048C62.5131 75.3048 62.4615 75.8783 62.8792 75.9426C63.4154 76.0221 72.3197 75.8857 72.8232 75.9426C73.1391 75.9779 73.1469 75.3048 72.8232 75.3048C72.3012 75.3043 63.4763 75.3062 62.8792 75.3048Z" fill="#2D3551"/>
<path d="M62.8792 76.4175C62.5131 76.4175 62.4615 76.991 62.8792 77.0529C63.4154 77.1328 72.3197 76.9964 72.8232 77.0529C73.1391 77.0887 73.1469 76.415 72.8232 76.415C72.3012 76.417 63.4763 76.4185 62.8792 76.4175Z" fill="#2D3551"/>
<path d="M62.8875 77.5288C62.5214 77.5288 62.4698 78.1024 62.8875 78.1642C63.4237 78.2442 72.3285 78.1073 72.8315 78.1642C73.1474 78.2 73.1552 77.5264 72.8315 77.5264C72.3095 77.5283 63.4851 77.5298 62.8875 77.5288Z" fill="#2D3551"/>
<path d="M76.6403 60.772C76.6403 65.6838 72.9356 68.871 72.9356 73.1052L69.5162 73.0963H69.1262L66.8839 73.0905H66.494L62.6719 73.0811C62.6719 69.3552 59.0813 64.6118 59.306 60.039C59.5307 55.4663 62.8976 52.416 68.0582 52.416C73.2189 52.416 76.6403 55.8603 76.6403 60.772Z" fill="#EFC083"/>
<path d="M71.7942 62.7684C71.4973 63.8895 71.0474 65.0842 70.5892 65.9625C69.6318 67.8043 69.5007 70.468 69.5168 73.0973H69.1268C69.1093 70.4184 69.2453 67.7003 70.2431 65.7809C71.2589 63.8287 71.9355 61.0262 71.6455 60.5267C71.6309 60.5012 71.6245 60.5012 71.6201 60.5012H71.6153C71.3715 60.5012 71.1814 61.1665 71.0425 61.6537C70.8553 62.3087 70.6794 62.9293 70.2382 62.9573C69.7508 62.9912 69.6703 62.2969 69.585 61.5619C69.5246 61.0379 69.4325 60.2456 69.1756 60.2372H69.1717C68.9114 60.2372 68.7715 60.9889 68.6696 61.5389C68.5307 62.2832 68.4108 62.9264 67.9599 62.9568C67.4788 62.9892 67.3447 62.319 67.1868 61.5428C67.0815 61.0267 66.9226 60.2451 66.6823 60.2382H66.6793C66.4658 60.2382 66.4059 61.0085 66.3693 61.4697C66.3108 62.213 66.2601 62.8558 65.8292 62.9529C65.3632 63.0579 65.0254 62.3475 64.6681 61.5953C64.5458 61.3392 64.3717 60.9747 64.2587 60.828C64.032 61.3245 64.0427 62.7159 65.41 65.1294C66.7827 67.5551 66.8797 69.7561 66.8836 73.0909H66.4936C66.4907 69.7266 66.3995 67.6709 65.0707 65.3246C63.6518 62.8175 63.565 61.2214 63.9574 60.5625C64.0549 60.4011 64.1816 60.382 64.2499 60.3854C64.518 60.3977 64.6988 60.7509 65.0201 61.426C65.1663 61.7361 65.3208 62.057 65.4729 62.2891C65.6567 62.5707 65.7439 62.5697 65.7449 62.5707C65.896 62.5368 65.9545 61.7955 65.9823 61.4393C66.0442 60.6543 66.1071 59.8467 66.6769 59.8467H66.6954C67.2433 59.8639 67.4095 60.6778 67.5699 61.4658C67.6313 61.769 67.7941 62.5731 67.9345 62.5677C68.0851 62.5574 68.2221 61.8215 68.2874 61.4677C68.4381 60.6626 68.5921 59.832 69.1878 59.8486C69.7834 59.8653 69.879 60.7058 69.973 61.5168C70.0106 61.8406 70.0886 62.5133 70.2119 62.5673C70.3815 62.5555 70.5614 61.9231 70.6691 61.5458C70.8704 60.8392 71.0781 60.1097 71.6143 60.1097H71.6333C71.7057 60.1122 71.7762 60.1338 71.8377 60.1724C71.8992 60.211 71.9496 60.2651 71.9838 60.3295C72.2421 60.773 72.0247 61.9 71.7942 62.7684Z" fill="#CBC4CC"/>
<path d="M54.3685 47.9414C54.2111 47.5233 54.0731 47.0818 54.118 46.6372C54.1628 46.1927 54.4333 45.7433 54.8594 45.6182C55.2415 45.5053 55.6617 45.6766 55.9517 45.9513C56.2418 46.2261 56.427 46.5892 56.6069 46.9488C57.0319 47.7927 57.4568 48.6369 57.8816 49.4815C58.4295 50.5707 58.9837 51.657 59.5262 52.7496C60 53.7049 60.4236 54.117 59.7699 54.2529C59.3054 54.351 58.4499 53.5273 58.1355 53.2716C57.4198 52.6833 56.7753 52.0123 56.2155 51.2723C55.4416 50.2587 54.8193 49.1365 54.3685 47.9414Z" fill="#F4CA98"/>
<path d="M64.3789 42.4317C64.2878 41.9494 64.1966 41.4505 64.3087 40.9716C64.4208 40.4927 64.7962 40.0394 65.2807 40.0026C65.7194 39.9683 66.1269 40.2788 66.339 40.6659C66.551 41.0531 66.6051 41.5054 66.6461 41.9455C66.8518 44.1588 66.9029 45.879 66.9619 48.101C67.0038 49.6775 67.1433 50.9757 66.6933 51.5031C66.3936 51.8539 66.0416 51.1921 65.9266 50.7932C65.4494 49.1402 65.4737 48.2217 65.1686 46.608L64.3789 42.4317Z" fill="#F4CA98"/>
<path d="M75.6389 43.9141C75.9801 43.3406 76.4101 42.7567 76.8122 42.819C76.85 42.8232 76.8861 42.8367 76.9174 42.8584C76.9487 42.8801 76.9742 42.9092 76.9916 42.9432C77.0535 43.0609 77.0511 43.2552 77.0403 43.4372C77.002 44.0132 76.902 44.5834 76.742 45.1378C76.5417 45.832 76.2546 46.4704 75.9723 47.1003C75.5565 48.0257 75.1393 48.9525 74.6894 49.8361C74.3881 50.4273 73.6384 52.1097 73.1982 52.2653C72.1848 52.6239 73.8977 47.641 74.1337 47.0346C74.5492 45.9545 75.0527 44.9108 75.6389 43.9141Z" fill="#F4CA98"/>
<path d="M109.545 135.317H27.0933C18.834 135.317 14.6633 137.065 26.3407 138.1C38.0181 139.136 56.0094 137.583 56.0094 137.583C56.0094 137.583 59.5639 141.071 85.4198 140.998C111.276 140.926 131.578 140.459 131.572 138.127C131.566 135.955 118.803 135.317 109.545 135.317Z" fill="#35C99E"/>
<path opacity="0.15" d="M91.4422 135.333C91.4422 136.351 79.6137 137.177 65.0224 137.177C50.431 137.177 38.6025 136.351 38.6025 135.333H91.4422Z" fill="#CBC4CC"/>
<path opacity="0.15" d="M85.363 139.902C89.8812 139.902 93.5439 139.646 93.5439 139.331C93.5439 139.015 89.8812 138.76 85.363 138.76C80.8448 138.76 77.1821 139.015 77.1821 139.331C77.1821 139.646 80.8448 139.902 85.363 139.902Z" fill="#CBC4CC"/>
<path d="M82.1662 138.997L81.0489 139.176L72.7866 87.001H73.9321L74.4459 90.2441L74.6258 91.3829L75.628 97.7126L75.8088 98.8513L76.811 105.181L76.9909 106.319L77.9931 112.649L78.1739 113.787L79.1761 120.116L79.3565 121.255L80.3587 127.585L80.539 128.724L81.5412 135.053L81.7216 136.191L82.1662 138.997Z" fill="#22283F"/>
<path d="M90.1095 138.997L88.9923 139.176L88.5194 136.191L88.3396 135.053L87.3374 128.724L87.157 127.585L86.1548 121.255L85.974 120.116L84.9718 113.787L84.7919 112.649L83.7892 106.319L83.6089 105.181L82.6067 98.8513L82.4268 97.7126L81.4246 91.3829L81.2437 90.2441L80.73 87.001H81.8755L88.302 127.585L88.3352 127.793L89.4851 135.053L89.605 135.813L90.1095 138.997Z" fill="#22283F"/>
<path d="M81.9824 91.3819V90.2432H73.5398V91.3819H81.9824Z" fill="#22283F"/>
<path d="M83.2529 98.8507V97.7119H74.8103V98.8507H83.2529Z" fill="#22283F"/>
<path d="M84.5234 106.318V105.18H76.0808V106.318H84.5234Z" fill="#22283F"/>
<path d="M85.7939 113.787V112.648H77.3513V113.787H85.7939Z" fill="#22283F"/>
<path d="M87.0645 121.255V120.116H78.6218V121.255H87.0645Z" fill="#22283F"/>
<path d="M88.3345 128.723V127.584H79.8918V128.723H88.3345Z" fill="#22283F"/>
<path d="M89.6055 136.192V135.053H81.1628V136.192H89.6055Z" fill="#22283F"/>
</g>
<defs>
<linearGradient id="paint0_linear_398_22645" x1="11" y1="15.5" x2="109.5" y2="157.5" gradientUnits="userSpaceOnUse">
<stop stop-color="#6B2BB7"/>
<stop offset="1" stop-color="#190D58"/>
</linearGradient>
<clipPath id="clip0_398_22645">
<rect width="125" height="101" fill="white" transform="translate(7 40)"/>
</clipPath>
</defs>
</svg>
