<svg width="469" height="282" viewBox="0 0 469 282" fill="none" xmlns="http://www.w3.org/2000/svg">
<rect x="0.114258" y="0.922852" width="468.885" height="280.615" rx="5" fill="url(#paint0_linear_398_31465)"/>
<g clip-path="url(#clip0_398_31465)">
<path d="M181.17 78.9424C181.17 78.9424 160.011 111.361 163.905 154.452C167.799 197.543 194.278 223.977 194.278 223.977C194.278 223.977 216.784 189.486 213.29 150.819C209.199 105.552 181.17 78.9424 181.17 78.9424Z" fill="#43DDB4"/>
<path d="M195.387 242.909C194.896 242.585 194.896 242.585 194.215 235.513C193.818 231.344 193.268 225.401 192.618 218.276C191.466 205.669 189.883 188.107 187.915 166.078C184.525 128.137 181.175 90.2225 181.175 90.2225L183.327 90.0293C187.872 141.437 196.576 239.297 197.026 241.747L196.015 241.935L195.387 242.909Z" fill="white"/>
<path d="M173.486 115.82L171.657 116.98L185.595 139.326L187.424 138.166L173.486 115.82Z" fill="white"/>
<path d="M204.287 128.831L187.493 159.637L189.387 160.686L206.181 129.881L204.287 128.831Z" fill="white"/>
<path d="M203.541 147.641L188.755 171.689L190.591 172.838L205.378 148.789L203.541 147.641Z" fill="white"/>
<path d="M169.748 155.281L167.939 156.474L190.258 190.881L192.066 189.688L169.748 155.281Z" fill="white"/>
<path d="M202.166 184.926L191.199 199.548L192.923 200.862L203.889 186.24L202.166 184.926Z" fill="white"/>
<path d="M151.017 239.504C149.383 229.813 132.886 229.292 130.895 210.561C128.904 191.83 135.54 194.507 133.329 182.466C131.118 170.426 123.599 173.992 121.168 158.161C118.737 142.33 126.916 142.553 125.811 126.275C124.705 109.996 124.484 98.1789 131.56 97.733C131.56 97.733 141.732 95.5032 145.932 109.552C150.132 123.6 155.661 137.2 163.399 144.781C171.138 152.362 173.349 160.885 173.349 168.554C173.349 176.223 170.475 185.811 171.801 191.385C173.128 196.959 180.646 198.297 184.405 206.547C188.163 214.797 179.982 226.75 180.203 239.498C180.425 252.245 153.228 252.615 151.017 239.504Z" fill="#35C99E"/>
<path d="M168.399 257.373L167.378 257.317C169.163 223.471 163.062 215.126 158.165 208.419C155.787 205.168 153.541 202.096 152.558 196.734C150.782 187.048 151.106 181.472 151.452 175.569C151.686 171.555 151.926 167.402 151.498 161.714C151.086 156.272 148.87 153.058 146.303 149.337C143.682 145.536 140.71 141.229 139.463 133.737C138.586 128.465 138.691 125.231 138.782 122.377C138.944 117.333 139.06 113.688 133.726 102.161L134.652 101.725C140.09 113.476 139.963 117.418 139.802 122.411C139.713 125.217 139.611 128.397 140.471 133.569C141.679 140.833 144.455 144.857 147.141 148.75C149.683 152.435 152.084 155.916 152.516 161.632C152.95 167.39 152.706 171.577 152.472 175.63C152.133 181.468 151.812 186.983 153.566 196.547C154.506 201.676 156.584 204.517 158.991 207.809C163.981 214.647 170.203 223.158 168.399 257.373Z" fill="white"/>
<path d="M145.074 142.998C144.271 140.041 144.275 136.804 145.087 133.622C145.26 132.944 145.469 132.271 145.671 131.62C146.04 130.432 146.389 129.31 146.55 128.134C146.714 126.935 146.672 125.716 146.427 124.531L147.427 124.32C147.698 125.621 147.744 126.958 147.563 128.274C147.391 129.535 147.014 130.752 146.648 131.927C146.45 132.567 146.244 133.227 146.078 133.878C145.311 136.882 145.305 139.942 146.062 142.727L145.074 142.998Z" fill="white"/>
<path d="M148.549 172.887C148.01 168.687 145.901 164.854 142.653 162.17C140.945 160.769 138.934 159.708 136.989 158.68C136.21 158.268 135.405 157.843 134.625 157.4C132.375 156.12 129.203 154.041 127.654 150.779L128.576 150.333C130 153.334 132.998 155.288 135.127 156.503C135.893 156.938 136.691 157.36 137.46 157.768C139.45 158.818 141.514 159.906 143.295 161.371C146.747 164.223 148.988 168.297 149.56 172.759L148.549 172.887Z" fill="white"/>
<path d="M153.542 188.968C153.296 186.542 153.383 184.25 153.796 182.155C154.533 178.459 156.318 175.095 158.05 171.852C159.401 169.307 160.81 166.676 161.676 163.924C162.757 160.47 163.018 156.809 162.438 153.235L163.445 153.067C164.051 156.801 163.779 160.626 162.65 164.235C161.755 167.084 160.328 169.756 158.949 172.342C157.253 175.523 155.498 178.813 154.798 182.36C154.405 184.353 154.324 186.542 154.559 188.867L153.542 188.968Z" fill="white"/>
<path d="M161.026 220.781C159.132 214.991 154.678 210.115 149.111 207.737C148.464 207.461 147.783 207.209 147.126 206.965C145.662 206.423 144.147 205.861 142.802 204.967C141.006 203.772 139.086 201.419 139.584 198.723L140.589 198.911C140.208 200.971 141.709 202.999 143.365 204.107C144.61 204.936 146.003 205.453 147.478 205.999C148.147 206.247 148.838 206.502 149.509 206.788C155.343 209.28 160.01 214.39 161.995 220.458L161.026 220.781Z" fill="white"/>
<path d="M170.23 235.185L169.286 234.79C170.961 230.727 170.965 225.652 169.3 220.499C169.031 219.664 168.717 218.819 168.414 218.003C167.713 216.112 166.988 214.163 166.71 212.101C166.412 209.879 166.615 207.449 167.325 204.669C168.019 201.972 169.071 199.381 170.453 196.968L171.338 197.483C170.002 199.816 168.984 202.32 168.312 204.928C167.63 207.575 167.436 209.875 167.716 211.961C167.978 213.903 168.683 215.802 169.365 217.64C169.672 218.467 169.989 219.323 170.265 220.178C172.006 225.566 171.991 230.896 170.23 235.185Z" fill="white"/>
<path d="M136.961 129.463C135.643 128.324 134.396 127.104 133.227 125.81C131.915 124.361 130.218 122.15 130.611 119.698L131.62 119.863C131.297 121.873 132.813 123.827 133.981 125.116C135.122 126.38 136.34 127.572 137.625 128.687L136.961 129.463Z" fill="white"/>
<path d="M307.76 244.588C310.915 235.286 296.669 226.874 303.794 209.467C310.918 192.06 315.479 197.6 319.241 185.957C323.002 174.314 314.708 173.826 320.071 158.746C325.434 143.665 332.516 147.803 339.256 132.97C345.996 118.137 351.4 107.649 357.826 110.667C357.826 110.667 367.818 113.607 364.855 127.972C361.892 142.336 360.303 156.95 363.51 167.339C366.717 177.728 364.623 186.279 360.991 193.015C357.358 199.752 350.29 206.791 348.815 212.327C347.34 217.863 353.311 222.661 352.704 231.72C352.097 240.779 339.255 247.336 333.401 258.649C327.548 269.961 303.492 257.171 307.76 244.588Z" fill="#35C99E"/>
<path d="M318.783 262.056L317.913 261.516C335.514 232.642 329.89 228.973 328.758 220.72C328.211 216.717 327.692 212.936 329.373 207.753C332.401 198.387 335.327 193.645 338.425 188.625C340.531 185.21 342.71 181.679 345.028 176.475C347.245 171.496 346.82 167.605 346.328 163.097C345.825 158.496 345.256 153.281 347.71 146.099C349.43 141.045 351.06 138.253 352.492 135.789C355.024 131.436 356.853 128.291 357.628 115.598L358.647 115.662C357.857 128.604 355.879 132.007 353.374 136.316C351.965 138.737 350.369 141.482 348.675 146.44C346.296 153.403 346.833 158.276 347.343 162.989C347.834 167.449 348.291 171.66 345.959 176.9C343.613 182.169 341.414 185.729 339.292 189.174C336.227 194.138 333.334 198.836 330.343 208.075C328.74 213.03 329.219 216.532 329.774 220.587C330.924 228.995 336.577 232.864 318.783 262.056Z" fill="white"/>
<path d="M348.256 156.942C348.951 153.958 350.49 151.112 352.709 148.711C353.182 148.199 353.684 147.709 354.17 147.234C355.057 146.367 355.89 145.55 356.593 144.595C357.305 143.622 357.845 142.532 358.19 141.374L359.172 141.67C358.794 142.943 358.201 144.14 357.42 145.209C356.67 146.235 355.762 147.121 354.884 147.978C354.408 148.443 353.914 148.925 353.459 149.417C351.362 151.686 349.908 154.372 349.253 157.183L348.256 156.942Z" fill="white"/>
<path d="M337.151 184.875C338.668 180.926 338.632 176.543 337.05 172.62C336.214 170.567 334.95 168.665 333.727 166.825C333.236 166.089 332.732 165.328 332.253 164.562C330.883 162.353 329.082 158.999 329.266 155.387L330.287 155.44C330.116 158.762 331.822 161.925 333.119 164.016C333.586 164.768 334.087 165.522 334.573 166.245C335.823 168.128 337.115 170.074 337.991 172.222C339.671 176.391 339.709 181.048 338.098 185.244L337.151 184.875Z" fill="white"/>
<path d="M333.919 201.408C334.854 199.157 336.015 197.185 337.369 195.545C339.762 192.648 342.927 190.56 345.988 188.541C348.384 186.96 350.863 185.32 352.929 183.321C355.516 180.809 357.48 177.718 358.662 174.298L359.628 174.636C358.392 178.209 356.34 181.439 353.638 184.064C351.502 186.134 348.983 187.796 346.547 189.403C343.549 191.385 340.449 193.426 338.154 196.204C336.865 197.766 335.757 199.65 334.861 201.805L333.919 201.408Z" fill="white"/>
<path d="M325.424 232.961C326.502 226.963 324.899 220.532 321.135 215.762C320.697 215.207 320.219 214.658 319.757 214.128C318.727 212.946 317.663 211.724 316.905 210.288C315.894 208.373 315.32 205.381 317.036 203.252L317.829 203.901C316.519 205.528 316.873 208.038 317.807 209.804C318.508 211.132 319.487 212.256 320.524 213.447C320.994 213.987 321.481 214.546 321.934 215.119C325.878 220.119 327.559 226.857 326.429 233.143L325.424 232.961Z" fill="white"/>
<path d="M326.678 250.046L326.037 249.245C329.432 246.481 331.841 242.025 332.82 236.696C332.979 235.829 333.103 234.94 333.224 234.075C333.503 232.077 333.793 230.011 334.523 228.071C335.313 225.975 336.642 223.937 338.587 221.841C340.475 219.806 342.627 218.037 344.985 216.583L345.518 217.463C343.239 218.867 341.159 220.575 339.333 222.541C337.481 224.538 336.219 226.466 335.478 228.433C334.788 230.265 334.507 232.273 334.235 234.216C334.112 235.091 333.99 235.995 333.824 236.88C332.802 242.454 330.264 247.129 326.678 250.046Z" fill="white"/>
<path d="M347.54 141.143C346.923 139.507 346.405 137.834 345.99 136.135C345.525 134.229 345.082 131.47 346.589 129.505L347.396 130.135C346.16 131.746 346.568 134.191 346.982 135.888C347.387 137.547 347.892 139.179 348.494 140.776L347.54 141.143Z" fill="white"/>
<path d="M114.487 255.695C112.009 238.962 122.274 232.361 120.151 223.883C118.027 215.405 102.093 211.327 101.391 198.909C100.688 186.491 108.2 185.684 106.918 174.844C105.637 164.004 96.4355 162.219 97.8506 154.723C99.2657 147.228 110.025 142.944 117.388 149.368C124.751 155.792 129 176.462 137.14 179.513C145.281 182.564 162.627 179.984 170.767 192.162C178.908 204.34 178.909 221.729 175.015 231.774C171.121 241.819 172.891 252.395 172.891 252.395L114.487 255.695Z" fill="#43DDB4"/>
<path d="M137.772 256.021L139.797 255.371C137.816 249.093 138.178 252.127 141.793 247.611C145.989 242.37 148.735 235.986 149.953 228.634C151.354 220.187 150.014 208.586 141.629 203.692C140.007 202.746 138.197 202.134 136.28 201.483C132.881 200.334 129.367 199.143 126.428 195.934C123.949 193.225 123.928 187.923 123.911 183.663C123.911 183.187 123.911 182.725 123.901 182.282C123.857 178.511 122.858 169.178 114.565 163.984L113.442 165.805C120.836 170.441 121.728 178.89 121.768 182.308C121.768 182.746 121.776 183.202 121.777 183.67C121.797 188.302 121.82 194.066 124.859 197.387C128.167 201 132.114 202.342 135.597 203.516C137.409 204.136 139.122 204.709 140.556 205.546C148 209.892 149.138 220.508 147.85 228.28C146.693 235.262 144.097 241.312 140.133 246.262C135.651 251.868 135.911 250.126 137.772 256.021Z" fill="white"/>
<path d="M76.9961 208.068C76.9961 208.068 89.7712 232.842 117.966 245.487C146.161 258.132 171.919 250.637 171.919 250.637C171.919 250.637 158.333 224.284 133.025 212.935C103.406 199.649 76.9961 208.068 76.9961 208.068Z" fill="#64EDCC"/>
<path d="M184.111 256.577C183.734 256.778 183.734 256.778 179.093 254.719C176.357 253.509 172.46 251.774 167.792 249.686C159.536 245.995 148.043 240.837 133.633 234.357C108.811 223.202 84.0264 212.024 84.0264 212.024L84.6614 210.592C118.271 225.748 182.276 254.559 183.956 255.133L183.72 255.839L184.111 256.577Z" fill="white"/>
<path d="M116.068 224.896L97.2627 225.883L97.3435 227.448L116.149 226.46L116.068 224.896Z" fill="white"/>
<path d="M117.499 210.111L116.182 210.941L129.474 232.385L130.792 231.555L117.499 210.111Z" fill="white"/>
<path d="M128.998 217.224L127.64 217.984L137.432 235.785L138.791 235.025L128.998 217.224Z" fill="white"/>
<path d="M149.797 240.006L120.539 242.074L120.648 243.637L149.906 241.569L149.797 240.006Z" fill="white"/>
<path d="M151.807 231.304L150.383 231.935L155.643 244.008L157.067 243.377L151.807 231.304Z" fill="white"/>
<path d="M392 189.746C392 189.746 357.237 187.286 325.236 209.5C293.236 231.714 284.287 264.52 284.287 264.52C284.287 264.52 321.271 267.135 349.988 247.2C383.599 223.863 392 189.746 392 189.746Z" fill="#43DDB4"/>
<path d="M284.763 263.106C284.796 262.568 284.796 262.568 290.032 258.895C293.119 256.729 282.721 264.353 288.011 260.674C297.367 254.163 310.412 245.112 326.783 233.773C354.978 214.242 383.166 194.753 383.166 194.753L384.271 196.381C346.045 222.802 288.108 262.451 286.393 263.892L285.797 263.172L284.763 263.106Z" fill="white"/>
<path d="M358.006 199.071L346.695 220.078L348.415 221.02L359.726 200.013L358.006 199.071Z" fill="white"/>
<path d="M363.188 230.306L331.622 230.601L331.64 232.574L363.206 232.279L363.188 230.306Z" fill="white"/>
<path d="M322.738 236.912L322.654 238.884L348.04 239.984L348.124 238.012L322.738 236.912Z" fill="white"/>
<path d="M325.435 213.59L308.405 246.623L310.141 247.533L327.172 214.501L325.435 213.59Z" fill="white"/>
<path d="M302.058 251.258L301.793 253.213L318.103 255.457L318.368 253.502L302.058 251.258Z" fill="white"/>
<path d="M261.353 241.359C249.716 239.635 248.006 235.253 245.491 229.219C242.977 223.186 240.111 215.965 241.144 208.556C242.177 201.147 246.049 203.004 247.188 194.835C248.326 186.665 238.958 185.336 240.677 174.905C242.397 164.473 257.314 161.122 258.524 152.443C259.734 143.763 252.793 143.56 254.142 132.034C255.49 120.509 267.531 122.999 268.243 116.071C268.956 109.143 263.523 109.152 268.213 94.9776C272.903 80.8028 291.462 86.5542 293.405 98.5501C295.349 110.546 288.405 110.338 287.263 118.507C286.122 126.677 296.904 128.986 295.694 137.667C294.484 146.348 285.159 148.409 284.092 156.068C283.024 163.727 295.002 168.55 293.796 180.875C292.59 193.201 282.392 190.453 281.324 198.112C280.257 205.771 290.56 206.191 289.328 213.045C288.096 219.899 282.844 231.652 278.552 236.511C274.26 241.369 272.484 243.008 261.353 241.359Z" fill="#43DDB4"/>
<path d="M280.394 93.9254L262.211 236.275L263.46 236.438L281.643 94.0876L280.394 93.9254Z" fill="white"/>
<path d="M272.543 104.455L271.414 105.018L277.267 116.955L278.396 116.392L272.543 104.455Z" fill="white"/>
<path d="M278.07 121.292L277.042 120.558L285.417 108.597L285.426 103.086L286.685 103.088L286.675 109L278.07 121.292Z" fill="white"/>
<path d="M289.976 106.727L285.837 108.203L286.257 109.4L290.396 107.925L289.976 106.727Z" fill="white"/>
<path d="M266.063 133.35L264.84 133.653L271.73 161.919L272.952 161.615L266.063 133.35Z" fill="white"/>
<path d="M271.202 132.902L267.414 143.011L268.592 143.46L272.38 133.35L271.202 132.902Z" fill="white"/>
<path d="M284.009 171.632L268.405 188.618L269.329 189.481L284.932 172.495L284.009 171.632Z" fill="white"/>
<path d="M279.7 169.926L278.631 177.594L279.878 177.77L280.946 170.102L279.7 169.926Z" fill="white"/>
<path d="M282.909 182.003L273.603 183.16L273.757 184.42L283.064 183.263L282.909 182.003Z" fill="white"/>
<path d="M252.039 172.644L250.886 173.153L265.923 207.813L267.077 207.305L252.039 172.644Z" fill="white"/>
<path d="M259.146 174.02L257.725 188.767L258.978 188.889L260.399 174.142L259.146 174.02Z" fill="white"/>
<path d="M249.713 177.345L249.012 178.399L255.023 182.468L255.725 181.414L249.713 177.345Z" fill="white"/>
<path d="M278.561 210.634L263.676 226.452L264.589 227.326L279.474 211.508L278.561 210.634Z" fill="white"/>
<path d="M273.214 210.26L272.195 217.569L273.442 217.746L274.461 210.436L273.214 210.26Z" fill="white"/>
<path d="M281.176 213.189L274.999 214.606L275.278 215.844L281.455 214.427L281.176 213.189Z" fill="white"/>
<path d="M283.752 135.685L273.906 145.556L274.794 146.456L284.64 136.586L283.752 135.685Z" fill="white"/>
<path d="M280.729 139.058L280.554 140.315L284.227 140.836L284.403 139.579L280.729 139.058Z" fill="white"/>
<path d="M326.971 253.455C329.674 235.232 318.495 228.043 320.803 218.808C323.112 209.573 340.457 205.134 341.235 191.61C342.013 178.087 333.819 177.206 335.216 165.4C336.613 153.594 346.64 151.65 345.091 143.487C343.542 135.323 331.833 130.657 323.813 137.655C315.793 144.652 311.167 167.163 302.3 170.481C293.434 173.8 274.545 170.993 265.678 184.256C256.81 197.519 256.811 216.463 261.053 227.397C265.294 238.332 263.365 249.856 263.365 249.856L326.971 253.455Z" fill="#64EDCC"/>
<path d="M300.438 260.344L298.227 259.635C300.385 252.799 301.175 249.568 297.235 244.646C292.665 238.94 289.675 231.985 288.348 223.979C286.824 214.779 288.283 202.145 297.416 196.814C299.181 195.784 301.153 195.117 303.241 194.409C306.942 193.157 310.77 191.86 313.971 188.364C316.673 185.415 316.694 179.64 316.713 175.001C316.713 174.483 316.713 173.98 316.722 173.497C316.77 169.389 317.859 159.226 326.884 153.568L328.112 155.55C320.059 160.598 319.087 169.796 319.043 173.523C319.043 174.001 319.035 174.498 319.033 175.01C319.013 180.054 318.988 186.33 315.677 189.948C312.074 193.883 307.775 195.339 303.983 196.623C302.009 197.291 300.144 197.923 298.578 198.834C290.471 203.567 289.233 215.13 290.635 223.593C291.896 231.197 294.723 237.788 299.04 243.177C303.922 249.285 302.459 253.922 300.438 260.344Z" fill="white"/>
<path d="M291.614 227.182C291.623 229.48 292.163 231.745 293.193 233.796H171.246L168.643 231.566V222.17L171.72 220.421L227.472 220.601L293.196 220.816C291.932 223.209 291.614 224.942 291.614 227.182Z" fill="#FFFEFF"/>
<path opacity="0.15" d="M291.615 227.182C291.623 229.48 292.164 231.745 293.193 233.796H223.345C222.313 231.746 221.771 229.481 221.766 227.182C221.766 224.942 222.079 223.209 223.345 220.819L227.473 220.601L293.197 220.816C291.933 223.209 291.615 224.942 291.615 227.182Z" fill="black"/>
<path d="M172.857 220.972H295.033V219.032H171.286C168.818 219.032 166.575 221.069 166.575 227.178C166.575 233.288 168.818 235.323 171.286 235.323H295.033V233.384H172.857C170.614 233.384 168.827 232.198 168.595 227.179C168.827 222.16 170.614 220.972 172.857 220.972Z" fill="#2E3D5B"/>
<path opacity="0.15" d="M295.037 219.034H225.133V221.058H295.037V219.034Z" fill="black"/>
<path opacity="0.15" d="M295.037 233.3H225.133V235.324H295.037V233.3Z" fill="black"/>
<path d="M162.036 210.887C162.027 213.185 161.487 215.45 160.457 217.501H278.597L281.2 215.271V205.875L278.129 204.126L226.189 204.307L160.463 204.522C161.719 206.914 162.036 208.647 162.036 210.887Z" fill="#FFFEFF"/>
<path d="M285.512 210.747C285.476 207.995 284.75 204.953 283.062 202.671L213.018 202.739H159.015V204.675H211.38C212.573 206.987 212.884 208.696 212.884 210.887C212.869 213.03 212.392 215.143 211.487 217.081H159.015V219.031H281.2V218.954H283.057C284.745 216.674 285.471 213.628 285.507 210.878C285.507 210.855 285.507 210.833 285.507 210.812C285.507 210.791 285.512 210.77 285.512 210.747Z" fill="#415682"/>
<path opacity="0.15" d="M285.51 210.852C285.51 210.83 285.51 210.808 285.51 210.787C285.474 208.033 284.748 204.991 283.061 202.709H212.552C214.394 205.844 214.548 208.1 214.564 210.856C214.548 213.612 214.397 215.868 212.552 219.003H283.061C284.748 216.723 285.474 213.677 285.51 210.927C285.512 210.897 285.51 210.874 285.51 210.852Z" fill="black"/>
<path d="M285.82 243.471C285.829 241.173 286.369 238.907 287.399 236.856H169.257L166.654 239.086V248.482L169.725 250.232L221.667 250.051L287.391 249.836C286.137 247.443 285.82 245.711 285.82 243.471Z" fill="#FFFEFF"/>
<path d="M162.343 243.61C162.38 246.362 163.106 249.404 164.792 251.686L234.837 251.618H288.835V249.682H236.478C235.285 247.37 234.974 245.661 234.974 243.471C234.99 241.329 235.466 239.216 236.371 237.277H288.84V235.326H166.654V235.403H164.797C163.111 237.685 162.385 240.73 162.348 243.48C162.348 243.502 162.348 243.524 162.348 243.546C162.348 243.569 162.343 243.587 162.343 243.61Z" fill="#F8DBA6"/>
<path opacity="0.15" d="M162.345 243.506C162.345 243.527 162.345 243.549 162.345 243.572C162.382 246.324 163.108 249.366 164.794 251.648H235.303C233.46 248.513 233.307 246.256 233.291 243.501C233.307 240.745 233.459 238.489 235.303 235.353H164.794C163.108 237.634 162.382 240.679 162.345 243.429C162.342 243.461 162.345 243.484 162.345 243.506Z" fill="black"/>
<path d="M289.858 183.209V173.822L287.255 171.592H169.113C169.185 171.724 169.248 171.861 169.302 172.002C170.218 173.94 170.694 176.06 170.698 178.207C170.698 180.377 170.393 182.078 169.2 184.41C169.168 184.462 169.139 184.516 169.113 184.571L222.069 184.734L234.844 184.777L286.781 184.968L289.858 183.209Z" fill="#FFFEFF"/>
<path d="M294.164 178.339V178.208C294.134 175.451 293.407 172.414 291.72 170.126H289.858V170.06H167.673V172.009H220.149C221.05 173.953 221.525 176.069 221.545 178.214C221.545 180.399 221.225 182.115 220.032 184.418H167.673V186.354H221.676L291.72 186.427C293.407 184.133 294.134 181.097 294.164 178.339Z" fill="#DF4E71"/>
<path opacity="0.15" d="M223.218 178.281C223.203 175.978 223.101 174.013 221.995 171.622C221.762 171.114 221.5 170.619 221.21 170.141L167.673 170.082V172.048H169.303L220.149 172.003C220.149 172.003 220.309 179.851 213.56 181.229C207.03 182.564 185.025 183.048 169.55 183.737C169.448 183.972 169.331 184.206 169.201 184.456H167.673V186.391H221.24C221.547 185.871 221.824 185.333 222.069 184.781C223.101 182.447 223.203 180.525 223.218 178.281Z" fill="black"/>
<path d="M279.76 199.459V190.072L277.157 187.842H159.015C159.087 187.974 159.15 188.111 159.204 188.252C160.12 190.19 160.597 192.31 160.6 194.457C160.6 196.627 160.295 198.328 159.102 200.66C159.074 200.705 159.044 200.763 159.015 200.821L211.97 200.984L224.745 201.027L276.682 201.218L279.76 199.459Z" fill="#FFFEFF"/>
<path d="M284.067 194.587V194.463C284.037 191.706 283.31 188.67 281.623 186.382H279.761V186.309H157.578V188.258H210.053C210.954 190.202 211.43 192.318 211.45 194.463C211.45 196.648 211.129 198.364 209.938 200.667H157.578V202.603H211.578L281.623 202.676C283.31 200.383 284.037 197.347 284.067 194.587Z" fill="#F8DBA6"/>
<path opacity="0.15" d="M213.119 194.532C213.105 192.229 213.003 190.263 211.898 187.872C211.664 187.362 211.402 186.866 211.113 186.386L157.575 186.326V188.292H159.204L210.05 188.247C210.05 188.247 210.21 196.095 203.462 197.474C196.931 198.808 174.926 199.292 159.451 199.981C159.35 200.216 159.234 200.45 159.102 200.7H157.578V202.639H211.143C211.451 202.119 211.728 201.582 211.973 201.029C213.003 198.696 213.1 196.775 213.119 194.532Z" fill="black"/>
<path d="M156.095 150.727V141.34L158.698 139.11H276.839C276.768 139.243 276.705 139.38 276.65 139.52C275.735 141.459 275.258 143.578 275.255 145.725C275.255 147.895 275.559 149.596 276.752 151.929C276.784 151.981 276.813 152.034 276.839 152.09L223.884 152.252L211.109 152.295L159.174 152.487L156.095 150.727Z" fill="#FFFEFF"/>
<path d="M151.79 145.857V145.726C151.82 142.968 152.547 139.932 154.233 137.644H156.096V137.571H278.281V139.521H225.805C224.904 141.465 224.428 143.581 224.409 145.726C224.409 147.911 224.729 149.627 225.921 151.929H278.281V153.866H224.279L154.235 153.939C152.542 151.651 151.82 148.615 151.79 145.857Z" fill="#DF4E71"/>
<path opacity="0.15" d="M222.735 145.799C222.75 143.496 222.858 141.53 223.964 139.14C224.197 138.629 224.459 138.133 224.749 137.653L278.286 137.594V139.56H276.656L225.81 139.515C225.81 139.515 225.65 147.362 232.399 148.741C238.929 150.075 260.934 150.56 276.409 151.248C276.511 151.484 276.628 151.718 276.758 151.968H278.286V153.903H224.713C224.406 153.383 224.129 152.845 223.884 152.293C222.852 149.964 222.75 148.042 222.735 145.799Z" fill="black"/>
<path d="M166.192 166.976V157.589L168.795 155.359H286.938C286.866 155.492 286.803 155.629 286.749 155.769C285.833 157.708 285.356 159.827 285.352 161.974C285.352 164.144 285.658 165.845 286.851 168.178C286.879 168.222 286.909 168.281 286.938 168.339L233.983 168.501L221.208 168.544L169.271 168.735L166.192 166.976Z" fill="#FFFEFF"/>
<path d="M161.887 162.107V161.976C161.916 159.218 162.643 156.182 164.33 153.894H166.192V153.821H288.378V155.771H235.903C235.002 157.715 234.525 159.831 234.506 161.976C234.506 164.161 234.826 165.877 236.019 168.179H288.378V170.116H234.376L164.334 170.184C162.643 167.901 161.916 164.865 161.887 162.107Z" fill="#F8DBA6"/>
<path opacity="0.15" d="M232.834 162.049C232.847 159.746 232.949 157.78 234.055 155.39C234.289 154.88 234.551 154.384 234.84 153.903L288.377 153.844V155.815H286.749L235.902 155.77C235.902 155.77 235.743 163.617 242.49 164.996C249.022 166.33 271.027 166.815 286.502 167.503C286.602 167.739 286.719 167.973 286.851 168.223H288.377V170.158H234.812C234.504 169.638 234.227 169.101 233.983 168.548C232.949 166.22 232.847 164.292 232.834 162.049Z" fill="black"/>
<path d="M204.994 138.144C204.788 138.291 204.564 138.408 204.326 138.492C203.786 138.683 203.228 138.819 202.661 138.901C200.972 139.175 198.682 139.273 196.385 139.299C192.648 139.342 188.902 139.576 188.062 139.051C187.221 138.526 188.861 134.8 188.67 131.495C188.436 127.372 186.859 124.398 186.624 120.451C186.39 116.505 185.774 111.365 186.747 110.685C187.28 110.314 188.377 109.931 190.199 109.635C191.701 109.387 193.055 109.221 195.649 109.139C198.296 109.054 199.58 109.294 200.939 109.695C202.894 110.267 203.616 110.83 204.056 111.111C204.997 111.71 204.502 112.893 204.62 114.306C204.637 114.518 204.67 114.728 204.718 114.935C205.087 116.546 204.449 118.767 204.296 119.827C203.545 125.011 203.158 124.782 203.166 130.356C203.169 133.506 205.608 137.667 204.994 138.144Z" fill="#F7F7F7"/>
<path d="M196.149 130.355C200.28 130.155 202.85 129.459 203.888 133.252C204.926 137.045 204.819 140.734 203.169 140.734C201.52 140.734 195.956 140.474 193.019 139.176C190.082 137.877 190.52 130.627 196.149 130.355Z" fill="#66B3E2"/>
<path d="M197.61 161.379C197.498 162.301 197.332 164.311 197.193 164.981C197.054 165.651 196.333 167.582 196.418 169.001C196.503 170.419 196.697 171.368 197.221 171.457C198.743 171.717 200.158 171.317 200.504 170.257C200.849 169.197 200.156 166.264 200.295 165.064C200.434 163.864 200.601 161.575 200.601 161.575L197.61 161.379Z" fill="#D28E56"/>
<path d="M208.482 137.614C208.798 137.687 209.117 137.743 209.438 137.783C209.758 137.808 210.261 137.428 210.896 137.438C211.531 137.448 211.982 138.048 211.981 138.772C211.979 139.495 211.538 140.473 211.554 141.182C211.57 141.892 211.466 144.624 211.319 145.022C211.171 145.421 210.321 145.878 210.317 145.096C210.314 144.313 209.895 141.913 209.739 141.454C209.583 140.994 208.561 141.024 208.189 141.015C207.816 141.006 208.277 137.569 208.482 137.614Z" fill="#D28E56"/>
<path d="M194.865 109.634C192.619 109.736 191.18 109.694 191.18 110.997C191.18 112.3 192.681 114.15 195.278 114.209C197.874 114.268 198.638 112.128 198.545 111.056C198.452 109.985 197.105 109.532 194.865 109.634Z" fill="#D28E56"/>
<path d="M207.138 124.723C207.147 124.755 207.157 124.789 207.165 124.823C207.187 124.919 207.205 125.014 207.219 125.109C207.227 125.155 207.232 125.202 207.233 125.249C207.235 125.27 207.235 125.291 207.233 125.312C207.24 125.604 207.189 125.895 207.081 126.167C206.973 126.438 206.812 126.685 206.607 126.892C206.583 126.92 206.558 126.947 206.531 126.972C205.579 127.93 198.895 130.812 196.527 131.796C195.965 132.027 195.565 132.188 195.421 132.244C194.654 132.527 193.044 130.08 193.778 129.643C194.023 129.495 194.419 129.23 194.903 128.9C196.168 128.015 199.744 126.15 201.263 125.007C202.47 124.103 203.448 123.357 203.705 123.149C204.413 122.583 205.651 122.831 206.432 123.59C206.757 123.903 206.999 124.292 207.138 124.723Z" fill="#D0894E"/>
<path d="M202.863 126.814C202.879 126.845 202.897 126.875 202.917 126.904C202.971 126.985 203.025 127.065 203.085 127.14C203.113 127.177 203.143 127.213 203.175 127.247C203.187 127.263 203.202 127.276 203.218 127.294C203.391 127.492 203.604 127.65 203.842 127.76C204.081 127.87 204.339 127.928 204.601 127.931C204.663 127.932 204.725 127.929 204.786 127.921C205.786 127.815 207.621 126.781 207.3 124.251C207.241 123.794 207.177 123.272 207.102 122.708C206.733 119.952 206.236 116.258 206.099 115.054C205.934 113.6 205.529 110.769 202.581 111.222C200.089 111.603 200.402 113.99 200.459 115.372C200.515 116.755 202.034 123.685 202.307 125.21C202.396 125.774 202.584 126.317 202.863 126.814Z" fill="#D0894E"/>
<path d="M183.591 125.381C183.58 125.413 183.568 125.448 183.559 125.48C183.532 125.576 183.508 125.668 183.489 125.763C183.479 125.808 183.471 125.855 183.467 125.901C183.467 125.921 183.467 125.941 183.46 125.965C183.437 126.256 183.473 126.549 183.566 126.826C183.659 127.103 183.807 127.358 184.002 127.575C184.025 127.605 184.047 127.633 184.073 127.66C184.973 128.667 191.496 131.903 193.809 133.014C194.356 133.276 194.747 133.459 194.891 133.522C195.643 133.845 197.379 131.488 196.67 131.012C196.424 130.853 196.056 130.566 195.585 130.206C194.369 129.255 190.896 127.2 189.443 125.978C188.286 125.009 187.349 124.213 187.102 123.996C186.426 123.392 185.177 123.574 184.357 124.289C184.016 124.584 183.753 124.959 183.591 125.381Z" fill="#D0894E"/>
<path d="M187.703 127.256C187.688 127.285 187.672 127.319 187.655 127.347C187.609 127.432 187.558 127.515 187.503 127.595C187.477 127.634 187.45 127.672 187.42 127.708C187.409 127.724 187.395 127.74 187.38 127.757C187.219 127.966 187.017 128.139 186.787 128.264C186.556 128.39 186.302 128.465 186.041 128.486C185.98 128.491 185.918 128.491 185.857 128.486C184.852 128.448 182.953 127.539 183.108 124.992C183.136 124.533 183.169 124.001 183.203 123.44C183.385 120.665 183.643 116.947 183.701 115.735C183.771 114.274 183.987 111.422 186.959 111.677C189.472 111.89 189.316 114.293 189.349 115.676C189.382 117.058 188.326 124.077 188.151 125.617C188.1 126.185 187.948 126.74 187.703 127.256Z" fill="#D0894E"/>
<path d="M183.639 113.861C182.165 117.751 182.332 123.1 182.332 123.1L188.932 123.995C188.932 123.995 190.391 114.986 190.107 112.917C189.916 111.523 190.397 109.598 189.272 109.86C186.468 110.519 184.694 111.079 183.639 113.861Z" fill="#F7F7F7"/>
<path d="M206.4 113.644C207.874 117.535 207.707 122.884 207.707 122.884L201.108 123.78C201.108 123.78 199.647 114.77 199.932 112.701C200.123 111.307 199.641 109.381 200.766 109.645C203.571 110.302 205.345 110.864 206.4 113.644Z" fill="#F7F7F7"/>
<path d="M201.176 133.664C205.094 133.967 205.037 138.451 204.739 141.082C204.44 143.714 201.668 163.751 201.668 163.751C200.903 164.203 200.012 164.391 199.131 164.285C197.609 164.125 196.138 162.894 196.138 162.894C196.138 162.894 197.106 144.47 197.518 141.1C197.931 137.729 197.798 133.402 201.176 133.664Z" fill="#66B3E2"/>
<path d="M179.764 132.419C180.466 129.152 189.748 129.982 193.877 130.355C198.005 130.728 197.596 133.919 197.316 136.328C197.036 138.737 189.15 139.337 185.505 138.549C181.861 137.761 178.878 136.534 179.764 132.419Z" fill="#66B3E2"/>
<path d="M203.805 123.814L203.068 133.239C203.059 133.352 203.007 133.458 202.924 133.535C202.841 133.613 202.732 133.655 202.619 133.655H189.148C189.086 133.655 189.025 133.642 188.968 133.616C188.912 133.591 188.861 133.554 188.82 133.507C188.751 133.435 188.708 133.343 188.697 133.244L187.823 123.822C187.817 123.759 187.824 123.696 187.844 123.636C187.864 123.576 187.896 123.521 187.938 123.475C187.98 123.428 188.031 123.391 188.088 123.365C188.145 123.34 188.207 123.326 188.269 123.326H203.351C203.414 123.325 203.476 123.337 203.534 123.361C203.591 123.386 203.643 123.422 203.686 123.468C203.729 123.514 203.762 123.569 203.782 123.628C203.802 123.688 203.81 123.751 203.805 123.814Z" fill="#FDFFFF"/>
<path d="M197.392 128.878C197.547 127.915 196.899 127.008 195.944 126.851C194.989 126.695 194.089 127.349 193.934 128.312C193.779 129.275 194.427 130.182 195.382 130.339C196.337 130.495 197.237 129.841 197.392 128.878Z" fill="#F5F7F7"/>
<path opacity="0.05" d="M203.804 123.814L203.067 133.239C203.058 133.352 203.007 133.458 202.924 133.535C202.841 133.612 202.732 133.655 202.619 133.655H189.147C189.085 133.655 189.024 133.642 188.968 133.616C188.911 133.591 188.861 133.554 188.819 133.507C191.699 133.365 199.924 132.845 201.226 131.576C202.7 130.127 202.958 125.945 202.7 123.326H203.363C203.425 123.326 203.486 123.34 203.542 123.365C203.598 123.39 203.649 123.427 203.69 123.473C203.732 123.518 203.763 123.573 203.783 123.631C203.802 123.69 203.81 123.752 203.804 123.814Z" fill="black"/>
<path d="M179.622 132.824C178.691 136.674 182.939 138.012 185.506 138.549C188.073 139.085 207.791 143.38 207.791 143.38C207.791 143.38 208.8 141.893 209.123 140.383C209.446 138.873 208.741 137.081 208.741 137.081C208.741 137.081 191.076 132.283 187.77 131.63C184.465 130.978 180.426 129.506 179.622 132.824Z" fill="#66B3E2"/>
<path d="M198.548 103.27C198.604 101.216 199.408 101.577 199.408 100.822C199.408 100.068 198.6 99.8597 198.59 99.3444C198.58 98.8291 199.221 98.2914 199.194 97.4565C199.167 96.6216 197.618 96.7418 197.164 96.0481C196.709 95.3544 197.459 94.1702 196.363 93.9014C195.267 93.6326 194.275 94.9518 193.078 94.9518C191.882 94.9518 190.647 94.1169 189.953 94.1169C189.259 94.1169 189.633 95.1079 189.046 95.705C188.458 96.302 187.979 95.9094 187.74 96.9053C187.5 97.9012 188.622 98.7634 188.46 99.4323C188.297 100.101 188.003 100.052 188.137 100.698C188.27 101.345 188.934 102.232 189.725 103.507C190.516 104.781 198.503 104.94 198.548 103.27Z" fill="#121445"/>
<path d="M197.399 110.353C197.377 111.628 195.968 111.521 195.117 111.544C194.265 111.566 192.462 111.57 192.414 110.506C192.376 109.791 192.366 109.067 192.354 107.915C192.354 107.758 192.354 107.593 192.354 107.42C192.354 107.163 192.351 106.885 192.347 106.585C192.347 106.374 192.347 106.161 192.338 105.938C192.336 105.703 192.39 105.471 192.494 105.261C193.315 103.596 197.195 103.662 197.24 105.273C197.253 105.687 197.267 106.113 197.286 106.543C197.298 106.829 197.31 107.121 197.326 107.41C197.326 107.534 197.336 107.649 197.341 107.768C197.366 108.45 197.382 108.501 197.391 109.116C197.387 109.439 197.404 110.071 197.399 110.353Z" fill="#D28E56"/>
<path opacity="0.15" d="M197.317 107.413C196.211 108.311 193.984 108.567 192.349 107.918C192.349 107.761 192.349 107.596 192.349 107.423C192.349 107.166 192.347 106.888 192.342 106.588C192.342 106.377 192.342 106.164 192.333 105.941C192.331 105.706 192.385 105.474 192.489 105.264C193.31 103.599 197.19 103.664 197.236 105.276C197.248 105.69 197.263 106.116 197.281 106.546C197.288 106.832 197.301 107.124 197.317 107.413Z" fill="black"/>
<path d="M197.898 106.167C197.152 108.109 192.331 108.521 190.822 106.271C190.148 105.267 189.643 103.521 189.389 101.875C189.191 100.604 189.143 99.3891 189.289 98.6198C189.481 97.5793 190.717 97.1333 193.22 96.514C195.438 95.9689 197.529 97.5855 198.235 100.539C198.327 100.935 198.393 101.337 198.433 101.743C198.587 103.254 198.717 104.036 197.898 106.167Z" fill="#D28E56"/>
<path d="M189.392 102.224C189.622 101.994 189.805 101.72 189.929 101.418C190.054 101.117 190.118 100.793 190.117 100.466C190.136 99.6859 190.298 99.2399 190.909 99.1706C192.154 99.0281 192.875 99.9237 194.248 100.07C195.266 100.179 196.545 99.7156 197.319 99.9857C197.795 100.166 198.184 100.523 198.407 100.984L197.761 97.4772C197.761 97.4772 196.322 95.5844 194.867 95.5535C193.413 95.5225 191.624 95.9152 190.433 96.485C189.241 97.0548 188.884 97.8166 188.884 98.6379C188.884 99.4592 189.392 102.224 189.392 102.224Z" fill="#121445"/>
<path d="M197.898 106.167C197.152 108.109 192.331 108.521 190.822 106.271C190.148 105.267 189.643 103.521 189.389 101.875L189.554 100.636C189.668 102.703 190.773 104.6 191.359 105.124C191.945 105.648 193.281 105.341 194.43 105.124C195.578 104.908 196.764 104.925 197.315 104.359C197.867 103.793 198.032 101.032 197.674 99.6318L198.238 100.544C198.33 100.94 198.396 101.342 198.436 101.748C198.587 103.254 198.717 104.036 197.898 106.167Z" fill="#121445"/>
<path d="M193.798 106.038C193.798 106.038 194.073 106.683 194.747 106.647C195.422 106.611 195.771 106.288 195.846 105.912C195.92 105.535 193.873 105.624 193.798 106.038Z" fill="#D28E56"/>
<path d="M196.395 106.419C195.97 106.71 195.485 106.902 194.976 106.98C194.303 107.09 193.568 107.015 192.998 106.584C191.953 105.793 191.293 103.611 192.193 103.456C193.092 103.301 193.202 102.564 194.362 102.418L194.465 102.408C195.585 102.32 196.073 103.176 196.863 103.056C197.847 102.904 197.149 105.869 196.395 106.419Z" fill="#EFEFEF"/>
<path d="M194.385 102.68C195.442 102.546 195.878 103.354 196.596 103.244C197.469 103.111 196.85 105.737 196.182 106.224C195.514 106.711 194.094 107.07 193.173 106.37C192.253 105.67 191.663 103.735 192.46 103.599C193.257 103.463 193.356 102.81 194.385 102.68Z" fill="white"/>
<path d="M193.484 103.788L193.38 103.627C193.494 103.572 193.601 103.504 193.699 103.424C193.889 103.258 194.122 103.151 194.371 103.116C194.763 103.067 195.087 103.196 195.374 103.31C195.442 103.337 195.506 103.363 195.569 103.385L195.466 103.554C195.398 103.53 195.331 103.504 195.259 103.476C194.993 103.369 194.716 103.26 194.399 103.3C194.198 103.33 194.01 103.418 193.858 103.555C193.743 103.647 193.617 103.725 193.484 103.788Z" fill="#CFE2DA"/>
<path d="M194.019 105.254C193.896 104.913 193.627 104.696 193.405 104.759H193.396H193.389L193.353 104.774L193.295 104.817C193.151 104.951 193.113 105.242 193.217 105.533C193.312 105.803 193.502 105.995 193.683 106.029L193.806 106.035L193.831 106.024H193.846C194.06 105.951 194.142 105.604 194.019 105.254Z" fill="#C2D3CC"/>
<path d="M193.979 105.274C194.102 105.623 194.025 105.97 193.804 106.05C193.583 106.129 193.305 105.911 193.181 105.561C193.057 105.212 193.135 104.865 193.357 104.786C193.578 104.707 193.855 104.921 193.979 105.274Z" fill="#A5B5AE"/>
<path d="M193.913 105.291C193.79 104.949 193.521 104.734 193.299 104.796H193.29H193.283L193.247 104.811L193.191 104.855C193.046 104.989 193.008 105.279 193.111 105.57C193.207 105.84 193.396 106.032 193.578 106.065H193.701L193.724 106.054H193.739C193.959 105.987 194.037 105.646 193.913 105.291Z" fill="#C2D3CC"/>
<path d="M193.874 105.307C193.997 105.657 193.919 106.004 193.699 106.083C193.48 106.162 193.199 105.944 193.075 105.595C192.951 105.245 193.03 104.9 193.251 104.819C193.472 104.739 193.75 104.959 193.874 105.307Z" fill="#CFE2DA"/>
<path d="M193.29 104.804L193.399 104.767H193.523L193.412 104.804H193.29Z" fill="#C2D3CC"/>
<path d="M193.953 105.682L194.061 105.636L194.032 105.364L193.962 105.167L193.858 105.207L193.937 105.425L193.953 105.682Z" fill="#C2D3CC"/>
<path opacity="0.02" d="M196.395 106.419C195.97 106.71 195.485 106.902 194.976 106.98C194.962 106.853 194.966 106.726 194.99 106.601C195.061 106.156 195.235 105.734 195.358 105.302C195.481 104.871 195.564 104.404 195.447 103.971C195.382 103.753 195.289 103.545 195.171 103.351C194.988 102.999 194.749 102.679 194.464 102.404C195.584 102.316 196.072 103.172 196.862 103.052C197.847 102.904 197.149 105.869 196.395 106.419Z" fill="black"/>
<path d="M191.849 104.045C191.154 104.031 190.09 103.283 189.498 102.498L189.432 102.126C189.814 102.799 191.068 103.868 191.906 103.883L191.849 104.045Z" fill="white"/>
<path d="M192.473 105.877C191.583 105.877 190.702 105.411 190.154 104.911L190.064 104.663C190.503 105.063 191.439 105.718 192.343 105.718L192.473 105.877Z" fill="white"/>
<path d="M197.209 103.517L197.144 103.367C197.421 103.243 197.748 102.889 197.968 102.339C198.162 101.837 198.322 101.321 198.446 100.797V101.228C198.326 101.793 197.978 103.175 197.209 103.517Z" fill="white"/>
<path d="M196.787 105.672L196.892 105.435C197.518 105.196 198.194 104.172 198.546 103.183V103.477C198.202 104.584 197.466 105.412 196.787 105.672Z" fill="white"/>
<path d="M217.816 94.4378C216.163 94.4378 216.001 99.4683 217.816 99.4683H242.875C244.156 99.4683 244.196 94.4316 242.875 94.4316L217.816 94.4378Z" fill="#2D3551"/>
<path d="M217.816 99.4678V107.355L225.661 117.542H234.898L242.902 107.355V99.4678H217.816Z" fill="#3B446D"/>
<path d="M217.816 100.137C216.893 100.137 216.763 101.585 217.816 101.747C219.167 101.948 241.606 101.604 242.875 101.747C243.671 101.836 243.69 100.137 242.875 100.137C241.559 100.136 219.32 100.141 217.816 100.137Z" fill="#2D3551"/>
<path d="M217.816 102.944C216.893 102.944 216.763 104.392 217.816 104.548C219.167 104.75 241.606 104.405 242.875 104.548C243.671 104.638 243.69 102.938 242.875 102.938C241.559 102.942 219.32 102.946 217.816 102.944Z" fill="#2D3551"/>
<path d="M217.837 105.751C216.915 105.751 216.784 107.199 217.837 107.355C219.188 107.557 241.628 107.212 242.896 107.355C243.692 107.446 243.712 105.745 242.896 105.745C241.581 105.75 219.343 105.754 217.837 105.751Z" fill="#2D3551"/>
<path d="M252.493 63.4436C252.493 75.8446 243.157 83.8914 243.157 94.5817L234.54 94.5594H233.558L227.907 94.5445H226.924L217.293 94.521C217.293 85.114 208.244 73.1379 208.811 61.5929C209.377 50.0479 217.861 42.3467 230.866 42.3467C243.871 42.3467 252.493 51.0426 252.493 63.4436Z" fill="#EFC083"/>
<path d="M240.281 68.4831C239.533 71.3136 238.399 74.3299 237.244 76.5473C234.832 81.1975 234.501 87.9226 234.542 94.561H233.559C233.515 87.7975 233.858 80.9349 236.372 76.089C238.932 71.16 240.637 64.0844 239.906 62.8233C239.869 62.7589 239.853 62.7589 239.842 62.7589H239.83C239.216 62.7589 238.737 64.4386 238.387 65.6687C237.915 67.3224 237.472 68.8894 236.36 68.96C235.132 69.0455 234.929 67.2927 234.714 65.4371C234.562 64.1141 234.329 62.1135 233.682 62.0925H233.672C233.016 62.0925 232.664 63.9902 232.407 65.3788C232.057 67.258 231.755 68.882 230.619 68.9588C229.406 69.0405 229.068 67.3484 228.67 65.3888C228.405 64.0856 228.005 62.1123 227.399 62.095H227.392C226.854 62.095 226.702 64.0398 226.61 65.2042C226.463 67.0809 226.335 68.7036 225.249 68.9489C224.075 69.214 223.224 67.4203 222.323 65.5213C222.015 64.8747 221.576 63.9543 221.291 63.5839C220.72 64.8375 220.747 68.3506 224.193 74.4439C227.652 80.5682 227.896 86.1252 227.906 94.5449H226.924C226.916 86.0509 226.686 80.8606 223.338 74.9369C219.762 68.607 219.543 64.5774 220.532 62.9138C220.778 62.5062 221.097 62.4579 221.269 62.4666C221.945 62.4975 222.401 63.3894 223.21 65.0939C223.579 65.8768 223.968 66.687 224.351 67.2729C224.814 67.9839 225.034 67.9814 225.037 67.9839C225.418 67.8984 225.565 66.0267 225.635 65.1274C225.791 63.1454 225.949 61.1064 227.385 61.1064H227.432C228.813 61.1498 229.232 63.2049 229.636 65.1943C229.791 65.9598 230.201 67.9901 230.555 67.9765C230.934 67.9505 231.279 66.0924 231.444 65.1992C231.824 63.1665 232.212 61.0693 233.713 61.1114C235.214 61.1535 235.455 63.2755 235.692 65.3231C235.786 66.1407 235.983 67.839 236.294 67.9752C236.721 67.9455 237.174 66.3488 237.446 65.3962C237.953 63.6124 238.476 61.7704 239.828 61.7704H239.876C240.058 61.7768 240.236 61.8315 240.391 61.9289C240.546 62.0262 240.673 62.163 240.759 62.3254C241.41 63.4452 240.862 66.2906 240.281 68.4831Z" fill="white"/>
<path d="M196.369 31.049C195.972 29.9936 195.624 28.8787 195.737 27.7564C195.85 26.6341 196.532 25.4994 197.606 25.1836C198.569 24.8987 199.628 25.331 200.359 26.0247C201.089 26.7184 201.556 27.635 202.01 28.543C203.081 30.6736 204.151 32.8051 205.222 34.9374C206.602 37.6874 207.999 40.4299 209.366 43.1886C210.56 45.6004 211.628 46.641 209.98 46.9841C208.81 47.2318 206.654 45.152 205.862 44.5066C204.058 43.0213 202.434 41.327 201.023 39.4588C199.073 36.8996 197.505 34.0663 196.369 31.049Z" fill="#F4CA98"/>
<path d="M221.595 17.1395C221.365 15.9219 221.135 14.6621 221.418 13.4531C221.7 12.2441 222.646 11.0995 223.867 11.0066C224.973 10.9199 226 11.704 226.534 12.6813C227.068 13.6587 227.205 14.8008 227.308 15.912C227.826 21.4999 227.955 25.8429 228.104 31.4531C228.21 35.4332 228.561 38.7109 227.427 40.0425C226.672 40.9282 225.785 39.2572 225.495 38.2501C224.292 34.0768 224.354 31.7579 223.585 27.6837L221.595 17.1395Z" fill="#F4CA98"/>
<path d="M249.97 20.8829C250.83 19.4348 251.913 17.9607 252.927 18.118C253.022 18.1286 253.113 18.1627 253.192 18.2174C253.271 18.2721 253.335 18.3456 253.379 18.4314C253.535 18.7287 253.529 19.2193 253.502 19.6788C253.405 21.1331 253.153 22.5726 252.75 23.9723C252.245 25.7251 251.522 27.3367 250.81 28.9272C249.762 31.2635 248.711 33.6035 247.577 35.8344C246.818 37.3271 244.929 41.5747 243.82 41.9674C241.266 42.8729 245.582 30.2923 246.177 28.7612C247.224 26.0343 248.493 23.3992 249.97 20.8829Z" fill="#F4CA98"/>
<path d="M335.412 251.653H127.635C106.821 251.653 96.311 256.066 125.738 258.679C155.165 261.293 200.503 257.374 200.503 257.374C200.503 257.374 209.46 266.179 274.617 265.997C339.774 265.815 390.936 264.634 390.92 258.748C390.905 253.262 358.743 251.653 335.412 251.653Z" fill="#35C99E"/>
<path opacity="0.15" d="M289.794 251.692C289.794 254.263 259.986 256.348 223.216 256.348C186.445 256.348 156.638 254.263 156.638 251.692H289.794Z" fill="black"/>
<path opacity="0.15" d="M274.475 263.228C285.861 263.228 295.091 262.582 295.091 261.786C295.091 260.989 285.861 260.344 274.475 260.344C263.089 260.344 253.859 260.989 253.859 261.786C253.859 262.582 263.089 263.228 274.475 263.228Z" fill="black"/>
<path d="M266.418 260.941L263.602 261.393L242.781 129.665H245.668L246.963 137.853L247.416 140.728L249.941 156.709L250.397 159.584L252.923 175.564L253.376 178.438L255.902 194.419L256.357 197.293L258.883 213.274L259.337 216.149L261.863 232.13L262.317 235.005L264.843 250.984L265.297 253.858L266.418 260.941Z" fill="#22283F"/>
<path d="M286.436 260.941L283.621 261.393L282.429 253.858L281.976 250.984L279.45 235.005L278.996 232.13L276.47 216.149L276.015 213.274L273.489 197.293L273.036 194.419L270.509 178.438L270.055 175.564L267.529 159.584L267.076 156.709L264.55 140.728L264.095 137.853L262.8 129.665H265.686L281.881 232.13L281.965 232.656L284.863 250.984L285.165 252.903L286.436 260.941Z" fill="#22283F"/>
<path d="M265.956 140.728V137.853H244.681V140.728H265.956Z" fill="#22283F"/>
<path d="M269.157 159.584V156.709H247.882V159.584H269.157Z" fill="#22283F"/>
<path d="M272.358 178.439V175.563H251.083V178.439H272.358Z" fill="#22283F"/>
<path d="M275.561 197.293V194.418H254.285V197.293H275.561Z" fill="#22283F"/>
<path d="M278.762 216.149V213.273H257.486V216.149H278.762Z" fill="#22283F"/>
<path d="M281.963 235.003V232.128H260.687V235.003H281.963Z" fill="#22283F"/>
<path d="M285.166 253.859V250.984H263.891V253.859H285.166Z" fill="#22283F"/>
</g>
<defs>
<linearGradient id="paint0_linear_398_31465" x1="33.327" y1="15.6404" x2="154.143" y2="355.57" gradientUnits="userSpaceOnUse">
<stop stop-color="#6B2BB7"/>
<stop offset="1" stop-color="#150B54"/>
</linearGradient>
<clipPath id="clip0_398_31465">
<rect width="315" height="255" fill="white" transform="translate(77 11)"/>
</clipPath>
</defs>
</svg>
