<svg width="14" height="14" viewBox="0 0 14 14" fill="none" xmlns="http://www.w3.org/2000/svg">
<g clip-path="url(#clip0_398_22797)">
<path d="M7 1.26131C8.86905 1.26131 9.09043 1.26842 9.82855 1.30205C10.511 1.33323 10.8817 1.44725 11.1284 1.54312C11.4551 1.6701 11.6883 1.8218 11.9332 2.06675C12.1782 2.3117 12.3299 2.54488 12.4569 2.87159C12.5528 3.11828 12.6668 3.48895 12.6979 4.1714C12.7316 4.90957 12.7387 5.13095 12.7387 7C12.7387 8.86911 12.7316 9.09048 12.6979 9.8286C12.6668 10.5111 12.5528 10.8817 12.4569 11.1284C12.3299 11.4551 12.1782 11.6884 11.9332 11.9333C11.6883 12.1783 11.4551 12.33 11.1284 12.4569C10.8817 12.5528 10.511 12.6668 9.82855 12.6979C9.09054 12.7316 8.86916 12.7387 7 12.7387C5.13078 12.7387 4.90941 12.7316 4.1714 12.6979C3.4889 12.6668 3.11828 12.5528 2.87159 12.4569C2.54488 12.33 2.31164 12.1783 2.0667 11.9333C1.82175 11.6883 1.67005 11.4551 1.54312 11.1284C1.44725 10.8818 1.33317 10.5111 1.30205 9.8286C1.26837 9.09048 1.26126 8.86911 1.26126 7C1.26126 5.13095 1.26837 4.90957 1.30205 4.17145C1.33323 3.48895 1.44725 3.11828 1.54312 2.87159C1.67005 2.54488 1.82175 2.3117 2.0667 2.06675C2.3117 1.82175 2.54488 1.6701 2.87159 1.54312C3.11823 1.44725 3.4889 1.33323 4.1714 1.30205C4.90952 1.26842 5.13089 1.26131 7 1.26131ZM7 0C5.0989 0 4.86052 0.00803906 4.11392 0.0421094C3.3688 0.076125 2.85994 0.194469 2.41473 0.3675C1.95437 0.546383 1.56401 0.78575 1.17485 1.17491C0.785695 1.56406 0.546383 1.95442 0.3675 2.41473C0.194414 2.85999 0.076125 3.36886 0.0421094 4.11392C0.00803906 4.86052 0 5.0989 0 7C0 8.9011 0.00803906 9.13948 0.0421094 9.88608C0.076125 10.6312 0.194414 11.1401 0.3675 11.5853C0.546328 12.0456 0.785695 12.436 1.17485 12.8251C1.56401 13.2143 1.95437 13.4536 2.41473 13.6325C2.85999 13.8056 3.3688 13.9239 4.11387 13.9579C4.86052 13.992 5.0989 14 7 14C8.9011 14 9.13948 13.992 9.88608 13.9579C10.6311 13.9239 11.14 13.8056 11.5852 13.6325C12.0456 13.4537 12.4359 13.2143 12.8251 12.8251C13.2143 12.436 13.4536 12.0456 13.6325 11.5853C13.8055 11.14 13.9239 10.6312 13.9579 9.88613C13.992 9.13948 14 8.9011 14 7C14 5.0989 13.992 4.86052 13.9579 4.11392C13.9239 3.36886 13.8055 2.85999 13.6325 2.41478C13.4536 1.95442 13.2143 1.56406 12.8251 1.17491C12.4359 0.78575 12.0456 0.546328 11.5853 0.3675C11.14 0.194469 10.6311 0.076125 9.88608 0.0421094C9.13948 0.00803906 8.9011 0 7 0ZM7 3.40539C5.01473 3.40539 3.40539 5.01484 3.40539 7C3.40539 8.98527 5.01473 10.5946 7 10.5946C8.98521 10.5946 10.5946 8.98527 10.5946 7C10.5946 5.01479 8.98521 3.40539 7 3.40539ZM7 9.33335C5.71134 9.33335 4.66665 8.28866 4.66665 7C4.66665 5.71134 5.71134 4.66665 7 4.66665C8.28866 4.66665 9.33335 5.71134 9.33335 7C9.33335 8.28866 8.28866 9.33335 7 9.33335ZM11.5766 3.26337C11.5766 3.72734 11.2005 4.10337 10.7366 4.10337C10.2727 4.10337 9.89658 3.72734 9.89658 3.26337C9.89658 2.79945 10.2727 2.42337 10.7366 2.42337C11.2005 2.42337 11.5766 2.79945 11.5766 3.26337Z" fill="#CBC4CC"/>
</g>
<defs>
<clipPath id="clip0_398_22797">
<rect width="14" height="14" fill="white"/>
</clipPath>
</defs>
</svg>
