<svg width="39" height="39" viewBox="0 0 39 39" fill="none" xmlns="http://www.w3.org/2000/svg">
<g clip-path="url(#clip0_1_13)">
<path d="M28.1104 10.5532H26.3883C26.3324 10.5532 26.287 10.5986 26.287 10.6546V17.7577C26.287 17.8138 26.3324 17.8592 26.3883 17.8592H28.1104C28.1663 17.8592 28.2117 17.8138 28.2117 17.7577V10.6546C28.2117 10.5986 28.1663 10.5532 28.1104 10.5532Z" fill="#161513"/>
<path d="M12.3463 14.4598V17.8226C12.3463 17.8496 12.3356 17.8754 12.3166 17.8944C12.2976 17.9134 12.2719 17.9241 12.245 17.9241H10.5665C10.5396 17.9241 10.5138 17.9134 10.4948 17.8944C10.4759 17.8754 10.4652 17.8496 10.4652 17.8226V10.7054C10.4649 10.6902 10.4676 10.6751 10.4732 10.6609C10.4787 10.6468 10.487 10.6339 10.4976 10.623C10.5081 10.612 10.5207 10.6033 10.5346 10.5972C10.5485 10.5912 10.5635 10.5879 10.5786 10.5876H16.6869V12.5319H14.4168C12.7181 12.746 12.3463 14.4598 12.3463 14.4598ZM16.0052 18.0297H13.2397V14.4598C13.341 13.4451 14.2274 13.3436 14.2274 13.3436H16.302C15.1107 14.7643 16.0052 18.0297 16.0052 18.0297Z" fill="#161513"/>
<path d="M10.8035 10.5532C10.7882 10.553 10.773 10.556 10.7588 10.5618C10.7446 10.5676 10.7317 10.5762 10.7208 10.587C10.71 10.5979 10.7014 10.6108 10.6956 10.625C10.6898 10.6393 10.6869 10.6545 10.687 10.6699V10.6546C10.687 10.6277 10.6977 10.6019 10.7167 10.5829C10.7357 10.5639 10.7614 10.5532 10.7883 10.5532H10.8035Z" fill="#161513"/>
<path d="M21.0195 1.98886V0.008118C31.0784 0.784384 39 9.20763 39 19.4827C39 29.3753 31.6569 37.551 22.1338 38.8387C21.7286 38.8941 21.3234 38.9364 20.9182 38.9655H20.2091V27.905H16.8662V26.0785H17.5753V2.03859C13.1867 2.53461 9.14536 4.66756 6.25547 8.01301C3.36557 11.3585 1.83897 15.6712 1.97943 20.093C2.11989 24.5148 3.91712 28.7216 7.01349 31.8762C10.1099 35.0309 14.2784 36.9021 18.6896 37.1177V39C8.29636 38.5738 0 29.9984 0 19.4827C0 9.34563 7.70984 1.01473 17.5753 0.0436325C17.7445 0.0263821 17.9157 0.0121767 18.0818 0H19.5V26.0785H20.2091V10.6698C20.209 10.6545 20.2119 10.6393 20.2177 10.625C20.2235 10.6108 20.2321 10.5979 20.2429 10.587C20.2538 10.5762 20.2667 10.5676 20.2808 10.5618C20.295 10.5559 20.3103 10.553 20.3256 10.5532H25.6792C25.7061 10.5532 25.7319 10.5638 25.7509 10.5829C25.7699 10.6019 25.7805 10.6277 25.7805 10.6546V17.7577C25.7805 17.7846 25.7699 17.8104 25.7509 17.8295C25.7319 17.8485 25.7061 17.8592 25.6792 17.8592H23.9571C23.9303 17.8592 23.9045 17.8485 23.8855 17.8295C23.8665 17.8104 23.8558 17.7846 23.8558 17.7577V13.7729C23.8558 13.4303 23.72 13.1017 23.4782 12.8595C23.2363 12.6172 22.9083 12.4811 22.5663 12.4811H22.1338V36.9503C26.3969 36.3148 30.2784 34.1324 33.0405 30.8179C35.8025 27.5035 37.2526 23.2879 37.1151 18.9726C36.9775 14.6573 35.262 10.543 32.2945 7.41179C29.327 4.28055 25.3144 2.35063 21.0195 1.98886Z" fill="#161513"/>
</g>
<defs>
<clipPath id="clip0_1_13">
<rect width="39" height="39" fill="white"/>
</clipPath>
</defs>
</svg>
