<svg width="43" height="43" viewBox="0 0 43 43" fill="none" xmlns="http://www.w3.org/2000/svg">
<g clip-path="url(#clip0_398_30489)">
<path d="M30.8817 11.6133H28.9883C28.9268 11.6133 28.877 11.6633 28.877 11.725V19.5423C28.877 19.604 28.9268 19.654 28.9883 19.654H30.8817C30.9432 19.654 30.9931 19.604 30.9931 19.5423V11.725C30.9931 11.6633 30.9432 11.6133 30.8817 11.6133Z" fill="white"/>
<path d="M13.5588 15.9139V19.6149C13.5588 19.6445 13.5471 19.6729 13.5263 19.6939C13.5054 19.7148 13.4771 19.7266 13.4476 19.7266H11.6035C11.574 19.7266 11.5457 19.7148 11.5248 19.6939C11.5039 19.6729 11.4922 19.6445 11.4922 19.6149V11.7819C11.4919 11.7652 11.4949 11.7486 11.501 11.733C11.5071 11.7174 11.5162 11.7032 11.5278 11.6912C11.5394 11.6792 11.5532 11.6696 11.5685 11.6629C11.5837 11.6562 11.6002 11.6526 11.6169 11.6523H18.3276V13.7921H15.8336C13.9673 14.0277 13.5588 15.9139 13.5588 15.9139ZM17.5786 19.8427H14.5404V15.9139C14.6517 14.7972 15.6255 14.6855 15.6255 14.6855H17.9047C16.5959 16.249 17.5786 19.8427 17.5786 19.8427Z" fill="white"/>
<path d="M11.8559 11.6133C11.8404 11.6131 11.8251 11.6161 11.8107 11.6219C11.7964 11.6278 11.7834 11.6364 11.7724 11.6473C11.7615 11.6583 11.7528 11.6712 11.747 11.6855C11.7411 11.6998 11.7381 11.7151 11.7383 11.7306V11.7153C11.7383 11.6882 11.7491 11.6623 11.7682 11.6432C11.7874 11.624 11.8134 11.6133 11.8405 11.6133H11.8559Z" fill="white"/>
<path d="M23.0916 2.18886V0.00893433C34.1417 0.86326 42.8438 10.1335 42.8438 21.4419C42.8438 32.3293 34.7771 41.327 24.3157 42.7442C23.8705 42.8053 23.4254 42.8518 22.9803 42.8838H22.2013V30.7111H18.5291V28.7009H19.3081V2.24358C14.487 2.78949 10.0475 5.13692 6.87281 8.81879C3.69817 12.5007 2.02115 17.2471 2.17545 22.1135C2.32974 26.98 4.30406 31.6098 7.70553 35.0817C11.107 38.5535 15.6863 40.613 20.5321 40.8502V42.9218C9.11481 42.4528 0.000976562 33.015 0.000976562 21.4419C0.000976562 10.2854 8.4705 1.11677 19.3081 0.0480201C19.4939 0.0290351 19.682 0.0134012 19.8645 0H21.4224V28.7009H22.2013V11.7428C22.2012 11.7259 22.2044 11.7091 22.2108 11.6935C22.2171 11.6778 22.2266 11.6636 22.2385 11.6517C22.2504 11.6397 22.2646 11.6302 22.2802 11.6238C22.2958 11.6174 22.3125 11.6142 22.3293 11.6144H28.2104C28.24 11.6144 28.2683 11.6261 28.2891 11.6471C28.31 11.668 28.3217 11.6964 28.3217 11.726V19.5434C28.3217 19.573 28.31 19.6014 28.2891 19.6224C28.2683 19.6433 28.24 19.6551 28.2104 19.6551H26.3187C26.2892 19.6551 26.2609 19.6433 26.24 19.6224C26.2191 19.6014 26.2074 19.573 26.2074 19.5434V15.1579C26.2074 14.7808 26.0582 14.4192 25.7925 14.1526C25.5268 13.886 25.1665 13.7362 24.7908 13.7362H24.3157V40.6659C28.9989 39.9666 33.2628 37.5647 36.297 33.9169C39.3312 30.2692 40.9242 25.6297 40.7731 20.8805C40.622 16.1312 38.7374 11.6032 35.4775 8.15711C32.2176 4.71099 27.8097 2.58701 23.0916 2.18886Z" fill="white"/>
</g>
<defs>
<clipPath id="clip0_398_30489">
<rect width="42.8428" height="42.9218" fill="white"/>
</clipPath>
</defs>
</svg>
