<svg width="39" height="39" viewBox="0 0 39 39" fill="none" xmlns="http://www.w3.org/2000/svg">
<g clip-path="url(#clip0_382_2)">
<path d="M28.1105 10.5532H26.3884C26.3325 10.5532 26.2871 10.5987 26.2871 10.6547V17.7578C26.2871 17.8138 26.3325 17.8593 26.3884 17.8593H28.1105C28.1664 17.8593 28.2118 17.8138 28.2118 17.7578V10.6547C28.2118 10.5987 28.1664 10.5532 28.1105 10.5532Z" fill="#E8E3D2"/>
<path d="M12.3465 14.4601V17.8229C12.3465 17.8498 12.3358 17.8756 12.3168 17.8946C12.2978 17.9137 12.272 17.9244 12.2452 17.9244H10.5666C10.5398 17.9244 10.514 17.9137 10.495 17.8946C10.476 17.8756 10.4654 17.8498 10.4654 17.8229V10.7056C10.4651 10.6904 10.4678 10.6753 10.4734 10.6612C10.4789 10.647 10.4872 10.6341 10.4977 10.6232C10.5083 10.6123 10.5208 10.6035 10.5348 10.5975C10.5487 10.5914 10.5636 10.5882 10.5788 10.5879H16.6871V12.5321H14.417C12.7182 12.7462 12.3465 14.4601 12.3465 14.4601ZM16.0054 18.0299H13.2399V14.4601C13.3412 13.4454 14.2276 13.3439 14.2276 13.3439H16.3022C15.1109 14.7645 16.0054 18.0299 16.0054 18.0299Z" fill="#E8E3D2"/>
<path d="M10.8035 10.5532C10.7882 10.5531 10.773 10.556 10.7588 10.5618C10.7446 10.5676 10.7317 10.5762 10.7208 10.5871C10.71 10.598 10.7014 10.6109 10.6956 10.6251C10.6898 10.6393 10.6869 10.6546 10.687 10.6699V10.6547C10.687 10.6278 10.6977 10.602 10.7167 10.5829C10.7357 10.5639 10.7614 10.5532 10.7883 10.5532H10.8035Z" fill="#E8E3D2"/>
<path d="M21.0195 1.98886V0.008118C31.0784 0.784384 39 9.20763 39 19.4828C39 29.3753 31.6569 37.551 22.1338 38.8387C21.7286 38.8941 21.3234 38.9364 20.9182 38.9655H20.2091V27.905H16.8662V26.0785H17.5753V2.03859C13.1867 2.53461 9.14536 4.66756 6.25547 8.01301C3.36557 11.3585 1.83897 15.6712 1.97943 20.093C2.11989 24.5148 3.91712 28.7216 7.01349 31.8762C10.1099 35.0309 14.2784 36.9021 18.6896 37.1177V39C8.29636 38.5738 0 29.9984 0 19.4828C0 9.34563 7.70984 1.01473 17.5753 0.0436325C17.7445 0.0263821 17.9157 0.0121767 18.0818 0H19.5V26.0785H20.2091V10.6698C20.209 10.6545 20.2119 10.6393 20.2177 10.625C20.2235 10.6108 20.2321 10.5979 20.2429 10.587C20.2538 10.5762 20.2667 10.5676 20.2808 10.5618C20.295 10.5559 20.3103 10.553 20.3256 10.5532H25.6792C25.7061 10.5532 25.7319 10.5638 25.7509 10.5829C25.7699 10.6019 25.7805 10.6277 25.7805 10.6546V17.7577C25.7805 17.7846 25.7699 17.8104 25.7509 17.8295C25.7319 17.8485 25.7061 17.8592 25.6792 17.8592H23.9571C23.9303 17.8592 23.9045 17.8485 23.8855 17.8295C23.8665 17.8104 23.8558 17.7846 23.8558 17.7577V13.7729C23.8558 13.4303 23.72 13.1017 23.4782 12.8595C23.2363 12.6172 22.9083 12.4811 22.5663 12.4811H22.1338V36.9503C26.3969 36.3148 30.2784 34.1324 33.0405 30.8179C35.8025 27.5035 37.2526 23.2879 37.1151 18.9726C36.9775 14.6573 35.262 10.543 32.2945 7.41179C29.327 4.28055 25.3144 2.35063 21.0195 1.98886Z" fill="#E8E3D2"/>
</g>
<defs>
<clipPath id="clip0_382_2">
<rect width="39" height="39" fill="white"/>
</clipPath>
</defs>
</svg>
