<svg width="286" height="230" viewBox="0 0 286 230" fill="none" xmlns="http://www.w3.org/2000/svg">
<g clip-path="url(#clip0_436_4250)">
<path d="M188.184 167.517L185.018 172.462L186.862 166.025C182.968 161.989 177.577 159.037 177.577 159.037C177.577 159.037 170.939 169.873 172.725 176.538C174.512 183.204 179.125 184.476 184.047 183.175C188.969 181.874 192.334 178.491 190.548 171.826C190.15 170.342 189.286 168.886 188.184 167.517Z" fill="#F2F2F2"/>
<path d="M183.996 172.955L184.084 173.283C185.088 177.107 185.239 180.259 184.529 182.693C184.519 182.729 184.507 182.763 184.497 182.799L184.332 182.75L184.173 182.702C184.978 180.063 184.619 176.728 183.744 173.392C183.717 173.285 183.689 173.175 183.658 173.067C183.275 171.658 182.806 170.254 182.295 168.905C182.257 168.801 182.216 168.695 182.175 168.589C181.492 166.812 180.746 165.138 180.054 163.696C180.005 163.594 179.955 163.492 179.906 163.392C178.725 160.956 177.724 159.23 177.499 158.849C177.472 158.802 177.457 158.776 177.453 158.77L177.597 158.685L177.598 158.683L177.744 158.598C177.747 158.604 177.8 158.689 177.892 158.849C178.24 159.447 179.164 161.075 180.229 163.263C180.276 163.362 180.326 163.464 180.375 163.566C180.937 164.736 181.534 166.052 182.101 167.448C182.244 167.799 182.381 168.146 182.512 168.489C182.554 168.595 182.595 168.701 182.633 168.806C183.186 170.264 183.64 171.647 183.996 172.955Z" fill="white"/>
<path d="M180.228 163.263C180.123 163.307 180.015 163.351 179.905 163.392C179.607 163.505 179.303 163.602 178.994 163.684C177.68 164.033 176.304 164.085 174.966 163.836C174.921 163.94 174.875 164.045 174.828 164.151C176.238 164.426 177.693 164.378 179.081 164.009C179.411 163.922 179.735 163.817 180.053 163.696C180.162 163.655 180.269 163.611 180.374 163.566C181.245 163.198 182.055 162.7 182.776 162.09C182.681 162.019 182.589 161.949 182.499 161.881C181.815 162.45 181.05 162.916 180.228 163.263Z" fill="white"/>
<path d="M182.511 168.49C182.4 168.526 182.288 168.559 182.175 168.589C182.141 168.6 182.105 168.609 182.071 168.618C180.646 168.995 179.151 169.024 177.713 168.703C176.274 168.382 174.936 167.72 173.811 166.774C173.771 166.887 173.731 167 173.693 167.115C174.857 168.065 176.231 168.727 177.703 169.045C179.175 169.363 180.702 169.328 182.158 168.944C182.204 168.931 182.25 168.919 182.295 168.906C182.409 168.874 182.521 168.841 182.633 168.806C184.358 168.254 185.886 167.221 187.035 165.83C186.957 165.748 186.879 165.666 186.799 165.584C185.685 166.947 184.195 167.956 182.511 168.49Z" fill="white"/>
<path d="M183.995 172.954C183.883 172.994 183.77 173.031 183.657 173.066C183.535 173.104 183.413 173.14 183.29 173.172C181.376 173.676 179.348 173.55 177.511 172.814C175.674 172.078 174.127 170.77 173.101 169.087C173.062 169.239 173.023 169.388 172.988 169.539C174.081 171.199 175.673 172.475 177.538 173.186C179.404 173.897 181.447 174.006 183.377 173.497C183.5 173.465 183.623 173.431 183.742 173.392C183.858 173.358 183.97 173.321 184.083 173.283C186.35 172.491 188.23 170.873 189.341 168.756C189.274 168.645 189.203 168.536 189.131 168.426C188.077 170.542 186.235 172.166 183.995 172.954Z" fill="white"/>
<path d="M171.872 54.9198L168.705 59.8641L170.55 53.4275C166.655 49.3917 161.264 46.4395 161.264 46.4395C161.264 46.4395 154.626 57.2752 156.413 63.9406C158.199 70.6061 162.813 71.8785 167.735 70.5772C172.656 69.2759 176.022 65.8936 174.235 59.2282C173.838 57.7446 172.974 56.2881 171.872 54.9198Z" fill="#F2F2F2"/>
<path d="M167.682 60.357L167.77 60.6856C168.774 64.5098 168.924 67.6609 168.214 70.0955C168.204 70.1312 168.193 70.1657 168.183 70.2014L168.017 70.1528L167.859 70.1042C168.663 67.4652 168.304 64.1306 167.429 60.7948C167.402 60.687 167.375 60.5776 167.344 60.4691C166.961 59.0602 166.492 57.6567 165.981 56.3078C165.942 56.203 165.902 56.0971 165.861 55.9911C165.178 54.2141 164.431 52.5408 163.739 51.0987C163.691 50.9965 163.641 50.8948 163.591 50.7947C162.41 48.3584 161.409 46.6323 161.184 46.2511C161.158 46.2042 161.142 46.1787 161.139 46.1726L161.282 46.0876L161.284 46.0855L161.429 46C161.433 46.0061 161.485 46.0914 161.577 46.2517C161.925 46.8495 162.849 48.4776 163.914 50.6657C163.962 50.7646 164.012 50.8663 164.06 50.9685C164.623 52.1382 165.22 53.4541 165.787 54.8507C165.93 55.2013 166.067 55.5483 166.197 55.8917C166.24 55.9973 166.28 56.1032 166.319 56.2079C166.871 57.6661 167.325 59.0491 167.682 60.357Z" fill="white"/>
<path d="M163.914 50.6656C163.808 50.7093 163.701 50.7534 163.591 50.7946C163.292 50.9071 162.988 51.0044 162.68 51.086C161.365 51.4354 159.989 51.4874 158.652 51.2383C158.606 51.3427 158.561 51.4471 158.514 51.5535C159.924 51.8286 161.379 51.7799 162.767 51.4113C163.096 51.3241 163.421 51.2197 163.739 51.0986C163.847 51.0577 163.955 51.0137 164.06 50.9684C164.931 50.5999 165.741 50.1021 166.461 49.4921C166.367 49.4213 166.275 49.3517 166.184 49.2832C165.5 49.8525 164.735 50.3184 163.914 50.6656Z" fill="white"/>
<path d="M166.197 55.8919C166.086 55.9283 165.974 55.9614 165.861 55.9913C165.827 56.002 165.791 56.0116 165.756 56.0207C164.332 56.3973 162.836 56.4263 161.398 56.1051C159.96 55.7839 158.621 55.1221 157.496 54.176C157.456 54.2893 157.417 54.4025 157.379 54.517C158.542 55.4677 159.917 56.1295 161.389 56.4476C162.861 56.7656 164.388 56.7308 165.843 56.346C165.889 56.3338 165.935 56.3217 165.98 56.3079C166.095 56.276 166.207 56.2429 166.318 56.2081C168.043 55.6568 169.571 54.6239 170.721 53.2327C170.643 53.1506 170.564 53.0685 170.485 52.9868C169.37 54.3489 167.88 55.3586 166.197 55.8919Z" fill="white"/>
<path d="M167.68 60.3568C167.568 60.3968 167.455 60.4336 167.342 60.4688C167.221 60.5062 167.099 60.5419 166.976 60.5744C165.061 61.0783 163.033 60.9527 161.196 60.2164C159.36 59.48 157.812 58.1726 156.786 56.4897C156.748 56.6409 156.709 56.7906 156.674 56.9409C157.767 58.6015 159.359 59.8778 161.224 60.5885C163.089 61.2992 165.132 61.4081 167.063 60.8997C167.186 60.8672 167.308 60.8331 167.428 60.7946C167.543 60.7606 167.656 60.7238 167.768 60.6853C170.036 59.8932 171.915 58.2749 173.026 56.1582C172.96 56.0469 172.888 55.9386 172.817 55.8286C171.763 57.9439 169.92 59.5682 167.68 60.3568Z" fill="white"/>
<path d="M84.7947 175.817L78.8948 175.843L85.3443 173.906C86.6581 168.47 86.245 162.37 86.245 162.37C86.245 162.37 73.4778 162.68 68.7972 167.775C64.1165 172.871 65.5324 177.414 69.2949 180.823C73.0574 184.232 77.7418 185.216 82.4225 180.121C83.4643 178.986 84.2311 177.477 84.7947 175.817Z" fill="#F2F2F2"/>
<path d="M77.925 175.255L77.6943 175.506C74.9975 178.412 72.4093 180.241 69.9631 180.964C69.9276 180.975 69.892 180.984 69.8566 180.995L69.8082 180.83L69.7637 180.671C72.4339 179.917 75.0647 177.815 77.4176 175.28C77.4942 175.2 77.572 175.117 77.6473 175.033C78.6338 173.951 79.5691 172.801 80.4358 171.645C80.5037 171.556 80.5714 171.465 80.6392 171.374C81.7752 169.842 82.7891 168.314 83.6369 166.956C83.6972 166.861 83.7563 166.764 83.8143 166.668C85.2398 164.365 86.1609 162.595 86.3622 162.201C86.3876 162.154 86.4008 162.127 86.4041 162.121L86.5539 162.195L86.5563 162.195L86.7073 162.27C86.704 162.276 86.6602 162.366 86.5741 162.53C86.2558 163.144 85.376 164.796 84.0983 166.869C84.0402 166.962 83.9811 167.059 83.9207 167.154C83.2339 168.257 82.4416 169.466 81.5651 170.695C81.3455 171.004 81.1255 171.306 80.9052 171.601C80.8387 171.693 80.7709 171.785 80.7031 171.873C79.7663 173.123 78.8403 174.25 77.925 175.255Z" fill="white"/>
<path d="M84.0988 166.869C84.0046 166.804 83.9092 166.738 83.8149 166.668C83.5582 166.48 83.3115 166.278 83.0756 166.065C82.0693 165.155 81.2812 164.033 80.7695 162.781C80.6564 162.8 80.5432 162.818 80.4277 162.836C80.9569 164.163 81.7845 165.352 82.8472 166.313C83.099 166.541 83.3628 166.756 83.6374 166.956C83.7305 167.025 83.8259 167.091 83.9212 167.154C84.7043 167.683 85.5636 168.091 86.4698 168.363C86.4788 168.246 86.4879 168.131 86.4971 168.019C85.645 167.755 84.8369 167.367 84.0988 166.869Z" fill="white"/>
<path d="M80.9052 171.601C80.8143 171.528 80.7256 171.452 80.6392 171.374C80.6118 171.351 80.5843 171.326 80.558 171.302C79.4689 170.316 78.6362 169.082 78.1309 167.707C77.6256 166.331 77.4627 164.855 77.656 163.403C77.5385 163.431 77.4211 163.459 77.3037 163.49C77.1271 164.975 77.3094 166.482 77.8356 167.884C78.3618 169.286 79.2167 170.543 80.3295 171.551C80.3646 171.583 80.3996 171.615 80.4358 171.645C80.5246 171.723 80.6133 171.799 80.7031 171.874C82.1023 173.017 83.8035 173.736 85.6031 173.944C85.6304 173.834 85.6577 173.725 85.6838 173.614C83.9277 173.419 82.267 172.72 80.9052 171.601Z" fill="white"/>
<path d="M77.9255 175.255C77.831 175.183 77.7388 175.109 77.6477 175.033C77.5504 174.952 77.4542 174.869 77.3603 174.784C75.8985 173.456 74.9089 171.694 74.5398 169.761C74.1707 167.828 74.4419 165.829 75.3128 164.062C75.164 164.111 75.0163 164.16 74.8699 164.212C74.054 166.022 73.8334 168.043 74.2394 169.985C74.6455 171.928 75.6576 173.694 77.1319 175.033C77.2258 175.118 77.3208 175.201 77.4181 175.28C77.5092 175.358 77.6014 175.433 77.6948 175.506C79.5913 176.972 81.978 177.668 84.3716 177.452C84.4299 177.337 84.4832 177.219 84.5377 177.099C82.176 177.362 79.8042 176.7 77.9255 175.255Z" fill="white"/>
<path d="M65.2076 180.415L68.5976 180.414L70.2103 167.428L65.207 167.428L65.2076 180.415Z" fill="#FFB6B6"/>
<path d="M64.3438 179.315L71.0199 179.315H71.0202C72.1485 179.315 73.2307 179.76 74.0285 180.553C74.8264 181.345 75.2747 182.42 75.2748 183.54V183.678L64.344 183.678L64.3438 179.315Z" fill="#2F2E41"/>
<path d="M38.3853 180.415L41.7754 180.414L43.388 167.428L38.3848 167.428L38.3853 180.415Z" fill="#FFB6B6"/>
<path d="M37.5215 179.315L44.1976 179.315H44.1979C45.3263 179.315 46.4084 179.76 47.2063 180.553C48.0041 181.345 48.4524 182.42 48.4525 183.54V183.678L37.5217 183.678L37.5215 179.315Z" fill="#2F2E41"/>
<path d="M44.1345 127.07L41.8497 129.159L39.2745 154.391L37.541 174.482L42.7796 175.183L55.4859 140.855L64.7832 175.02L71.0512 175.183L66.891 130.586L44.1345 127.07Z" fill="#2F2E41"/>
<path d="M55.1761 89.761C58.7704 89.761 61.6842 86.867 61.6842 83.2972C61.6842 79.7274 58.7704 76.8335 55.1761 76.8335C51.5817 76.8335 48.668 79.7274 48.668 83.2972C48.668 86.867 51.5817 89.761 55.1761 89.761Z" fill="#FFB9B9"/>
<path d="M51.8457 80.296C51.8457 80.296 51.0698 81.9637 54.1734 81.2967C54.1734 81.2967 55.3372 81.9637 55.3372 80.9631C55.3372 80.9631 56.889 82.6308 57.277 81.6302C57.6649 80.6296 58.4408 81.9637 58.4408 81.9637L59.2167 80.296L59.9926 81.2967H62.7082C62.7082 81.2967 63.4841 74.6259 54.1734 75.293C44.8626 75.9601 49.443 86.5292 49.443 86.5292C49.443 86.5292 49.518 84.632 50.2939 85.6326C51.0698 86.6332 51.8457 80.296 51.8457 80.296Z" fill="#2F2E41"/>
<path d="M60.1346 91.8704L50.9574 91.2998L42.7794 93.4544L44.019 114.385L41.8496 129.159C41.8496 129.159 53.752 136.385 67.2622 130.698L65.979 127.345C65.979 127.345 65.9348 122.214 64.8509 121.209C63.7669 120.205 63.8532 111.922 63.8532 111.922L67.8821 96.5324L60.1346 91.8704Z" fill="#3F3D56"/>
<path d="M44.9654 94.1151L42.7808 93.4546C42.7808 93.4546 39.3785 93.5674 37.6095 97.4114C35.8404 101.255 34.7344 106.748 34.7344 106.748L45.9702 107.152L44.9654 94.1151Z" fill="#3F3D56"/>
<path d="M71.0442 130.807L70.6804 108.121L65.8262 108.844L66.8983 130.338C66.457 130.697 66.1322 131.178 65.9644 131.72C65.7966 132.262 65.7933 132.842 65.9549 133.385C66.1165 133.929 66.4358 134.414 66.873 134.779C67.3102 135.143 67.8458 135.372 68.4131 135.436C68.9804 135.5 69.5541 135.397 70.0627 135.14C70.5713 134.882 70.9922 134.481 71.2729 133.987C71.5535 133.494 71.6815 132.929 71.6408 132.363C71.6002 131.797 71.3926 131.256 71.0442 130.807Z" fill="#FFB9B9"/>
<path d="M65.1511 98.5088L67.8837 96.5322C67.8837 96.5322 73.1344 100.611 73.1522 109.584L65.8272 111.348L61.6855 105.432L65.1511 98.5088Z" fill="#3F3D56"/>
<path d="M212.52 180.402L215.91 180.402L217.523 167.415L212.52 167.415L212.52 180.402Z" fill="#9E616A"/>
<path d="M211.656 179.303L218.332 179.302C219.461 179.302 220.543 179.748 221.341 180.54C222.139 181.332 222.587 182.407 222.587 183.528V183.665L211.656 183.665L211.656 179.303Z" fill="#2F2E41"/>
<path d="M192.455 177.539L195.687 178.554L201.169 166.655L196.398 165.157L192.455 177.539Z" fill="#9E616A"/>
<path d="M191.965 176.231L198.331 178.231C199.407 178.569 200.303 179.318 200.823 180.312C201.343 181.307 201.444 182.466 201.104 183.534L201.062 183.665L190.641 180.391L191.965 176.231Z" fill="#2F2E41"/>
<path d="M200.088 121.09L198.207 126.36L198.153 154.808L192.818 174.285L199.367 176.1L206.601 157.735L208.921 141.604L211.979 157.829L211.558 177.113H218.429L218.948 147.396C219.093 139.05 217.623 130.754 214.617 122.959L200.088 121.09Z" fill="#2F2E41"/>
<path d="M197.847 99.7446H208.954L213.594 104.354L214.98 123.405L198.207 126.086L192.818 107.908L195.753 100.183L197.847 99.7446Z" fill="#6C63FF"/>
<path d="M193.853 108.09L176.754 101.7L176.309 99.0588L187.093 89.9961L190.682 92.6699L184.176 99.7446L195.753 100.183L193.853 108.09Z" fill="#6C63FF"/>
<path d="M189.167 93.703C190.695 93.703 191.933 92.4735 191.933 90.9567C191.933 89.44 190.695 88.2104 189.167 88.2104C187.64 88.2104 186.402 89.44 186.402 90.9567C186.402 92.4735 187.64 93.703 189.167 93.703Z" fill="#9E616A"/>
<path d="M195.579 94.4163L196.829 88.8205C197.274 86.8334 198.496 85.1032 200.225 84.0103C201.955 82.9173 204.05 82.551 206.051 82.9918C208.052 83.4325 209.796 84.6444 210.898 86.3609C212 88.0775 212.37 90.1584 211.928 92.1463L210.679 97.7421C210.619 98.0091 210.455 98.2416 210.223 98.3885C209.99 98.5355 209.709 98.5849 209.44 98.526L196.368 95.647C196.1 95.5874 195.865 95.4244 195.718 95.1937C195.57 94.963 195.52 94.6834 195.579 94.4163Z" fill="#2F2E41"/>
<path d="M202.609 96.7481C205.741 96.7481 208.279 94.227 208.279 91.117C208.279 88.007 205.741 85.4858 202.609 85.4858C199.478 85.4858 196.939 88.007 196.939 91.117C196.939 94.227 199.478 96.7481 202.609 96.7481Z" fill="#9E616A"/>
<path d="M194.943 88.8747C195.296 87.3025 196.262 85.9335 197.63 85.0681C198.998 84.2027 200.656 83.9116 202.24 84.2585L203.367 84.5067C204.95 84.8573 206.328 85.8171 207.199 87.1757C208.071 88.5343 208.364 90.1808 208.014 91.7538L207.989 91.8657L205.608 91.3412L205.3 88.9034L204.633 91.1265L203.403 90.8554L203.247 89.6254L202.911 90.7471L194.918 88.9866L194.943 88.8747Z" fill="#2F2E41"/>
<path d="M200.668 97.254C200.59 97.079 200.563 96.8856 200.591 96.6961C200.618 96.5066 200.699 96.3287 200.824 96.1829C202.522 94.1901 205.125 90.3901 203.479 87.3307L203.361 87.1108L209.804 88.5299L207.659 98.1368L201.577 97.8733C201.515 97.8707 201.454 97.8627 201.394 97.8495C201.234 97.8143 201.085 97.742 200.959 97.6385C200.833 97.5349 200.733 97.4032 200.668 97.254Z" fill="#2F2E41"/>
<path d="M271.67 184H0.328286C0.241132 184 0.157633 183.965 0.0960938 183.904C0.0345552 183.843 0 183.76 0 183.673C0 183.587 0.0345552 183.504 0.0960938 183.442C0.157633 183.381 0.241132 183.346 0.328286 183.346H271.67C271.757 183.346 271.841 183.381 271.903 183.442C271.964 183.503 271.999 183.586 271.999 183.673C271.999 183.76 271.964 183.843 271.903 183.904C271.841 183.966 271.757 184 271.67 184Z" fill="#CACACA"/>
<path d="M137.14 103.046H49.3981C48.7321 103.046 48.0725 103.176 47.4572 103.429C46.8418 103.682 46.2827 104.054 45.8117 104.521C45.3407 104.989 44.9671 105.544 44.7123 106.156C44.4574 106.767 44.3262 107.422 44.3262 108.083V129.042C44.3262 129.703 44.4574 130.358 44.7122 130.969C44.9671 131.58 45.3407 132.136 45.8117 132.603C46.2827 133.071 46.8418 133.442 47.4572 133.695C48.0725 133.949 48.7321 134.079 49.3981 134.079H50.686V137.865C50.686 138.095 50.7546 138.32 50.8831 138.511C51.0117 138.702 51.1943 138.851 51.4081 138.939C51.6218 139.027 51.857 139.05 52.0839 139.005C52.3108 138.96 52.5192 138.849 52.6828 138.687L57.3223 134.079H137.14C137.806 134.079 138.466 133.949 139.081 133.695C139.696 133.442 140.256 133.071 140.727 132.603C141.198 132.136 141.571 131.58 141.826 130.969C142.081 130.358 142.212 129.703 142.212 129.042V108.083C142.212 107.422 142.081 106.767 141.826 106.156C141.571 105.544 141.198 104.989 140.727 104.521C140.256 104.054 139.696 103.682 139.081 103.429C138.466 103.176 137.806 103.046 137.14 103.046Z" fill="#E6E6E6"/>
<path d="M116.038 131.47H49.3983C48.75 131.469 48.1285 131.213 47.6701 130.758C47.2117 130.302 46.9539 129.685 46.9531 129.041V108.083C46.9539 107.439 47.2117 106.822 47.6701 106.367C48.1284 105.912 48.7499 105.656 49.3981 105.655H137.14C137.788 105.656 138.41 105.912 138.868 106.367C139.327 106.822 139.585 107.439 139.585 108.083C139.578 114.284 137.095 120.228 132.681 124.612C128.266 128.997 122.281 131.463 116.038 131.47Z" fill="white"/>
<path d="M111.888 110.187H74.8349C73.9186 110.187 73.1758 110.924 73.1758 111.834V111.834C73.1758 112.744 73.9186 113.482 74.8349 113.482H111.888C112.804 113.482 113.547 112.744 113.547 111.834C113.547 110.924 112.804 110.187 111.888 110.187Z" fill="#6C63FF"/>
<path d="M119.768 116.777H66.954C66.0377 116.777 65.2949 117.515 65.2949 118.425V118.425C65.2949 119.335 66.0377 120.073 66.954 120.073H119.768C120.684 120.073 121.427 119.335 121.427 118.425C121.427 117.515 120.684 116.777 119.768 116.777Z" fill="#E6E6E6"/>
<path d="M119.768 123.369H66.954C66.0377 123.369 65.2949 124.106 65.2949 125.016V125.016C65.2949 125.926 66.0377 126.664 66.954 126.664H119.768C120.684 126.664 121.427 125.926 121.427 125.016C121.427 124.106 120.684 123.369 119.768 123.369Z" fill="#E6E6E6"/>
<path d="M262.145 117.639H198.693C198.212 117.639 197.735 117.733 197.29 117.916C196.845 118.099 196.44 118.367 196.1 118.706C195.759 119.044 195.489 119.445 195.305 119.887C195.12 120.329 195.025 120.803 195.025 121.282V136.438C195.025 136.916 195.12 137.39 195.305 137.832C195.489 138.274 195.759 138.675 196.1 139.014C196.44 139.352 196.845 139.62 197.29 139.803C197.735 139.986 198.212 140.081 198.693 140.081H199.625V142.819C199.625 142.985 199.674 143.147 199.767 143.286C199.86 143.424 199.992 143.531 200.147 143.595C200.301 143.659 200.471 143.675 200.635 143.643C200.8 143.61 200.95 143.53 201.069 143.413L204.424 140.081H262.145C262.627 140.081 263.104 139.986 263.549 139.803C263.994 139.62 264.398 139.352 264.739 139.014C265.079 138.675 265.349 138.274 265.534 137.832C265.718 137.39 265.813 136.916 265.813 136.438V121.282C265.813 120.803 265.718 120.329 265.534 119.887C265.349 119.445 265.079 119.044 264.739 118.706C264.398 118.367 263.994 118.099 263.549 117.916C263.104 117.733 262.627 117.639 262.145 117.639Z" fill="#E6E6E6"/>
<path d="M262.145 138.232H198.693C198.214 138.232 197.755 138.042 197.416 137.706C197.078 137.37 196.887 136.914 196.887 136.438V121.282C196.887 120.806 197.078 120.35 197.416 120.013C197.755 119.677 198.214 119.488 198.693 119.487H246.885C251.41 119.492 255.748 121.28 258.947 124.458C262.147 127.635 263.947 131.944 263.952 136.438C263.951 136.914 263.761 137.37 263.422 137.706C263.083 138.042 262.624 138.232 262.145 138.232Z" fill="white"/>
<path d="M243.884 122.802H217.088C216.426 122.802 215.889 123.336 215.889 123.994C215.889 124.652 216.426 125.185 217.088 125.185H243.884C244.546 125.185 245.084 124.652 245.084 123.994C245.084 123.336 244.546 122.802 243.884 122.802Z" fill="#6C63FF"/>
<path d="M249.583 127.569H211.389C210.727 127.569 210.189 128.102 210.189 128.76C210.189 129.419 210.727 129.952 211.389 129.952H249.583C250.245 129.952 250.782 129.419 250.782 128.76C250.782 128.102 250.245 127.569 249.583 127.569Z" fill="#E6E6E6"/>
<path d="M249.583 132.335H211.389C210.727 132.335 210.189 132.869 210.189 133.527C210.189 134.185 210.727 134.719 211.389 134.719H249.583C250.245 134.719 250.782 134.185 250.782 133.527C250.782 132.869 250.245 132.335 249.583 132.335Z" fill="#E6E6E6"/>
<path d="M126.801 64.3608H190.253C190.734 64.3608 191.211 64.4551 191.656 64.6381C192.101 64.8212 192.506 65.0895 192.846 65.4278C193.187 65.7661 193.457 66.1677 193.641 66.6096C193.826 67.0516 193.92 67.5253 193.92 68.0037V83.1599C193.92 83.6383 193.826 84.112 193.641 84.554C193.457 84.996 193.187 85.3976 192.846 85.7358C192.506 86.0741 192.101 86.3424 191.656 86.5255C191.211 86.7086 190.734 86.8028 190.253 86.8028H189.321V89.541C189.321 89.7072 189.272 89.8696 189.179 90.0078C189.086 90.1459 188.954 90.2536 188.799 90.3172C188.644 90.3808 188.474 90.3974 188.31 90.365C188.146 90.3326 187.995 90.2526 187.877 90.1351L184.522 86.8028H126.801C126.319 86.8028 125.842 86.7086 125.397 86.5255C124.952 86.3424 124.548 86.0741 124.207 85.7358C123.867 85.3976 123.596 84.996 123.412 84.554C123.228 84.112 123.133 83.6383 123.133 83.16V68.0037C123.133 67.5253 123.228 67.0516 123.412 66.6096C123.596 66.1677 123.867 65.7661 124.207 65.4278C124.548 65.0895 124.952 64.8212 125.397 64.6381C125.842 64.4551 126.319 64.3608 126.801 64.3608Z" fill="#E6E6E6"/>
<path d="M190.253 84.9541H142.061C137.536 84.949 133.198 83.1616 129.999 79.9839C126.799 76.8062 124.999 72.4978 124.994 68.0038C124.995 67.5281 125.185 67.072 125.524 66.7356C125.862 66.3993 126.322 66.21 126.801 66.2095H190.253C190.731 66.21 191.191 66.3992 191.529 66.7356C191.868 67.0719 192.059 67.528 192.059 68.0037V83.1599C192.059 83.6356 191.868 84.0916 191.529 84.428C191.191 84.7643 190.731 84.9535 190.253 84.9541Z" fill="white"/>
<path d="M145.062 71.9077H171.857C172.519 71.9077 173.057 71.3742 173.057 70.7161C173.057 70.058 172.519 69.5245 171.857 69.5245H145.062C144.399 69.5245 143.862 70.058 143.862 70.7161C143.862 71.3742 144.399 71.9077 145.062 71.9077Z" fill="#6C63FF"/>
<path d="M139.363 76.6743H177.556C178.219 76.6743 178.756 76.1408 178.756 75.4827C178.756 74.8246 178.219 74.2911 177.556 74.2911H139.363C138.7 74.2911 138.163 74.8246 138.163 75.4827C138.163 76.1408 138.7 76.6743 139.363 76.6743Z" fill="#E6E6E6"/>
<path d="M139.363 81.4404H177.556C178.219 81.4404 178.756 80.9069 178.756 80.2488C178.756 79.5907 178.219 79.0572 177.556 79.0572H139.363C138.7 79.0572 138.163 79.5907 138.163 80.2488C138.163 80.9069 138.7 81.4404 139.363 81.4404Z" fill="#E6E6E6"/>
<path d="M53.6751 102.628C53.6751 101.863 53.3692 101.13 52.8247 100.589C52.2802 100.048 51.5417 99.7446 50.7717 99.7446C50.0016 99.7446 49.2631 100.048 48.7186 100.589C48.1742 101.13 47.8683 101.863 47.8683 102.628C47.8683 102.656 47.8716 102.684 47.8724 102.712L42.7803 107.769L43.1675 106.885L37.3607 106.61L36.5136 112.699C36.4394 113.262 36.5427 113.833 36.8093 114.334C37.0759 114.835 37.4927 115.242 38.002 115.498C38.5113 115.754 39.0881 115.847 39.6527 115.763C40.2173 115.68 40.7419 115.424 41.154 115.032L51.1916 105.478C51.8811 105.379 52.5115 105.036 52.9675 104.512C53.4235 103.989 53.6747 103.32 53.6751 102.628Z" fill="#FFB9B9"/>
<path d="M208.512 99.8604L226.6 102.415L227.611 104.897L219.063 116.067L214.975 114.23L219.781 105.922L208.385 107.989L208.512 99.8604Z" fill="#6C63FF"/>
<path d="M216.542 119.244C218.07 119.244 219.308 118.014 219.308 116.497C219.308 114.981 218.07 113.751 216.542 113.751C215.015 113.751 213.777 114.981 213.777 116.497C213.777 118.014 215.015 119.244 216.542 119.244Z" fill="#9E616A"/>
</g>
<defs>
<clipPath id="clip0_436_4250">
<rect width="272" height="138" fill="white" transform="translate(0 46)"/>
</clipPath>
</defs>
</svg>
