<svg width="162" height="208" viewBox="0 0 162 208" fill="none" xmlns="http://www.w3.org/2000/svg">
<path fill-rule="evenodd" clip-rule="evenodd" d="M44.9642 103.484H43.3619V101.877C43.3629 101.646 43.272 101.423 43.1091 101.259C42.9462 101.094 42.7246 101.001 42.493 101C42.0192 101 41.6356 101.399 41.6356 101.877V103.484H40.0332C39.5594 103.484 39.1758 103.883 39.1758 104.362C39.1758 104.84 39.5594 105.239 40.0332 105.239H41.6356V106.846C41.6356 107.325 42.0192 107.723 42.493 107.723C42.7246 107.722 42.9462 107.629 43.1091 107.465C43.272 107.3 43.3629 107.078 43.3619 106.846V105.239H44.9642C45.438 105.239 45.8217 104.84 45.8217 104.362C45.8217 103.883 45.438 103.484 44.9642 103.484Z" fill="black"/>
<path d="M45.6474 110.666C45.526 110.666 45.4096 110.618 45.3237 110.532C45.2378 110.446 45.1896 110.33 45.1895 110.208V100.899C45.1895 99.274 46.463 98 48.0889 98H52.82C52.9413 98 53.0577 98.0482 53.1435 98.134C53.2294 98.2198 53.2776 98.3362 53.2776 98.4576C53.2776 98.5789 53.2294 98.6953 53.1435 98.7811C53.0577 98.867 52.9413 98.9152 52.82 98.9152H48.0889C47.8276 98.9124 47.5684 98.9618 47.3264 99.0606C47.0845 99.1593 46.8647 99.3054 46.6799 99.4902C46.4952 99.6751 46.3492 99.8949 46.2505 100.137C46.1519 100.379 46.1025 100.638 46.1054 100.899V110.208C46.1054 110.33 46.0572 110.446 45.9713 110.532C45.8854 110.618 45.7689 110.666 45.6474 110.666Z" fill="#000729"/>
<rect width="162" height="208" rx="16" fill="url(#paint0_linear_450_10347)"/>
<path fill-rule="evenodd" clip-rule="evenodd" d="M29.0511 109.972H134.275C134.543 109.974 134.799 110.082 134.987 110.272C135.175 110.463 135.28 110.72 135.279 110.988C135.28 111.255 135.175 111.513 134.987 111.703C134.799 111.893 134.543 112.002 134.275 112.004H29.0511C28.7834 112.002 28.5274 111.893 28.3391 111.703C28.1509 111.513 28.0459 111.255 28.0469 110.988C28.0457 110.72 28.1508 110.463 28.339 110.272C28.5273 110.082 28.7833 109.974 29.0511 109.972ZM143.493 109.972H143.482C143.214 109.974 142.958 110.082 142.77 110.272C142.581 110.463 142.476 110.72 142.478 110.988C142.476 111.255 142.582 111.513 142.77 111.703C142.958 111.893 143.214 112.002 143.482 112.004H143.493C143.76 112.002 144.017 111.894 144.205 111.703C144.393 111.513 144.498 111.255 144.497 110.988C144.498 110.72 144.393 110.462 144.205 110.272C144.017 110.081 143.76 109.974 143.493 109.972ZM140.086 109.972H138.404C138.137 109.974 137.88 110.081 137.692 110.272C137.504 110.462 137.399 110.72 137.4 110.988C137.399 111.255 137.504 111.513 137.692 111.703C137.881 111.894 138.137 112.002 138.404 112.004H140.086C140.353 112.002 140.609 111.893 140.797 111.703C140.986 111.513 141.091 111.255 141.089 110.988C141.091 110.72 140.986 110.463 140.798 110.272C140.609 110.082 140.353 109.974 140.086 109.972ZM23.7597 109.972H18.0046C17.7367 109.974 17.4806 110.081 17.2922 110.272C17.1039 110.462 16.9988 110.72 17 110.988C16.9989 111.255 17.1041 111.513 17.2924 111.703C17.4807 111.894 17.7368 112.002 18.0046 112.004H23.7589C24.0266 112.002 24.2825 111.893 24.4707 111.703C24.6588 111.513 24.7638 111.255 24.7626 110.988C24.7639 110.72 24.659 110.463 24.4708 110.272C24.2826 110.082 24.0266 109.974 23.7589 109.972H23.7597Z" fill="#E8E3D2"/>
<path fill-rule="evenodd" clip-rule="evenodd" d="M137.92 94.8381H136.319V93.2199C136.317 92.9901 136.225 92.7701 136.063 92.6078C135.9 92.4456 135.68 92.3542 135.45 92.3535C135.337 92.354 135.225 92.3769 135.12 92.4207C135.016 92.4646 134.921 92.5285 134.841 92.609C134.762 92.6895 134.699 92.7848 134.656 92.8897C134.613 92.9945 134.592 93.1067 134.592 93.2199V94.8381H132.99C132.76 94.8387 132.54 94.9301 132.377 95.0924C132.214 95.2547 132.122 95.4747 132.121 95.7045C132.12 95.936 132.211 96.1584 132.374 96.3228C132.537 96.4872 132.758 96.5803 132.99 96.5815H134.592V98.1996C134.592 98.3128 134.613 98.4251 134.656 98.5299C134.699 98.6347 134.762 98.7301 134.841 98.8105C134.921 98.891 135.016 98.955 135.12 98.9988C135.225 99.0427 135.337 99.0655 135.45 99.066C135.68 99.0654 135.9 98.974 136.063 98.8117C136.225 98.6494 136.317 98.4294 136.319 98.1996V96.5815H137.92C138.035 96.5806 138.147 96.5572 138.252 96.5126C138.357 96.468 138.452 96.403 138.532 96.3215C138.612 96.24 138.674 96.1435 138.717 96.0376C138.759 95.9317 138.78 95.8185 138.778 95.7045C138.779 95.5913 138.757 95.4791 138.714 95.3742C138.671 95.2694 138.608 95.1741 138.529 95.0936C138.449 95.0131 138.354 94.9492 138.25 94.9053C138.146 94.8615 138.034 94.8386 137.92 94.8381Z" fill="black"/>
<path fill-rule="evenodd" clip-rule="evenodd" d="M122.212 56.4455C122.633 56.4388 123.036 56.2665 123.332 55.9659C123.627 55.6652 123.793 55.2603 123.793 54.8385C123.793 54.4166 123.627 54.0117 123.332 53.7111C123.036 53.4104 122.633 53.2382 122.212 53.2314C121.343 53.2314 120.621 53.9629 120.621 54.8383C120.621 55.7274 121.343 56.4455 122.212 56.4455Z" fill="black"/>
<path fill-rule="evenodd" clip-rule="evenodd" d="M44.0521 109.971C38.4713 99.6766 39.6994 85.6412 49.5715 75.4289C56.6895 68.3543 62.7758 65.2289 71.8441 61.4464C79.5194 58.2579 81.5309 53.4858 92.5592 52.923C108.27 52.6524 118.608 63.2905 119.443 78.8905C120.041 90.0703 123.219 98.2291 116.823 109.263C116.678 109.503 116.544 109.743 116.4 109.972L44.0521 109.971Z" fill="#FFFBD5"/>
<path d="M115.848 101.738V106.926C115.848 108.3 114.78 109.522 113.406 109.522H48.0899C46.7164 109.522 45.6484 108.3 45.6484 106.926V101.738H72.7301C75.1013 103.33 77.8925 104.18 80.7484 104.18C83.6042 104.18 86.3955 103.33 88.7666 101.738H115.848Z" fill="#8FA3AD"/>
<path d="M115.847 77.9311V101.738H88.7656C90.3294 100.686 91.67 99.3357 92.7105 97.7644C93.7509 96.1931 94.4708 94.4317 94.8288 92.5814C94.8596 92.4335 94.8865 92.2852 94.908 92.1344C94.9218 92.06 94.9336 91.9848 94.943 91.9109C94.9657 91.7609 94.986 91.6094 95.0015 91.457C95.0104 91.3806 95.0194 91.3046 95.0259 91.2282C95.0324 91.1518 95.0409 91.0754 95.0458 90.9994C95.0506 90.9234 95.0575 90.8527 95.0624 90.7779C95.0758 90.5747 95.0831 90.3736 95.0884 90.1683C95.0909 90.0574 95.0925 89.9461 95.0925 89.8331C95.0925 89.7266 95.0925 89.6205 95.0884 89.5141C95.0884 89.3922 95.0819 89.2703 95.0758 89.1483C94.9734 86.9153 94.3492 84.7374 93.2534 82.789C92.1576 80.8406 90.6206 79.1761 88.7656 77.9287L115.847 77.9311Z" fill="#D7DEED"/>
<path d="M115.848 68.6226V77.9314H88.7666C86.3955 76.3397 83.6042 75.4896 80.7484 75.4896C77.8925 75.4896 75.1013 76.3397 72.7301 77.9314H45.6484V68.6226C45.6484 67.2486 46.7164 66.1807 48.0899 66.1807H113.406C114.78 66.1807 115.848 67.2486 115.848 68.6226ZM111.422 71.9797C111.422 70.7605 110.507 69.8429 109.286 69.8429C107.913 69.8429 106.997 70.7593 106.997 71.9797C106.997 73.2 107.913 74.2692 109.286 74.2692C110.507 74.2692 111.422 73.202 111.422 71.9797ZM69.4552 71.9797V69.8429H65.6405V71.9797H69.4552Z" fill="#8FA3AD"/>
<path d="M109.285 69.8428C110.506 69.8428 111.422 70.7592 111.422 71.9795C111.422 73.1998 110.506 74.269 109.285 74.269C107.912 74.269 106.996 73.2007 106.996 71.9795C106.996 70.7583 107.912 69.8428 109.285 69.8428Z" fill="#57606F"/>
<path d="M96.161 56.5664L100.892 66.1805H87.6149V60.9918H73.8806V66.1805H60.6035L65.3345 56.5664H96.161Z" fill="#D7DEED"/>
<path d="M95.0898 89.5155C95.0923 89.6207 95.0939 89.728 95.0939 89.8345C95.0939 89.9474 95.0939 90.0588 95.0898 90.1697C95.0845 90.3729 95.0772 90.5761 95.0638 90.7793C95.0589 90.8528 95.0528 90.9268 95.0472 91.0008C95.0415 91.0747 95.0346 91.1531 95.0272 91.2295C95.0199 91.3059 95.0118 91.3819 95.0029 91.4583C94.9862 91.6107 94.9655 91.7611 94.9443 91.9123C94.9322 91.9862 94.922 92.0614 94.9094 92.1358C94.885 92.2853 94.8594 92.4336 94.8302 92.5828C94.0775 96.4149 91.7823 99.6322 88.6841 101.739H88.7654C86.3943 103.331 83.603 104.181 80.7472 104.181C77.8913 104.181 75.1001 103.331 72.729 101.739H72.8102C69.7104 99.6322 67.4168 96.4157 66.6642 92.5828C66.6371 92.4349 66.61 92.2859 66.5829 92.1358C66.5711 92.0614 66.5602 91.9862 66.548 91.9123C66.5269 91.7611 66.5073 91.6107 66.4895 91.4583C66.4809 91.3819 66.4728 91.3059 66.4655 91.2295C66.4582 91.1531 66.4505 91.0768 66.446 91.0008C66.4415 90.9248 66.4334 90.8528 66.4289 90.7793C66.4151 90.5761 66.4078 90.3749 66.4025 90.1697C66.4001 90.0588 66.3984 89.9474 66.3984 89.8345C66.3984 89.728 66.3984 89.6207 66.4025 89.5155C66.4025 89.3935 66.409 89.2716 66.4151 89.1497C66.6443 84.5394 69.1715 80.4025 72.8082 77.9301H72.7269C75.098 76.3383 77.8893 75.4883 80.7451 75.4883C83.601 75.4883 86.3922 76.3383 88.7634 77.9301H88.6821C92.3187 80.4025 94.8464 84.5394 95.0752 89.1497C95.0833 89.2712 95.0882 89.3931 95.0898 89.5155ZM91.5836 89.8345C91.5836 83.8831 86.7006 78.9997 80.7488 78.9997C74.797 78.9997 69.914 83.8831 69.914 89.8345C69.914 95.7858 74.797 100.67 80.7488 100.67C86.7006 100.67 91.5836 95.7862 91.5836 89.8345Z" fill="#57606F"/>
<path d="M80.7489 79C86.7007 79 91.5837 83.8834 91.5837 89.8348C91.5837 95.7862 86.7007 100.67 80.7489 100.67C74.7971 100.67 69.9141 95.7866 69.9141 89.8348C69.9141 83.883 74.7971 79 80.7489 79ZM85.4795 92.5815V87.0877L83.0376 85.7145L80.7489 84.341L78.307 85.7145L76.0182 87.0877V92.5815L78.307 93.955L80.7489 95.329L83.0376 93.955L85.4795 92.5815Z" fill="#8FA3AD"/>
<path d="M87.6152 60.9912H73.8809V66.1798H87.6152V60.9912Z" fill="#57606F"/>
<path d="M85.4788 89.8346V92.5813L83.0369 93.9553L80.7482 95.3288L78.3063 93.9553L76.0176 92.5813V89.8346V87.0879L78.3063 85.7144L80.7482 84.3408L83.0369 85.7144L85.4788 87.0879V89.8346Z" fill="#57606F"/>
<path d="M45.6484 77.9307H72.7302C70.8753 79.1781 69.3384 80.8427 68.2426 82.7911C67.1468 84.7394 66.5226 86.9173 66.42 89.1503C66.4139 89.2722 66.409 89.3941 66.4074 89.516C66.4049 89.6225 66.4033 89.7286 66.4033 89.8351C66.4033 89.948 66.4033 90.0594 66.4074 90.1703C66.4126 90.3735 66.4199 90.5767 66.4338 90.7799C66.4382 90.8547 66.4443 90.9274 66.4508 91.0014C66.4573 91.0753 66.4626 91.1537 66.4703 91.2301C66.4781 91.3065 66.4858 91.3825 66.4943 91.4589C66.5098 91.6113 66.5301 91.7629 66.5528 91.9128C66.5622 91.9868 66.574 92.062 66.5878 92.1364C66.6093 92.2859 66.6365 92.4342 66.6691 92.5834C67.0272 94.4336 67.7471 96.1949 68.7876 97.7662C69.828 99.3375 71.1685 100.688 72.7322 101.74H45.6484V77.9307Z" fill="#D7DEED"/>
<path d="M69.4557 69.8428H65.6406V71.9791H69.4557V69.8428Z" fill="#57606F"/>
<path d="M56.6358 61.2969H52.8203V66.1803H56.6358V61.2969Z" fill="#D7DEED"/>
<path d="M113.405 109.979H48.0889C46.4903 109.979 45.1895 108.61 45.1895 106.926V101.738C45.1895 101.617 45.2377 101.5 45.3236 101.414C45.4095 101.329 45.526 101.28 45.6474 101.28C45.7689 101.28 45.8854 101.329 45.9713 101.414C46.0572 101.5 46.1054 101.617 46.1054 101.738V106.926C46.1054 108.085 47.0141 109.064 48.0889 109.064H113.405C114.481 109.064 115.389 108.085 115.389 106.926V101.738C115.392 101.619 115.442 101.506 115.528 101.423C115.613 101.34 115.728 101.294 115.847 101.294C115.966 101.294 116.081 101.34 116.166 101.423C116.252 101.506 116.302 101.619 116.305 101.738V106.926C116.305 108.61 115.005 109.979 113.405 109.979Z" fill="#000729"/>
<path d="M115.849 78.389C115.727 78.389 115.611 78.3408 115.525 78.2549C115.439 78.169 115.39 78.0525 115.39 77.931V68.6222C115.393 68.3608 115.344 68.1015 115.245 67.8594C115.147 67.6174 115.001 67.3975 114.816 67.2126C114.631 67.0278 114.411 66.8817 114.169 66.783C113.927 66.6843 113.668 66.6349 113.407 66.6378H100.893C100.772 66.6378 100.655 66.5896 100.57 66.5038C100.484 66.418 100.436 66.3016 100.436 66.1802C100.436 66.0589 100.484 65.9425 100.57 65.8567C100.655 65.7709 100.772 65.7227 100.893 65.7227H113.407C115.032 65.7227 116.307 66.9962 116.307 68.6222V77.931C116.306 78.0524 116.258 78.1689 116.172 78.2547C116.086 78.3406 115.97 78.3889 115.849 78.389Z" fill="#000729"/>
<path d="M60.6032 66.6378H56.6353C56.514 66.6378 56.3976 66.5896 56.3118 66.5038C56.2259 66.418 56.1777 66.3016 56.1777 66.1802C56.1777 66.0589 56.2259 65.9425 56.3118 65.8567C56.3976 65.7709 56.514 65.7227 56.6353 65.7227H60.6032C60.7245 65.7227 60.8409 65.7709 60.9267 65.8567C61.0125 65.9425 61.0608 66.0589 61.0608 66.1802C61.0608 66.3016 61.0125 66.418 60.9267 66.5038C60.8409 66.5896 60.7245 66.6378 60.6032 66.6378Z" fill="#000729"/>
<path d="M95.0891 90.6279H95.0757C95.0156 90.6262 94.9565 90.6128 94.9016 90.5883C94.8468 90.5638 94.7973 90.5287 94.756 90.4851C94.7147 90.4415 94.6824 90.3901 94.661 90.334C94.6396 90.2779 94.6294 90.2181 94.6311 90.1581C94.6339 90.05 94.6351 89.9435 94.6351 89.835C94.6351 89.7265 94.6351 89.6318 94.6311 89.5294C94.6274 89.408 94.6721 89.2901 94.7554 89.2017C94.8386 89.1132 94.9536 89.0615 95.075 89.0578C95.1964 89.0542 95.3143 89.0989 95.4028 89.1821C95.4912 89.2654 95.543 89.3804 95.5466 89.5018C95.5491 89.614 95.5515 89.7233 95.5515 89.835C95.5515 89.9468 95.5491 90.0675 95.5466 90.1837C95.5431 90.3027 95.4934 90.4157 95.408 90.4986C95.3225 90.5815 95.2081 90.6279 95.0891 90.6279Z" fill="#000729"/>
<path d="M95.0462 91.4576C95.0336 91.4576 95.0206 91.4576 95.008 91.4576C94.887 91.4475 94.775 91.3897 94.6965 91.2971C94.618 91.2045 94.5795 91.0845 94.5894 90.9635C94.5955 90.8928 94.6012 90.8216 94.6061 90.7513C94.6162 90.632 94.6726 90.5214 94.7633 90.4432C94.854 90.365 94.9718 90.3254 95.0913 90.3329C95.2108 90.3405 95.3226 90.3945 95.4028 90.4835C95.4829 90.5725 95.525 90.6894 95.52 90.809C95.5151 90.8854 95.5086 90.9635 95.5017 91.0399C95.4919 91.1539 95.4396 91.26 95.3553 91.3374C95.2709 91.4147 95.1606 91.4576 95.0462 91.4576Z" fill="#000729"/>
<path d="M115.847 102.196H88.6826C88.5848 102.196 88.4896 102.165 88.4109 102.106C88.3322 102.048 88.2742 101.966 88.2454 101.873C88.2167 101.779 88.2186 101.679 88.251 101.587C88.2834 101.495 88.3445 101.415 88.4254 101.36C91.561 99.2273 93.675 96.0791 94.3796 92.4933C94.4073 92.3498 94.4325 92.2088 94.4556 92.0621L94.4906 91.8386C94.5101 91.7009 94.5312 91.5542 94.5467 91.4083C94.5556 91.3306 94.5625 91.2571 94.5702 91.1843C94.5762 91.1246 94.5938 91.0665 94.6222 91.0135C94.6506 90.9606 94.6891 90.9137 94.7356 90.8756C94.7821 90.8376 94.8357 90.809 94.8932 90.7916C94.9507 90.7742 95.0111 90.7684 95.0709 90.7743C95.1307 90.7803 95.1887 90.7979 95.2417 90.8263C95.2947 90.8547 95.3415 90.8932 95.3796 90.9397C95.4177 90.9862 95.4462 91.0397 95.4636 91.0973C95.481 91.1548 95.4869 91.2152 95.4809 91.275C95.4736 91.3538 95.4651 91.4335 95.4553 91.5123C95.4386 91.6655 95.4187 91.8195 95.3964 91.976L95.3602 92.2092C95.3346 92.3637 95.3082 92.5169 95.2789 92.6697C94.6161 96.0479 92.7822 99.0599 90.0635 101.281H115.39V78.3892H90.057C93.308 81.0648 95.3273 84.9871 95.5333 89.1285C95.5393 89.2498 95.4968 89.3685 95.4153 89.4585C95.3338 89.5485 95.2198 89.6024 95.0985 89.6084H95.0749C94.9576 89.6083 94.8449 89.563 94.76 89.4821C94.675 89.4012 94.6244 89.2908 94.6186 89.1736C94.4044 84.8615 92.0893 80.8002 88.4254 78.3099C88.3443 78.255 88.2831 78.1755 88.2505 78.0831C88.218 77.9907 88.216 77.8903 88.2448 77.7967C88.2736 77.7031 88.3317 77.6212 88.4105 77.563C88.4893 77.5049 88.5847 77.4735 88.6826 77.4736H115.847C115.969 77.4736 116.085 77.5218 116.171 77.6076C116.257 77.6934 116.305 77.8098 116.305 77.9312V101.738C116.305 101.859 116.257 101.976 116.171 102.062C116.085 102.148 115.969 102.196 115.847 102.196Z" fill="#000729"/>
<path d="M72.8121 102.196H45.6474C45.526 102.196 45.4096 102.148 45.3237 102.062C45.2378 101.976 45.1896 101.859 45.1895 101.738V77.9312C45.1896 77.8098 45.2379 77.6934 45.3237 77.6076C45.4096 77.5218 45.526 77.4736 45.6474 77.4736H72.8121C72.91 77.4735 73.0054 77.5049 73.0842 77.563C73.163 77.6212 73.2211 77.7031 73.2499 77.7967C73.2787 77.8903 73.2767 77.9907 73.2442 78.0831C73.2117 78.1755 73.1504 78.255 73.0693 78.3099C69.4058 80.8002 67.0903 84.8615 66.8761 89.1736C66.8732 89.2336 66.8584 89.2925 66.8327 89.3468C66.807 89.4012 66.7708 89.4499 66.7263 89.4903C66.6817 89.5306 66.6297 89.5618 66.5731 89.5821C66.5165 89.6023 66.4564 89.6112 66.3964 89.6082C66.3364 89.6053 66.2775 89.5905 66.2232 89.5648C66.1688 89.5391 66.1201 89.5029 66.0797 89.4584C66.0394 89.4138 66.0082 89.3618 65.988 89.3052C65.9677 89.2486 65.9588 89.1885 65.9618 89.1285C66.1674 84.9871 68.1879 81.0648 71.4377 78.3892H46.1054V101.282H71.4328C68.7146 99.0615 66.8814 96.0495 66.2174 92.6713C66.1869 92.5185 66.1605 92.3653 66.1361 92.2117L66.1016 91.9861C66.078 91.8211 66.0577 91.6671 66.0406 91.5099C66.0313 91.4351 66.024 91.3554 66.0154 91.2766C66.0034 91.1558 66.0399 91.0352 66.1168 90.9413C66.1936 90.8475 66.3047 90.788 66.4255 90.7759C66.5462 90.7639 66.6668 90.8004 66.7607 90.8773C66.8546 90.9542 66.9141 91.0652 66.9261 91.186C66.9338 91.2587 66.9407 91.3323 66.9501 91.4058C66.9668 91.5574 66.9863 91.7025 67.0066 91.8488L67.0407 92.0637C67.0643 92.2084 67.0891 92.3515 67.1171 92.4949C67.8214 96.0808 69.9357 99.229 73.0709 101.362C73.1518 101.417 73.2129 101.496 73.2453 101.588C73.2777 101.681 73.2797 101.781 73.2509 101.875C73.2221 101.968 73.1641 102.05 73.0855 102.108C73.0068 102.166 72.9115 102.198 72.8137 102.198L72.8121 102.196Z" fill="#000729"/>
<path d="M66.4501 91.458C66.3354 91.458 66.2249 91.4149 66.1405 91.3372C66.0561 91.2595 66.004 91.1529 65.9945 91.0386C65.9876 90.9622 65.9815 90.8842 65.9775 90.8078C65.9737 90.7478 65.9817 90.6877 66.0012 90.6308C66.0207 90.574 66.0511 90.5215 66.0909 90.4764C66.1306 90.4313 66.1788 90.3945 66.2328 90.368C66.2868 90.3416 66.3454 90.326 66.4054 90.3222C66.4654 90.3184 66.5255 90.3265 66.5824 90.3459C66.6392 90.3654 66.6917 90.3958 66.7368 90.4356C66.7819 90.4753 66.8187 90.5235 66.8452 90.5775C66.8716 90.6315 66.8872 90.6901 66.891 90.7501C66.8951 90.8204 66.9008 90.8915 66.9069 90.9622C66.9169 91.0832 66.8784 91.2032 66.8 91.2959C66.7216 91.3885 66.6096 91.4463 66.4887 91.4564C66.4761 91.4572 66.4627 91.458 66.4501 91.458Z" fill="#000729"/>
<path d="M66.4078 90.6279C66.2887 90.6279 66.1743 90.5815 66.0889 90.4986C66.0034 90.4157 65.9537 90.3027 65.9502 90.1837C65.9478 90.0675 65.9453 89.9521 65.9453 89.835C65.9453 89.718 65.9478 89.614 65.9502 89.5018C65.9539 89.3804 66.0056 89.2654 66.094 89.1821C66.1825 89.0989 66.3004 89.0542 66.4218 89.0578C66.5432 89.0615 66.6582 89.1132 66.7414 89.2017C66.8247 89.2901 66.8694 89.408 66.8658 89.5294C66.8629 89.6314 66.8617 89.7326 66.8617 89.835C66.8617 89.9374 66.8617 90.05 66.8658 90.1581C66.8674 90.2181 66.8573 90.2779 66.8358 90.334C66.8144 90.3901 66.7821 90.4415 66.7408 90.4851C66.6995 90.5287 66.65 90.5638 66.5952 90.5883C66.5404 90.6128 66.4812 90.6262 66.4212 90.6279H66.4078Z" fill="#000729"/>
<path d="M80.7476 104.638C77.7998 104.644 74.9178 103.766 72.4734 102.118C69.2334 99.9341 66.9532 96.4901 66.2152 92.6685C66.1803 92.4983 66.1539 92.3503 66.134 92.2093C66.1193 92.1281 66.1063 92.0468 66.0966 91.9655C66.073 91.8127 66.0527 91.6563 66.0376 91.5031C66.0291 91.4283 66.0194 91.3462 66.0124 91.2645C66.0051 91.1922 65.9974 91.1093 65.9925 91.0276C65.986 90.9613 65.9799 90.8841 65.9759 90.8061C65.9625 90.6184 65.9539 90.4123 65.9482 90.1787C65.9458 90.0661 65.9434 89.9507 65.9434 89.8337C65.9434 89.7166 65.9458 89.6106 65.9482 89.5004C65.9482 89.381 65.9547 89.253 65.9612 89.1266C66.1778 84.4797 68.612 80.1513 72.4726 77.5505C74.6508 76.0819 77.1806 75.2195 79.8023 75.0517C82.4239 74.8839 85.043 75.4169 87.3906 76.5959C89.7383 77.7749 91.7298 79.5574 93.1609 81.7604C94.5919 83.9635 95.4109 86.5077 95.5336 89.1318C95.5397 89.2538 95.5446 89.3838 95.5462 89.5118C95.5487 89.6134 95.5511 89.7248 95.5511 89.8369C95.5511 89.9491 95.5487 90.0694 95.5462 90.1856C95.5405 90.4156 95.532 90.6216 95.519 90.8122C95.515 90.8874 95.5085 90.9646 95.5015 91.041C95.4946 91.1174 95.4898 91.1954 95.4812 91.2775C95.4755 91.3494 95.4654 91.4315 95.456 91.514C95.4417 91.6595 95.4216 91.816 95.3959 91.9834C95.3882 92.05 95.3752 92.1309 95.3605 92.2114C95.3402 92.3524 95.3134 92.5011 95.2793 92.6763C94.5449 96.4921 92.2643 99.9362 89.0235 102.12C86.5784 103.768 83.6959 104.645 80.7476 104.638ZM80.7476 75.9478C77.178 75.9432 73.744 77.3154 71.1604 79.7786C68.5769 82.2419 67.0427 85.6066 66.8772 89.1725C66.8707 89.2887 66.8666 89.4057 66.865 89.5216C66.8618 89.6305 66.8606 89.7325 66.8606 89.8353C66.8606 89.9381 66.8606 90.0503 66.8646 90.1584C66.8695 90.3794 66.8776 90.572 66.8894 90.7488C66.8943 90.8228 66.9 90.8923 66.9061 90.963C66.9109 91.0443 66.9179 91.1133 66.9248 91.1832C66.9317 91.2645 66.9406 91.334 66.9487 91.4047C66.9634 91.5506 66.9812 91.6892 67.0044 91.8424C67.015 91.9237 67.0251 91.9879 67.0377 92.0541C67.0377 92.0598 67.0377 92.0659 67.0406 92.0716C67.0576 92.1959 67.0812 92.3284 67.1149 92.4893C67.8058 96.0801 69.9454 99.3112 72.9855 101.359C75.281 102.899 77.9829 103.722 80.7472 103.722C83.5116 103.722 86.2135 102.899 88.509 101.359C91.5487 99.3112 93.6887 96.0801 94.3779 92.4958C94.4124 92.3284 94.4364 92.1959 94.4535 92.0716C94.4535 92.0659 94.4559 92.0598 94.4563 92.0541C94.4689 91.9879 94.4795 91.9228 94.4876 91.8562C94.5128 91.6912 94.5307 91.5506 94.5449 91.4128C94.5539 91.334 94.5628 91.2633 94.5685 91.193C94.5762 91.1117 94.5831 91.0439 94.588 90.9735C94.5941 90.8923 94.5998 90.8228 94.6047 90.7517C94.6165 90.572 94.6246 90.3794 94.6295 90.1608C94.6323 90.0503 94.6335 89.9438 94.6335 89.8357C94.6335 89.7276 94.6335 89.6325 94.6295 89.5301C94.6274 89.4062 94.6234 89.2903 94.6177 89.1753C94.4529 85.609 92.9191 82.2436 90.3356 79.7797C87.752 77.3157 84.3178 75.9431 80.7476 75.9474V75.9478Z" fill="#000729"/>
<path d="M80.7483 101.128C74.521 101.128 69.4551 96.0617 69.4551 89.8348C69.4551 83.6079 74.521 78.542 80.7483 78.542C86.9756 78.542 92.0415 83.6079 92.0415 89.8348C92.0415 96.0617 86.9756 101.128 80.7483 101.128ZM80.7483 79.4576C75.0257 79.4576 70.3711 84.1126 70.3711 89.8348C70.3711 95.557 75.0257 100.212 80.7483 100.212C86.4709 100.212 91.1255 95.557 91.1255 89.8348C91.1255 84.1126 86.4709 79.4576 80.7483 79.4576Z" fill="#000729"/>
<path d="M80.7476 95.7866C80.6689 95.7864 80.5915 95.766 80.5229 95.7273L78.081 94.3542L75.7813 92.9725C75.7134 92.932 75.6572 92.8745 75.6182 92.8058C75.5791 92.7371 75.5586 92.6594 75.5586 92.5803V87.0878C75.5587 87.0087 75.5793 86.931 75.6183 86.8622C75.6573 86.7934 75.7135 86.7359 75.7813 86.6952L78.07 85.3216L80.5229 83.942C80.5934 83.9023 80.6731 83.8818 80.7541 83.8828C80.835 83.8838 80.9142 83.9062 80.9837 83.9477L83.2724 85.3216L85.7026 86.6887C85.7734 86.7286 85.8323 86.7865 85.8735 86.8566C85.9146 86.9267 85.9364 87.0065 85.9366 87.0878V92.5815C85.9365 92.6629 85.9148 92.7427 85.8737 92.8128C85.8325 92.8829 85.7735 92.9409 85.7026 92.9806L83.2615 94.3542L80.9837 95.7208C80.9124 95.7637 80.8308 95.7864 80.7476 95.7866ZM76.4746 92.3223L78.5418 93.5621L80.7399 94.7987L82.8014 93.5621L85.0211 92.3138V87.356L82.8128 86.1129L80.7403 84.8702L78.5308 86.1129L76.475 87.347L76.4746 92.3223Z" fill="#000729"/>
<path d="M69.4547 72.4376H65.64C65.5799 72.4377 65.5203 72.4259 65.4646 72.4029C65.409 72.3799 65.3585 72.3462 65.3159 72.3036C65.2734 72.2611 65.2396 72.2106 65.2165 72.155C65.1935 72.0994 65.1816 72.0398 65.1816 71.9796V69.8429C65.1817 69.7828 65.1936 69.7233 65.2167 69.6677C65.2397 69.6122 65.2735 69.5618 65.3161 69.5193C65.3587 69.4769 65.4092 69.4432 65.4648 69.4203C65.5204 69.3974 65.5799 69.3856 65.64 69.3857H69.4547C69.5148 69.3856 69.5744 69.3973 69.63 69.4202C69.6856 69.4431 69.7362 69.4767 69.7787 69.5192C69.8213 69.5617 69.8551 69.6121 69.8782 69.6677C69.9012 69.7232 69.9131 69.7828 69.9131 69.8429V71.9796C69.9131 72.0398 69.9013 72.0994 69.8783 72.1551C69.8553 72.2107 69.8215 72.2612 69.7789 72.3038C69.7363 72.3463 69.6858 72.38 69.6301 72.403C69.5745 72.426 69.5149 72.4377 69.4547 72.4376ZM66.0976 71.5221H68.9971V70.3009H66.0976V71.5221Z" fill="#000729"/>
<path d="M100.893 66.6378H87.6166C87.4952 66.6378 87.3789 66.5896 87.293 66.5037C87.2072 66.4179 87.159 66.3015 87.159 66.1802C87.159 66.0588 87.2072 65.9424 87.293 65.8566C87.3789 65.7708 87.4952 65.7226 87.6166 65.7226H100.157L95.8778 57.0233H65.6198L61.3403 65.7242H73.8811C74.0024 65.7242 74.1188 65.7724 74.2046 65.8583C74.2904 65.9441 74.3387 66.0605 74.3387 66.1818C74.3387 66.3032 74.2904 66.4196 74.2046 66.5054C74.1188 66.5912 74.0024 66.6394 73.8811 66.6394H60.6044C60.5265 66.6395 60.45 66.6198 60.3819 66.582C60.3138 66.5443 60.2565 66.4898 60.2154 66.4237C60.1743 66.3576 60.1508 66.2821 60.147 66.2043C60.1433 66.1266 60.1594 66.0492 60.1939 65.9794L64.9245 56.3654C64.9623 56.2887 65.0209 56.224 65.0935 56.1788C65.166 56.1336 65.2498 56.1095 65.3354 56.1094H96.1623C96.2478 56.1095 96.3316 56.1336 96.4042 56.1788C96.4768 56.224 96.5353 56.2887 96.5731 56.3654L101.304 65.9794C101.338 66.0492 101.354 66.1266 101.35 66.2043C101.347 66.282 101.323 66.3574 101.282 66.4235C101.241 66.4895 101.184 66.544 101.116 66.5818C101.048 66.6196 100.971 66.6394 100.893 66.6394V66.6378Z" fill="#000729"/>
<path d="M56.6363 66.6374H52.8213C52.6999 66.6374 52.5834 66.5892 52.4976 66.5034C52.4117 66.4176 52.3634 66.3013 52.3633 66.1799V61.2964C52.3633 61.2363 52.3751 61.1768 52.3981 61.1212C52.4212 61.0657 52.4549 61.0152 52.4974 60.9727C52.54 60.9303 52.5905 60.8966 52.646 60.8736C52.7016 60.8506 52.7611 60.8388 52.8213 60.8389H56.6363C56.6964 60.8388 56.756 60.8505 56.8116 60.8735C56.8671 60.8964 56.9176 60.9301 56.9601 60.9727C57.0026 61.0152 57.0363 61.0656 57.0593 61.1212C57.0822 61.1768 57.094 61.2363 57.0939 61.2964V66.1799C57.094 66.24 57.0822 66.2995 57.0592 66.355C57.0362 66.4106 57.0025 66.461 56.96 66.5035C56.9175 66.546 56.867 66.5797 56.8115 66.6027C56.756 66.6257 56.6964 66.6375 56.6363 66.6374ZM53.2776 65.7239H56.1771V61.7556H53.2776V65.7239Z" fill="#000729"/>
<path d="M80.7486 49.0885C80.6885 49.0885 80.6289 49.0766 80.5734 49.0535C80.5178 49.0304 80.4674 48.9966 80.4249 48.9541C80.3824 48.9115 80.3487 48.861 80.3257 48.8054C80.3028 48.7498 80.291 48.6903 80.291 48.6301V41.4576C80.291 41.3362 80.3392 41.2198 80.425 41.134C80.5109 41.0482 80.6272 41 80.7486 41C80.87 41 80.9863 41.0482 81.0722 41.134C81.158 41.2198 81.2062 41.3362 81.2062 41.4576V48.6301C81.2062 48.6903 81.1944 48.7498 81.1715 48.8054C81.1485 48.861 81.1148 48.9115 81.0723 48.9541C81.0298 48.9966 80.9794 49.0304 80.9238 49.0535C80.8683 49.0766 80.8087 49.0885 80.7486 49.0885Z" fill="#000729"/>
<path d="M80.7486 52.751C80.6272 52.751 80.5109 52.7028 80.425 52.617C80.3392 52.5312 80.291 52.4148 80.291 52.2934V50.9195C80.291 50.7981 80.3392 50.6817 80.425 50.5959C80.5109 50.5101 80.6272 50.4619 80.7486 50.4619C80.87 50.4619 80.9863 50.5101 81.0722 50.5959C81.158 50.6817 81.2062 50.7981 81.2062 50.9195V52.2934C81.2062 52.4148 81.158 52.5312 81.0722 52.617C80.9863 52.7028 80.87 52.751 80.7486 52.751Z" fill="#000729"/>
<path d="M87.3108 49.5463C87.2252 49.5465 87.1414 49.5223 87.0691 49.4764C86.9661 49.4122 86.8928 49.3096 86.8654 49.1914C86.8379 49.0731 86.8586 48.9488 86.9228 48.8457L90.7386 42.7412C90.8044 42.6413 90.9066 42.5712 91.0234 42.5457C91.1402 42.5202 91.2624 42.5414 91.3637 42.6047C91.4651 42.6681 91.5377 42.7686 91.566 42.8847C91.5943 43.0009 91.5761 43.1235 91.5152 43.2264L87.6981 49.3314C87.657 49.397 87.5999 49.4512 87.5322 49.4888C87.4645 49.5264 87.3883 49.5462 87.3108 49.5463Z" fill="#000729"/>
<path d="M85.3263 52.7507C85.2422 52.7505 85.1599 52.7272 85.0882 52.6833C85.0165 52.6394 84.9583 52.5766 84.9198 52.5019C84.8814 52.4271 84.8643 52.3433 84.8703 52.2594C84.8764 52.1756 84.9053 52.095 84.954 52.0266L85.7172 50.9582C85.7522 50.9093 85.7965 50.8677 85.8476 50.8359C85.8987 50.8041 85.9555 50.7826 86.0149 50.7728C86.0742 50.7629 86.1349 50.7649 86.1936 50.7785C86.2522 50.7921 86.3075 50.8171 86.3565 50.8521C86.4054 50.8871 86.4469 50.9314 86.4788 50.9825C86.5106 51.0336 86.532 51.0904 86.5419 51.1498C86.5517 51.2091 86.5498 51.2699 86.5362 51.3285C86.5226 51.3871 86.4975 51.4424 86.4625 51.4914L85.6998 52.5577C85.6574 52.6173 85.6014 52.6659 85.5364 52.6995C85.4715 52.733 85.3994 52.7506 85.3263 52.7507Z" fill="#000729"/>
<path d="M74.1872 49.5456C74.1095 49.5458 74.033 49.5261 73.9649 49.4885C73.8969 49.4509 73.8396 49.3966 73.7983 49.3307L69.9837 43.2257C69.9518 43.1747 69.9303 43.118 69.9204 43.0587C69.9104 42.9994 69.9123 42.9388 69.9258 42.8802C69.9531 42.7619 70.0262 42.6593 70.1291 42.595C70.2321 42.5306 70.3563 42.5098 70.4746 42.5371C70.5929 42.5644 70.6955 42.6375 70.7598 42.7405L74.5753 48.845C74.6395 48.948 74.6602 49.0723 74.6329 49.1906C74.6055 49.3088 74.5323 49.4114 74.4294 49.4757C74.3569 49.5215 74.2729 49.5458 74.1872 49.5456Z" fill="#000729"/>
<path d="M76.1708 52.7512C76.0978 52.7512 76.0258 52.7339 75.9609 52.7006C75.896 52.6673 75.8399 52.6191 75.7973 52.5598L75.0345 51.4918C74.9985 51.4429 74.9726 51.3873 74.9583 51.3283C74.9439 51.2693 74.9415 51.2081 74.951 51.1481C74.9606 51.0881 74.9819 51.0306 75.0139 50.979C75.0458 50.9273 75.0877 50.8825 75.1371 50.8472C75.1865 50.8119 75.2424 50.7868 75.3016 50.7732C75.3608 50.7597 75.4221 50.7581 75.482 50.7684C75.5418 50.7788 75.599 50.801 75.6502 50.8336C75.7014 50.8663 75.7456 50.9088 75.7802 50.9587L76.543 52.027C76.5919 52.0955 76.621 52.1761 76.6271 52.2599C76.6332 52.3438 76.6161 52.4278 76.5776 52.5026C76.5392 52.5774 76.4809 52.6402 76.4091 52.684C76.3373 52.7279 76.2549 52.7511 76.1708 52.7512Z" fill="#000729"/>
<path d="M87.6158 66.6384H73.8803C73.8201 66.6384 73.7606 66.6266 73.705 66.6037C73.6494 66.5807 73.5989 66.547 73.5563 66.5045C73.5137 66.462 73.48 66.4116 73.4569 66.356C73.4338 66.3005 73.4219 66.2409 73.4219 66.1808V60.9922C73.422 60.8707 73.4703 60.7542 73.5563 60.6683C73.6422 60.5824 73.7588 60.5342 73.8803 60.5342H87.6158C87.7373 60.5342 87.8538 60.5824 87.9398 60.6683C88.0257 60.7542 88.0741 60.8707 88.0742 60.9922V66.1808C88.0741 66.2409 88.0622 66.3005 88.0392 66.356C88.0161 66.4116 87.9823 66.462 87.9397 66.5045C87.8972 66.547 87.8467 66.5807 87.7911 66.6037C87.7355 66.6266 87.6759 66.6384 87.6158 66.6384ZM74.3387 65.7248H87.1574V61.4506H74.3387V65.7248Z" fill="#000729"/>
<path d="M109.286 74.7267C107.745 74.7267 106.539 73.5202 106.539 71.9796C106.539 70.4761 107.694 69.3857 109.286 69.3857C110.765 69.3857 111.88 70.5012 111.88 71.9796C111.88 73.4946 110.716 74.7267 109.286 74.7267ZM109.286 70.3009C108.189 70.3009 107.454 70.9763 107.454 71.9796C107.454 72.8676 108.096 73.8112 109.286 73.8112C110.211 73.8112 110.964 72.9895 110.964 71.9796C110.964 71.0076 110.259 70.3009 109.286 70.3009Z" fill="#000729"/>
<path d="M41.504 149V137.8H43.216L48.112 145.976H47.216L52.032 137.8H53.744L53.76 149H51.792L51.776 140.888H52.192L48.096 147.72H47.168L43.008 140.888H43.488V149H41.504ZM56.5933 149V140.456H58.5933V149H56.5933ZM57.6013 139.048C57.2279 139.048 56.9186 138.931 56.6733 138.696C56.4386 138.461 56.3213 138.179 56.3213 137.848C56.3213 137.507 56.4386 137.224 56.6733 137C56.9186 136.765 57.2279 136.648 57.6013 136.648C57.9746 136.648 58.2786 136.76 58.5133 136.984C58.7586 137.197 58.8813 137.469 58.8813 137.8C58.8813 138.152 58.7639 138.451 58.5293 138.696C58.2946 138.931 57.9853 139.048 57.6013 139.048ZM63.8583 149.112C63.1436 149.112 62.4556 149.021 61.7943 148.84C61.1436 148.648 60.6263 148.419 60.2423 148.152L61.0103 146.632C61.3943 146.877 61.8529 147.08 62.3863 147.24C62.9196 147.4 63.4529 147.48 63.9863 147.48C64.6156 147.48 65.0689 147.395 65.3463 147.224C65.6343 147.053 65.7783 146.824 65.7783 146.536C65.7783 146.301 65.6823 146.125 65.4903 146.008C65.2983 145.88 65.0476 145.784 64.7383 145.72C64.4289 145.656 64.0823 145.597 63.6983 145.544C63.3249 145.491 62.9463 145.421 62.5623 145.336C62.1889 145.24 61.8476 145.107 61.5383 144.936C61.2289 144.755 60.9783 144.515 60.7863 144.216C60.5943 143.917 60.4983 143.523 60.4983 143.032C60.4983 142.488 60.6529 142.019 60.9622 141.624C61.2716 141.219 61.7036 140.909 62.2582 140.696C62.8236 140.472 63.4903 140.36 64.2583 140.36C64.8343 140.36 65.4156 140.424 66.0023 140.552C66.5889 140.68 67.0743 140.861 67.4583 141.096L66.6903 142.616C66.2849 142.371 65.8743 142.205 65.4583 142.12C65.0529 142.024 64.6476 141.976 64.2423 141.976C63.6343 141.976 63.1809 142.067 62.8823 142.248C62.5943 142.429 62.4503 142.659 62.4503 142.936C62.4503 143.192 62.5463 143.384 62.7383 143.512C62.9303 143.64 63.1809 143.741 63.4903 143.816C63.7996 143.891 64.1409 143.955 64.5143 144.008C64.8983 144.051 65.2769 144.12 65.6503 144.216C66.0236 144.312 66.3649 144.445 66.6743 144.616C66.9943 144.776 67.2503 145.005 67.4423 145.304C67.6343 145.603 67.7303 145.992 67.7303 146.472C67.7303 147.005 67.5703 147.469 67.2503 147.864C66.9409 148.259 66.4983 148.568 65.9223 148.792C65.3463 149.005 64.6583 149.112 63.8583 149.112ZM80.2366 140.36C80.9193 140.36 81.522 140.493 82.0446 140.76C82.578 141.027 82.994 141.437 83.2926 141.992C83.5913 142.536 83.7406 143.24 83.7406 144.104V149H81.7406V144.36C81.7406 143.603 81.5753 143.037 81.2446 142.664C80.914 142.291 80.4393 142.104 79.8206 142.104C79.3833 142.104 78.994 142.2 78.6526 142.392C78.322 142.584 78.0606 142.867 77.8686 143.24C77.6873 143.613 77.5966 144.088 77.5966 144.664V149H75.5966V144.36C75.5966 143.603 75.4313 143.037 75.1006 142.664C74.77 142.291 74.2953 142.104 73.6766 142.104C73.2393 142.104 72.85 142.2 72.5086 142.392C72.178 142.584 71.9166 142.867 71.7246 143.24C71.5433 143.613 71.4526 144.088 71.4526 144.664V149H69.4526V140.456H71.3566V142.728L71.0206 142.056C71.3086 141.501 71.7246 141.08 72.2686 140.792C72.8233 140.504 73.4526 140.36 74.1566 140.36C74.9566 140.36 75.65 140.557 76.2366 140.952C76.834 141.347 77.2286 141.944 77.4206 142.744L76.6366 142.472C76.914 141.832 77.3726 141.32 78.0126 140.936C78.6526 140.552 79.394 140.36 80.2366 140.36ZM91.5604 149V147.272L91.4484 146.904V143.88C91.4484 143.293 91.2724 142.84 90.9204 142.52C90.5684 142.189 90.035 142.024 89.3204 142.024C88.8404 142.024 88.3657 142.099 87.8964 142.248C87.4377 142.397 87.0484 142.605 86.7284 142.872L85.9444 141.416C86.403 141.064 86.947 140.803 87.5764 140.632C88.2164 140.451 88.8777 140.36 89.5604 140.36C90.7977 140.36 91.7524 140.659 92.4244 141.256C93.107 141.843 93.4484 142.755 93.4484 143.992V149H91.5604ZM88.8724 149.112C88.2324 149.112 87.6724 149.005 87.1924 148.792C86.7124 148.568 86.339 148.264 86.0724 147.88C85.8164 147.485 85.6884 147.043 85.6884 146.552C85.6884 146.072 85.8004 145.64 86.0244 145.256C86.259 144.872 86.6377 144.568 87.1604 144.344C87.683 144.12 88.3764 144.008 89.2404 144.008H91.7204V145.336H89.3844C88.7017 145.336 88.243 145.448 88.0084 145.672C87.7737 145.885 87.6564 146.152 87.6564 146.472C87.6564 146.835 87.8004 147.123 88.0884 147.336C88.3764 147.549 88.7764 147.656 89.2884 147.656C89.779 147.656 90.2164 147.544 90.6004 147.32C90.995 147.096 91.2777 146.765 91.4484 146.328L91.7844 147.528C91.5924 148.029 91.2457 148.419 90.7444 148.696C90.2537 148.973 89.6297 149.112 88.8724 149.112ZM99.2311 149.112C98.2925 149.112 97.5671 148.872 97.0551 148.392C96.5431 147.901 96.2871 147.181 96.2871 146.232V138.568H98.2871V146.184C98.2871 146.589 98.3885 146.904 98.5911 147.128C98.8045 147.352 99.0978 147.464 99.4711 147.464C99.9191 147.464 100.292 147.347 100.591 147.112L101.151 148.536C100.916 148.728 100.628 148.872 100.287 148.968C99.9458 149.064 99.5938 149.112 99.2311 149.112ZM94.8791 142.12V140.52H100.575V142.12H94.8791ZM106.435 149.112C105.539 149.112 104.739 148.925 104.035 148.552C103.342 148.168 102.798 147.645 102.403 146.984C102.008 146.323 101.811 145.571 101.811 144.728C101.811 143.875 102.008 143.123 102.403 142.472C102.798 141.811 103.342 141.293 104.035 140.92C104.739 140.547 105.539 140.36 106.435 140.36C107.267 140.36 107.998 140.531 108.627 140.872C109.267 141.203 109.752 141.693 110.083 142.344L108.547 143.24C108.291 142.835 107.976 142.536 107.603 142.344C107.24 142.152 106.846 142.056 106.419 142.056C105.928 142.056 105.486 142.163 105.091 142.376C104.696 142.589 104.387 142.899 104.163 143.304C103.939 143.699 103.827 144.173 103.827 144.728C103.827 145.283 103.939 145.763 104.163 146.168C104.387 146.563 104.696 146.867 105.091 147.08C105.486 147.293 105.928 147.4 106.419 147.4C106.846 147.4 107.24 147.304 107.603 147.112C107.976 146.92 108.291 146.621 108.547 146.216L110.083 147.112C109.752 147.752 109.267 148.248 108.627 148.6C107.998 148.941 107.267 149.112 106.435 149.112ZM116.582 140.36C117.265 140.36 117.873 140.493 118.406 140.76C118.95 141.027 119.377 141.437 119.686 141.992C119.995 142.536 120.15 143.24 120.15 144.104V149H118.15V144.36C118.15 143.603 117.969 143.037 117.606 142.664C117.254 142.291 116.758 142.104 116.118 142.104C115.649 142.104 115.233 142.2 114.87 142.392C114.507 142.584 114.225 142.872 114.022 143.256C113.83 143.629 113.734 144.104 113.734 144.68V149H111.734V137.128H113.734V142.76L113.302 142.056C113.601 141.512 114.033 141.096 114.598 140.808C115.174 140.509 115.835 140.36 116.582 140.36Z" fill="#E8E3D2"/>
<path d="M9.77544 164V158.4H10.6314L13.0794 162.488H12.6314L15.0394 158.4H15.8954L15.9034 164H14.9194L14.9114 159.944H15.1194L13.0714 163.36H12.6074L10.5274 159.944H10.7674V164H9.77544ZM19.9521 164V163.136L19.8961 162.952V161.44C19.8961 161.147 19.8081 160.92 19.6321 160.76C19.4561 160.595 19.1894 160.512 18.8321 160.512C18.5921 160.512 18.3547 160.549 18.1201 160.624C17.8907 160.699 17.6961 160.803 17.5361 160.936L17.1441 160.208C17.3734 160.032 17.6454 159.901 17.9601 159.816C18.2801 159.725 18.6107 159.68 18.9521 159.68C19.5707 159.68 20.0481 159.829 20.3841 160.128C20.7254 160.421 20.8961 160.877 20.8961 161.496V164H19.9521ZM18.6081 164.056C18.2881 164.056 18.0081 164.003 17.7681 163.896C17.5281 163.784 17.3414 163.632 17.2081 163.44C17.0801 163.243 17.0161 163.021 17.0161 162.776C17.0161 162.536 17.0721 162.32 17.1841 162.128C17.3014 161.936 17.4907 161.784 17.7521 161.672C18.0134 161.56 18.3601 161.504 18.7921 161.504H20.0321V162.168H18.8641C18.5227 162.168 18.2934 162.224 18.1761 162.336C18.0587 162.443 18.0001 162.576 18.0001 162.736C18.0001 162.917 18.0721 163.061 18.2161 163.168C18.3601 163.275 18.5601 163.328 18.8161 163.328C19.0614 163.328 19.2801 163.272 19.4721 163.16C19.6694 163.048 19.8107 162.883 19.8961 162.664L20.0641 163.264C19.9681 163.515 19.7947 163.709 19.5441 163.848C19.2987 163.987 18.9867 164.056 18.6081 164.056ZM23.7874 164.056C23.3181 164.056 22.9554 163.936 22.6994 163.696C22.4434 163.451 22.3154 163.091 22.3154 162.616V158.784H23.3154V162.592C23.3154 162.795 23.3661 162.952 23.4674 163.064C23.5741 163.176 23.7208 163.232 23.9074 163.232C24.1314 163.232 24.3181 163.173 24.4674 163.056L24.7474 163.768C24.6301 163.864 24.4861 163.936 24.3154 163.984C24.1448 164.032 23.9688 164.056 23.7874 164.056ZM21.6114 160.56V159.76H24.4594V160.56H21.6114ZM27.3894 164.056C26.9414 164.056 26.5414 163.963 26.1894 163.776C25.8428 163.584 25.5708 163.323 25.3734 162.992C25.1761 162.661 25.0774 162.285 25.0774 161.864C25.0774 161.437 25.1761 161.061 25.3734 160.736C25.5708 160.405 25.8428 160.147 26.1894 159.96C26.5414 159.773 26.9414 159.68 27.3894 159.68C27.8054 159.68 28.1708 159.765 28.4854 159.936C28.8054 160.101 29.0481 160.347 29.2134 160.672L28.4454 161.12C28.3174 160.917 28.1601 160.768 27.9734 160.672C27.7921 160.576 27.5948 160.528 27.3814 160.528C27.1361 160.528 26.9148 160.581 26.7174 160.688C26.5201 160.795 26.3654 160.949 26.2534 161.152C26.1414 161.349 26.0854 161.587 26.0854 161.864C26.0854 162.141 26.1414 162.381 26.2534 162.584C26.3654 162.781 26.5201 162.933 26.7174 163.04C26.9148 163.147 27.1361 163.2 27.3814 163.2C27.5948 163.2 27.7921 163.152 27.9734 163.056C28.1601 162.96 28.3174 162.811 28.4454 162.608L29.2134 163.056C29.0481 163.376 28.8054 163.624 28.4854 163.8C28.1708 163.971 27.8054 164.056 27.3894 164.056ZM32.4628 159.68C32.8041 159.68 33.1081 159.747 33.3748 159.88C33.6468 160.013 33.8601 160.219 34.0148 160.496C34.1695 160.768 34.2468 161.12 34.2468 161.552V164H33.2468V161.68C33.2468 161.301 33.1561 161.019 32.9748 160.832C32.7988 160.645 32.5508 160.552 32.2308 160.552C31.9961 160.552 31.7881 160.6 31.6068 160.696C31.4255 160.792 31.2841 160.936 31.1828 161.128C31.0868 161.315 31.0388 161.552 31.0388 161.84V164H30.0388V158.064H31.0388V160.88L30.8228 160.528C30.9721 160.256 31.1881 160.048 31.4708 159.904C31.7588 159.755 32.0895 159.68 32.4628 159.68ZM35.5154 164V159.728H36.5154V164H35.5154ZM36.0194 159.024C35.8327 159.024 35.678 158.965 35.5554 158.848C35.438 158.731 35.3794 158.589 35.3794 158.424C35.3794 158.253 35.438 158.112 35.5554 158C35.678 157.883 35.8327 157.824 36.0194 157.824C36.206 157.824 36.358 157.88 36.4754 157.992C36.598 158.099 36.6594 158.235 36.6594 158.4C36.6594 158.576 36.6007 158.725 36.4834 158.848C36.366 158.965 36.2114 159.024 36.0194 159.024ZM40.2519 159.68C40.5932 159.68 40.8972 159.747 41.1639 159.88C41.4359 160.013 41.6492 160.219 41.8039 160.496C41.9585 160.768 42.0359 161.12 42.0359 161.552V164H41.0359V161.68C41.0359 161.301 40.9452 161.019 40.7639 160.832C40.5879 160.645 40.3399 160.552 40.0199 160.552C39.7852 160.552 39.5772 160.6 39.3959 160.696C39.2145 160.792 39.0732 160.936 38.9719 161.128C38.8759 161.315 38.8279 161.552 38.8279 161.84V164H37.8279V159.728H38.7799V160.88L38.6119 160.528C38.7612 160.256 38.9772 160.048 39.2599 159.904C39.5479 159.755 39.8785 159.68 40.2519 159.68ZM45.2483 165.608C44.8536 165.608 44.4669 165.555 44.0883 165.448C43.7149 165.347 43.4083 165.197 43.1683 165L43.6163 164.248C43.8029 164.403 44.0376 164.525 44.3203 164.616C44.6083 164.712 44.8989 164.76 45.1923 164.76C45.6616 164.76 46.0056 164.651 46.2243 164.432C46.4429 164.219 46.5523 163.896 46.5523 163.464V162.704L46.6323 161.736L46.6003 160.768V159.728H47.5523V163.352C47.5523 164.125 47.3549 164.693 46.9603 165.056C46.5656 165.424 45.9949 165.608 45.2483 165.608ZM45.1203 163.808C44.7149 163.808 44.3469 163.723 44.0163 163.552C43.6909 163.376 43.4323 163.133 43.2403 162.824C43.0536 162.515 42.9603 162.152 42.9603 161.736C42.9603 161.325 43.0536 160.965 43.2403 160.656C43.4323 160.347 43.6909 160.107 44.0163 159.936C44.3469 159.765 44.7149 159.68 45.1203 159.68C45.4829 159.68 45.8083 159.752 46.0963 159.896C46.3843 160.04 46.6136 160.264 46.7843 160.568C46.9603 160.872 47.0483 161.261 47.0483 161.736C47.0483 162.211 46.9603 162.603 46.7843 162.912C46.6136 163.216 46.3843 163.443 46.0963 163.592C45.8083 163.736 45.4829 163.808 45.1203 163.808ZM45.2723 162.96C45.5229 162.96 45.7469 162.909 45.9443 162.808C46.1416 162.701 46.2936 162.557 46.4003 162.376C46.5123 162.189 46.5683 161.976 46.5683 161.736C46.5683 161.496 46.5123 161.285 46.4003 161.104C46.2936 160.917 46.1416 160.776 45.9443 160.68C45.7469 160.579 45.5229 160.528 45.2723 160.528C45.0216 160.528 44.7949 160.579 44.5923 160.68C44.3949 160.776 44.2403 160.917 44.1283 161.104C44.0216 161.285 43.9683 161.496 43.9683 161.736C43.9683 161.976 44.0216 162.189 44.1283 162.376C44.2403 162.557 44.3949 162.701 44.5923 162.808C44.7949 162.909 45.0216 162.96 45.2723 162.96ZM52.8859 164.056C52.5232 164.056 52.2032 163.989 51.9259 163.856C51.6485 163.717 51.4325 163.509 51.2779 163.232C51.1232 162.949 51.0459 162.595 51.0459 162.168V159.728H52.0459V162.032C52.0459 162.416 52.1312 162.704 52.3019 162.896C52.4779 163.083 52.7259 163.176 53.0459 163.176C53.2805 163.176 53.4832 163.128 53.6539 163.032C53.8299 162.936 53.9659 162.792 54.0619 162.6C54.1632 162.408 54.2139 162.171 54.2139 161.888V159.728H55.2139V164H54.2619V162.848L54.4299 163.2C54.2859 163.477 54.0752 163.691 53.7979 163.84C53.5205 163.984 53.2165 164.056 52.8859 164.056ZM58.8912 164.056C58.5445 164.056 58.2272 163.976 57.9392 163.816C57.6565 163.656 57.4299 163.416 57.2592 163.096C57.0939 162.771 57.0112 162.36 57.0112 161.864C57.0112 161.363 57.0912 160.952 57.2512 160.632C57.4165 160.312 57.6405 160.075 57.9232 159.92C58.2059 159.76 58.5285 159.68 58.8912 159.68C59.3125 159.68 59.6832 159.771 60.0032 159.952C60.3285 160.133 60.5845 160.387 60.7712 160.712C60.9632 161.037 61.0592 161.421 61.0592 161.864C61.0592 162.307 60.9632 162.693 60.7712 163.024C60.5845 163.349 60.3285 163.603 60.0032 163.784C59.6832 163.965 59.3125 164.056 58.8912 164.056ZM56.5232 165.552V159.728H57.4752V160.736L57.4432 161.872L57.5232 163.008V165.552H56.5232ZM58.7792 163.2C59.0192 163.2 59.2325 163.147 59.4192 163.04C59.6112 162.933 59.7632 162.779 59.8752 162.576C59.9872 162.373 60.0432 162.136 60.0432 161.864C60.0432 161.587 59.9872 161.349 59.8752 161.152C59.7632 160.949 59.6112 160.795 59.4192 160.688C59.2325 160.581 59.0192 160.528 58.7792 160.528C58.5392 160.528 58.3232 160.581 58.1312 160.688C57.9392 160.795 57.7872 160.949 57.6752 161.152C57.5632 161.349 57.5072 161.587 57.5072 161.864C57.5072 162.136 57.5632 162.373 57.6752 162.576C57.7872 162.779 57.9392 162.933 58.1312 163.04C58.3232 163.147 58.5392 163.2 58.7792 163.2ZM65.8265 164.056C65.3572 164.056 64.9945 163.936 64.7385 163.696C64.4825 163.451 64.3545 163.091 64.3545 162.616V158.784H65.3545V162.592C65.3545 162.795 65.4052 162.952 65.5065 163.064C65.6132 163.176 65.7598 163.232 65.9465 163.232C66.1705 163.232 66.3572 163.173 66.5065 163.056L66.7865 163.768C66.6692 163.864 66.5252 163.936 66.3545 163.984C66.1838 164.032 66.0078 164.056 65.8265 164.056ZM63.6505 160.56V159.76H66.4985V160.56H63.6505ZM70.0331 159.68C70.3745 159.68 70.6785 159.747 70.9451 159.88C71.2171 160.013 71.4305 160.219 71.5851 160.496C71.7398 160.768 71.8171 161.12 71.8171 161.552V164H70.8171V161.68C70.8171 161.301 70.7265 161.019 70.5451 160.832C70.3691 160.645 70.1211 160.552 69.8011 160.552C69.5665 160.552 69.3585 160.6 69.1771 160.696C68.9958 160.792 68.8545 160.936 68.7531 161.128C68.6571 161.315 68.6091 161.552 68.6091 161.84V164H67.6091V158.064H68.6091V160.88L68.3931 160.528C68.5425 160.256 68.7585 160.048 69.0411 159.904C69.3291 159.755 69.6598 159.68 70.0331 159.68ZM75.1015 164.056C74.6268 164.056 74.2108 163.963 73.8535 163.776C73.5015 163.584 73.2268 163.323 73.0295 162.992C72.8375 162.661 72.7415 162.285 72.7415 161.864C72.7415 161.437 72.8348 161.061 73.0215 160.736C73.2135 160.405 73.4748 160.147 73.8055 159.96C74.1415 159.773 74.5228 159.68 74.9495 159.68C75.3655 159.68 75.7362 159.771 76.0615 159.952C76.3868 160.133 76.6428 160.389 76.8295 160.72C77.0162 161.051 77.1095 161.44 77.1095 161.888C77.1095 161.931 77.1068 161.979 77.1015 162.032C77.1015 162.085 77.0988 162.136 77.0935 162.184H73.5335V161.52H76.5655L76.1735 161.728C76.1788 161.483 76.1282 161.267 76.0215 161.08C75.9148 160.893 75.7682 160.747 75.5815 160.64C75.4002 160.533 75.1895 160.48 74.9495 160.48C74.7042 160.48 74.4882 160.533 74.3015 160.64C74.1202 160.747 73.9762 160.896 73.8695 161.088C73.7682 161.275 73.7175 161.496 73.7175 161.752V161.912C73.7175 162.168 73.7762 162.395 73.8935 162.592C74.0108 162.789 74.1762 162.941 74.3895 163.048C74.6028 163.155 74.8482 163.208 75.1255 163.208C75.3655 163.208 75.5815 163.171 75.7735 163.096C75.9655 163.021 76.1362 162.904 76.2855 162.744L76.8215 163.36C76.6295 163.584 76.3868 163.757 76.0935 163.88C75.8055 163.997 75.4748 164.056 75.1015 164.056ZM82.241 164.056C81.793 164.056 81.393 163.963 81.041 163.776C80.6943 163.584 80.4223 163.323 80.225 162.992C80.0277 162.661 79.929 162.285 79.929 161.864C79.929 161.437 80.0277 161.061 80.225 160.736C80.4223 160.405 80.6943 160.147 81.041 159.96C81.393 159.773 81.793 159.68 82.241 159.68C82.657 159.68 83.0223 159.765 83.337 159.936C83.657 160.101 83.8997 160.347 84.065 160.672L83.297 161.12C83.169 160.917 83.0117 160.768 82.825 160.672C82.6437 160.576 82.4463 160.528 82.233 160.528C81.9877 160.528 81.7663 160.581 81.569 160.688C81.3717 160.795 81.217 160.949 81.105 161.152C80.993 161.349 80.937 161.587 80.937 161.864C80.937 162.141 80.993 162.381 81.105 162.584C81.217 162.781 81.3717 162.933 81.569 163.04C81.7663 163.147 81.9877 163.2 82.233 163.2C82.4463 163.2 82.6437 163.152 82.825 163.056C83.0117 162.96 83.169 162.811 83.297 162.608L84.065 163.056C83.8997 163.376 83.657 163.624 83.337 163.8C83.0223 163.971 82.657 164.056 82.241 164.056ZM86.7869 164.056C86.3496 164.056 85.9603 163.963 85.6189 163.776C85.2776 163.584 85.0083 163.323 84.8109 162.992C84.6136 162.661 84.5149 162.285 84.5149 161.864C84.5149 161.437 84.6136 161.061 84.8109 160.736C85.0083 160.405 85.2776 160.147 85.6189 159.96C85.9603 159.773 86.3496 159.68 86.7869 159.68C87.2296 159.68 87.6216 159.773 87.9629 159.96C88.3096 160.147 88.5789 160.403 88.7709 160.728C88.9683 161.053 89.0669 161.432 89.0669 161.864C89.0669 162.285 88.9683 162.661 88.7709 162.992C88.5789 163.323 88.3096 163.584 87.9629 163.776C87.6216 163.963 87.2296 164.056 86.7869 164.056ZM86.7869 163.2C87.0323 163.2 87.2509 163.147 87.4429 163.04C87.6349 162.933 87.7843 162.779 87.8909 162.576C88.0029 162.373 88.0589 162.136 88.0589 161.864C88.0589 161.587 88.0029 161.349 87.8909 161.152C87.7843 160.949 87.6349 160.795 87.4429 160.688C87.2509 160.581 87.0349 160.528 86.7949 160.528C86.5496 160.528 86.3309 160.581 86.1389 160.688C85.9523 160.795 85.8029 160.949 85.6909 161.152C85.5789 161.349 85.5229 161.587 85.5229 161.864C85.5229 162.136 85.5789 162.373 85.6909 162.576C85.8029 162.779 85.9523 162.933 86.1389 163.04C86.3309 163.147 86.5469 163.2 86.7869 163.2ZM90.0232 164V159.728H90.9752V160.904L90.8632 160.56C90.9912 160.272 91.1912 160.053 91.4632 159.904C91.7405 159.755 92.0845 159.68 92.4952 159.68V160.632C92.4525 160.621 92.4125 160.616 92.3752 160.616C92.3379 160.611 92.3005 160.608 92.2632 160.608C91.8845 160.608 91.5832 160.72 91.3592 160.944C91.1352 161.163 91.0232 161.491 91.0232 161.928V164H90.0232ZM93.3435 164V159.728H94.2955V160.904L94.1835 160.56C94.3115 160.272 94.5115 160.053 94.7835 159.904C95.0608 159.755 95.4048 159.68 95.8155 159.68V160.632C95.7728 160.621 95.7328 160.616 95.6955 160.616C95.6582 160.611 95.6208 160.608 95.5835 160.608C95.2048 160.608 94.9035 160.72 94.6795 160.944C94.4555 161.163 94.3435 161.491 94.3435 161.928V164H93.3435ZM98.6328 164.056C98.1581 164.056 97.7421 163.963 97.3848 163.776C97.0328 163.584 96.7581 163.323 96.5608 162.992C96.3688 162.661 96.2728 162.285 96.2728 161.864C96.2728 161.437 96.3661 161.061 96.5528 160.736C96.7448 160.405 97.0061 160.147 97.3368 159.96C97.6728 159.773 98.0541 159.68 98.4808 159.68C98.8968 159.68 99.2674 159.771 99.5928 159.952C99.9181 160.133 100.174 160.389 100.361 160.72C100.547 161.051 100.641 161.44 100.641 161.888C100.641 161.931 100.638 161.979 100.633 162.032C100.633 162.085 100.63 162.136 100.625 162.184H97.0648V161.52H100.097L99.7048 161.728C99.7101 161.483 99.6594 161.267 99.5528 161.08C99.4461 160.893 99.2994 160.747 99.1128 160.64C98.9314 160.533 98.7208 160.48 98.4808 160.48C98.2354 160.48 98.0194 160.533 97.8328 160.64C97.6514 160.747 97.5074 160.896 97.4008 161.088C97.2994 161.275 97.2488 161.496 97.2488 161.752V161.912C97.2488 162.168 97.3074 162.395 97.4248 162.592C97.5421 162.789 97.7074 162.941 97.9208 163.048C98.1341 163.155 98.3794 163.208 98.6568 163.208C98.8968 163.208 99.1128 163.171 99.3048 163.096C99.4968 163.021 99.6674 162.904 99.8168 162.744L100.353 163.36C100.161 163.584 99.9181 163.757 99.6248 163.88C99.3368 163.997 99.0061 164.056 98.6328 164.056ZM103.561 164.056C103.113 164.056 102.713 163.963 102.361 163.776C102.015 163.584 101.743 163.323 101.545 162.992C101.348 162.661 101.249 162.285 101.249 161.864C101.249 161.437 101.348 161.061 101.545 160.736C101.743 160.405 102.015 160.147 102.361 159.96C102.713 159.773 103.113 159.68 103.561 159.68C103.977 159.68 104.343 159.765 104.657 159.936C104.977 160.101 105.22 160.347 105.385 160.672L104.617 161.12C104.489 160.917 104.332 160.768 104.145 160.672C103.964 160.576 103.767 160.528 103.553 160.528C103.308 160.528 103.087 160.581 102.889 160.688C102.692 160.795 102.537 160.949 102.425 161.152C102.313 161.349 102.257 161.587 102.257 161.864C102.257 162.141 102.313 162.381 102.425 162.584C102.537 162.781 102.692 162.933 102.889 163.04C103.087 163.147 103.308 163.2 103.553 163.2C103.767 163.2 103.964 163.152 104.145 163.056C104.332 162.96 104.489 162.811 104.617 162.608L105.385 163.056C105.22 163.376 104.977 163.624 104.657 163.8C104.343 163.971 103.977 164.056 103.561 164.056ZM107.912 164.056C107.443 164.056 107.08 163.936 106.824 163.696C106.568 163.451 106.44 163.091 106.44 162.616V158.784H107.44V162.592C107.44 162.795 107.491 162.952 107.592 163.064C107.699 163.176 107.846 163.232 108.032 163.232C108.256 163.232 108.443 163.173 108.592 163.056L108.872 163.768C108.755 163.864 108.611 163.936 108.44 163.984C108.27 164.032 108.094 164.056 107.912 164.056ZM105.736 160.56V159.76H108.584V160.56H105.736ZM111.906 164V158.064H112.906V164H111.906ZM116.139 164.056C115.701 164.056 115.312 163.963 114.971 163.776C114.629 163.584 114.36 163.323 114.163 162.992C113.965 162.661 113.867 162.285 113.867 161.864C113.867 161.437 113.965 161.061 114.163 160.736C114.36 160.405 114.629 160.147 114.971 159.96C115.312 159.773 115.701 159.68 116.139 159.68C116.581 159.68 116.973 159.773 117.315 159.96C117.661 160.147 117.931 160.403 118.123 160.728C118.32 161.053 118.419 161.432 118.419 161.864C118.419 162.285 118.32 162.661 118.123 162.992C117.931 163.323 117.661 163.584 117.315 163.776C116.973 163.963 116.581 164.056 116.139 164.056ZM116.139 163.2C116.384 163.2 116.603 163.147 116.795 163.04C116.987 162.933 117.136 162.779 117.243 162.576C117.355 162.373 117.411 162.136 117.411 161.864C117.411 161.587 117.355 161.349 117.243 161.152C117.136 160.949 116.987 160.795 116.795 160.688C116.603 160.581 116.387 160.528 116.147 160.528C115.901 160.528 115.683 160.581 115.491 160.688C115.304 160.795 115.155 160.949 115.043 161.152C114.931 161.349 114.875 161.587 114.875 161.864C114.875 162.136 114.931 162.373 115.043 162.576C115.155 162.779 115.304 162.933 115.491 163.04C115.683 163.147 115.899 163.2 116.139 163.2ZM121.311 165.608C120.916 165.608 120.529 165.555 120.151 165.448C119.777 165.347 119.471 165.197 119.231 165L119.679 164.248C119.865 164.403 120.1 164.525 120.383 164.616C120.671 164.712 120.961 164.76 121.255 164.76C121.724 164.76 122.068 164.651 122.287 164.432C122.505 164.219 122.615 163.896 122.615 163.464V162.704L122.695 161.736L122.663 160.768V159.728H123.615V163.352C123.615 164.125 123.417 164.693 123.023 165.056C122.628 165.424 122.057 165.608 121.311 165.608ZM121.183 163.808C120.777 163.808 120.409 163.723 120.079 163.552C119.753 163.376 119.495 163.133 119.303 162.824C119.116 162.515 119.023 162.152 119.023 161.736C119.023 161.325 119.116 160.965 119.303 160.656C119.495 160.347 119.753 160.107 120.079 159.936C120.409 159.765 120.777 159.68 121.183 159.68C121.545 159.68 121.871 159.752 122.159 159.896C122.447 160.04 122.676 160.264 122.847 160.568C123.023 160.872 123.111 161.261 123.111 161.736C123.111 162.211 123.023 162.603 122.847 162.912C122.676 163.216 122.447 163.443 122.159 163.592C121.871 163.736 121.545 163.808 121.183 163.808ZM121.335 162.96C121.585 162.96 121.809 162.909 122.007 162.808C122.204 162.701 122.356 162.557 122.463 162.376C122.575 162.189 122.631 161.976 122.631 161.736C122.631 161.496 122.575 161.285 122.463 161.104C122.356 160.917 122.204 160.776 122.007 160.68C121.809 160.579 121.585 160.528 121.335 160.528C121.084 160.528 120.857 160.579 120.655 160.68C120.457 160.776 120.303 160.917 120.191 161.104C120.084 161.285 120.031 161.496 120.031 161.736C120.031 161.976 120.084 162.189 120.191 162.376C120.303 162.557 120.457 162.701 120.655 162.808C120.857 162.909 121.084 162.96 121.335 162.96ZM124.929 164V159.728H125.929V164H124.929ZM125.433 159.024C125.247 159.024 125.092 158.965 124.969 158.848C124.852 158.731 124.793 158.589 124.793 158.424C124.793 158.253 124.852 158.112 124.969 158C125.092 157.883 125.247 157.824 125.433 157.824C125.62 157.824 125.772 157.88 125.889 157.992C126.012 158.099 126.073 158.235 126.073 158.4C126.073 158.576 126.015 158.725 125.897 158.848C125.78 158.965 125.625 159.024 125.433 159.024ZM129.202 164.056C128.754 164.056 128.354 163.963 128.002 163.776C127.655 163.584 127.383 163.323 127.186 162.992C126.989 162.661 126.89 162.285 126.89 161.864C126.89 161.437 126.989 161.061 127.186 160.736C127.383 160.405 127.655 160.147 128.002 159.96C128.354 159.773 128.754 159.68 129.202 159.68C129.618 159.68 129.983 159.765 130.298 159.936C130.618 160.101 130.861 160.347 131.026 160.672L130.258 161.12C130.13 160.917 129.973 160.768 129.786 160.672C129.605 160.576 129.407 160.528 129.194 160.528C128.949 160.528 128.727 160.581 128.53 160.688C128.333 160.795 128.178 160.949 128.066 161.152C127.954 161.349 127.898 161.587 127.898 161.864C127.898 162.141 127.954 162.381 128.066 162.584C128.178 162.781 128.333 162.933 128.53 163.04C128.727 163.147 128.949 163.2 129.194 163.2C129.407 163.2 129.605 163.152 129.786 163.056C129.973 162.96 130.13 162.811 130.258 162.608L131.026 163.056C130.861 163.376 130.618 163.624 130.298 163.8C129.983 163.971 129.618 164.056 129.202 164.056ZM135.045 164L133.477 159.728H134.421L135.765 163.496H135.317L136.725 159.728H137.565L138.933 163.496H138.493L139.877 159.728H140.765L139.189 164H138.229L136.981 160.664H137.277L136.005 164H135.045ZM141.453 164V159.728H142.453V164H141.453ZM141.957 159.024C141.77 159.024 141.616 158.965 141.493 158.848C141.376 158.731 141.317 158.589 141.317 158.424C141.317 158.253 141.376 158.112 141.493 158C141.616 157.883 141.77 157.824 141.957 157.824C142.144 157.824 142.296 157.88 142.413 157.992C142.536 158.099 142.597 158.235 142.597 158.4C142.597 158.576 142.538 158.725 142.421 158.848C142.304 158.965 142.149 159.024 141.957 159.024ZM145.373 164.056C144.904 164.056 144.541 163.936 144.285 163.696C144.029 163.451 143.901 163.091 143.901 162.616V158.784H144.901V162.592C144.901 162.795 144.952 162.952 145.053 163.064C145.16 163.176 145.307 163.232 145.493 163.232C145.717 163.232 145.904 163.173 146.053 163.056L146.333 163.768C146.216 163.864 146.072 163.936 145.901 163.984C145.731 164.032 145.555 164.056 145.373 164.056ZM143.197 160.56V159.76H146.045V160.56H143.197ZM149.58 159.68C149.921 159.68 150.225 159.747 150.492 159.88C150.764 160.013 150.977 160.219 151.132 160.496C151.287 160.768 151.364 161.12 151.364 161.552V164H150.364V161.68C150.364 161.301 150.273 161.019 150.092 160.832C149.916 160.645 149.668 160.552 149.348 160.552C149.113 160.552 148.905 160.6 148.724 160.696C148.543 160.792 148.401 160.936 148.3 161.128C148.204 161.315 148.156 161.552 148.156 161.84V164H147.156V158.064H148.156V160.88L147.94 160.528C148.089 160.256 148.305 160.048 148.588 159.904C148.876 159.755 149.207 159.68 149.58 159.68ZM25.3734 174.056C24.904 174.056 24.5414 173.936 24.2854 173.696C24.0294 173.451 23.9014 173.091 23.9014 172.616V168.784H24.9014V172.592C24.9014 172.795 24.952 172.952 25.0534 173.064C25.16 173.176 25.3067 173.232 25.4934 173.232C25.7174 173.232 25.904 173.173 26.0534 173.056L26.3334 173.768C26.216 173.864 26.072 173.936 25.9014 173.984C25.7307 174.032 25.5547 174.056 25.3734 174.056ZM23.1974 170.56V169.76H26.0454V170.56H23.1974ZM29.58 169.68C29.9213 169.68 30.2253 169.747 30.492 169.88C30.764 170.013 30.9773 170.219 31.132 170.496C31.2867 170.768 31.364 171.12 31.364 171.552V174H30.364V171.68C30.364 171.301 30.2733 171.019 30.092 170.832C29.916 170.645 29.668 170.552 29.348 170.552C29.1133 170.552 28.9053 170.6 28.724 170.696C28.5427 170.792 28.4013 170.936 28.3 171.128C28.204 171.315 28.156 171.552 28.156 171.84V174H27.156V168.064H28.156V170.88L27.94 170.528C28.0893 170.256 28.3053 170.048 28.588 169.904C28.876 169.755 29.2067 169.68 29.58 169.68ZM34.6484 174.056C34.1737 174.056 33.7577 173.963 33.4004 173.776C33.0484 173.584 32.7737 173.323 32.5764 172.992C32.3844 172.661 32.2884 172.285 32.2884 171.864C32.2884 171.437 32.3817 171.061 32.5684 170.736C32.7604 170.405 33.0217 170.147 33.3524 169.96C33.6884 169.773 34.0697 169.68 34.4964 169.68C34.9124 169.68 35.283 169.771 35.6084 169.952C35.9337 170.133 36.1897 170.389 36.3764 170.72C36.563 171.051 36.6564 171.44 36.6564 171.888C36.6564 171.931 36.6537 171.979 36.6484 172.032C36.6484 172.085 36.6457 172.136 36.6404 172.184H33.0804V171.52H36.1124L35.7204 171.728C35.7257 171.483 35.675 171.267 35.5684 171.08C35.4617 170.893 35.315 170.747 35.1284 170.64C34.947 170.533 34.7364 170.48 34.4964 170.48C34.251 170.48 34.035 170.533 33.8484 170.64C33.667 170.747 33.523 170.896 33.4164 171.088C33.315 171.275 33.2644 171.496 33.2644 171.752V171.912C33.2644 172.168 33.323 172.395 33.4404 172.592C33.5577 172.789 33.723 172.941 33.9364 173.048C34.1497 173.155 34.395 173.208 34.6724 173.208C34.9124 173.208 35.1284 173.171 35.3204 173.096C35.5124 173.021 35.683 172.904 35.8324 172.744L36.3684 173.36C36.1764 173.584 35.9337 173.757 35.6404 173.88C35.3524 173.997 35.0217 174.056 34.6484 174.056ZM41.7879 174.056C41.3399 174.056 40.9399 173.963 40.5879 173.776C40.2412 173.584 39.9692 173.323 39.7719 172.992C39.5745 172.661 39.4759 172.285 39.4759 171.864C39.4759 171.437 39.5745 171.061 39.7719 170.736C39.9692 170.405 40.2412 170.147 40.5879 169.96C40.9399 169.773 41.3399 169.68 41.7879 169.68C42.2039 169.68 42.5692 169.765 42.8839 169.936C43.2039 170.101 43.4465 170.347 43.6119 170.672L42.8439 171.12C42.7159 170.917 42.5585 170.768 42.3719 170.672C42.1905 170.576 41.9932 170.528 41.7799 170.528C41.5345 170.528 41.3132 170.581 41.1159 170.688C40.9185 170.795 40.7639 170.949 40.6519 171.152C40.5399 171.349 40.4839 171.587 40.4839 171.864C40.4839 172.141 40.5399 172.381 40.6519 172.584C40.7639 172.781 40.9185 172.933 41.1159 173.04C41.3132 173.147 41.5345 173.2 41.7799 173.2C41.9932 173.2 42.1905 173.152 42.3719 173.056C42.5585 172.96 42.7159 172.811 42.8439 172.608L43.6119 173.056C43.4465 173.376 43.2039 173.624 42.8839 173.8C42.5692 173.971 42.2039 174.056 41.7879 174.056ZM46.3338 174.056C45.8965 174.056 45.5071 173.963 45.1658 173.776C44.8245 173.584 44.5551 173.323 44.3578 172.992C44.1605 172.661 44.0618 172.285 44.0618 171.864C44.0618 171.437 44.1605 171.061 44.3578 170.736C44.5551 170.405 44.8245 170.147 45.1658 169.96C45.5071 169.773 45.8965 169.68 46.3338 169.68C46.7765 169.68 47.1685 169.773 47.5098 169.96C47.8565 170.147 48.1258 170.403 48.3178 170.728C48.5151 171.053 48.6138 171.432 48.6138 171.864C48.6138 172.285 48.5151 172.661 48.3178 172.992C48.1258 173.323 47.8565 173.584 47.5098 173.776C47.1685 173.963 46.7765 174.056 46.3338 174.056ZM46.3338 173.2C46.5791 173.2 46.7978 173.147 46.9898 173.04C47.1818 172.933 47.3311 172.779 47.4378 172.576C47.5498 172.373 47.6058 172.136 47.6058 171.864C47.6058 171.587 47.5498 171.349 47.4378 171.152C47.3311 170.949 47.1818 170.795 46.9898 170.688C46.7978 170.581 46.5818 170.528 46.3418 170.528C46.0965 170.528 45.8778 170.581 45.6858 170.688C45.4991 170.795 45.3498 170.949 45.2378 171.152C45.1258 171.349 45.0698 171.587 45.0698 171.864C45.0698 172.136 45.1258 172.373 45.2378 172.576C45.3498 172.779 45.4991 172.933 45.6858 173.04C45.8778 173.147 46.0938 173.2 46.3338 173.2ZM49.5701 174V169.728H50.5221V170.904L50.4101 170.56C50.5381 170.272 50.7381 170.053 51.0101 169.904C51.2874 169.755 51.6314 169.68 52.0421 169.68V170.632C51.9994 170.621 51.9594 170.616 51.9221 170.616C51.8847 170.611 51.8474 170.608 51.8101 170.608C51.4314 170.608 51.1301 170.72 50.9061 170.944C50.6821 171.163 50.5701 171.491 50.5701 171.928V174H49.5701ZM52.8904 174V169.728H53.8424V170.904L53.7304 170.56C53.8584 170.272 54.0584 170.053 54.3304 169.904C54.6077 169.755 54.9517 169.68 55.3624 169.68V170.632C55.3197 170.621 55.2797 170.616 55.2424 170.616C55.205 170.611 55.1677 170.608 55.1304 170.608C54.7517 170.608 54.4504 170.72 54.2264 170.944C54.0024 171.163 53.8904 171.491 53.8904 171.928V174H52.8904ZM58.1796 174.056C57.705 174.056 57.289 173.963 56.9316 173.776C56.5796 173.584 56.305 173.323 56.1076 172.992C55.9156 172.661 55.8196 172.285 55.8196 171.864C55.8196 171.437 55.913 171.061 56.0996 170.736C56.2916 170.405 56.553 170.147 56.8836 169.96C57.2196 169.773 57.601 169.68 58.0276 169.68C58.4436 169.68 58.8143 169.771 59.1396 169.952C59.465 170.133 59.721 170.389 59.9076 170.72C60.0943 171.051 60.1876 171.44 60.1876 171.888C60.1876 171.931 60.185 171.979 60.1796 172.032C60.1796 172.085 60.177 172.136 60.1716 172.184H56.6116V171.52H59.6436L59.2516 171.728C59.257 171.483 59.2063 171.267 59.0996 171.08C58.993 170.893 58.8463 170.747 58.6596 170.64C58.4783 170.533 58.2676 170.48 58.0276 170.48C57.7823 170.48 57.5663 170.533 57.3796 170.64C57.1983 170.747 57.0543 170.896 56.9476 171.088C56.8463 171.275 56.7956 171.496 56.7956 171.752V171.912C56.7956 172.168 56.8543 172.395 56.9716 172.592C57.089 172.789 57.2543 172.941 57.4676 173.048C57.681 173.155 57.9263 173.208 58.2036 173.208C58.4436 173.208 58.6596 173.171 58.8516 173.096C59.0436 173.021 59.2143 172.904 59.3636 172.744L59.8996 173.36C59.7076 173.584 59.465 173.757 59.1716 173.88C58.8836 173.997 58.553 174.056 58.1796 174.056ZM63.1082 174.056C62.6602 174.056 62.2602 173.963 61.9082 173.776C61.5615 173.584 61.2895 173.323 61.0922 172.992C60.8949 172.661 60.7962 172.285 60.7962 171.864C60.7962 171.437 60.8949 171.061 61.0922 170.736C61.2895 170.405 61.5615 170.147 61.9082 169.96C62.2602 169.773 62.6602 169.68 63.1082 169.68C63.5242 169.68 63.8895 169.765 64.2042 169.936C64.5242 170.101 64.7669 170.347 64.9322 170.672L64.1642 171.12C64.0362 170.917 63.8789 170.768 63.6922 170.672C63.5109 170.576 63.3135 170.528 63.1002 170.528C62.8549 170.528 62.6335 170.581 62.4362 170.688C62.2389 170.795 62.0842 170.949 61.9722 171.152C61.8602 171.349 61.8042 171.587 61.8042 171.864C61.8042 172.141 61.8602 172.381 61.9722 172.584C62.0842 172.781 62.2389 172.933 62.4362 173.04C62.6335 173.147 62.8549 173.2 63.1002 173.2C63.3135 173.2 63.5109 173.152 63.6922 173.056C63.8789 172.96 64.0362 172.811 64.1642 172.608L64.9322 173.056C64.7669 173.376 64.5242 173.624 64.2042 173.8C63.8895 173.971 63.5242 174.056 63.1082 174.056ZM67.4593 174.056C66.99 174.056 66.6273 173.936 66.3713 173.696C66.1153 173.451 65.9873 173.091 65.9873 172.616V168.784H66.9873V172.592C66.9873 172.795 67.038 172.952 67.1393 173.064C67.246 173.176 67.3926 173.232 67.5793 173.232C67.8033 173.232 67.99 173.173 68.1393 173.056L68.4193 173.768C68.302 173.864 68.158 173.936 67.9873 173.984C67.8166 174.032 67.6406 174.056 67.4593 174.056ZM65.2833 170.56V169.76H68.1313V170.56H65.2833ZM72.7729 174.056C72.4155 174.056 72.0715 174.011 71.7409 173.92C71.4155 173.824 71.1569 173.709 70.9649 173.576L71.3489 172.816C71.5409 172.939 71.7702 173.04 72.0369 173.12C72.3035 173.2 72.5702 173.24 72.8369 173.24C73.1515 173.24 73.3782 173.197 73.5169 173.112C73.6609 173.027 73.7329 172.912 73.7329 172.768C73.7329 172.651 73.6849 172.563 73.5889 172.504C73.4929 172.44 73.3675 172.392 73.2129 172.36C73.0582 172.328 72.8849 172.299 72.6929 172.272C72.5062 172.245 72.3169 172.211 72.1249 172.168C71.9382 172.12 71.7675 172.053 71.6129 171.968C71.4582 171.877 71.3329 171.757 71.2369 171.608C71.1409 171.459 71.0929 171.261 71.0929 171.016C71.0929 170.744 71.1702 170.509 71.3249 170.312C71.4795 170.109 71.6955 169.955 71.9729 169.848C72.2555 169.736 72.5889 169.68 72.9729 169.68C73.2609 169.68 73.5515 169.712 73.8449 169.776C74.1382 169.84 74.3809 169.931 74.5729 170.048L74.1889 170.808C73.9862 170.685 73.7809 170.603 73.5729 170.56C73.3702 170.512 73.1675 170.488 72.9649 170.488C72.6609 170.488 72.4342 170.533 72.2849 170.624C72.1409 170.715 72.0689 170.829 72.0689 170.968C72.0689 171.096 72.1169 171.192 72.2129 171.256C72.3089 171.32 72.4342 171.371 72.5889 171.408C72.7435 171.445 72.9142 171.477 73.1009 171.504C73.2929 171.525 73.4822 171.56 73.6689 171.608C73.8555 171.656 74.0262 171.723 74.1809 171.808C74.3409 171.888 74.4689 172.003 74.5649 172.152C74.6609 172.301 74.7089 172.496 74.7089 172.736C74.7089 173.003 74.6289 173.235 74.4689 173.432C74.3142 173.629 74.0929 173.784 73.8049 173.896C73.5169 174.003 73.1729 174.056 72.7729 174.056ZM77.4901 174.056C77.0527 174.056 76.6634 173.963 76.3221 173.776C75.9807 173.584 75.7114 173.323 75.5141 172.992C75.3167 172.661 75.2181 172.285 75.2181 171.864C75.2181 171.437 75.3167 171.061 75.5141 170.736C75.7114 170.405 75.9807 170.147 76.3221 169.96C76.6634 169.773 77.0527 169.68 77.4901 169.68C77.9327 169.68 78.3247 169.773 78.6661 169.96C79.0127 170.147 79.2821 170.403 79.4741 170.728C79.6714 171.053 79.7701 171.432 79.7701 171.864C79.7701 172.285 79.6714 172.661 79.4741 172.992C79.2821 173.323 79.0127 173.584 78.6661 173.776C78.3247 173.963 77.9327 174.056 77.4901 174.056ZM77.4901 173.2C77.7354 173.2 77.9541 173.147 78.1461 173.04C78.3381 172.933 78.4874 172.779 78.5941 172.576C78.7061 172.373 78.7621 172.136 78.7621 171.864C78.7621 171.587 78.7061 171.349 78.5941 171.152C78.4874 170.949 78.3381 170.795 78.1461 170.688C77.9541 170.581 77.7381 170.528 77.4981 170.528C77.2527 170.528 77.0341 170.581 76.8421 170.688C76.6554 170.795 76.5061 170.949 76.3941 171.152C76.2821 171.349 76.2261 171.587 76.2261 171.864C76.2261 172.136 76.2821 172.373 76.3941 172.576C76.5061 172.779 76.6554 172.933 76.8421 173.04C77.0341 173.147 77.2501 173.2 77.4901 173.2ZM80.7263 174V168.064H81.7263V174H80.7263ZM84.8468 174.056C84.4841 174.056 84.1641 173.989 83.8868 173.856C83.6095 173.717 83.3935 173.509 83.2388 173.232C83.0841 172.949 83.0068 172.595 83.0068 172.168V169.728H84.0068V172.032C84.0068 172.416 84.0921 172.704 84.2628 172.896C84.4388 173.083 84.6868 173.176 85.0068 173.176C85.2415 173.176 85.4441 173.128 85.6148 173.032C85.7908 172.936 85.9268 172.792 86.0228 172.6C86.1241 172.408 86.1748 172.171 86.1748 171.888V169.728H87.1748V174H86.2228V172.848L86.3908 173.2C86.2468 173.477 86.0361 173.691 85.7588 173.84C85.4815 173.984 85.1775 174.056 84.8468 174.056ZM90.0921 174.056C89.6228 174.056 89.2601 173.936 89.0041 173.696C88.7481 173.451 88.6201 173.091 88.6201 172.616V168.784H89.6201V172.592C89.6201 172.795 89.6708 172.952 89.7721 173.064C89.8788 173.176 90.0255 173.232 90.2121 173.232C90.4361 173.232 90.6228 173.173 90.7721 173.056L91.0521 173.768C90.9348 173.864 90.7908 173.936 90.6201 173.984C90.4495 174.032 90.2735 174.056 90.0921 174.056ZM87.9161 170.56V169.76H90.7641V170.56H87.9161ZM91.8748 174V169.728H92.8748V174H91.8748ZM92.3788 169.024C92.1921 169.024 92.0374 168.965 91.9148 168.848C91.7974 168.731 91.7388 168.589 91.7388 168.424C91.7388 168.253 91.7974 168.112 91.9148 168C92.0374 167.883 92.1921 167.824 92.3788 167.824C92.5654 167.824 92.7174 167.88 92.8348 167.992C92.9574 168.099 93.0188 168.235 93.0188 168.4C93.0188 168.576 92.9601 168.725 92.8428 168.848C92.7254 168.965 92.5708 169.024 92.3788 169.024ZM96.1073 174.056C95.6699 174.056 95.2806 173.963 94.9393 173.776C94.5979 173.584 94.3286 173.323 94.1313 172.992C93.9339 172.661 93.8353 172.285 93.8353 171.864C93.8353 171.437 93.9339 171.061 94.1313 170.736C94.3286 170.405 94.5979 170.147 94.9393 169.96C95.2806 169.773 95.6699 169.68 96.1073 169.68C96.5499 169.68 96.9419 169.773 97.2833 169.96C97.6299 170.147 97.8993 170.403 98.0913 170.728C98.2886 171.053 98.3873 171.432 98.3873 171.864C98.3873 172.285 98.2886 172.661 98.0913 172.992C97.8993 173.323 97.6299 173.584 97.2833 173.776C96.9419 173.963 96.5499 174.056 96.1073 174.056ZM96.1073 173.2C96.3526 173.2 96.5713 173.147 96.7633 173.04C96.9553 172.933 97.1046 172.779 97.2113 172.576C97.3233 172.373 97.3793 172.136 97.3793 171.864C97.3793 171.587 97.3233 171.349 97.2113 171.152C97.1046 170.949 96.9553 170.795 96.7633 170.688C96.5713 170.581 96.3553 170.528 96.1153 170.528C95.8699 170.528 95.6513 170.581 95.4593 170.688C95.2726 170.795 95.1233 170.949 95.0113 171.152C94.8993 171.349 94.8433 171.587 94.8433 171.864C94.8433 172.136 94.8993 172.373 95.0113 172.576C95.1233 172.779 95.2726 172.933 95.4593 173.04C95.6513 173.147 95.8673 173.2 96.1073 173.2ZM101.768 169.68C102.109 169.68 102.413 169.747 102.68 169.88C102.952 170.013 103.165 170.219 103.32 170.496C103.474 170.768 103.552 171.12 103.552 171.552V174H102.552V171.68C102.552 171.301 102.461 171.019 102.28 170.832C102.104 170.645 101.856 170.552 101.536 170.552C101.301 170.552 101.093 170.6 100.912 170.696C100.73 170.792 100.589 170.936 100.488 171.128C100.392 171.315 100.344 171.552 100.344 171.84V174H99.3435V169.728H100.296V170.88L100.128 170.528C100.277 170.256 100.493 170.048 100.776 169.904C101.064 169.755 101.394 169.68 101.768 169.68ZM104.556 175.208L105.02 173.44L105.156 174.032C104.969 174.032 104.812 173.976 104.684 173.864C104.561 173.747 104.5 173.589 104.5 173.392C104.5 173.189 104.561 173.029 104.684 172.912C104.812 172.789 104.967 172.728 105.148 172.728C105.335 172.728 105.489 172.789 105.612 172.912C105.735 173.035 105.796 173.195 105.796 173.392C105.796 173.445 105.791 173.504 105.78 173.568C105.769 173.627 105.751 173.696 105.724 173.776C105.703 173.856 105.665 173.957 105.612 174.08L105.204 175.208H104.556ZM110.304 174.056C109.947 174.056 109.603 174.011 109.272 173.92C108.947 173.824 108.688 173.709 108.496 173.576L108.88 172.816C109.072 172.939 109.301 173.04 109.568 173.12C109.835 173.2 110.101 173.24 110.368 173.24C110.683 173.24 110.909 173.197 111.048 173.112C111.192 173.027 111.264 172.912 111.264 172.768C111.264 172.651 111.216 172.563 111.12 172.504C111.024 172.44 110.899 172.392 110.744 172.36C110.589 172.328 110.416 172.299 110.224 172.272C110.037 172.245 109.848 172.211 109.656 172.168C109.469 172.12 109.299 172.053 109.144 171.968C108.989 171.877 108.864 171.757 108.768 171.608C108.672 171.459 108.624 171.261 108.624 171.016C108.624 170.744 108.701 170.509 108.856 170.312C109.011 170.109 109.227 169.955 109.504 169.848C109.787 169.736 110.12 169.68 110.504 169.68C110.792 169.68 111.083 169.712 111.376 169.776C111.669 169.84 111.912 169.931 112.104 170.048L111.72 170.808C111.517 170.685 111.312 170.603 111.104 170.56C110.901 170.512 110.699 170.488 110.496 170.488C110.192 170.488 109.965 170.533 109.816 170.624C109.672 170.715 109.6 170.829 109.6 170.968C109.6 171.096 109.648 171.192 109.744 171.256C109.84 171.32 109.965 171.371 110.12 171.408C110.275 171.445 110.445 171.477 110.632 171.504C110.824 171.525 111.013 171.56 111.2 171.608C111.387 171.656 111.557 171.723 111.712 171.808C111.872 171.888 112 172.003 112.096 172.152C112.192 172.301 112.24 172.496 112.24 172.736C112.24 173.003 112.16 173.235 112 173.432C111.845 173.629 111.624 173.784 111.336 173.896C111.048 174.003 110.704 174.056 110.304 174.056ZM115.021 174.056C114.584 174.056 114.195 173.963 113.853 173.776C113.512 173.584 113.243 173.323 113.045 172.992C112.848 172.661 112.749 172.285 112.749 171.864C112.749 171.437 112.848 171.061 113.045 170.736C113.243 170.405 113.512 170.147 113.853 169.96C114.195 169.773 114.584 169.68 115.021 169.68C115.464 169.68 115.856 169.773 116.197 169.96C116.544 170.147 116.813 170.403 117.005 170.728C117.203 171.053 117.301 171.432 117.301 171.864C117.301 172.285 117.203 172.661 117.005 172.992C116.813 173.323 116.544 173.584 116.197 173.776C115.856 173.963 115.464 174.056 115.021 174.056ZM115.021 173.2C115.267 173.2 115.485 173.147 115.677 173.04C115.869 172.933 116.019 172.779 116.125 172.576C116.237 172.373 116.293 172.136 116.293 171.864C116.293 171.587 116.237 171.349 116.125 171.152C116.019 170.949 115.869 170.795 115.677 170.688C115.485 170.581 115.269 170.528 115.029 170.528C114.784 170.528 114.565 170.581 114.373 170.688C114.187 170.795 114.037 170.949 113.925 171.152C113.813 171.349 113.757 171.587 113.757 171.864C113.757 172.136 113.813 172.373 113.925 172.576C114.037 172.779 114.187 172.933 114.373 173.04C114.565 173.147 114.781 173.2 115.021 173.2ZM118.258 174V168.064H119.258V174H118.258ZM121.706 174L119.874 169.728H120.914L122.49 173.496H121.978L123.61 169.728H124.57L122.738 174H121.706ZM125.195 174V169.728H126.195V174H125.195ZM125.699 169.024C125.512 169.024 125.358 168.965 125.235 168.848C125.118 168.731 125.059 168.589 125.059 168.424C125.059 168.253 125.118 168.112 125.235 168C125.358 167.883 125.512 167.824 125.699 167.824C125.886 167.824 126.038 167.88 126.155 167.992C126.278 168.099 126.339 168.235 126.339 168.4C126.339 168.576 126.28 168.725 126.163 168.848C126.046 168.965 125.891 169.024 125.699 169.024ZM129.932 169.68C130.273 169.68 130.577 169.747 130.844 169.88C131.116 170.013 131.329 170.219 131.484 170.496C131.638 170.768 131.716 171.12 131.716 171.552V174H130.716V171.68C130.716 171.301 130.625 171.019 130.444 170.832C130.268 170.645 130.02 170.552 129.7 170.552C129.465 170.552 129.257 170.6 129.076 170.696C128.894 170.792 128.753 170.936 128.652 171.128C128.556 171.315 128.508 171.552 128.508 171.84V174H127.508V169.728H128.46V170.88L128.292 170.528C128.441 170.256 128.657 170.048 128.94 169.904C129.228 169.755 129.558 169.68 129.932 169.68ZM134.928 175.608C134.533 175.608 134.147 175.555 133.768 175.448C133.395 175.347 133.088 175.197 132.848 175L133.296 174.248C133.483 174.403 133.717 174.525 134 174.616C134.288 174.712 134.579 174.76 134.872 174.76C135.341 174.76 135.685 174.651 135.904 174.432C136.123 174.219 136.232 173.896 136.232 173.464V172.704L136.312 171.736L136.28 170.768V169.728H137.232V173.352C137.232 174.125 137.035 174.693 136.64 175.056C136.245 175.424 135.675 175.608 134.928 175.608ZM134.8 173.808C134.395 173.808 134.027 173.723 133.696 173.552C133.371 173.376 133.112 173.133 132.92 172.824C132.733 172.515 132.64 172.152 132.64 171.736C132.64 171.325 132.733 170.965 132.92 170.656C133.112 170.347 133.371 170.107 133.696 169.936C134.027 169.765 134.395 169.68 134.8 169.68C135.163 169.68 135.488 169.752 135.776 169.896C136.064 170.04 136.293 170.264 136.464 170.568C136.64 170.872 136.728 171.261 136.728 171.736C136.728 172.211 136.64 172.603 136.464 172.912C136.293 173.216 136.064 173.443 135.776 173.592C135.488 173.736 135.163 173.808 134.8 173.808ZM134.952 172.96C135.203 172.96 135.427 172.909 135.624 172.808C135.821 172.701 135.973 172.557 136.08 172.376C136.192 172.189 136.248 171.976 136.248 171.736C136.248 171.496 136.192 171.285 136.08 171.104C135.973 170.917 135.821 170.776 135.624 170.68C135.427 170.579 135.203 170.528 134.952 170.528C134.701 170.528 134.475 170.579 134.272 170.68C134.075 170.776 133.92 170.917 133.808 171.104C133.701 171.285 133.648 171.496 133.648 171.736C133.648 171.976 133.701 172.189 133.808 172.376C133.92 172.557 134.075 172.701 134.272 172.808C134.475 172.909 134.701 172.96 134.952 172.96ZM42.9928 184.056C42.6461 184.056 42.3288 183.976 42.0408 183.816C41.7581 183.656 41.5314 183.416 41.3608 183.096C41.1954 182.771 41.1128 182.36 41.1128 181.864C41.1128 181.363 41.1928 180.952 41.3528 180.632C41.5181 180.312 41.7421 180.075 42.0247 179.92C42.3074 179.76 42.6301 179.68 42.9928 179.68C43.4141 179.68 43.7848 179.771 44.1048 179.952C44.4301 180.133 44.6861 180.387 44.8728 180.712C45.0648 181.037 45.1608 181.421 45.1608 181.864C45.1608 182.307 45.0648 182.693 44.8728 183.024C44.6861 183.349 44.4301 183.603 44.1048 183.784C43.7848 183.965 43.4141 184.056 42.9928 184.056ZM40.6248 185.552V179.728H41.5768V180.736L41.5448 181.872L41.6248 183.008V185.552H40.6248ZM42.8808 183.2C43.1208 183.2 43.3341 183.147 43.5208 183.04C43.7128 182.933 43.8648 182.779 43.9768 182.576C44.0888 182.373 44.1448 182.136 44.1448 181.864C44.1448 181.587 44.0888 181.349 43.9768 181.152C43.8648 180.949 43.7128 180.795 43.5208 180.688C43.3341 180.581 43.1208 180.528 42.8808 180.528C42.6408 180.528 42.4248 180.581 42.2328 180.688C42.0408 180.795 41.8888 180.949 41.7768 181.152C41.6648 181.349 41.6088 181.587 41.6088 181.864C41.6088 182.136 41.6648 182.373 41.7768 182.576C41.8888 182.779 42.0408 182.933 42.2328 183.04C42.4248 183.147 42.6408 183.2 42.8808 183.2ZM46.1091 184V179.728H47.0611V180.904L46.9491 180.56C47.0771 180.272 47.2771 180.053 47.5491 179.904C47.8265 179.755 48.1705 179.68 48.5811 179.68V180.632C48.5385 180.621 48.4985 180.616 48.4611 180.616C48.4238 180.611 48.3865 180.608 48.3491 180.608C47.9705 180.608 47.6691 180.72 47.4451 180.944C47.2211 181.163 47.1091 181.491 47.1091 181.928V184H46.1091ZM51.3104 184.056C50.873 184.056 50.4837 183.963 50.1424 183.776C49.801 183.584 49.5317 183.323 49.3344 182.992C49.137 182.661 49.0384 182.285 49.0384 181.864C49.0384 181.437 49.137 181.061 49.3344 180.736C49.5317 180.405 49.801 180.147 50.1424 179.96C50.4837 179.773 50.873 179.68 51.3104 179.68C51.753 179.68 52.145 179.773 52.4864 179.96C52.833 180.147 53.1024 180.403 53.2944 180.728C53.4917 181.053 53.5904 181.432 53.5904 181.864C53.5904 182.285 53.4917 182.661 53.2944 182.992C53.1024 183.323 52.833 183.584 52.4864 183.776C52.145 183.963 51.753 184.056 51.3104 184.056ZM51.3104 183.2C51.5557 183.2 51.7744 183.147 51.9664 183.04C52.1584 182.933 52.3077 182.779 52.4144 182.576C52.5264 182.373 52.5824 182.136 52.5824 181.864C52.5824 181.587 52.5264 181.349 52.4144 181.152C52.3077 180.949 52.1584 180.795 51.9664 180.688C51.7744 180.581 51.5584 180.528 51.3184 180.528C51.073 180.528 50.8544 180.581 50.6624 180.688C50.4757 180.795 50.3264 180.949 50.2144 181.152C50.1024 181.349 50.0464 181.587 50.0464 181.864C50.0464 182.136 50.1024 182.373 50.2144 182.576C50.3264 182.779 50.4757 182.933 50.6624 183.04C50.8544 183.147 51.0704 183.2 51.3104 183.2ZM56.9146 184.056C56.552 184.056 56.2293 183.976 55.9466 183.816C55.664 183.656 55.44 183.416 55.2746 183.096C55.1146 182.771 55.0346 182.36 55.0346 181.864C55.0346 181.363 55.1173 180.952 55.2826 180.632C55.4533 180.312 55.68 180.075 55.9626 179.92C56.2506 179.76 56.568 179.68 56.9146 179.68C57.336 179.68 57.7066 179.771 58.0266 179.952C58.352 180.133 58.608 180.387 58.7946 180.712C58.9866 181.037 59.0826 181.421 59.0826 181.864C59.0826 182.307 58.9866 182.691 58.7946 183.016C58.608 183.341 58.352 183.597 58.0266 183.784C57.7066 183.965 57.336 184.056 56.9146 184.056ZM54.5466 184V178.064H55.5466V180.72L55.4666 181.856L55.4986 182.992V184H54.5466ZM56.8026 183.2C57.0426 183.2 57.256 183.147 57.4426 183.04C57.6346 182.933 57.7866 182.779 57.8986 182.576C58.0106 182.373 58.0666 182.136 58.0666 181.864C58.0666 181.587 58.0106 181.349 57.8986 181.152C57.7866 180.949 57.6346 180.795 57.4426 180.688C57.256 180.581 57.0426 180.528 56.8026 180.528C56.5626 180.528 56.3466 180.581 56.1546 180.688C55.9626 180.795 55.8106 180.949 55.6986 181.152C55.5866 181.349 55.5306 181.587 55.5306 181.864C55.5306 182.136 55.5866 182.373 55.6986 182.576C55.8106 182.779 55.9626 182.933 56.1546 183.04C56.3466 183.147 56.5626 183.2 56.8026 183.2ZM60.031 184V178.064H61.031V184H60.031ZM64.3515 184.056C63.8768 184.056 63.4608 183.963 63.1035 183.776C62.7515 183.584 62.4768 183.323 62.2795 182.992C62.0875 182.661 61.9915 182.285 61.9915 181.864C61.9915 181.437 62.0848 181.061 62.2715 180.736C62.4635 180.405 62.7248 180.147 63.0555 179.96C63.3915 179.773 63.7728 179.68 64.1995 179.68C64.6155 179.68 64.9862 179.771 65.3115 179.952C65.6368 180.133 65.8928 180.389 66.0795 180.72C66.2662 181.051 66.3595 181.44 66.3595 181.888C66.3595 181.931 66.3568 181.979 66.3515 182.032C66.3515 182.085 66.3488 182.136 66.3435 182.184H62.7835V181.52H65.8155L65.4235 181.728C65.4288 181.483 65.3782 181.267 65.2715 181.08C65.1648 180.893 65.0182 180.747 64.8315 180.64C64.6502 180.533 64.4395 180.48 64.1995 180.48C63.9542 180.48 63.7382 180.533 63.5515 180.64C63.3702 180.747 63.2262 180.896 63.1195 181.088C63.0182 181.275 62.9675 181.496 62.9675 181.752V181.912C62.9675 182.168 63.0262 182.395 63.1435 182.592C63.2608 182.789 63.4262 182.941 63.6395 183.048C63.8528 183.155 64.0982 183.208 64.3755 183.208C64.6155 183.208 64.8315 183.171 65.0235 183.096C65.2155 183.021 65.3862 182.904 65.5355 182.744L66.0715 183.36C65.8795 183.584 65.6368 183.757 65.3435 183.88C65.0555 183.997 64.7248 184.056 64.3515 184.056ZM72.7121 179.68C73.0534 179.68 73.3547 179.747 73.6161 179.88C73.8827 180.013 74.0907 180.219 74.2401 180.496C74.3894 180.768 74.4641 181.12 74.4641 181.552V184H73.4641V181.68C73.4641 181.301 73.3814 181.019 73.2161 180.832C73.0507 180.645 72.8134 180.552 72.5041 180.552C72.2854 180.552 72.0907 180.6 71.9201 180.696C71.7547 180.792 71.6241 180.933 71.5281 181.12C71.4374 181.307 71.3921 181.544 71.3921 181.832V184H70.3921V181.68C70.3921 181.301 70.3094 181.019 70.1441 180.832C69.9787 180.645 69.7414 180.552 69.4321 180.552C69.2134 180.552 69.0187 180.6 68.8481 180.696C68.6827 180.792 68.5521 180.933 68.4561 181.12C68.3654 181.307 68.3201 181.544 68.3201 181.832V184H67.3201V179.728H68.2721V180.864L68.1041 180.528C68.2481 180.251 68.4561 180.04 68.7281 179.896C69.0054 179.752 69.3201 179.68 69.6721 179.68C70.0721 179.68 70.4187 179.779 70.7121 179.976C71.0107 180.173 71.2081 180.472 71.3041 180.872L70.9121 180.736C71.0507 180.416 71.2801 180.16 71.6001 179.968C71.9201 179.776 72.2907 179.68 72.7121 179.68ZM77.0619 184.056C76.7046 184.056 76.3606 184.011 76.0299 183.92C75.7046 183.824 75.4459 183.709 75.2539 183.576L75.6379 182.816C75.8299 182.939 76.0593 183.04 76.3259 183.12C76.5926 183.2 76.8593 183.24 77.1259 183.24C77.4406 183.24 77.6673 183.197 77.8059 183.112C77.9499 183.027 78.0219 182.912 78.0219 182.768C78.0219 182.651 77.9739 182.563 77.8779 182.504C77.7819 182.44 77.6566 182.392 77.5019 182.36C77.3473 182.328 77.1739 182.299 76.9819 182.272C76.7953 182.245 76.6059 182.211 76.4139 182.168C76.2273 182.12 76.0566 182.053 75.9019 181.968C75.7473 181.877 75.6219 181.757 75.5259 181.608C75.4299 181.459 75.3819 181.261 75.3819 181.016C75.3819 180.744 75.4593 180.509 75.6139 180.312C75.7686 180.109 75.9846 179.955 76.2619 179.848C76.5446 179.736 76.8779 179.68 77.2619 179.68C77.5499 179.68 77.8406 179.712 78.1339 179.776C78.4273 179.84 78.6699 179.931 78.8619 180.048L78.4779 180.808C78.2753 180.685 78.0699 180.603 77.8619 180.56C77.6593 180.512 77.4566 180.488 77.2539 180.488C76.9499 180.488 76.7233 180.533 76.5739 180.624C76.4299 180.715 76.3579 180.829 76.3579 180.968C76.3579 181.096 76.4059 181.192 76.5019 181.256C76.5979 181.32 76.7233 181.371 76.8779 181.408C77.0326 181.445 77.2033 181.477 77.3899 181.504C77.5819 181.525 77.7713 181.56 77.9579 181.608C78.1446 181.656 78.3153 181.723 78.4699 181.808C78.6299 181.888 78.7579 182.003 78.8539 182.152C78.9499 182.301 78.9979 182.496 78.9979 182.736C78.9979 183.003 78.9179 183.235 78.7579 183.432C78.6033 183.629 78.3819 183.784 78.0939 183.896C77.8059 184.003 77.4619 184.056 77.0619 184.056ZM83.9901 184.056C83.5527 184.056 83.1634 183.963 82.8221 183.776C82.4807 183.584 82.2114 183.323 82.0141 182.992C81.8167 182.661 81.7181 182.285 81.7181 181.864C81.7181 181.437 81.8167 181.061 82.0141 180.736C82.2114 180.405 82.4807 180.147 82.8221 179.96C83.1634 179.773 83.5527 179.68 83.9901 179.68C84.4327 179.68 84.8247 179.773 85.1661 179.96C85.5127 180.147 85.7821 180.403 85.9741 180.728C86.1714 181.053 86.2701 181.432 86.2701 181.864C86.2701 182.285 86.1714 182.661 85.9741 182.992C85.7821 183.323 85.5127 183.584 85.1661 183.776C84.8247 183.963 84.4327 184.056 83.9901 184.056ZM83.9901 183.2C84.2354 183.2 84.4541 183.147 84.6461 183.04C84.8381 182.933 84.9874 182.779 85.0941 182.576C85.2061 182.373 85.2621 182.136 85.2621 181.864C85.2621 181.587 85.2061 181.349 85.0941 181.152C84.9874 180.949 84.8381 180.795 84.6461 180.688C84.4541 180.581 84.2381 180.528 83.9981 180.528C83.7527 180.528 83.5341 180.581 83.3421 180.688C83.1554 180.795 83.0061 180.949 82.8941 181.152C82.7821 181.349 82.7261 181.587 82.7261 181.864C82.7261 182.136 82.7821 182.373 82.8941 182.576C83.0061 182.779 83.1554 182.933 83.3421 183.04C83.5341 183.147 83.7501 183.2 83.9901 183.2ZM89.6503 179.68C89.9916 179.68 90.2956 179.747 90.5623 179.88C90.8343 180.013 91.0476 180.219 91.2023 180.496C91.357 180.768 91.4343 181.12 91.4343 181.552V184H90.4343V181.68C90.4343 181.301 90.3436 181.019 90.1623 180.832C89.9863 180.645 89.7383 180.552 89.4183 180.552C89.1836 180.552 88.9756 180.6 88.7943 180.696C88.613 180.792 88.4716 180.936 88.3703 181.128C88.2743 181.315 88.2263 181.552 88.2263 181.84V184H87.2263V179.728H88.1783V180.88L88.0103 180.528C88.1596 180.256 88.3756 180.048 88.6583 179.904C88.9463 179.755 89.277 179.68 89.6503 179.68ZM96.5218 184.056C96.0525 184.056 95.6898 183.936 95.4338 183.696C95.1778 183.451 95.0498 183.091 95.0498 182.616V178.784H96.0498V182.592C96.0498 182.795 96.1005 182.952 96.2018 183.064C96.3085 183.176 96.4551 183.232 96.6418 183.232C96.8658 183.232 97.0525 183.173 97.2018 183.056L97.4818 183.768C97.3645 183.864 97.2205 183.936 97.0498 183.984C96.8791 184.032 96.7031 184.056 96.5218 184.056ZM94.3458 180.56V179.76H97.1938V180.56H94.3458ZM100.728 179.68C101.07 179.68 101.374 179.747 101.64 179.88C101.912 180.013 102.126 180.219 102.28 180.496C102.435 180.768 102.512 181.12 102.512 181.552V184H101.512V181.68C101.512 181.301 101.422 181.019 101.24 180.832C101.064 180.645 100.816 180.552 100.496 180.552C100.262 180.552 100.054 180.6 99.8724 180.696C99.6911 180.792 99.5498 180.936 99.4484 181.128C99.3524 181.315 99.3044 181.552 99.3044 181.84V184H98.3044V178.064H99.3044V180.88L99.0884 180.528C99.2378 180.256 99.4538 180.048 99.7364 179.904C100.024 179.755 100.355 179.68 100.728 179.68ZM105.797 184.056C105.322 184.056 104.906 183.963 104.549 183.776C104.197 183.584 103.922 183.323 103.725 182.992C103.533 182.661 103.437 182.285 103.437 181.864C103.437 181.437 103.53 181.061 103.717 180.736C103.909 180.405 104.17 180.147 104.501 179.96C104.837 179.773 105.218 179.68 105.645 179.68C106.061 179.68 106.431 179.771 106.757 179.952C107.082 180.133 107.338 180.389 107.525 180.72C107.711 181.051 107.805 181.44 107.805 181.888C107.805 181.931 107.802 181.979 107.797 182.032C107.797 182.085 107.794 182.136 107.789 182.184H104.229V181.52H107.261L106.869 181.728C106.874 181.483 106.823 181.267 106.717 181.08C106.61 180.893 106.463 180.747 106.277 180.64C106.095 180.533 105.885 180.48 105.645 180.48C105.399 180.48 105.183 180.533 104.997 180.64C104.815 180.747 104.671 180.896 104.565 181.088C104.463 181.275 104.413 181.496 104.413 181.752V181.912C104.413 182.168 104.471 182.395 104.589 182.592C104.706 182.789 104.871 182.941 105.085 183.048C105.298 183.155 105.543 183.208 105.821 183.208C106.061 183.208 106.277 183.171 106.469 183.096C106.661 183.021 106.831 182.904 106.981 182.744L107.517 183.36C107.325 183.584 107.082 183.757 106.789 183.88C106.501 183.997 106.17 184.056 105.797 184.056ZM112.912 185.608C112.518 185.608 112.131 185.555 111.752 185.448C111.379 185.347 111.072 185.197 110.832 185L111.28 184.248C111.467 184.403 111.702 184.525 111.984 184.616C112.272 184.712 112.563 184.76 112.856 184.76C113.326 184.76 113.67 184.651 113.888 184.432C114.107 184.219 114.216 183.896 114.216 183.464V182.704L114.296 181.736L114.264 180.768V179.728H115.216V183.352C115.216 184.125 115.019 184.693 114.624 185.056C114.23 185.424 113.659 185.608 112.912 185.608ZM112.784 183.808C112.379 183.808 112.011 183.723 111.68 183.552C111.355 183.376 111.096 183.133 110.904 182.824C110.718 182.515 110.624 182.152 110.624 181.736C110.624 181.325 110.718 180.965 110.904 180.656C111.096 180.347 111.355 180.107 111.68 179.936C112.011 179.765 112.379 179.68 112.784 179.68C113.147 179.68 113.472 179.752 113.76 179.896C114.048 180.04 114.278 180.264 114.448 180.568C114.624 180.872 114.712 181.261 114.712 181.736C114.712 182.211 114.624 182.603 114.448 182.912C114.278 183.216 114.048 183.443 113.76 183.592C113.472 183.736 113.147 183.808 112.784 183.808ZM112.936 182.96C113.187 182.96 113.411 182.909 113.608 182.808C113.806 182.701 113.958 182.557 114.064 182.376C114.176 182.189 114.232 181.976 114.232 181.736C114.232 181.496 114.176 181.285 114.064 181.104C113.958 180.917 113.806 180.776 113.608 180.68C113.411 180.579 113.187 180.528 112.936 180.528C112.686 180.528 112.459 180.579 112.256 180.68C112.059 180.776 111.904 180.917 111.792 181.104C111.686 181.285 111.632 181.496 111.632 181.736C111.632 181.976 111.686 182.189 111.792 182.376C111.904 182.557 112.059 182.701 112.256 182.808C112.459 182.909 112.686 182.96 112.936 182.96ZM118.451 184.056C118.014 184.056 117.624 183.963 117.283 183.776C116.942 183.584 116.672 183.323 116.475 182.992C116.278 182.661 116.179 182.285 116.179 181.864C116.179 181.437 116.278 181.061 116.475 180.736C116.672 180.405 116.942 180.147 117.283 179.96C117.624 179.773 118.014 179.68 118.451 179.68C118.894 179.68 119.286 179.773 119.627 179.96C119.974 180.147 120.243 180.403 120.435 180.728C120.632 181.053 120.731 181.432 120.731 181.864C120.731 182.285 120.632 182.661 120.435 182.992C120.243 183.323 119.974 183.584 119.627 183.776C119.286 183.963 118.894 184.056 118.451 184.056ZM118.451 183.2C118.696 183.2 118.915 183.147 119.107 183.04C119.299 182.933 119.448 182.779 119.555 182.576C119.667 182.373 119.723 182.136 119.723 181.864C119.723 181.587 119.667 181.349 119.555 181.152C119.448 180.949 119.299 180.795 119.107 180.688C118.915 180.581 118.699 180.528 118.459 180.528C118.214 180.528 117.995 180.581 117.803 180.688C117.616 180.795 117.467 180.949 117.355 181.152C117.243 181.349 117.187 181.587 117.187 181.864C117.187 182.136 117.243 182.373 117.355 182.576C117.467 182.779 117.616 182.933 117.803 183.04C117.995 183.147 118.211 183.2 118.451 183.2Z" fill="#E8E3D2"/>
<defs>
<linearGradient id="paint0_linear_450_10347" x1="11.475" y1="10.9091" x2="148.31" y2="190.366" gradientUnits="userSpaceOnUse">
<stop stop-color="#6B2BB7"/>
<stop offset="1" stop-color="#150B54"/>
</linearGradient>
</defs>
</svg>
