<svg width="162" height="208" viewBox="0 0 162 208" fill="none" xmlns="http://www.w3.org/2000/svg">
<rect width="162" height="208" rx="16" fill="url(#paint0_linear_444_4730)"/>
<path d="M43.752 149.16C42.8773 149.16 42.072 149.016 41.336 148.728C40.6 148.44 39.96 148.04 39.416 147.528C38.872 147.005 38.4507 146.397 38.152 145.704C37.8533 145 37.704 144.232 37.704 143.4C37.704 142.568 37.8533 141.805 38.152 141.112C38.4507 140.408 38.872 139.8 39.416 139.288C39.96 138.765 40.6 138.36 41.336 138.072C42.072 137.784 42.872 137.64 43.736 137.64C44.6107 137.64 45.4107 137.784 46.136 138.072C46.872 138.36 47.512 138.76 48.056 139.272C48.6 139.784 49.0213 140.392 49.32 141.096C49.6187 141.8 49.768 142.568 49.768 143.4C49.768 144.232 49.6187 145 49.32 145.704C49.0213 146.408 48.6 147.016 48.056 147.528C47.512 148.04 46.872 148.44 46.136 148.728C45.4107 149.016 44.616 149.16 43.752 149.16ZM47.4 151.448C47.0053 151.448 46.6213 151.4 46.248 151.304C45.8853 151.219 45.5227 151.069 45.16 150.856C44.808 150.653 44.44 150.381 44.056 150.04C43.672 149.709 43.2507 149.299 42.792 148.808L45 148.232C45.2987 148.627 45.5813 148.941 45.848 149.176C46.1253 149.421 46.392 149.597 46.648 149.704C46.904 149.811 47.1707 149.864 47.448 149.864C48.184 149.864 48.824 149.565 49.368 148.968L50.328 150.12C49.5813 151.005 48.6053 151.448 47.4 151.448ZM43.736 147.336C44.3013 147.336 44.824 147.24 45.304 147.048C45.784 146.856 46.2 146.584 46.552 146.232C46.904 145.869 47.176 145.448 47.368 144.968C47.5707 144.488 47.672 143.965 47.672 143.4C47.672 142.824 47.5707 142.301 47.368 141.832C47.176 141.352 46.904 140.936 46.552 140.584C46.2 140.221 45.784 139.944 45.304 139.752C44.824 139.56 44.3013 139.464 43.736 139.464C43.1707 139.464 42.648 139.56 42.168 139.752C41.688 139.944 41.272 140.221 40.92 140.584C40.568 140.936 40.2907 141.352 40.088 141.832C39.896 142.301 39.8 142.824 39.8 143.4C39.8 143.965 39.896 144.488 40.088 144.968C40.2907 145.448 40.568 145.869 40.92 146.232C41.272 146.584 41.688 146.856 42.168 147.048C42.648 147.24 43.1707 147.336 43.736 147.336ZM55.3968 149.112C54.6714 149.112 54.0314 148.979 53.4768 148.712C52.9221 148.435 52.4901 148.019 52.1808 147.464C51.8714 146.899 51.7168 146.189 51.7168 145.336V140.456H53.7168V145.064C53.7168 145.832 53.8874 146.408 54.2288 146.792C54.5808 147.165 55.0768 147.352 55.7168 147.352C56.1861 147.352 56.5914 147.256 56.9328 147.064C57.2848 146.872 57.5568 146.584 57.7488 146.2C57.9514 145.816 58.0528 145.341 58.0528 144.776V140.456H60.0528V149H58.1488V146.696L58.4848 147.4C58.1968 147.955 57.7754 148.381 57.2208 148.68C56.6661 148.968 56.0581 149.112 55.3968 149.112ZM62.6714 149V140.456H64.6714V149H62.6714ZM63.6794 139.048C63.306 139.048 62.9967 138.931 62.7514 138.696C62.5167 138.461 62.3994 138.179 62.3994 137.848C62.3994 137.507 62.5167 137.224 62.7514 137C62.9967 136.765 63.306 136.648 63.6794 136.648C64.0527 136.648 64.3567 136.76 64.5914 136.984C64.8367 137.197 64.9594 137.469 64.9594 137.8C64.9594 138.152 64.842 138.451 64.6074 138.696C64.3727 138.931 64.0634 139.048 63.6794 139.048ZM66.5924 149V147.736L71.8564 141.368L72.2244 142.056H66.6884V140.456H73.8244V141.72L68.5604 148.088L68.1604 147.4H73.9684V149H66.5924ZM81.076 149V147.272L80.964 146.904V143.88C80.964 143.293 80.788 142.84 80.436 142.52C80.084 142.189 79.5507 142.024 78.836 142.024C78.356 142.024 77.8813 142.099 77.412 142.248C76.9533 142.397 76.564 142.605 76.244 142.872L75.46 141.416C75.9187 141.064 76.4627 140.803 77.092 140.632C77.732 140.451 78.3933 140.36 79.076 140.36C80.3133 140.36 81.268 140.659 81.94 141.256C82.6227 141.843 82.964 142.755 82.964 143.992V149H81.076ZM78.388 149.112C77.748 149.112 77.188 149.005 76.708 148.792C76.228 148.568 75.8547 148.264 75.588 147.88C75.332 147.485 75.204 147.043 75.204 146.552C75.204 146.072 75.316 145.64 75.54 145.256C75.7747 144.872 76.1533 144.568 76.676 144.344C77.1987 144.12 77.892 144.008 78.756 144.008H81.236V145.336H78.9C78.2173 145.336 77.7587 145.448 77.524 145.672C77.2893 145.885 77.172 146.152 77.172 146.472C77.172 146.835 77.316 147.123 77.604 147.336C77.892 147.549 78.292 147.656 78.804 147.656C79.2947 147.656 79.732 147.544 80.116 147.32C80.5107 147.096 80.7933 146.765 80.964 146.328L81.3 147.528C81.108 148.029 80.7613 148.419 80.26 148.696C79.7693 148.973 79.1453 149.112 78.388 149.112ZM90.3788 140.36C91.0614 140.36 91.6694 140.493 92.2028 140.76C92.7468 141.027 93.1734 141.437 93.4828 141.992C93.7921 142.536 93.9468 143.24 93.9468 144.104V149H91.9468V144.36C91.9468 143.603 91.7654 143.037 91.4028 142.664C91.0508 142.291 90.5548 142.104 89.9148 142.104C89.4454 142.104 89.0294 142.2 88.6668 142.392C88.3041 142.584 88.0214 142.872 87.8188 143.256C87.6268 143.629 87.5308 144.104 87.5308 144.68V149H85.5308V137.128H87.5308V142.76L87.0988 142.056C87.3974 141.512 87.8294 141.096 88.3948 140.808C88.9708 140.509 89.6321 140.36 90.3788 140.36ZM100.34 149.112C99.4648 149.112 98.6862 148.925 98.0035 148.552C97.3208 148.168 96.7822 147.645 96.3875 146.984C95.9928 146.323 95.7955 145.571 95.7955 144.728C95.7955 143.875 95.9928 143.123 96.3875 142.472C96.7822 141.811 97.3208 141.293 98.0035 140.92C98.6862 140.547 99.4648 140.36 100.34 140.36C101.225 140.36 102.009 140.547 102.692 140.92C103.385 141.293 103.924 141.805 104.308 142.456C104.702 143.107 104.9 143.864 104.9 144.728C104.9 145.571 104.702 146.323 104.308 146.984C103.924 147.645 103.385 148.168 102.692 148.552C102.009 148.925 101.225 149.112 100.34 149.112ZM100.34 147.4C100.83 147.4 101.268 147.293 101.652 147.08C102.036 146.867 102.334 146.557 102.548 146.152C102.772 145.747 102.884 145.272 102.884 144.728C102.884 144.173 102.772 143.699 102.548 143.304C102.334 142.899 102.036 142.589 101.652 142.376C101.268 142.163 100.836 142.056 100.356 142.056C99.8648 142.056 99.4275 142.163 99.0435 142.376C98.6702 142.589 98.3715 142.899 98.1475 143.304C97.9235 143.699 97.8115 144.173 97.8115 144.728C97.8115 145.272 97.9235 145.747 98.1475 146.152C98.3715 146.557 98.6702 146.867 99.0435 147.08C99.4275 147.293 99.8595 147.4 100.34 147.4ZM106.812 149V137.128H108.812V149H106.812ZM111.437 149V140.456H113.437V149H111.437ZM112.445 139.048C112.072 139.048 111.762 138.931 111.517 138.696C111.282 138.461 111.165 138.179 111.165 137.848C111.165 137.507 111.282 137.224 111.517 137C111.762 136.765 112.072 136.648 112.445 136.648C112.818 136.648 113.122 136.76 113.357 136.984C113.602 137.197 113.725 137.469 113.725 137.8C113.725 138.152 113.608 138.451 113.373 138.696C113.138 138.931 112.829 139.048 112.445 139.048ZM119.982 149.112C119.086 149.112 118.286 148.925 117.582 148.552C116.889 148.168 116.345 147.645 115.95 146.984C115.555 146.323 115.358 145.571 115.358 144.728C115.358 143.875 115.555 143.123 115.95 142.472C116.345 141.811 116.889 141.293 117.582 140.92C118.286 140.547 119.086 140.36 119.982 140.36C120.814 140.36 121.545 140.531 122.174 140.872C122.814 141.203 123.299 141.693 123.63 142.344L122.094 143.24C121.838 142.835 121.523 142.536 121.15 142.344C120.787 142.152 120.393 142.056 119.966 142.056C119.475 142.056 119.033 142.163 118.638 142.376C118.243 142.589 117.934 142.899 117.71 143.304C117.486 143.699 117.374 144.173 117.374 144.728C117.374 145.283 117.486 145.763 117.71 146.168C117.934 146.563 118.243 146.867 118.638 147.08C119.033 147.293 119.475 147.4 119.966 147.4C120.393 147.4 120.787 147.304 121.15 147.112C121.523 146.92 121.838 146.621 122.094 146.216L123.63 147.112C123.299 147.752 122.814 148.248 122.174 148.6C121.545 148.941 120.814 149.112 119.982 149.112Z" fill="#E8E3D2"/>
<path d="M9.085 164L11.605 158.4H12.629L15.157 164H14.069L11.901 158.952H12.317L10.157 164H9.085ZM10.245 162.704L10.525 161.888H13.549L13.829 162.704H10.245ZM18.1201 164V159.488C18.1201 159.04 18.2508 158.683 18.5121 158.416C18.7788 158.144 19.1575 158.008 19.6481 158.008C19.8241 158.008 19.9895 158.027 20.1441 158.064C20.3041 158.101 20.4375 158.16 20.5441 158.24L20.2721 158.992C20.1975 158.933 20.1121 158.891 20.0161 158.864C19.9201 158.832 19.8215 158.816 19.7201 158.816C19.5121 158.816 19.3548 158.875 19.2481 158.992C19.1415 159.104 19.0881 159.275 19.0881 159.504V159.984L19.1201 160.432V164H18.1201ZM17.4161 160.56V159.76H20.2641V160.56H17.4161ZM22.7453 164.056C22.3826 164.056 22.0626 163.989 21.7853 163.856C21.5079 163.717 21.2919 163.509 21.1373 163.232C20.9826 162.949 20.9053 162.595 20.9053 162.168V159.728H21.9053V162.032C21.9053 162.416 21.9906 162.704 22.1613 162.896C22.3373 163.083 22.5853 163.176 22.9053 163.176C23.1399 163.176 23.3426 163.128 23.5133 163.032C23.6893 162.936 23.8253 162.792 23.9213 162.6C24.0226 162.408 24.0733 162.171 24.0733 161.888V159.728H25.0733V164H24.1213V162.848L24.2893 163.2C24.1453 163.477 23.9346 163.691 23.6573 163.84C23.3799 163.984 23.0759 164.056 22.7453 164.056ZM28.8066 159.68C29.1479 159.68 29.4519 159.747 29.7186 159.88C29.9906 160.013 30.2039 160.219 30.3586 160.496C30.5132 160.768 30.5906 161.12 30.5906 161.552V164H29.5906V161.68C29.5906 161.301 29.4999 161.019 29.3186 160.832C29.1426 160.645 28.8946 160.552 28.5746 160.552C28.3399 160.552 28.1319 160.6 27.9506 160.696C27.7692 160.792 27.6279 160.936 27.5266 161.128C27.4306 161.315 27.3826 161.552 27.3826 161.84V164H26.3826V159.728H27.3346V160.88L27.1666 160.528C27.3159 160.256 27.5319 160.048 27.8146 159.904C28.1026 159.755 28.4332 159.68 28.8066 159.68ZM36.7021 164V163.136L36.6461 162.952V161.44C36.6461 161.147 36.5581 160.92 36.3821 160.76C36.2061 160.595 35.9394 160.512 35.5821 160.512C35.3421 160.512 35.1047 160.549 34.8701 160.624C34.6407 160.699 34.4461 160.803 34.2861 160.936L33.8941 160.208C34.1234 160.032 34.3954 159.901 34.7101 159.816C35.0301 159.725 35.3607 159.68 35.7021 159.68C36.3207 159.68 36.7981 159.829 37.1341 160.128C37.4754 160.421 37.6461 160.877 37.6461 161.496V164H36.7021ZM35.3581 164.056C35.0381 164.056 34.7581 164.003 34.5181 163.896C34.2781 163.784 34.0914 163.632 33.9581 163.44C33.8301 163.243 33.7661 163.021 33.7661 162.776C33.7661 162.536 33.8221 162.32 33.9341 162.128C34.0514 161.936 34.2407 161.784 34.5021 161.672C34.7634 161.56 35.1101 161.504 35.5421 161.504H36.7821V162.168H35.6141C35.2727 162.168 35.0434 162.224 34.9261 162.336C34.8087 162.443 34.7501 162.576 34.7501 162.736C34.7501 162.917 34.8221 163.061 34.9661 163.168C35.1101 163.275 35.3101 163.328 35.5661 163.328C35.8114 163.328 36.0301 163.272 36.2221 163.16C36.4194 163.048 36.5607 162.883 36.6461 162.664L36.8141 163.264C36.7181 163.515 36.5447 163.709 36.2941 163.848C36.0487 163.987 35.7367 164.056 35.3581 164.056ZM41.3534 159.68C41.6948 159.68 41.9988 159.747 42.2654 159.88C42.5374 160.013 42.7508 160.219 42.9054 160.496C43.0601 160.768 43.1374 161.12 43.1374 161.552V164H42.1374V161.68C42.1374 161.301 42.0468 161.019 41.8654 160.832C41.6894 160.645 41.4414 160.552 41.1214 160.552C40.8868 160.552 40.6788 160.6 40.4974 160.696C40.3161 160.792 40.1748 160.936 40.0734 161.128C39.9774 161.315 39.9294 161.552 39.9294 161.84V164H38.9294V159.728H39.8814V160.88L39.7134 160.528C39.8628 160.256 40.0788 160.048 40.3614 159.904C40.6494 159.755 40.9801 159.68 41.3534 159.68ZM46.2218 164.056C45.8111 164.056 45.4405 163.965 45.1098 163.784C44.7845 163.597 44.5285 163.341 44.3418 163.016C44.1551 162.691 44.0618 162.307 44.0618 161.864C44.0618 161.421 44.1551 161.037 44.3418 160.712C44.5285 160.387 44.7845 160.133 45.1098 159.952C45.4405 159.771 45.8111 159.68 46.2218 159.68C46.5791 159.68 46.8991 159.76 47.1818 159.92C47.4645 160.075 47.6885 160.312 47.8538 160.632C48.0191 160.952 48.1018 161.363 48.1018 161.864C48.1018 162.36 48.0218 162.771 47.8618 163.096C47.7018 163.416 47.4805 163.656 47.1978 163.816C46.9151 163.976 46.5898 164.056 46.2218 164.056ZM46.3418 163.2C46.5818 163.2 46.7951 163.147 46.9818 163.04C47.1738 162.933 47.3258 162.779 47.4378 162.576C47.5551 162.373 47.6138 162.136 47.6138 161.864C47.6138 161.587 47.5551 161.349 47.4378 161.152C47.3258 160.949 47.1738 160.795 46.9818 160.688C46.7951 160.581 46.5818 160.528 46.3418 160.528C46.1018 160.528 45.8858 160.581 45.6938 160.688C45.5071 160.795 45.3551 160.949 45.2378 161.152C45.1258 161.349 45.0698 161.587 45.0698 161.864C45.0698 162.136 45.1258 162.373 45.2378 162.576C45.3551 162.779 45.5071 162.933 45.6938 163.04C45.8858 163.147 46.1018 163.2 46.3418 163.2ZM47.6378 164V162.992L47.6778 161.856L47.5978 160.72V158.064H48.5898V164H47.6378ZM52.1169 164V159.728H53.0689V160.904L52.9569 160.56C53.0849 160.272 53.2849 160.053 53.5569 159.904C53.8343 159.755 54.1783 159.68 54.5889 159.68V160.632C54.5463 160.621 54.5063 160.616 54.4689 160.616C54.4316 160.611 54.3943 160.608 54.3569 160.608C53.9783 160.608 53.6769 160.72 53.4529 160.944C53.2289 161.163 53.1169 161.491 53.1169 161.928V164H52.1169ZM57.7646 164V163.136L57.7086 162.952V161.44C57.7086 161.147 57.6206 160.92 57.4446 160.76C57.2686 160.595 57.0019 160.512 56.6446 160.512C56.4046 160.512 56.1672 160.549 55.9326 160.624C55.7032 160.699 55.5086 160.803 55.3486 160.936L54.9566 160.208C55.1859 160.032 55.4579 159.901 55.7726 159.816C56.0926 159.725 56.4232 159.68 56.7646 159.68C57.3832 159.68 57.8606 159.829 58.1966 160.128C58.5379 160.421 58.7086 160.877 58.7086 161.496V164H57.7646ZM56.4206 164.056C56.1006 164.056 55.8206 164.003 55.5806 163.896C55.3406 163.784 55.1539 163.632 55.0206 163.44C54.8926 163.243 54.8286 163.021 54.8286 162.776C54.8286 162.536 54.8846 162.32 54.9966 162.128C55.1139 161.936 55.3032 161.784 55.5646 161.672C55.8259 161.56 56.1726 161.504 56.6046 161.504H57.8446V162.168H56.6766C56.3352 162.168 56.1059 162.224 55.9886 162.336C55.8712 162.443 55.8126 162.576 55.8126 162.736C55.8126 162.917 55.8846 163.061 56.0286 163.168C56.1726 163.275 56.3726 163.328 56.6286 163.328C56.8739 163.328 57.0926 163.272 57.2846 163.16C57.4819 163.048 57.6232 162.883 57.7086 162.664L57.8766 163.264C57.7806 163.515 57.6072 163.709 57.3566 163.848C57.1112 163.987 56.7992 164.056 56.4206 164.056ZM62.4159 159.68C62.7573 159.68 63.0613 159.747 63.3279 159.88C63.5999 160.013 63.8133 160.219 63.9679 160.496C64.1226 160.768 64.1999 161.12 64.1999 161.552V164H63.1999V161.68C63.1999 161.301 63.1093 161.019 62.9279 160.832C62.7519 160.645 62.5039 160.552 62.1839 160.552C61.9493 160.552 61.7413 160.6 61.5599 160.696C61.3786 160.792 61.2373 160.936 61.1359 161.128C61.0399 161.315 60.9919 161.552 60.9919 161.84V164H59.9919V159.728H60.9439V160.88L60.7759 160.528C60.9253 160.256 61.1413 160.048 61.4239 159.904C61.7119 159.755 62.0426 159.68 62.4159 159.68ZM67.2843 164.056C66.8736 164.056 66.503 163.965 66.1723 163.784C65.847 163.597 65.591 163.341 65.4043 163.016C65.2176 162.691 65.1243 162.307 65.1243 161.864C65.1243 161.421 65.2176 161.037 65.4043 160.712C65.591 160.387 65.847 160.133 66.1723 159.952C66.503 159.771 66.8736 159.68 67.2843 159.68C67.6416 159.68 67.9616 159.76 68.2443 159.92C68.527 160.075 68.751 160.312 68.9163 160.632C69.0816 160.952 69.1643 161.363 69.1643 161.864C69.1643 162.36 69.0843 162.771 68.9243 163.096C68.7643 163.416 68.543 163.656 68.2603 163.816C67.9776 163.976 67.6523 164.056 67.2843 164.056ZM67.4043 163.2C67.6443 163.2 67.8576 163.147 68.0443 163.04C68.2363 162.933 68.3883 162.779 68.5003 162.576C68.6176 162.373 68.6763 162.136 68.6763 161.864C68.6763 161.587 68.6176 161.349 68.5003 161.152C68.3883 160.949 68.2363 160.795 68.0443 160.688C67.8576 160.581 67.6443 160.528 67.4043 160.528C67.1643 160.528 66.9483 160.581 66.7563 160.688C66.5696 160.795 66.4176 160.949 66.3003 161.152C66.1883 161.349 66.1323 161.587 66.1323 161.864C66.1323 162.136 66.1883 162.373 66.3003 162.576C66.4176 162.779 66.5696 162.933 66.7563 163.04C66.9483 163.147 67.1643 163.2 67.4043 163.2ZM68.7003 164V162.992L68.7403 161.856L68.6603 160.72V158.064H69.6523V164H68.7003ZM72.8885 164.056C72.4512 164.056 72.0618 163.963 71.7205 163.776C71.3792 163.584 71.1098 163.323 70.9125 162.992C70.7152 162.661 70.6165 162.285 70.6165 161.864C70.6165 161.437 70.7152 161.061 70.9125 160.736C71.1098 160.405 71.3792 160.147 71.7205 159.96C72.0618 159.773 72.4512 159.68 72.8885 159.68C73.3312 159.68 73.7232 159.773 74.0645 159.96C74.4112 160.147 74.6805 160.403 74.8725 160.728C75.0698 161.053 75.1685 161.432 75.1685 161.864C75.1685 162.285 75.0698 162.661 74.8725 162.992C74.6805 163.323 74.4112 163.584 74.0645 163.776C73.7232 163.963 73.3312 164.056 72.8885 164.056ZM72.8885 163.2C73.1338 163.2 73.3525 163.147 73.5445 163.04C73.7365 162.933 73.8858 162.779 73.9925 162.576C74.1045 162.373 74.1605 162.136 74.1605 161.864C74.1605 161.587 74.1045 161.349 73.9925 161.152C73.8858 160.949 73.7365 160.795 73.5445 160.688C73.3525 160.581 73.1365 160.528 72.8965 160.528C72.6512 160.528 72.4325 160.581 72.2405 160.688C72.0538 160.795 71.9045 160.949 71.7925 161.152C71.6805 161.349 71.6245 161.587 71.6245 161.864C71.6245 162.136 71.6805 162.373 71.7925 162.576C71.9045 162.779 72.0538 162.933 72.2405 163.04C72.4325 163.147 72.6485 163.2 72.8885 163.2ZM81.5168 159.68C81.8581 159.68 82.1594 159.747 82.4208 159.88C82.6874 160.013 82.8954 160.219 83.0448 160.496C83.1941 160.768 83.2688 161.12 83.2688 161.552V164H82.2688V161.68C82.2688 161.301 82.1861 161.019 82.0208 160.832C81.8554 160.645 81.6181 160.552 81.3088 160.552C81.0901 160.552 80.8954 160.6 80.7248 160.696C80.5594 160.792 80.4288 160.933 80.3328 161.12C80.2421 161.307 80.1968 161.544 80.1968 161.832V164H79.1968V161.68C79.1968 161.301 79.1141 161.019 78.9488 160.832C78.7834 160.645 78.5461 160.552 78.2368 160.552C78.0181 160.552 77.8234 160.6 77.6528 160.696C77.4874 160.792 77.3568 160.933 77.2608 161.12C77.1701 161.307 77.1248 161.544 77.1248 161.832V164H76.1248V159.728H77.0768V160.864L76.9088 160.528C77.0528 160.251 77.2608 160.04 77.5328 159.896C77.8101 159.752 78.1248 159.68 78.4768 159.68C78.8768 159.68 79.2234 159.779 79.5168 159.976C79.8154 160.173 80.0128 160.472 80.1088 160.872L79.7168 160.736C79.8554 160.416 80.0848 160.16 80.4048 159.968C80.7248 159.776 81.0954 159.68 81.5168 159.68ZM88.5656 164.056C88.1549 164.056 87.7842 163.965 87.4536 163.784C87.1282 163.603 86.8722 163.349 86.6856 163.024C86.4989 162.693 86.4056 162.307 86.4056 161.864C86.4056 161.421 86.4989 161.037 86.6856 160.712C86.8722 160.387 87.1282 160.133 87.4536 159.952C87.7842 159.771 88.1549 159.68 88.5656 159.68C88.9336 159.68 89.2562 159.76 89.5336 159.92C89.8162 160.075 90.0376 160.312 90.1976 160.632C90.3629 160.952 90.4456 161.363 90.4456 161.864C90.4456 162.36 90.3602 162.771 90.1896 163.096C90.0242 163.416 89.8002 163.656 89.5176 163.816C89.2349 163.976 88.9176 164.056 88.5656 164.056ZM88.6776 163.2C88.9176 163.2 89.1336 163.147 89.3256 163.04C89.5176 162.933 89.6696 162.779 89.7816 162.576C89.8936 162.373 89.9496 162.136 89.9496 161.864C89.9496 161.587 89.8936 161.349 89.7816 161.152C89.6696 160.949 89.5176 160.795 89.3256 160.688C89.1336 160.581 88.9176 160.528 88.6776 160.528C88.4376 160.528 88.2216 160.581 88.0296 160.688C87.8429 160.795 87.6936 160.949 87.5816 161.152C87.4696 161.349 87.4136 161.587 87.4136 161.864C87.4136 162.136 87.4696 162.373 87.5816 162.576C87.6936 162.779 87.8429 162.933 88.0296 163.04C88.2216 163.147 88.4376 163.2 88.6776 163.2ZM89.9336 165.552V163.008L90.0136 161.872L89.9816 160.736V159.728H90.9336V165.552H89.9336ZM94.0499 164.056C93.6873 164.056 93.3673 163.989 93.0899 163.856C92.8126 163.717 92.5966 163.509 92.4419 163.232C92.2873 162.949 92.2099 162.595 92.2099 162.168V159.728H93.2099V162.032C93.2099 162.416 93.2953 162.704 93.4659 162.896C93.6419 163.083 93.8899 163.176 94.2099 163.176C94.4446 163.176 94.6473 163.128 94.8179 163.032C94.9939 162.936 95.1299 162.792 95.2259 162.6C95.3273 162.408 95.3779 162.171 95.3779 161.888V159.728H96.3779V164H95.4259V162.848L95.5939 163.2C95.4499 163.477 95.2393 163.691 94.9619 163.84C94.6846 163.984 94.3806 164.056 94.0499 164.056ZM97.6873 164V159.728H98.6873V164H97.6873ZM98.1913 159.024C98.0046 159.024 97.8499 158.965 97.7273 158.848C97.6099 158.731 97.5513 158.589 97.5513 158.424C97.5513 158.253 97.6099 158.112 97.7273 158C97.8499 157.883 98.0046 157.824 98.1913 157.824C98.3779 157.824 98.5299 157.88 98.6473 157.992C98.7699 158.099 98.8313 158.235 98.8313 158.4C98.8313 158.576 98.7726 158.725 98.6553 158.848C98.5379 158.965 98.3833 159.024 98.1913 159.024ZM99.6478 164V163.368L102.28 160.184L102.464 160.528H99.6958V159.728H103.264V160.36L100.632 163.544L100.432 163.2H103.336V164H99.6478ZM104.001 165.208L104.465 163.44L104.601 164.032C104.415 164.032 104.257 163.976 104.129 163.864C104.007 163.747 103.945 163.589 103.945 163.392C103.945 163.189 104.007 163.029 104.129 162.912C104.257 162.789 104.412 162.728 104.593 162.728C104.78 162.728 104.935 162.789 105.057 162.912C105.18 163.035 105.241 163.195 105.241 163.392C105.241 163.445 105.236 163.504 105.225 163.568C105.215 163.627 105.196 163.696 105.169 163.776C105.148 163.856 105.111 163.957 105.057 164.08L104.649 165.208H104.001ZM110.797 164.056C110.451 164.056 110.133 163.976 109.845 163.816C109.563 163.656 109.336 163.416 109.165 163.096C109 162.771 108.917 162.36 108.917 161.864C108.917 161.363 108.997 160.952 109.157 160.632C109.323 160.312 109.547 160.075 109.829 159.92C110.112 159.76 110.435 159.68 110.797 159.68C111.219 159.68 111.589 159.771 111.909 159.952C112.235 160.133 112.491 160.387 112.677 160.712C112.869 161.037 112.965 161.421 112.965 161.864C112.965 162.307 112.869 162.693 112.677 163.024C112.491 163.349 112.235 163.603 111.909 163.784C111.589 163.965 111.219 164.056 110.797 164.056ZM108.429 165.552V159.728H109.381V160.736L109.349 161.872L109.429 163.008V165.552H108.429ZM110.685 163.2C110.925 163.2 111.139 163.147 111.325 163.04C111.517 162.933 111.669 162.779 111.781 162.576C111.893 162.373 111.949 162.136 111.949 161.864C111.949 161.587 111.893 161.349 111.781 161.152C111.669 160.949 111.517 160.795 111.325 160.688C111.139 160.581 110.925 160.528 110.685 160.528C110.445 160.528 110.229 160.581 110.037 160.688C109.845 160.795 109.693 160.949 109.581 161.152C109.469 161.349 109.413 161.587 109.413 161.864C109.413 162.136 109.469 162.373 109.581 162.576C109.693 162.779 109.845 162.933 110.037 163.04C110.229 163.147 110.445 163.2 110.685 163.2ZM115.722 164.056C115.359 164.056 115.039 163.989 114.762 163.856C114.484 163.717 114.268 163.509 114.114 163.232C113.959 162.949 113.882 162.595 113.882 162.168V159.728H114.882V162.032C114.882 162.416 114.967 162.704 115.138 162.896C115.314 163.083 115.562 163.176 115.882 163.176C116.116 163.176 116.319 163.128 116.49 163.032C116.666 162.936 116.802 162.792 116.898 162.6C116.999 162.408 117.05 162.171 117.05 161.888V159.728H118.05V164H117.098V162.848L117.266 163.2C117.122 163.477 116.911 163.691 116.634 163.84C116.356 163.984 116.052 164.056 115.722 164.056ZM120.967 164.056C120.498 164.056 120.135 163.936 119.879 163.696C119.623 163.451 119.495 163.091 119.495 162.616V158.784H120.495V162.592C120.495 162.795 120.546 162.952 120.647 163.064C120.754 163.176 120.9 163.232 121.087 163.232C121.311 163.232 121.498 163.173 121.647 163.056L121.927 163.768C121.81 163.864 121.666 163.936 121.495 163.984C121.324 164.032 121.148 164.056 120.967 164.056ZM118.791 160.56V159.76H121.639V160.56H118.791ZM124.256 164.056C123.787 164.056 123.424 163.936 123.168 163.696C122.912 163.451 122.784 163.091 122.784 162.616V158.784H123.784V162.592C123.784 162.795 123.835 162.952 123.936 163.064C124.043 163.176 124.19 163.232 124.376 163.232C124.6 163.232 124.787 163.173 124.936 163.056L125.216 163.768C125.099 163.864 124.955 163.936 124.784 163.984C124.614 164.032 124.438 164.056 124.256 164.056ZM122.08 160.56V159.76H124.928V160.56H122.08ZM126.039 164V159.728H127.039V164H126.039ZM126.543 159.024C126.356 159.024 126.201 158.965 126.079 158.848C125.961 158.731 125.903 158.589 125.903 158.424C125.903 158.253 125.961 158.112 126.079 158C126.201 157.883 126.356 157.824 126.543 157.824C126.729 157.824 126.881 157.88 126.999 157.992C127.121 158.099 127.183 158.235 127.183 158.4C127.183 158.576 127.124 158.725 127.007 158.848C126.889 158.965 126.735 159.024 126.543 159.024ZM130.775 159.68C131.117 159.68 131.421 159.747 131.687 159.88C131.959 160.013 132.173 160.219 132.327 160.496C132.482 160.768 132.559 161.12 132.559 161.552V164H131.559V161.68C131.559 161.301 131.469 161.019 131.287 160.832C131.111 160.645 130.863 160.552 130.543 160.552C130.309 160.552 130.101 160.6 129.919 160.696C129.738 160.792 129.597 160.936 129.495 161.128C129.399 161.315 129.351 161.552 129.351 161.84V164H128.351V159.728H129.303V160.88L129.135 160.528C129.285 160.256 129.501 160.048 129.783 159.904C130.071 159.755 130.402 159.68 130.775 159.68ZM135.772 165.608C135.377 165.608 134.99 165.555 134.612 165.448C134.238 165.347 133.932 165.197 133.692 165L134.14 164.248C134.326 164.403 134.561 164.525 134.844 164.616C135.132 164.712 135.422 164.76 135.716 164.76C136.185 164.76 136.529 164.651 136.748 164.432C136.966 164.219 137.076 163.896 137.076 163.464V162.704L137.156 161.736L137.124 160.768V159.728H138.076V163.352C138.076 164.125 137.878 164.693 137.484 165.056C137.089 165.424 136.518 165.608 135.772 165.608ZM135.644 163.808C135.238 163.808 134.87 163.723 134.54 163.552C134.214 163.376 133.956 163.133 133.764 162.824C133.577 162.515 133.484 162.152 133.484 161.736C133.484 161.325 133.577 160.965 133.764 160.656C133.956 160.347 134.214 160.107 134.54 159.936C134.87 159.765 135.238 159.68 135.644 159.68C136.006 159.68 136.332 159.752 136.62 159.896C136.908 160.04 137.137 160.264 137.308 160.568C137.484 160.872 137.572 161.261 137.572 161.736C137.572 162.211 137.484 162.603 137.308 162.912C137.137 163.216 136.908 163.443 136.62 163.592C136.332 163.736 136.006 163.808 135.644 163.808ZM135.796 162.96C136.046 162.96 136.27 162.909 136.468 162.808C136.665 162.701 136.817 162.557 136.924 162.376C137.036 162.189 137.092 161.976 137.092 161.736C137.092 161.496 137.036 161.285 136.924 161.104C136.817 160.917 136.665 160.776 136.468 160.68C136.27 160.579 136.046 160.528 135.796 160.528C135.545 160.528 135.318 160.579 135.116 160.68C134.918 160.776 134.764 160.917 134.652 161.104C134.545 161.285 134.492 161.496 134.492 161.736C134.492 161.976 134.545 162.189 134.652 162.376C134.764 162.557 134.918 162.701 135.116 162.808C135.318 162.909 135.545 162.96 135.796 162.96ZM143.409 164.056C143.047 164.056 142.727 163.989 142.449 163.856C142.172 163.717 141.956 163.509 141.801 163.232C141.647 162.949 141.569 162.595 141.569 162.168V159.728H142.569V162.032C142.569 162.416 142.655 162.704 142.825 162.896C143.001 163.083 143.249 163.176 143.569 163.176C143.804 163.176 144.007 163.128 144.177 163.032C144.353 162.936 144.489 162.792 144.585 162.6C144.687 162.408 144.737 162.171 144.737 161.888V159.728H145.737V164H144.785V162.848L144.953 163.2C144.809 163.477 144.599 163.691 144.321 163.84C144.044 163.984 143.74 164.056 143.409 164.056ZM149.415 164.056C149.068 164.056 148.751 163.976 148.463 163.816C148.18 163.656 147.953 163.416 147.783 163.096C147.617 162.771 147.535 162.36 147.535 161.864C147.535 161.363 147.615 160.952 147.775 160.632C147.94 160.312 148.164 160.075 148.447 159.92C148.729 159.76 149.052 159.68 149.415 159.68C149.836 159.68 150.207 159.771 150.527 159.952C150.852 160.133 151.108 160.387 151.295 160.712C151.487 161.037 151.583 161.421 151.583 161.864C151.583 162.307 151.487 162.693 151.295 163.024C151.108 163.349 150.852 163.603 150.527 163.784C150.207 163.965 149.836 164.056 149.415 164.056ZM147.047 165.552V159.728H147.999V160.736L147.967 161.872L148.047 163.008V165.552H147.047ZM149.303 163.2C149.543 163.2 149.756 163.147 149.943 163.04C150.135 162.933 150.287 162.779 150.399 162.576C150.511 162.373 150.567 162.136 150.567 161.864C150.567 161.587 150.511 161.349 150.399 161.152C150.287 160.949 150.135 160.795 149.943 160.688C149.756 160.581 149.543 160.528 149.303 160.528C149.063 160.528 148.847 160.581 148.655 160.688C148.463 160.795 148.311 160.949 148.199 161.152C148.087 161.349 148.031 161.587 148.031 161.864C148.031 162.136 148.087 162.373 148.199 162.576C148.311 162.779 148.463 162.933 148.655 163.04C148.847 163.147 149.063 163.2 149.303 163.2ZM25.1037 175.608C24.7091 175.608 24.3224 175.555 23.9437 175.448C23.5704 175.347 23.2637 175.197 23.0237 175L23.4717 174.248C23.6584 174.403 23.8931 174.525 24.1757 174.616C24.4637 174.712 24.7544 174.76 25.0477 174.76C25.5171 174.76 25.8611 174.651 26.0797 174.432C26.2984 174.219 26.4077 173.896 26.4077 173.464V172.704L26.4877 171.736L26.4557 170.768V169.728H27.4077V173.352C27.4077 174.125 27.2104 174.693 26.8157 175.056C26.4211 175.424 25.8504 175.608 25.1037 175.608ZM24.9757 173.808C24.5704 173.808 24.2024 173.723 23.8717 173.552C23.5464 173.376 23.2877 173.133 23.0957 172.824C22.9091 172.515 22.8157 172.152 22.8157 171.736C22.8157 171.325 22.9091 170.965 23.0957 170.656C23.2877 170.347 23.5464 170.107 23.8717 169.936C24.2024 169.765 24.5704 169.68 24.9757 169.68C25.3384 169.68 25.6637 169.752 25.9517 169.896C26.2397 170.04 26.4691 170.264 26.6397 170.568C26.8157 170.872 26.9037 171.261 26.9037 171.736C26.9037 172.211 26.8157 172.603 26.6397 172.912C26.4691 173.216 26.2397 173.443 25.9517 173.592C25.6637 173.736 25.3384 173.808 24.9757 173.808ZM25.1277 172.96C25.3784 172.96 25.6024 172.909 25.7997 172.808C25.9971 172.701 26.1491 172.557 26.2557 172.376C26.3677 172.189 26.4237 171.976 26.4237 171.736C26.4237 171.496 26.3677 171.285 26.2557 171.104C26.1491 170.917 25.9971 170.776 25.7997 170.68C25.6024 170.579 25.3784 170.528 25.1277 170.528C24.8771 170.528 24.6504 170.579 24.4477 170.68C24.2504 170.776 24.0957 170.917 23.9837 171.104C23.8771 171.285 23.8237 171.496 23.8237 171.736C23.8237 171.976 23.8771 172.189 23.9837 172.376C24.0957 172.557 24.2504 172.701 24.4477 172.808C24.6504 172.909 24.8771 172.96 25.1277 172.96ZM30.7304 174.056C30.2557 174.056 29.8397 173.963 29.4824 173.776C29.1304 173.584 28.8557 173.323 28.6584 172.992C28.4664 172.661 28.3704 172.285 28.3704 171.864C28.3704 171.437 28.4637 171.061 28.6504 170.736C28.8424 170.405 29.1037 170.147 29.4344 169.96C29.7704 169.773 30.1517 169.68 30.5784 169.68C30.9944 169.68 31.3651 169.771 31.6904 169.952C32.0157 170.133 32.2717 170.389 32.4584 170.72C32.6451 171.051 32.7384 171.44 32.7384 171.888C32.7384 171.931 32.7357 171.979 32.7304 172.032C32.7304 172.085 32.7277 172.136 32.7224 172.184H29.1624V171.52H32.1944L31.8024 171.728C31.8077 171.483 31.7571 171.267 31.6504 171.08C31.5437 170.893 31.3971 170.747 31.2104 170.64C31.0291 170.533 30.8184 170.48 30.5784 170.48C30.3331 170.48 30.1171 170.533 29.9304 170.64C29.7491 170.747 29.6051 170.896 29.4984 171.088C29.3971 171.275 29.3464 171.496 29.3464 171.752V171.912C29.3464 172.168 29.4051 172.395 29.5224 172.592C29.6397 172.789 29.8051 172.941 30.0184 173.048C30.2317 173.155 30.4771 173.208 30.7544 173.208C30.9944 173.208 31.2104 173.171 31.4024 173.096C31.5944 173.021 31.7651 172.904 31.9144 172.744L32.4504 173.36C32.2584 173.584 32.0157 173.757 31.7224 173.88C31.4344 173.997 31.1037 174.056 30.7304 174.056ZM36.123 169.68C36.4643 169.68 36.7683 169.747 37.035 169.88C37.307 170.013 37.5203 170.219 37.675 170.496C37.8296 170.768 37.907 171.12 37.907 171.552V174H36.907V171.68C36.907 171.301 36.8163 171.019 36.635 170.832C36.459 170.645 36.211 170.552 35.891 170.552C35.6563 170.552 35.4483 170.6 35.267 170.696C35.0856 170.792 34.9443 170.936 34.843 171.128C34.747 171.315 34.699 171.552 34.699 171.84V174H33.699V169.728H34.651V170.88L34.483 170.528C34.6323 170.256 34.8483 170.048 35.131 169.904C35.419 169.755 35.7496 169.68 36.123 169.68ZM41.1913 174.056C40.7167 174.056 40.3007 173.963 39.9433 173.776C39.5913 173.584 39.3167 173.323 39.1193 172.992C38.9273 172.661 38.8313 172.285 38.8313 171.864C38.8313 171.437 38.9247 171.061 39.1113 170.736C39.3033 170.405 39.5647 170.147 39.8953 169.96C40.2313 169.773 40.6127 169.68 41.0393 169.68C41.4553 169.68 41.826 169.771 42.1513 169.952C42.4767 170.133 42.7327 170.389 42.9193 170.72C43.106 171.051 43.1993 171.44 43.1993 171.888C43.1993 171.931 43.1967 171.979 43.1913 172.032C43.1913 172.085 43.1887 172.136 43.1833 172.184H39.6233V171.52H42.6553L42.2633 171.728C42.2687 171.483 42.218 171.267 42.1113 171.08C42.0047 170.893 41.858 170.747 41.6713 170.64C41.49 170.533 41.2793 170.48 41.0393 170.48C40.794 170.48 40.578 170.533 40.3913 170.64C40.21 170.747 40.066 170.896 39.9593 171.088C39.858 171.275 39.8073 171.496 39.8073 171.752V171.912C39.8073 172.168 39.866 172.395 39.9833 172.592C40.1007 172.789 40.266 172.941 40.4793 173.048C40.6927 173.155 40.938 173.208 41.2153 173.208C41.4553 173.208 41.6713 173.171 41.8633 173.096C42.0553 173.021 42.226 172.904 42.3753 172.744L42.9113 173.36C42.7193 173.584 42.4767 173.757 42.1833 173.88C41.8953 173.997 41.5647 174.056 41.1913 174.056ZM44.1599 174V169.728H45.1119V170.904L44.9999 170.56C45.1279 170.272 45.3279 170.053 45.5999 169.904C45.8772 169.755 46.2212 169.68 46.6319 169.68V170.632C46.5892 170.621 46.5492 170.616 46.5119 170.616C46.4746 170.611 46.4372 170.608 46.3999 170.608C46.0212 170.608 45.7199 170.72 45.4959 170.944C45.2719 171.163 45.1599 171.491 45.1599 171.928V174H44.1599ZM49.8075 174V173.136L49.7515 172.952V171.44C49.7515 171.147 49.6635 170.92 49.4875 170.76C49.3115 170.595 49.0449 170.512 48.6875 170.512C48.4475 170.512 48.2102 170.549 47.9755 170.624C47.7462 170.699 47.5515 170.803 47.3915 170.936L46.9995 170.208C47.2289 170.032 47.5009 169.901 47.8155 169.816C48.1355 169.725 48.4662 169.68 48.8075 169.68C49.4262 169.68 49.9035 169.829 50.2395 170.128C50.5809 170.421 50.7515 170.877 50.7515 171.496V174H49.8075ZM48.4635 174.056C48.1435 174.056 47.8635 174.003 47.6235 173.896C47.3835 173.784 47.1969 173.632 47.0635 173.44C46.9355 173.243 46.8715 173.021 46.8715 172.776C46.8715 172.536 46.9275 172.32 47.0395 172.128C47.1569 171.936 47.3462 171.784 47.6075 171.672C47.8689 171.56 48.2155 171.504 48.6475 171.504H49.8875V172.168H48.7195C48.3782 172.168 48.1489 172.224 48.0315 172.336C47.9142 172.443 47.8555 172.576 47.8555 172.736C47.8555 172.917 47.9275 173.061 48.0715 173.168C48.2155 173.275 48.4155 173.328 48.6715 173.328C48.9169 173.328 49.1355 173.272 49.3275 173.16C49.5249 173.048 49.6662 172.883 49.7515 172.664L49.9195 173.264C49.8235 173.515 49.6502 173.709 49.3995 173.848C49.1542 173.987 48.8422 174.056 48.4635 174.056ZM52.0349 174V168.064H53.0349V174H52.0349ZM57.3743 173.048L57.3983 171.792L59.6303 169.728H60.8303L58.9343 171.632L58.4063 172.072L57.3743 173.048ZM56.5583 174V168.064H57.5583V174H56.5583ZM59.7823 174L58.2223 172.072L58.8543 171.272L60.9983 174H59.7823ZM64.0292 169.68C64.3706 169.68 64.6746 169.747 64.9412 169.88C65.2132 170.013 65.4266 170.219 65.5812 170.496C65.7359 170.768 65.8132 171.12 65.8132 171.552V174H64.8132V171.68C64.8132 171.301 64.7226 171.019 64.5412 170.832C64.3652 170.645 64.1172 170.552 63.7972 170.552C63.5626 170.552 63.3546 170.6 63.1732 170.696C62.9919 170.792 62.8506 170.936 62.7492 171.128C62.6532 171.315 62.6052 171.552 62.6052 171.84V174H61.6052V169.728H62.5572V170.88L62.3892 170.528C62.5386 170.256 62.7546 170.048 63.0372 169.904C63.3252 169.755 63.6559 169.68 64.0292 169.68ZM69.0096 174.056C68.5723 174.056 68.1829 173.963 67.8416 173.776C67.5003 173.584 67.2309 173.323 67.0336 172.992C66.8363 172.661 66.7376 172.285 66.7376 171.864C66.7376 171.437 66.8363 171.061 67.0336 170.736C67.2309 170.405 67.5003 170.147 67.8416 169.96C68.1829 169.773 68.5723 169.68 69.0096 169.68C69.4523 169.68 69.8443 169.773 70.1856 169.96C70.5323 170.147 70.8016 170.403 70.9936 170.728C71.1909 171.053 71.2896 171.432 71.2896 171.864C71.2896 172.285 71.1909 172.661 70.9936 172.992C70.8016 173.323 70.5323 173.584 70.1856 173.776C69.8443 173.963 69.4523 174.056 69.0096 174.056ZM69.0096 173.2C69.2549 173.2 69.4736 173.147 69.6656 173.04C69.8576 172.933 70.0069 172.779 70.1136 172.576C70.2256 172.373 70.2816 172.136 70.2816 171.864C70.2816 171.587 70.2256 171.349 70.1136 171.152C70.0069 170.949 69.8576 170.795 69.6656 170.688C69.4736 170.581 69.2576 170.528 69.0176 170.528C68.7723 170.528 68.5536 170.581 68.3616 170.688C68.1749 170.795 68.0256 170.949 67.9136 171.152C67.8016 171.349 67.7456 171.587 67.7456 171.864C67.7456 172.136 67.8016 172.373 67.9136 172.576C68.0256 172.779 68.1749 172.933 68.3616 173.04C68.5536 173.147 68.7696 173.2 69.0096 173.2ZM73.0727 174L71.5047 169.728H72.4487L73.7927 173.496H73.3447L74.7527 169.728H75.5927L76.9607 173.496H76.5207L77.9047 169.728H78.7927L77.2167 174H76.2567L75.0087 170.664H75.3047L74.0327 174H73.0727ZM79.4802 174V168.064H80.4802V174H79.4802ZM83.8007 174.056C83.3261 174.056 82.9101 173.963 82.5527 173.776C82.2007 173.584 81.9261 173.323 81.7287 172.992C81.5367 172.661 81.4407 172.285 81.4407 171.864C81.4407 171.437 81.5341 171.061 81.7207 170.736C81.9127 170.405 82.1741 170.147 82.5047 169.96C82.8407 169.773 83.2221 169.68 83.6487 169.68C84.0647 169.68 84.4354 169.771 84.7607 169.952C85.0861 170.133 85.3421 170.389 85.5287 170.72C85.7154 171.051 85.8087 171.44 85.8087 171.888C85.8087 171.931 85.8061 171.979 85.8007 172.032C85.8007 172.085 85.7981 172.136 85.7927 172.184H82.2327V171.52H85.2647L84.8727 171.728C84.8781 171.483 84.8274 171.267 84.7207 171.08C84.6141 170.893 84.4674 170.747 84.2807 170.64C84.0994 170.533 83.8887 170.48 83.6487 170.48C83.4034 170.48 83.1874 170.533 83.0007 170.64C82.8194 170.747 82.6754 170.896 82.5687 171.088C82.4674 171.275 82.4167 171.496 82.4167 171.752V171.912C82.4167 172.168 82.4754 172.395 82.5927 172.592C82.7101 172.789 82.8754 172.941 83.0887 173.048C83.3021 173.155 83.5474 173.208 83.8247 173.208C84.0647 173.208 84.2807 173.171 84.4727 173.096C84.6647 173.021 84.8354 172.904 84.9847 172.744L85.5207 173.36C85.3287 173.584 85.0861 173.757 84.7927 173.88C84.5047 173.997 84.1741 174.056 83.8007 174.056ZM88.5773 174.056C88.1666 174.056 87.7959 173.965 87.4653 173.784C87.1399 173.597 86.8839 173.341 86.6973 173.016C86.5106 172.691 86.4173 172.307 86.4173 171.864C86.4173 171.421 86.5106 171.037 86.6973 170.712C86.8839 170.387 87.1399 170.133 87.4653 169.952C87.7959 169.771 88.1666 169.68 88.5773 169.68C88.9346 169.68 89.2546 169.76 89.5373 169.92C89.8199 170.075 90.0439 170.312 90.2093 170.632C90.3746 170.952 90.4573 171.363 90.4573 171.864C90.4573 172.36 90.3773 172.771 90.2173 173.096C90.0573 173.416 89.8359 173.656 89.5533 173.816C89.2706 173.976 88.9453 174.056 88.5773 174.056ZM88.6973 173.2C88.9373 173.2 89.1506 173.147 89.3373 173.04C89.5293 172.933 89.6813 172.779 89.7933 172.576C89.9106 172.373 89.9693 172.136 89.9693 171.864C89.9693 171.587 89.9106 171.349 89.7933 171.152C89.6813 170.949 89.5293 170.795 89.3373 170.688C89.1506 170.581 88.9373 170.528 88.6973 170.528C88.4573 170.528 88.2413 170.581 88.0493 170.688C87.8626 170.795 87.7106 170.949 87.5933 171.152C87.4813 171.349 87.4253 171.587 87.4253 171.864C87.4253 172.136 87.4813 172.373 87.5933 172.576C87.7106 172.779 87.8626 172.933 88.0493 173.04C88.2413 173.147 88.4573 173.2 88.6973 173.2ZM89.9933 174V172.992L90.0333 171.856L89.9533 170.72V168.064H90.9453V174H89.9933ZM94.1975 175.608C93.8028 175.608 93.4161 175.555 93.0375 175.448C92.6641 175.347 92.3575 175.197 92.1175 175L92.5655 174.248C92.7521 174.403 92.9868 174.525 93.2695 174.616C93.5575 174.712 93.8481 174.76 94.1415 174.76C94.6108 174.76 94.9548 174.651 95.1735 174.432C95.3921 174.219 95.5015 173.896 95.5015 173.464V172.704L95.5815 171.736L95.5495 170.768V169.728H96.5015V173.352C96.5015 174.125 96.3041 174.693 95.9095 175.056C95.5148 175.424 94.9441 175.608 94.1975 175.608ZM94.0695 173.808C93.6641 173.808 93.2961 173.723 92.9655 173.552C92.6401 173.376 92.3815 173.133 92.1895 172.824C92.0028 172.515 91.9095 172.152 91.9095 171.736C91.9095 171.325 92.0028 170.965 92.1895 170.656C92.3815 170.347 92.6401 170.107 92.9655 169.936C93.2961 169.765 93.6641 169.68 94.0695 169.68C94.4321 169.68 94.7575 169.752 95.0455 169.896C95.3335 170.04 95.5628 170.264 95.7335 170.568C95.9095 170.872 95.9975 171.261 95.9975 171.736C95.9975 172.211 95.9095 172.603 95.7335 172.912C95.5628 173.216 95.3335 173.443 95.0455 173.592C94.7575 173.736 94.4321 173.808 94.0695 173.808ZM94.2215 172.96C94.4721 172.96 94.6961 172.909 94.8935 172.808C95.0908 172.701 95.2428 172.557 95.3495 172.376C95.4615 172.189 95.5175 171.976 95.5175 171.736C95.5175 171.496 95.4615 171.285 95.3495 171.104C95.2428 170.917 95.0908 170.776 94.8935 170.68C94.6961 170.579 94.4721 170.528 94.2215 170.528C93.9708 170.528 93.7441 170.579 93.5415 170.68C93.3441 170.776 93.1895 170.917 93.0775 171.104C92.9708 171.285 92.9175 171.496 92.9175 171.736C92.9175 171.976 92.9708 172.189 93.0775 172.376C93.1895 172.557 93.3441 172.701 93.5415 172.808C93.7441 172.909 93.9708 172.96 94.2215 172.96ZM99.8242 174.056C99.3495 174.056 98.9335 173.963 98.5762 173.776C98.2242 173.584 97.9495 173.323 97.7522 172.992C97.5602 172.661 97.4642 172.285 97.4642 171.864C97.4642 171.437 97.5575 171.061 97.7442 170.736C97.9362 170.405 98.1975 170.147 98.5282 169.96C98.8642 169.773 99.2455 169.68 99.6722 169.68C100.088 169.68 100.459 169.771 100.784 169.952C101.109 170.133 101.365 170.389 101.552 170.72C101.739 171.051 101.832 171.44 101.832 171.888C101.832 171.931 101.829 171.979 101.824 172.032C101.824 172.085 101.821 172.136 101.816 172.184H98.2562V171.52H101.288L100.896 171.728C100.901 171.483 100.851 171.267 100.744 171.08C100.637 170.893 100.491 170.747 100.304 170.64C100.123 170.533 99.9122 170.48 99.6722 170.48C99.4268 170.48 99.2108 170.533 99.0242 170.64C98.8428 170.747 98.6988 170.896 98.5922 171.088C98.4908 171.275 98.4402 171.496 98.4402 171.752V171.912C98.4402 172.168 98.4988 172.395 98.6162 172.592C98.7335 172.789 98.8988 172.941 99.1122 173.048C99.3255 173.155 99.5708 173.208 99.8482 173.208C100.088 173.208 100.304 173.171 100.496 173.096C100.688 173.021 100.859 172.904 101.008 172.744L101.544 173.36C101.352 173.584 101.109 173.757 100.816 173.88C100.528 173.997 100.197 174.056 99.8242 174.056ZM105.004 174V169.728H106.004V174H105.004ZM105.508 169.024C105.321 169.024 105.166 168.965 105.044 168.848C104.926 168.731 104.868 168.589 104.868 168.424C104.868 168.253 104.926 168.112 105.044 168C105.166 167.883 105.321 167.824 105.508 167.824C105.694 167.824 105.846 167.88 105.964 167.992C106.086 168.099 106.148 168.235 106.148 168.4C106.148 168.576 106.089 168.725 105.972 168.848C105.854 168.965 105.7 169.024 105.508 169.024ZM109.74 169.68C110.081 169.68 110.385 169.747 110.652 169.88C110.924 170.013 111.137 170.219 111.292 170.496C111.447 170.768 111.524 171.12 111.524 171.552V174H110.524V171.68C110.524 171.301 110.433 171.019 110.252 170.832C110.076 170.645 109.828 170.552 109.508 170.552C109.273 170.552 109.065 170.6 108.884 170.696C108.703 170.792 108.561 170.936 108.46 171.128C108.364 171.315 108.316 171.552 108.316 171.84V174H107.316V169.728H108.268V170.88L108.1 170.528C108.249 170.256 108.465 170.048 108.748 169.904C109.036 169.755 109.367 169.68 109.74 169.68ZM114.401 174.056C113.931 174.056 113.569 173.936 113.313 173.696C113.057 173.451 112.929 173.091 112.929 172.616V168.784H113.929V172.592C113.929 172.795 113.979 172.952 114.081 173.064C114.187 173.176 114.334 173.232 114.521 173.232C114.745 173.232 114.931 173.173 115.081 173.056L115.361 173.768C115.243 173.864 115.099 173.936 114.929 173.984C114.758 174.032 114.582 174.056 114.401 174.056ZM112.225 170.56V169.76H115.073V170.56H112.225ZM117.963 174.056C117.525 174.056 117.136 173.963 116.795 173.776C116.453 173.584 116.184 173.323 115.987 172.992C115.789 172.661 115.691 172.285 115.691 171.864C115.691 171.437 115.789 171.061 115.987 170.736C116.184 170.405 116.453 170.147 116.795 169.96C117.136 169.773 117.525 169.68 117.963 169.68C118.405 169.68 118.797 169.773 119.139 169.96C119.485 170.147 119.755 170.403 119.947 170.728C120.144 171.053 120.243 171.432 120.243 171.864C120.243 172.285 120.144 172.661 119.947 172.992C119.755 173.323 119.485 173.584 119.139 173.776C118.797 173.963 118.405 174.056 117.963 174.056ZM117.963 173.2C118.208 173.2 118.427 173.147 118.619 173.04C118.811 172.933 118.96 172.779 119.067 172.576C119.179 172.373 119.235 172.136 119.235 171.864C119.235 171.587 119.179 171.349 119.067 171.152C118.96 170.949 118.811 170.795 118.619 170.688C118.427 170.581 118.211 170.528 117.971 170.528C117.725 170.528 117.507 170.581 117.315 170.688C117.128 170.795 116.979 170.949 116.867 171.152C116.755 171.349 116.699 171.587 116.699 171.864C116.699 172.136 116.755 172.373 116.867 172.576C116.979 172.779 117.128 172.933 117.315 173.04C117.507 173.147 117.723 173.2 117.963 173.2ZM125.018 174.056C124.549 174.056 124.186 173.936 123.93 173.696C123.674 173.451 123.546 173.091 123.546 172.616V168.784H124.546V172.592C124.546 172.795 124.597 172.952 124.698 173.064C124.805 173.176 124.951 173.232 125.138 173.232C125.362 173.232 125.549 173.173 125.698 173.056L125.978 173.768C125.861 173.864 125.717 173.936 125.546 173.984C125.375 174.032 125.199 174.056 125.018 174.056ZM122.842 170.56V169.76H125.69V170.56H122.842ZM128.668 174.056C128.193 174.056 127.777 173.963 127.42 173.776C127.068 173.584 126.793 173.323 126.596 172.992C126.404 172.661 126.308 172.285 126.308 171.864C126.308 171.437 126.401 171.061 126.588 170.736C126.78 170.405 127.041 170.147 127.372 169.96C127.708 169.773 128.089 169.68 128.516 169.68C128.932 169.68 129.303 169.771 129.628 169.952C129.953 170.133 130.209 170.389 130.396 170.72C130.583 171.051 130.676 171.44 130.676 171.888C130.676 171.931 130.673 171.979 130.668 172.032C130.668 172.085 130.665 172.136 130.66 172.184H127.1V171.52H130.132L129.74 171.728C129.745 171.483 129.695 171.267 129.588 171.08C129.481 170.893 129.335 170.747 129.148 170.64C128.967 170.533 128.756 170.48 128.516 170.48C128.271 170.48 128.055 170.533 127.868 170.64C127.687 170.747 127.543 170.896 127.436 171.088C127.335 171.275 127.284 171.496 127.284 171.752V171.912C127.284 172.168 127.343 172.395 127.46 172.592C127.577 172.789 127.743 172.941 127.956 173.048C128.169 173.155 128.415 173.208 128.692 173.208C128.932 173.208 129.148 173.171 129.34 173.096C129.532 173.021 129.703 172.904 129.852 172.744L130.388 173.36C130.196 173.584 129.953 173.757 129.66 173.88C129.372 173.997 129.041 174.056 128.668 174.056ZM132.956 174.056C132.599 174.056 132.255 174.011 131.924 173.92C131.599 173.824 131.34 173.709 131.148 173.576L131.532 172.816C131.724 172.939 131.954 173.04 132.22 173.12C132.487 173.2 132.754 173.24 133.02 173.24C133.335 173.24 133.562 173.197 133.7 173.112C133.844 173.027 133.916 172.912 133.916 172.768C133.916 172.651 133.868 172.563 133.772 172.504C133.676 172.44 133.551 172.392 133.396 172.36C133.242 172.328 133.068 172.299 132.876 172.272C132.69 172.245 132.5 172.211 132.308 172.168C132.122 172.12 131.951 172.053 131.796 171.968C131.642 171.877 131.516 171.757 131.42 171.608C131.324 171.459 131.276 171.261 131.276 171.016C131.276 170.744 131.354 170.509 131.508 170.312C131.663 170.109 131.879 169.955 132.156 169.848C132.439 169.736 132.772 169.68 133.156 169.68C133.444 169.68 133.735 169.712 134.028 169.776C134.322 169.84 134.564 169.931 134.756 170.048L134.372 170.808C134.17 170.685 133.964 170.603 133.756 170.56C133.554 170.512 133.351 170.488 133.148 170.488C132.844 170.488 132.618 170.533 132.468 170.624C132.324 170.715 132.252 170.829 132.252 170.968C132.252 171.096 132.3 171.192 132.396 171.256C132.492 171.32 132.618 171.371 132.772 171.408C132.927 171.445 133.098 171.477 133.284 171.504C133.476 171.525 133.666 171.56 133.852 171.608C134.039 171.656 134.21 171.723 134.364 171.808C134.524 171.888 134.652 172.003 134.748 172.152C134.844 172.301 134.892 172.496 134.892 172.736C134.892 173.003 134.812 173.235 134.652 173.432C134.498 173.629 134.276 173.784 133.988 173.896C133.7 174.003 133.356 174.056 132.956 174.056ZM137.362 174.056C136.892 174.056 136.53 173.936 136.274 173.696C136.018 173.451 135.89 173.091 135.89 172.616V168.784H136.89V172.592C136.89 172.795 136.94 172.952 137.042 173.064C137.148 173.176 137.295 173.232 137.482 173.232C137.706 173.232 137.892 173.173 138.042 173.056L138.322 173.768C138.204 173.864 138.06 173.936 137.89 173.984C137.719 174.032 137.543 174.056 137.362 174.056ZM135.186 170.56V169.76H138.034V170.56H135.186Z" fill="#E8E3D2"/>
<g clip-path="url(#clip0_444_4730)">
<path d="M75.1449 93.3253C75.0001 93.6604 74.7839 93.96 74.5115 94.2033C73.8951 94.6251 73.1575 94.7949 72.4178 94.8247C71.5692 94.9489 70.7093 94.9833 69.8494 95.0171C69.6609 95.0094 69.4683 95.032 69.2761 95.0397C69.2533 95.0379 69.2304 95.0424 69.2099 95.0527C69.1894 95.063 69.1722 95.0787 69.1601 95.0982C69.148 95.1177 69.1415 95.1401 69.1413 95.163C69.1411 95.1859 69.1473 95.2084 69.159 95.228C69.1532 95.2619 69.1508 95.2963 69.1518 95.3307C69.1005 96.9019 69.4231 98.466 69.4087 100.041C69.4652 101.533 69.4349 103.029 69.5556 104.521C67.9791 104.652 66.3949 104.726 64.8149 104.799C64.0377 104.856 63.2605 104.916 62.4797 104.909C62.001 104.916 61.5258 104.931 61.0507 104.943C60.3942 104.909 59.7418 104.864 59.0818 104.875C59.108 103.42 59.2251 100.858 58.2517 99.7242C56.6865 97.6142 53.6163 97.746 52.4358 100.157C52.3906 100.267 52.349 100.376 52.3115 100.489C52.0346 101.142 51.9045 101.849 51.9304 102.558C51.972 103.266 52.0547 103.978 52.0886 104.69C51.3268 104.702 50.5614 104.799 49.7997 104.75C48.2905 104.802 46.7782 104.788 45.2696 104.897C45.0641 104.905 44.8509 104.909 44.6434 104.916C44.2248 104.913 43.8097 104.901 43.3911 104.901C42.995 104.882 42.5764 104.841 42.1731 104.856C42.1618 104.589 42.1916 104.313 42.1916 104.042C42.1464 103.134 42.1464 102.222 42.1202 101.307C42.1279 100.783 42.1351 100.263 42.1351 99.7391C42.1428 99.4718 42.1392 99.2044 42.1351 98.9371C42.2142 97.9272 42.2487 96.9096 42.2784 95.8962C42.9674 95.9345 43.6583 95.922 44.3455 95.8587C44.6981 95.8625 45.0506 95.8473 45.4016 95.813C46.7104 95.7001 48.1888 95.2486 48.7507 93.9405C48.8982 93.5449 48.9393 93.1231 48.9999 92.709C49.2526 89.2386 46.226 88.6813 43.425 88.7378C42.92 88.7152 42.4105 88.7075 41.9014 88.7342C41.8526 86.7745 41.9579 84.8302 41.9841 82.871C41.9805 81.5712 41.9127 80.2714 41.9579 78.968C42.599 79.0054 43.2478 79.0809 43.8893 79.047C44.1462 79.0429 44.403 79.0167 44.6598 78.9957L46.1839 79.007C47.0854 79.0367 47.9869 79.0973 48.8884 79.086C49.248 79.086 49.6009 79.1086 49.9594 79.0896C50.5815 79.1235 51.2041 79.146 51.8302 79.1276C52.1091 79.146 52.0639 78.9013 52.0639 78.7093C52.0794 78.4641 52.1056 78.2229 52.1153 77.9822V77.972C52.1343 77.6256 52.0968 77.2792 52.0701 76.9323C52.0439 75.9148 52.1081 74.8864 52.4852 73.9294C52.8447 73.1797 53.6666 72.5993 54.4541 72.3694C55.2539 72.1544 56.1096 72.2981 56.8683 72.588C57.5135 72.8785 57.906 73.5261 58.0791 74.1855C58.2113 74.7526 58.3058 75.3279 58.3621 75.9076C58.3698 76.2052 58.3734 76.5064 58.396 76.8081C58.4222 77.328 58.3811 77.8519 58.3924 78.3717C58.3847 78.5036 58.3734 78.7068 58.5465 78.7222C58.8141 78.7222 59.0782 78.7145 59.3458 78.7109C59.7156 78.7186 60.0927 78.6806 60.4661 78.6693C60.817 78.6729 61.1678 78.677 61.5186 78.6657C63.8815 78.7525 66.248 78.5939 68.613 78.56C68.5832 79.6115 68.5303 80.6588 68.5565 81.7097C68.594 84.0348 68.5678 86.367 68.6772 88.6957C68.6659 88.8465 68.8395 88.8953 68.9638 88.8614C69.8371 88.8347 70.7216 88.767 71.5892 88.8763C73.1919 89.0533 75.0627 89.9729 75.2096 91.7628C75.2656 92.2739 75.3447 92.828 75.1449 93.3253Z" fill="#FF2828"/>
<path d="M118.611 94.1874C118.158 94.504 117.607 94.602 117.079 94.7226C116.317 94.8622 115.538 94.7904 114.76 94.7601C114.742 94.7607 114.725 94.7595 114.708 94.7565C114.369 94.7226 114.018 94.6734 113.675 94.6323C113.188 94.5456 113.2 94.7642 113.204 95.1711C113.23 95.6196 113.181 96.0676 113.207 96.5202C113.245 96.8737 113.256 97.2319 113.264 97.5901C113.264 98.6036 113.339 99.6093 113.279 100.627C113.26 101.791 113.309 102.951 113.253 104.116C111.472 104.09 109.685 103.973 107.897 103.947C106.905 103.913 105.89 103.943 104.895 103.947C104.74 103.947 104.581 103.943 104.427 103.943C104.08 103.977 103.733 103.92 103.382 103.932C103.356 103.374 103.303 102.82 103.325 102.263C103.299 101.722 103.236 101.185 103.135 100.653C103.014 100.013 102.961 99.2891 102.452 98.8145C101.803 98.1135 100.823 97.6578 99.857 97.7558C98.0391 97.9929 96.9907 99.5867 96.9342 101.331C96.8828 101.513 96.8961 101.712 96.8735 101.896C96.7831 102.778 96.8396 103.679 96.8093 104.564C95.1347 104.738 93.4525 104.889 91.7702 104.817C90.8574 104.813 89.9451 104.847 89.0359 104.836C88.0856 104.784 87.1312 104.82 86.1809 104.791C86.2975 103.607 86.222 102.405 86.2446 101.214C86.3052 99.3574 86.4069 97.5034 86.3052 95.6494C86.3011 95.5216 86.2939 95.3518 86.2903 95.2163C86.297 95.1595 86.2843 95.1021 86.2542 95.0534C86.224 95.0048 86.1783 94.9677 86.1244 94.9484C85.1926 94.8509 84.2418 94.8694 83.3028 94.7827C82.5975 94.7113 81.8547 94.621 81.1834 94.3609C80.6892 94.0858 80.2515 93.6979 80.0101 93.1806C79.8103 92.7773 79.7574 92.3293 79.7461 91.8803C79.7975 91.2964 79.9459 90.7001 80.3497 90.249C80.5798 89.9104 80.9342 89.6953 81.3077 89.5409C82.1075 89.1601 82.9673 89.1073 83.8421 89.1191C84.476 89.1637 85.1094 89.2217 85.7509 89.2469C85.9395 89.2356 86.3427 89.3372 86.4295 89.1191C86.46 88.8576 86.4772 88.5947 86.4809 88.3314C86.4167 85.1853 86.0925 82.0351 86.2168 78.8895C87.5632 78.7992 88.9172 78.9347 90.2677 78.8633C90.5656 78.8669 90.8635 78.8479 91.1692 78.8444C91.3839 78.8521 91.5991 78.8633 91.818 78.8705C93.1078 78.8598 94.4089 78.7125 95.6988 78.7843C95.6726 79.2251 95.6839 79.6695 95.6952 80.1103C95.6577 81.6025 95.3746 83.3811 96.4534 84.5906C96.8722 84.9559 97.3681 85.2221 97.9042 85.3695C98.4403 85.5169 99.0028 85.5416 99.5498 85.4419C100.776 85.1632 101.764 84.1836 101.93 82.9177C102.16 82.1223 102.136 81.2936 102.107 80.4721C102.119 79.9635 102.122 79.455 102.103 78.9424C102.662 78.9049 103.216 78.9839 103.771 78.9798C104.943 79.0101 106.12 79.0214 107.293 79.0065C109.285 79.0666 111.265 79.0101 113.256 78.9762C113.234 79.7413 113.279 80.51 113.283 81.2787C113.275 81.7406 113.267 82.1829 113.298 82.6575C113.302 82.8043 113.309 82.9516 113.317 83.0983C113.328 84.334 113.343 85.585 113.368 86.8248C113.368 87.341 113.349 87.8511 113.462 88.3581C113.473 88.5921 113.77 88.512 113.93 88.5202C114.473 88.4941 115.016 88.49 115.559 88.4602C116.012 88.4828 116.461 88.5166 116.921 88.5577C117.374 88.6183 117.841 88.6711 118.26 88.8594C120.198 89.8211 120.364 92.9559 118.611 94.1874Z" fill="#FBB040"/>
<path d="M85.7408 72.5898C85.9812 72.2542 86.2031 71.9073 86.427 71.5599C87.873 69.3246 89.2713 67.0719 90.7419 64.851C91.7806 63.0971 92.775 61.3103 93.7649 59.5292C93.94 59.2562 93.8019 58.8857 93.4449 58.9534C93.2527 58.9965 93.2009 59.2074 93.1079 59.3552C92.7997 59.8715 92.5043 60.3928 92.2033 60.9131C91.1626 62.6394 90.2668 64.4441 89.3005 66.2129C88.1705 68.3681 86.8092 70.3858 85.5795 72.482C85.5153 72.5898 85.6735 72.6801 85.7408 72.5898Z" fill="white"/>
<path d="M77.7459 61.4587C77.7731 62.4753 77.8486 63.4882 77.8871 64.5048C77.9241 65.1313 78.0043 65.742 77.9981 66.3798C77.9401 67.9736 77.8887 69.5654 77.8353 71.1598C77.8476 71.2706 77.7577 71.4856 77.9221 71.5056C78.0084 71.5056 78.0248 71.4184 78.0222 71.3517C78.1347 70.1653 78.1214 68.9691 78.201 67.7786C78.2585 66.7067 78.3145 65.6347 78.2781 64.5607C78.2668 62.6574 78.3931 60.7552 78.2739 58.8535C78.2472 58.3917 78.2431 57.8534 78.1543 57.389C78.0942 56.9302 77.4516 56.9867 77.5029 57.4449C77.6257 58.7801 77.5866 60.1246 77.7459 61.4587Z" fill="white"/>
<path d="M61.0555 59.3715C61.2409 59.6968 61.4603 59.9596 61.6421 60.3208C62.0274 61.1418 62.4583 61.9839 62.9648 62.7547C63.1852 63.0656 63.4338 63.4418 63.646 63.7707C64.2166 64.5953 64.7442 65.4435 65.3195 66.2677C66.2739 67.6275 66.9802 69.1536 67.8987 70.5396C68.175 70.9963 68.4534 71.4515 68.7139 71.9174C68.7297 71.9444 68.7552 71.9643 68.7853 71.9731C68.8153 71.982 68.8475 71.9791 68.8755 71.9651C68.9035 71.951 68.925 71.9269 68.9359 71.8976C68.9467 71.8682 68.9459 71.8359 68.9337 71.8071C68.8366 71.6018 68.7247 71.4058 68.6075 71.2123C66.6181 67.9554 64.8187 64.5876 62.8862 61.2973C62.5606 60.717 62.2421 60.132 61.8902 59.5675C61.7546 59.3669 61.6904 59.0805 61.469 58.9574C61.2219 58.8388 60.9415 59.1242 61.0555 59.3715Z" fill="white"/>
<path d="M74.7413 89.8361C73.1916 88.4681 70.9473 88.3588 68.9743 88.5323C68.9856 87.8764 68.9594 87.2135 68.9368 86.5541C68.9368 85.808 68.9517 85.0695 68.9635 84.3275C68.9635 83.2612 68.8608 82.2026 68.8608 81.1399C68.8762 80.5754 68.8875 80.0109 68.8875 79.4516C68.8911 79.4003 68.8947 79.349 68.8947 79.2895C68.9286 79.0329 68.9024 78.7584 68.9173 78.4987C68.9589 78.3212 68.8192 78.2421 68.6646 78.2575C68.4005 78.2421 68.1329 78.2611 67.8689 78.2534C65.8589 78.295 63.8484 78.4535 61.8378 78.3324C61.1819 78.3781 60.5254 78.4156 59.8653 78.4607C59.4842 78.4643 59.0994 78.4346 58.7147 78.4156C58.7224 78.2837 58.7224 78.1518 58.7224 78.0199C58.7301 77.9219 58.7378 77.8239 58.7414 77.7223C58.7188 76.4908 58.7753 75.213 58.3567 74.0277C58.1759 73.4776 57.9041 72.9352 57.429 72.5811C56.7992 72.0875 55.5541 71.8837 54.7697 72.0084C53.729 72.1362 52.5706 72.8633 52.19 73.8696C51.8261 74.9334 51.7049 76.0649 51.8351 77.1815C51.8279 77.728 51.8166 78.2739 51.7601 78.8204C50.8699 78.8769 49.9797 78.7414 49.0931 78.8056C48.1921 78.8169 47.2952 78.6696 46.3963 78.6516C46.1173 78.6362 45.8384 78.6742 45.559 78.6629C45.4151 78.6451 45.2698 78.6425 45.1254 78.6552C44.752 78.6552 44.375 78.7194 44.0015 78.7419C43.6317 78.7378 43.2623 78.7419 42.8925 78.7455C42.7076 78.7378 42.5191 78.7306 42.3341 78.7271C42.2247 78.7194 42.104 78.7117 41.9833 78.7004C41.9268 78.6891 41.8667 78.6588 41.8102 78.6855C41.7044 78.7306 41.7234 78.8589 41.7044 78.9492C41.6669 79.2807 41.6705 79.6163 41.6592 79.9514C41.746 82.785 41.351 85.6145 41.482 88.4476C41.5236 89.1901 41.614 89.0772 42.2776 89.0885C42.6326 89.0772 42.987 89.0998 43.3415 89.1034C43.6733 89.0957 44.0051 89.0618 44.337 89.0731C44.688 89.1111 45.0388 89.1526 45.3895 89.1978C46.2006 89.2727 47.0332 89.4728 47.664 90.0229C48.1351 90.5048 48.4823 91.1231 48.5804 91.7897C48.7124 92.4342 48.6518 93.1162 48.452 93.7453C48.1844 94.3559 47.6676 94.8681 47.0302 95.0795C46.3624 95.2565 45.6725 95.3089 44.9857 95.3504C44.2995 95.4069 43.6168 95.4787 42.9264 95.5044L42.3305 95.4931C42.2134 95.5157 42.0891 95.4669 41.9874 95.5085C41.9515 95.525 41.9207 95.5508 41.8981 95.5831C41.8756 95.6155 41.862 95.6533 41.859 95.6927C41.8477 95.8928 41.8364 96.0924 41.8364 96.292C41.8441 96.6913 41.8518 97.0792 41.859 97.4723C41.8215 99.002 41.8328 100.532 41.8174 102.062C41.8287 102.242 41.8328 102.421 41.8364 102.608C41.8025 103.403 41.7799 104.202 41.7876 105.001C41.7876 105.231 42.0249 105.238 42.2021 105.231C42.4816 105.231 42.7528 105.162 43.0358 105.185C43.232 105.189 43.4319 105.185 43.6317 105.189C44.5671 105.226 45.5025 105.207 46.4379 105.204C47.796 105.226 49.1537 105.166 50.5113 105.153C50.9736 105.13 51.4092 105.115 51.8808 105.066C52.1068 105.055 52.4838 105.138 52.454 104.791C52.4689 103.789 52.3143 102.794 52.3446 101.796C52.4166 101.053 52.6803 100.341 53.11 99.7306C53.3817 99.4068 53.6951 99.1149 54.0644 98.9132C54.9377 98.5288 56.0071 98.5288 56.8557 98.9886C57.1548 99.1303 57.4226 99.3301 57.6437 99.5762C58.5452 100.39 58.7111 101.667 58.7337 102.82C58.7717 103.578 58.7491 104.339 58.7563 105.096C58.8077 105.27 59.0203 105.224 59.1673 105.243C59.6085 105.255 60.0497 105.258 60.491 105.228C61.1814 105.202 61.8779 105.243 62.5693 105.209L62.7748 105.198C63.3671 105.209 63.9562 105.187 64.5516 105.147C65.487 105.117 66.4147 105.096 67.3465 105.041C68.0256 104.973 68.7154 104.962 69.3909 104.849C69.583 104.819 69.9046 104.819 69.8661 104.541C69.7715 102.292 69.8322 100.035 69.621 97.7971C69.583 97.1187 69.4885 96.4367 69.4397 95.7625C69.4248 95.6686 69.4397 95.4684 69.4171 95.3104C69.8244 95.3745 70.2431 95.3704 70.654 95.3894C71.2088 95.3971 71.7744 95.431 72.3399 95.3556C72.905 95.3181 73.4941 95.3181 74.0222 95.0692C75.1389 94.6022 75.6932 93.7166 75.7461 92.522C75.7749 91.5578 75.4543 90.514 74.7413 89.8361ZM74.5117 94.203C73.8953 94.6248 73.1577 94.7947 72.418 94.8244C71.5694 94.9486 70.7095 94.983 69.8496 95.0169C69.6611 95.0092 69.4685 95.0318 69.2764 95.0395C69.2535 95.0376 69.2306 95.0421 69.2101 95.0524C69.1896 95.0627 69.1724 95.0785 69.1603 95.0979C69.1482 95.1174 69.1417 95.1398 69.1415 95.1627C69.1413 95.1856 69.1475 95.2081 69.1592 95.2278C69.1534 95.2617 69.151 95.296 69.152 95.3304C69.1007 96.9017 69.4233 98.4657 69.4089 100.041C69.4654 101.532 69.4351 103.029 69.5558 104.52C67.9793 104.652 66.3952 104.726 64.8151 104.799C64.0379 104.856 63.2607 104.916 62.4799 104.908C62.0012 104.916 61.526 104.931 61.0509 104.943C60.3944 104.908 59.7421 104.864 59.082 104.874C59.1082 103.42 59.2253 100.858 58.2519 99.724C56.6867 97.6139 53.6165 97.7458 52.4361 100.157C52.3909 100.266 52.3492 100.376 52.3117 100.489C52.0348 101.142 51.9047 101.848 51.9306 102.558C51.9722 103.266 52.0549 103.978 52.0888 104.69C51.327 104.701 50.5617 104.799 49.7999 104.75C48.2907 104.802 46.7784 104.788 45.2698 104.897C45.0643 104.905 44.8511 104.908 44.6436 104.916C44.225 104.912 43.8099 104.901 43.3913 104.901C42.9952 104.882 42.5766 104.841 42.1734 104.856C42.1621 104.589 42.1919 104.313 42.1919 104.042C42.1466 103.134 42.1466 102.222 42.1204 101.307C42.1282 100.783 42.1353 100.263 42.1353 99.7388C42.1431 99.4715 42.1395 99.2041 42.1353 98.9368C42.2145 97.9269 42.2489 96.9094 42.2787 95.8959C42.9677 95.9342 43.6585 95.9217 44.3457 95.8584C44.6983 95.8622 45.0508 95.847 45.4018 95.8128C46.7106 95.6999 48.189 95.2483 48.751 93.9403C48.8984 93.5447 48.9395 93.1228 49.0001 92.7087C49.2528 89.2383 46.2262 88.6811 43.4252 88.7375C42.9202 88.7149 42.4107 88.7072 41.9016 88.7339C41.8528 86.7742 41.9581 84.8299 41.9843 82.8707C41.9807 81.5709 41.9129 80.2711 41.9581 78.9677C42.5992 79.0052 43.248 79.0806 43.8895 79.0467C44.1464 79.0426 44.4032 79.0165 44.6601 78.9954L46.1841 79.0067C47.0856 79.0365 47.9871 79.097 48.8886 79.0857C49.2482 79.0857 49.6011 79.1083 49.9596 79.0893C50.5817 79.1232 51.2043 79.1458 51.8304 79.1273C52.1094 79.1458 52.0642 78.901 52.0642 78.7091C52.0796 78.4638 52.1058 78.2226 52.1155 77.982V77.9717C52.1345 77.6253 52.097 77.279 52.0703 76.9321C52.0441 75.9145 52.1083 74.8862 52.4854 73.9291C52.8449 73.1794 53.6668 72.5991 54.4543 72.3692C55.2541 72.1542 56.1099 72.2978 56.8686 72.5878C57.5137 72.8782 57.9062 73.5258 58.0793 74.1852C58.2115 74.7524 58.306 75.3277 58.3623 75.9073C58.37 76.2049 58.3736 76.5062 58.3962 76.8079C58.4224 77.3277 58.3813 77.8516 58.3926 78.3714C58.3849 78.5033 58.3736 78.7065 58.5467 78.7219C58.8144 78.7219 59.0784 78.7142 59.346 78.7106C59.7159 78.7183 60.0929 78.6804 60.4663 78.6691C60.8172 78.6727 61.168 78.6768 61.5188 78.6655C63.8817 78.7522 66.2482 78.5936 68.6132 78.5598C68.5834 79.6112 68.5305 80.6585 68.5567 81.7095C68.5942 84.0345 68.568 86.3668 68.6774 88.6954C68.6661 88.8463 68.8397 88.895 68.964 88.8612C69.8373 88.8345 70.7218 88.7668 71.5894 88.8761C73.1921 89.0531 75.0629 89.9726 75.2098 91.7625C75.2704 92.2756 75.3495 92.8288 75.1497 93.3261C75.0034 93.6612 74.7857 93.9605 74.5117 94.203Z" fill="black"/>
<path d="M119.719 89.9566C119.485 89.4065 119 88.9924 118.501 88.687C117.811 88.3063 116.996 88.2878 116.23 88.2252C115.686 88.1928 115.141 88.1904 114.597 88.218C114.307 88.2103 114.016 88.2062 113.724 88.2103C113.696 88.0772 113.676 87.9425 113.664 87.807C113.679 85.9946 113.634 84.1898 113.565 82.3774C113.573 81.2249 113.494 80.0682 113.558 78.9188C113.634 78.636 113.298 78.6325 113.105 78.6586C112.709 78.6812 112.317 78.6889 111.921 78.7099C109.424 78.7402 106.928 78.6499 104.426 78.7022C103.612 78.7063 102.805 78.6309 101.994 78.6725C101.961 78.6663 101.928 78.6711 101.899 78.686C101.869 78.701 101.846 78.7253 101.832 78.7551C101.771 79.0378 101.797 79.3544 101.813 79.648C101.761 80.3002 101.85 80.9483 101.881 81.5979C101.826 82.2477 101.678 82.886 101.439 83.493C100.662 85.328 98.2223 85.6369 96.7701 84.4084C96.7131 84.3492 96.6601 84.2863 96.6114 84.2201C95.676 82.7623 96.1491 80.8846 96.0155 79.2467C96.0042 79.062 96.0083 78.8736 95.9893 78.6889C95.9928 78.6599 95.99 78.6304 95.9811 78.6025C95.9723 78.5746 95.9576 78.549 95.938 78.5273C95.7869 78.4292 95.5835 78.5006 95.4135 78.4759C94.5274 78.4605 93.6259 78.4831 92.7393 78.536C92.2202 78.5794 91.6991 78.5946 91.1783 78.5816L90.7971 78.5924C89.2504 78.5586 87.7007 78.457 86.1581 78.6001C85.909 78.5775 85.8674 78.7028 85.8941 78.9239C85.7431 82.2512 86.1992 85.5748 86.1201 88.9015C86.0174 88.8979 85.9146 88.8979 85.8119 88.8938C85.7061 88.8754 85.5741 88.8938 85.495 88.8713C84.6916 88.8148 83.8846 88.7394 83.0776 88.7686C82.1345 88.8199 81.1688 89.0663 80.4065 89.641C80.0984 89.9245 79.8519 90.2682 79.6822 90.6508C79.6 90.8882 79.5407 91.1329 79.505 91.3816C79.2862 92.2898 79.3314 93.3597 79.9802 94.0643C80.4833 94.514 81.1029 94.8131 81.7683 94.9274C81.8623 94.9536 81.9604 94.969 82.0549 94.9874C83.1824 95.2209 84.3479 95.2476 85.4965 95.2209C85.5067 95.2217 85.517 95.2205 85.5268 95.2173C85.685 95.2286 85.8474 95.2363 86.0061 95.2476C86.021 96.4042 86.0775 97.5568 85.9984 98.7139C85.983 99.6935 85.9948 100.673 85.9948 101.653C85.9758 102.056 85.9604 102.455 85.9568 102.855C85.9681 103.471 85.9717 104.087 85.9229 104.702C85.9039 104.838 85.8813 105.015 86.0739 105.034C86.4057 105.079 86.7375 105.061 87.0694 105.061C88.8082 105.083 90.547 105.098 92.2893 105.072C93.779 105.151 95.2502 104.902 96.7362 104.815C96.9098 104.8 97.0722 104.815 97.0573 104.589C97.0722 104.262 97.0722 103.934 97.0609 103.61C97.0599 103.595 97.0611 103.579 97.0645 103.565C97.0948 102.83 97.1097 102.091 97.2119 101.358C97.2345 99.5621 98.6373 97.8503 100.546 98.0986C101.391 98.2526 102.228 98.7919 102.579 99.5986C102.798 100.36 102.869 101.162 102.967 101.946C102.99 102.345 103.024 102.76 103.031 103.163C103.022 103.476 103.039 103.79 103.083 104.101C103.12 104.278 103.32 104.259 103.463 104.244C103.78 104.244 104.09 104.255 104.411 104.229C104.776 104.226 105.142 104.214 105.508 104.207C105.862 104.214 106.217 104.222 106.568 104.236C107.544 104.236 108.52 104.274 109.502 104.282C110.415 104.312 111.324 104.38 112.244 104.41C112.617 104.41 113.021 104.425 113.398 104.38C113.58 104.372 113.561 104.161 113.564 104.033C113.564 101.981 113.632 99.928 113.542 97.88C113.546 97.7774 113.542 97.6748 113.542 97.5675C113.561 97.176 113.583 96.784 113.546 96.3919C113.523 95.9173 113.572 95.4426 113.553 94.9638C113.885 94.9751 114.221 94.9905 114.56 95.0018C115.401 95.0998 116.246 95.1558 117.087 95.047C117.762 94.9413 118.468 94.7719 118.992 94.3157C120.213 93.2309 120.357 91.3964 119.719 89.9566ZM118.611 94.1874C118.158 94.5041 117.607 94.6021 117.079 94.7227C116.317 94.8622 115.538 94.7904 114.76 94.7601C114.742 94.7607 114.725 94.7595 114.708 94.7565C114.369 94.7227 114.018 94.6734 113.675 94.6323C113.188 94.5456 113.199 94.7642 113.204 95.1712C113.23 95.6196 113.18 96.0676 113.207 96.5202C113.245 96.8738 113.256 97.2319 113.264 97.5901C113.264 98.6036 113.339 99.6093 113.279 100.627C113.26 101.791 113.309 102.951 113.252 104.116C111.472 104.09 109.684 103.973 107.897 103.947C106.904 103.913 105.89 103.943 104.894 103.947C104.74 103.947 104.581 103.943 104.426 103.943C104.08 103.977 103.732 103.92 103.382 103.932C103.355 103.374 103.303 102.82 103.325 102.263C103.299 101.722 103.235 101.185 103.135 100.653C103.014 100.013 102.961 99.2891 102.452 98.8145C101.803 98.1135 100.822 97.6579 99.8568 97.7559C98.0389 97.9929 96.9905 99.5868 96.934 101.331C96.8826 101.513 96.896 101.712 96.8734 101.896C96.783 102.778 96.8395 103.679 96.8092 104.564C95.1346 104.738 93.4523 104.889 91.77 104.817C90.8572 104.813 89.9449 104.847 89.0357 104.836C88.0854 104.784 87.131 104.82 86.1807 104.791C86.2973 103.607 86.2218 102.405 86.2444 101.214C86.305 99.3574 86.4067 97.5034 86.305 95.6494C86.3009 95.5216 86.2937 95.3518 86.2901 95.2163C86.2969 95.1595 86.2841 95.1021 86.254 95.0534C86.2239 95.0048 86.1781 94.9678 86.1242 94.9484C85.1924 94.8509 84.2416 94.8694 83.3026 94.7827C82.5973 94.7114 81.8546 94.6211 81.1832 94.3609C80.689 94.0858 80.2514 93.6979 80.0099 93.1807C79.8101 92.7773 79.7572 92.3293 79.7459 91.8803C79.7973 91.2964 79.9457 90.7001 80.3495 90.2491C80.5796 89.9104 80.9341 89.6954 81.3075 89.5409C82.1073 89.1602 82.9672 89.1073 83.842 89.1191C84.4758 89.1637 85.1092 89.2217 85.7508 89.2469C85.9393 89.2356 86.3425 89.3372 86.4293 89.1191C86.4599 88.8576 86.477 88.5947 86.4807 88.3314C86.4165 85.1853 86.0924 82.0351 86.2167 78.8895C87.563 78.7992 88.9171 78.9347 90.2675 78.8634C90.5654 78.867 90.8634 78.848 91.169 78.8444C91.3837 78.8521 91.599 78.8634 91.8178 78.8706C93.1076 78.8598 94.4088 78.7125 95.6986 78.7843C95.6724 79.2251 95.6837 79.6695 95.695 80.1103C95.6575 81.6025 95.3745 83.3811 96.4532 84.5906C96.8721 84.9559 97.368 85.2221 97.9041 85.3695C98.4402 85.5169 99.0026 85.5416 99.5496 85.4419C100.776 85.1633 101.764 84.1837 101.93 82.9177C102.16 82.1224 102.135 81.2936 102.107 80.4721C102.118 79.9635 102.122 79.455 102.103 78.9424C102.661 78.9049 103.216 78.984 103.77 78.9799C104.943 79.0101 106.12 79.0214 107.293 79.0065C109.285 79.0666 111.265 79.0101 113.256 78.9763C113.233 79.7414 113.279 80.51 113.283 81.2787C113.275 81.7406 113.267 82.1829 113.298 82.6576C113.302 82.8043 113.309 82.9516 113.317 83.0984C113.328 84.334 113.343 85.5851 113.368 86.8248C113.368 87.3411 113.349 87.8511 113.462 88.3581C113.473 88.5921 113.77 88.5121 113.93 88.5203C114.473 88.4941 115.016 88.49 115.559 88.4602C116.012 88.4828 116.461 88.5167 116.921 88.5577C117.374 88.6183 117.841 88.6711 118.26 88.8595C120.198 89.8211 120.364 92.9559 118.611 94.1874Z" fill="black"/>
</g>
<defs>
<linearGradient id="paint0_linear_444_4730" x1="11.475" y1="10.9091" x2="148.31" y2="190.366" gradientUnits="userSpaceOnUse">
<stop stop-color="#6B2BB7"/>
<stop offset="1" stop-color="#150B54"/>
</linearGradient>
<clipPath id="clip0_444_4730">
<rect width="78.6364" height="48.1819" fill="white" transform="translate(41.4551 57.0693)"/>
</clipPath>
</defs>
</svg>
