<svg width="286" height="230" viewBox="0 0 286 230" fill="none" xmlns="http://www.w3.org/2000/svg">
<g clip-path="url(#clip0_436_4250)">
<path d="M75.8413 43H209.152C212.027 43 214.785 44.1442 216.818 46.181C218.851 48.2177 219.993 50.9802 219.993 53.8605V176.137C219.993 179.017 218.851 181.78 216.818 183.816C214.785 185.853 212.027 186.997 209.152 186.997H75.8413C72.966 186.997 70.2085 185.853 68.1754 183.816C66.1422 181.78 65 179.017 65 176.137V53.8605C65 50.9802 66.1422 48.2177 68.1754 46.181C70.2085 44.1442 72.966 43 75.8413 43Z" fill="white"/>
<path d="M133.286 63.3759V73.1314C133.286 76.4031 131.95 78.0661 129.211 78.0661C126.303 78.0661 125.303 76.1655 125.303 73.1517V63.3772C125.303 60.2426 126.685 58.5361 129.337 58.5361C132.13 58.5429 133.286 60.5236 133.286 63.3759ZM127.148 63.3283V73.2739C127.148 75.5451 127.972 76.4221 129.298 76.4221C130.691 76.4221 131.44 75.5655 131.44 73.1721V63.3365C131.44 61.197 130.692 60.1964 129.28 60.1964C127.84 60.1964 127.153 61.1481 127.153 63.3283H127.148ZM131.931 76.6909L134.496 78.7123L133.365 79.9952L130.465 77.6874L131.931 76.6909Z" fill="#1A1A1A"/>
<path d="M138.173 58.7969V73.6541C138.173 75.2696 138.746 76.4045 140.238 76.4045C141.76 76.4045 142.285 75.366 142.285 73.6718V58.7969H144.111V73.5944C144.111 76.5213 142.801 78.0635 140.2 78.0635C137.659 78.0635 136.365 76.6231 136.365 73.65V58.7969H138.173Z" fill="#1A1A1A"/>
<path d="M149.412 58.7969V77.8191H147.605V58.7969H149.412Z" fill="#1A1A1A"/>
<path d="M151.924 76.6122L157.635 60.4653H152.394V58.7969H159.648V60.1544L154.01 76.1534H159.701L159.441 77.8191H151.92L151.924 76.6122Z" fill="#1A1A1A"/>
<path d="M192.85 120.957C195.305 120.957 197.66 121.934 199.396 123.673C201.132 125.412 202.107 127.771 202.107 130.231C202.107 132.69 201.132 135.049 199.396 136.788C197.66 138.527 195.305 139.504 192.85 139.504H92.1503C89.6952 139.504 87.3406 138.527 85.6045 136.788C83.8685 135.049 82.8932 132.69 82.8932 130.231C82.8932 127.771 83.8685 125.412 85.6045 123.673C87.3406 121.934 89.6952 120.957 92.1503 120.957H192.85ZM192.85 120.143H92.1503C89.4795 120.143 86.9181 121.205 85.0296 123.097C83.141 124.989 82.0801 127.555 82.0801 130.231C82.0801 132.906 83.141 135.472 85.0296 137.364C86.9181 139.256 89.4795 140.319 92.1503 140.319H192.85C195.521 140.319 198.082 139.256 199.971 137.364C201.859 135.472 202.92 132.906 202.92 130.231C202.92 127.555 201.859 124.989 199.971 123.097C198.082 121.205 195.521 120.143 192.85 120.143Z" fill="#B3B3B3"/>
<path d="M192.85 149.441C194.075 149.427 195.291 149.656 196.427 150.115C197.563 150.574 198.597 151.255 199.468 152.117C200.34 152.98 201.032 154.007 201.504 155.14C201.976 156.272 202.219 157.487 202.219 158.714C202.219 159.942 201.976 161.157 201.504 162.289C201.032 163.422 200.34 164.449 199.468 165.311C198.597 166.174 197.563 166.855 196.427 167.314C195.291 167.773 194.075 168.002 192.85 167.987H92.1503C90.9253 168.002 89.7096 167.773 88.5735 167.314C87.4375 166.855 86.4037 166.174 85.5322 165.311C84.6608 164.449 83.9688 163.422 83.4966 162.289C83.0243 161.157 82.7812 159.942 82.7812 158.714C82.7812 157.487 83.0243 156.272 83.4966 155.14C83.9688 154.007 84.6608 152.98 85.5322 152.117C86.4037 151.255 87.4375 150.574 88.5735 150.115C89.7096 149.656 90.9253 149.427 92.1503 149.441H192.85ZM192.85 148.627H92.1503C90.8279 148.627 89.5185 148.888 88.2967 149.394C87.0749 149.901 85.9648 150.644 85.0297 151.581C84.0945 152.517 83.3527 153.629 82.8467 154.853C82.3406 156.077 82.0801 157.389 82.0801 158.714C82.0801 161.389 83.141 163.955 85.0296 165.847C86.9181 167.739 89.4795 168.802 92.1503 168.802H192.85C195.521 168.802 198.082 167.739 199.971 165.847C201.859 163.955 202.92 161.389 202.92 158.714C202.92 157.389 202.66 156.077 202.154 154.853C201.648 153.629 200.906 152.517 199.971 151.581C199.036 150.644 197.926 149.901 196.704 149.394C195.482 148.888 194.173 148.627 192.85 148.627Z" fill="#B3B3B3"/>
<path d="M192.85 91.6592H92.1503C86.5887 91.6592 82.0801 96.1758 82.0801 101.747C82.0801 107.319 86.5887 111.835 92.1503 111.835H192.85C198.412 111.835 202.92 107.319 202.92 101.747C202.92 96.1758 198.412 91.6592 192.85 91.6592Z" fill="#88BA53"/>
<path d="M98.0006 106.223C100.468 103.751 100.468 99.743 98.0006 97.2708C95.5329 94.7987 91.5318 94.7987 89.064 97.2708C86.5962 99.743 86.5962 103.751 89.064 106.223C91.5318 108.695 95.5329 108.695 98.0006 106.223Z" fill="white"/>
<path d="M96.4374 99.107L92.6673 102.884L90.6346 100.847C90.5797 100.792 90.5144 100.748 90.4425 100.718C90.3707 100.688 90.2936 100.673 90.2158 100.673C90.138 100.673 90.0609 100.688 89.9891 100.718C89.9172 100.748 89.852 100.792 89.7971 100.847C89.7419 100.902 89.6981 100.968 89.6683 101.04C89.6384 101.112 89.623 101.189 89.623 101.267C89.623 101.345 89.6384 101.422 89.6683 101.494C89.6981 101.566 89.7419 101.631 89.7971 101.686L91.8366 103.723L92.6741 104.562L93.5116 103.723L97.2816 99.9459C97.3368 99.8909 97.3806 99.8256 97.4104 99.7536C97.4403 99.6816 97.4557 99.6044 97.4557 99.5264C97.4557 99.4485 97.4403 99.3713 97.4104 99.2993C97.3806 99.2273 97.3368 99.162 97.2816 99.107C97.2266 99.0507 97.161 99.006 97.0885 98.9755C97.016 98.9449 96.9381 98.9292 96.8595 98.9292C96.7809 98.9292 96.703 98.9449 96.6306 98.9755C96.5581 99.006 96.4924 99.0507 96.4374 99.107Z" fill="#88BA53"/>
</g>
<defs>
<clipPath id="clip0_436_4250">
<rect width="155" height="144" fill="white" transform="translate(65 43)"/>
</clipPath>
</defs>
</svg>
