<svg width="162" height="208" viewBox="0 0 162 208" fill="none" xmlns="http://www.w3.org/2000/svg">
<rect width="162" height="208" rx="16" fill="url(#paint0_linear_444_2938)"/>
<path d="M47.0182 129V119.56H43.3062V117.8H52.8102V119.56H49.0982V129H47.0182ZM57.3202 129.112C56.3709 129.112 55.5389 128.925 54.8242 128.552C54.1202 128.168 53.5709 127.645 53.1762 126.984C52.7922 126.323 52.6002 125.571 52.6002 124.728C52.6002 123.875 52.7869 123.123 53.1602 122.472C53.5442 121.811 54.0669 121.293 54.7282 120.92C55.4002 120.547 56.1629 120.36 57.0162 120.36C57.8482 120.36 58.5895 120.541 59.2402 120.904C59.8909 121.267 60.4029 121.779 60.7762 122.44C61.1495 123.101 61.3362 123.88 61.3362 124.776C61.3362 124.861 61.3309 124.957 61.3202 125.064C61.3202 125.171 61.3149 125.272 61.3042 125.368H54.1842V124.04H60.2482L59.4642 124.456C59.4749 123.965 59.3735 123.533 59.1602 123.16C58.9469 122.787 58.6535 122.493 58.2802 122.28C57.9175 122.067 57.4962 121.96 57.0162 121.96C56.5255 121.96 56.0935 122.067 55.7202 122.28C55.3575 122.493 55.0695 122.792 54.8562 123.176C54.6535 123.549 54.5522 123.992 54.5522 124.504V124.824C54.5522 125.336 54.6695 125.789 54.9042 126.184C55.1389 126.579 55.4695 126.883 55.8962 127.096C56.3229 127.309 56.8135 127.416 57.3682 127.416C57.8482 127.416 58.2802 127.341 58.6642 127.192C59.0482 127.043 59.3895 126.808 59.6882 126.488L60.7602 127.72C60.3762 128.168 59.8909 128.515 59.3042 128.76C58.7282 128.995 58.0669 129.112 57.3202 129.112ZM67.1773 129.112C66.2813 129.112 65.4813 128.925 64.7773 128.552C64.084 128.168 63.54 127.645 63.1453 126.984C62.7506 126.323 62.5533 125.571 62.5533 124.728C62.5533 123.875 62.7506 123.123 63.1453 122.472C63.54 121.811 64.084 121.293 64.7773 120.92C65.4813 120.547 66.2813 120.36 67.1773 120.36C68.0093 120.36 68.74 120.531 69.3693 120.872C70.0093 121.203 70.4946 121.693 70.8253 122.344L69.2893 123.24C69.0333 122.835 68.7186 122.536 68.3453 122.344C67.9826 122.152 67.588 122.056 67.1613 122.056C66.6706 122.056 66.228 122.163 65.8333 122.376C65.4386 122.589 65.1293 122.899 64.9053 123.304C64.6813 123.699 64.5693 124.173 64.5693 124.728C64.5693 125.283 64.6813 125.763 64.9053 126.168C65.1293 126.563 65.4386 126.867 65.8333 127.08C66.228 127.293 66.6706 127.4 67.1613 127.4C67.588 127.4 67.9826 127.304 68.3453 127.112C68.7186 126.92 69.0333 126.621 69.2893 126.216L70.8253 127.112C70.4946 127.752 70.0093 128.248 69.3693 128.6C68.74 128.941 68.0093 129.112 67.1773 129.112ZM77.3241 120.36C78.0067 120.36 78.6147 120.493 79.1481 120.76C79.6921 121.027 80.1187 121.437 80.4281 121.992C80.7374 122.536 80.8921 123.24 80.8921 124.104V129H78.8921V124.36C78.8921 123.603 78.7107 123.037 78.3481 122.664C77.9961 122.291 77.5001 122.104 76.8601 122.104C76.3907 122.104 75.9747 122.2 75.6121 122.392C75.2494 122.584 74.9667 122.872 74.7641 123.256C74.5721 123.629 74.4761 124.104 74.4761 124.68V129H72.4761V117.128H74.4761V122.76L74.0441 122.056C74.3427 121.512 74.7747 121.096 75.3401 120.808C75.9161 120.509 76.5774 120.36 77.3241 120.36ZM88.2772 120.36C88.9599 120.36 89.5679 120.493 90.1012 120.76C90.6452 121.027 91.0719 121.437 91.3812 121.992C91.6905 122.536 91.8452 123.24 91.8452 124.104V129H89.8452V124.36C89.8452 123.603 89.6639 123.037 89.3012 122.664C88.9492 122.291 88.4532 122.104 87.8132 122.104C87.3439 122.104 86.9279 122.2 86.5652 122.392C86.2025 122.584 85.9199 122.872 85.7172 123.256C85.5252 123.629 85.4292 124.104 85.4292 124.68V129H83.4292V120.456H85.3332V122.76L84.9972 122.056C85.2959 121.512 85.7279 121.096 86.2932 120.808C86.8692 120.509 87.5305 120.36 88.2772 120.36ZM94.3823 129V120.456H96.3823V129H94.3823ZM95.3903 119.048C95.017 119.048 94.7076 118.931 94.4623 118.696C94.2276 118.461 94.1103 118.179 94.1103 117.848C94.1103 117.507 94.2276 117.224 94.4623 117C94.7076 116.765 95.017 116.648 95.3903 116.648C95.7636 116.648 96.0676 116.76 96.3023 116.984C96.5476 117.197 96.6703 117.469 96.6703 117.8C96.6703 118.152 96.553 118.451 96.3183 118.696C96.0836 118.931 95.7743 119.048 95.3903 119.048ZM102.927 129.112C102.031 129.112 101.231 128.925 100.527 128.552C99.834 128.168 99.29 127.645 98.8953 126.984C98.5006 126.323 98.3033 125.571 98.3033 124.728C98.3033 123.875 98.5006 123.123 98.8953 122.472C99.29 121.811 99.834 121.293 100.527 120.92C101.231 120.547 102.031 120.36 102.927 120.36C103.759 120.36 104.49 120.531 105.119 120.872C105.759 121.203 106.245 121.693 106.575 122.344L105.039 123.24C104.783 122.835 104.469 122.536 104.095 122.344C103.733 122.152 103.338 122.056 102.911 122.056C102.421 122.056 101.978 122.163 101.583 122.376C101.189 122.589 100.879 122.899 100.655 123.304C100.431 123.699 100.319 124.173 100.319 124.728C100.319 125.283 100.431 125.763 100.655 126.168C100.879 126.563 101.189 126.867 101.583 127.08C101.978 127.293 102.421 127.4 102.911 127.4C103.338 127.4 103.733 127.304 104.095 127.112C104.469 126.92 104.783 126.621 105.039 126.216L106.575 127.112C106.245 127.752 105.759 128.248 105.119 128.6C104.49 128.941 103.759 129.112 102.927 129.112ZM113.568 129V127.272L113.456 126.904V123.88C113.456 123.293 113.28 122.84 112.928 122.52C112.576 122.189 112.043 122.024 111.328 122.024C110.848 122.024 110.374 122.099 109.904 122.248C109.446 122.397 109.056 122.605 108.736 122.872L107.952 121.416C108.411 121.064 108.955 120.803 109.584 120.632C110.224 120.451 110.886 120.36 111.568 120.36C112.806 120.36 113.76 120.659 114.432 121.256C115.115 121.843 115.456 122.755 115.456 123.992V129H113.568ZM110.88 129.112C110.24 129.112 109.68 129.005 109.2 128.792C108.72 128.568 108.347 128.264 108.08 127.88C107.824 127.485 107.696 127.043 107.696 126.552C107.696 126.072 107.808 125.64 108.032 125.256C108.267 124.872 108.646 124.568 109.168 124.344C109.691 124.12 110.384 124.008 111.248 124.008H113.728V125.336H111.392C110.71 125.336 110.251 125.448 110.016 125.672C109.782 125.885 109.664 126.152 109.664 126.472C109.664 126.835 109.808 127.123 110.096 127.336C110.384 127.549 110.784 127.656 111.296 127.656C111.787 127.656 112.224 127.544 112.608 127.32C113.003 127.096 113.286 126.765 113.456 126.328L113.792 127.528C113.6 128.029 113.254 128.419 112.752 128.696C112.262 128.973 111.638 129.112 110.88 129.112ZM118.023 129V117.128H120.023V129H118.023ZM55.9024 149V137.8H60.7984C62.0144 137.8 63.0811 138.035 63.9984 138.504C64.9158 138.973 65.6304 139.624 66.1424 140.456C66.6544 141.288 66.9104 142.269 66.9104 143.4C66.9104 144.52 66.6544 145.501 66.1424 146.344C65.6304 147.176 64.9158 147.827 63.9984 148.296C63.0811 148.765 62.0144 149 60.7984 149H55.9024ZM57.9824 147.24H60.7024C61.5451 147.24 62.2704 147.08 62.8784 146.76C63.4971 146.44 63.9718 145.992 64.3024 145.416C64.6438 144.84 64.8144 144.168 64.8144 143.4C64.8144 142.621 64.6438 141.949 64.3024 141.384C63.9718 140.808 63.4971 140.36 62.8784 140.04C62.2704 139.72 61.5451 139.56 60.7024 139.56H57.9824V147.24ZM72.9452 149.112C71.9959 149.112 71.1639 148.925 70.4492 148.552C69.7452 148.168 69.1959 147.645 68.8012 146.984C68.4172 146.323 68.2252 145.571 68.2252 144.728C68.2252 143.875 68.4119 143.123 68.7852 142.472C69.1692 141.811 69.6919 141.293 70.3532 140.92C71.0252 140.547 71.7879 140.36 72.6412 140.36C73.4732 140.36 74.2145 140.541 74.8652 140.904C75.5159 141.267 76.0279 141.779 76.4012 142.44C76.7745 143.101 76.9612 143.88 76.9612 144.776C76.9612 144.861 76.9559 144.957 76.9452 145.064C76.9452 145.171 76.9399 145.272 76.9292 145.368H69.8092V144.04H75.8732L75.0892 144.456C75.0999 143.965 74.9985 143.533 74.7852 143.16C74.5719 142.787 74.2785 142.493 73.9052 142.28C73.5425 142.067 73.1212 141.96 72.6412 141.96C72.1505 141.96 71.7185 142.067 71.3452 142.28C70.9825 142.493 70.6945 142.792 70.4812 143.176C70.2785 143.549 70.1772 143.992 70.1772 144.504V144.824C70.1772 145.336 70.2945 145.789 70.5292 146.184C70.7639 146.579 71.0945 146.883 71.5212 147.096C71.9479 147.309 72.4385 147.416 72.9932 147.416C73.4732 147.416 73.9052 147.341 74.2892 147.192C74.6732 147.043 75.0145 146.808 75.3132 146.488L76.3852 147.72C76.0012 148.168 75.5159 148.515 74.9292 148.76C74.3532 148.995 73.6919 149.112 72.9452 149.112ZM83.6183 149.112C82.893 149.112 82.2476 148.952 81.6823 148.632C81.117 148.312 80.669 147.832 80.3383 147.192C80.0183 146.541 79.8583 145.72 79.8583 144.728C79.8583 143.725 80.0236 142.904 80.3543 142.264C80.6956 141.624 81.149 141.149 81.7143 140.84C82.2903 140.52 82.925 140.36 83.6183 140.36C84.461 140.36 85.2023 140.541 85.8423 140.904C86.493 141.267 87.005 141.773 87.3783 142.424C87.7623 143.075 87.9543 143.843 87.9543 144.728C87.9543 145.613 87.7623 146.381 87.3783 147.032C87.005 147.683 86.493 148.195 85.8423 148.568C85.2023 148.931 84.461 149.112 83.6183 149.112ZM78.8823 149V137.128H80.8823V142.44L80.7223 144.712L80.7863 146.984V149H78.8823ZM83.3943 147.4C83.8743 147.4 84.301 147.293 84.6743 147.08C85.0583 146.867 85.3623 146.557 85.5863 146.152C85.8103 145.747 85.9223 145.272 85.9223 144.728C85.9223 144.173 85.8103 143.699 85.5863 143.304C85.3623 142.899 85.0583 142.589 84.6743 142.376C84.301 142.163 83.8743 142.056 83.3943 142.056C82.9143 142.056 82.4823 142.163 82.0983 142.376C81.7143 142.589 81.4103 142.899 81.1863 143.304C80.9623 143.699 80.8503 144.173 80.8503 144.728C80.8503 145.272 80.9623 145.747 81.1863 146.152C81.4103 146.557 81.7143 146.867 82.0983 147.08C82.4823 147.293 82.9143 147.4 83.3943 147.4ZM95.0057 149V147.272L94.8937 146.904V143.88C94.8937 143.293 94.7177 142.84 94.3657 142.52C94.0137 142.189 93.4804 142.024 92.7657 142.024C92.2857 142.024 91.811 142.099 91.3417 142.248C90.883 142.397 90.4937 142.605 90.1737 142.872L89.3897 141.416C89.8484 141.064 90.3924 140.803 91.0217 140.632C91.6617 140.451 92.323 140.36 93.0057 140.36C94.243 140.36 95.1977 140.659 95.8697 141.256C96.5524 141.843 96.8937 142.755 96.8937 143.992V149H95.0057ZM92.3177 149.112C91.6777 149.112 91.1177 149.005 90.6377 148.792C90.1577 148.568 89.7844 148.264 89.5177 147.88C89.2617 147.485 89.1337 147.043 89.1337 146.552C89.1337 146.072 89.2457 145.64 89.4697 145.256C89.7044 144.872 90.083 144.568 90.6057 144.344C91.1284 144.12 91.8217 144.008 92.6857 144.008H95.1657V145.336H92.8297C92.147 145.336 91.6884 145.448 91.4537 145.672C91.219 145.885 91.1017 146.152 91.1017 146.472C91.1017 146.835 91.2457 147.123 91.5337 147.336C91.8217 147.549 92.2217 147.656 92.7337 147.656C93.2244 147.656 93.6617 147.544 94.0457 147.32C94.4404 147.096 94.723 146.765 94.8937 146.328L95.2297 147.528C95.0377 148.029 94.691 148.419 94.1897 148.696C93.699 148.973 93.075 149.112 92.3177 149.112ZM102.676 149.112C101.738 149.112 101.012 148.872 100.5 148.392C99.9884 147.901 99.7324 147.181 99.7324 146.232V138.568H101.732V146.184C101.732 146.589 101.834 146.904 102.036 147.128C102.25 147.352 102.543 147.464 102.916 147.464C103.364 147.464 103.738 147.347 104.036 147.112L104.596 148.536C104.362 148.728 104.074 148.872 103.732 148.968C103.391 149.064 103.039 149.112 102.676 149.112ZM98.3244 142.12V140.52H104.02V142.12H98.3244ZM109.976 149.112C109.027 149.112 108.195 148.925 107.48 148.552C106.776 148.168 106.227 147.645 105.832 146.984C105.448 146.323 105.256 145.571 105.256 144.728C105.256 143.875 105.443 143.123 105.816 142.472C106.2 141.811 106.723 141.293 107.384 140.92C108.056 140.547 108.819 140.36 109.672 140.36C110.504 140.36 111.246 140.541 111.896 140.904C112.547 141.267 113.059 141.779 113.432 142.44C113.806 143.101 113.992 143.88 113.992 144.776C113.992 144.861 113.987 144.957 113.976 145.064C113.976 145.171 113.971 145.272 113.96 145.368H106.84V144.04H112.904L112.12 144.456C112.131 143.965 112.03 143.533 111.816 143.16C111.603 142.787 111.31 142.493 110.936 142.28C110.574 142.067 110.152 141.96 109.672 141.96C109.182 141.96 108.75 142.067 108.376 142.28C108.014 142.493 107.726 142.792 107.512 143.176C107.31 143.549 107.208 143.992 107.208 144.504V144.824C107.208 145.336 107.326 145.789 107.56 146.184C107.795 146.579 108.126 146.883 108.552 147.096C108.979 147.309 109.47 147.416 110.024 147.416C110.504 147.416 110.936 147.341 111.32 147.192C111.704 147.043 112.046 146.808 112.344 146.488L113.416 147.72C113.032 148.168 112.547 148.515 111.96 148.76C111.384 148.995 110.723 149.112 109.976 149.112Z" fill="#E8E3D2"/>
<path d="M16.878 164L19.398 158.4H20.422L22.95 164H21.862L19.694 158.952H20.11L17.95 164H16.878ZM18.038 162.704L18.318 161.888H21.342L21.622 162.704H18.038ZM25.9131 164V159.488C25.9131 159.04 26.0438 158.683 26.3051 158.416C26.5718 158.144 26.9504 158.008 27.4411 158.008C27.6171 158.008 27.7824 158.027 27.9371 158.064C28.0971 158.101 28.2304 158.16 28.3371 158.24L28.0651 158.992C27.9904 158.933 27.9051 158.891 27.8091 158.864C27.7131 158.832 27.6144 158.816 27.5131 158.816C27.3051 158.816 27.1478 158.875 27.0411 158.992C26.9344 159.104 26.8811 159.275 26.8811 159.504V159.984L26.9131 160.432V164H25.9131ZM25.2091 160.56V159.76H28.0571V160.56H25.2091ZM28.7611 164V159.728H29.7611V164H28.7611ZM29.2651 159.024C29.0784 159.024 28.9238 158.965 28.8011 158.848C28.6838 158.731 28.6251 158.589 28.6251 158.424C28.6251 158.253 28.6838 158.112 28.8011 158C28.9238 157.883 29.0784 157.824 29.2651 157.824C29.4518 157.824 29.6038 157.88 29.7211 157.992C29.8438 158.099 29.9051 158.235 29.9051 158.4C29.9051 158.576 29.8464 158.725 29.7291 158.848C29.6118 158.965 29.4571 159.024 29.2651 159.024ZM33.082 164.056C32.6073 164.056 32.1913 163.963 31.834 163.776C31.482 163.584 31.2073 163.323 31.01 162.992C30.818 162.661 30.722 162.285 30.722 161.864C30.722 161.437 30.8153 161.061 31.002 160.736C31.194 160.405 31.4553 160.147 31.786 159.96C32.122 159.773 32.5033 159.68 32.93 159.68C33.346 159.68 33.7166 159.771 34.042 159.952C34.3673 160.133 34.6233 160.389 34.81 160.72C34.9966 161.051 35.09 161.44 35.09 161.888C35.09 161.931 35.0873 161.979 35.082 162.032C35.082 162.085 35.0793 162.136 35.074 162.184H31.514V161.52H34.546L34.154 161.728C34.1593 161.483 34.1086 161.267 34.002 161.08C33.8953 160.893 33.7486 160.747 33.562 160.64C33.3806 160.533 33.17 160.48 32.93 160.48C32.6846 160.48 32.4686 160.533 32.282 160.64C32.1006 160.747 31.9566 160.896 31.85 161.088C31.7486 161.275 31.698 161.496 31.698 161.752V161.912C31.698 162.168 31.7566 162.395 31.874 162.592C31.9913 162.789 32.1566 162.941 32.37 163.048C32.5833 163.155 32.8286 163.208 33.106 163.208C33.346 163.208 33.562 163.171 33.754 163.096C33.946 163.021 34.1166 162.904 34.266 162.744L34.802 163.36C34.61 163.584 34.3673 163.757 34.074 163.88C33.786 163.997 33.4553 164.056 33.082 164.056ZM36.0505 164V159.728H37.0025V160.904L36.8905 160.56C37.0185 160.272 37.2185 160.053 37.4905 159.904C37.7679 159.755 38.1119 159.68 38.5225 159.68V160.632C38.4799 160.621 38.4399 160.616 38.4025 160.616C38.3652 160.611 38.3279 160.608 38.2905 160.608C37.9119 160.608 37.6105 160.72 37.3865 160.944C37.1625 161.163 37.0505 161.491 37.0505 161.928V164H36.0505ZM39.8791 165.608C39.6711 165.608 39.4631 165.573 39.2551 165.504C39.0471 165.435 38.8738 165.339 38.7351 165.216L39.1351 164.48C39.2364 164.571 39.3511 164.643 39.4791 164.696C39.6071 164.749 39.7378 164.776 39.8711 164.776C40.0524 164.776 40.1991 164.731 40.3111 164.64C40.4231 164.549 40.5271 164.397 40.6231 164.184L40.8711 163.624L40.9511 163.504L42.5671 159.728H43.5271L41.5271 164.344C41.3938 164.664 41.2444 164.917 41.0791 165.104C40.9191 165.291 40.7378 165.421 40.5351 165.496C40.3378 165.571 40.1191 165.608 39.8791 165.608ZM40.7591 164.152L38.8311 159.728H39.8711L41.4391 163.416L40.7591 164.152ZM48.171 164.056C47.7604 164.056 47.3897 163.965 47.059 163.784C46.7337 163.597 46.4777 163.341 46.291 163.016C46.1044 162.691 46.011 162.307 46.011 161.864C46.011 161.421 46.1044 161.037 46.291 160.712C46.4777 160.387 46.7337 160.133 47.059 159.952C47.3897 159.771 47.7604 159.68 48.171 159.68C48.5284 159.68 48.8484 159.76 49.131 159.92C49.4137 160.075 49.6377 160.312 49.803 160.632C49.9684 160.952 50.051 161.363 50.051 161.864C50.051 162.36 49.971 162.771 49.811 163.096C49.651 163.416 49.4297 163.656 49.147 163.816C48.8644 163.976 48.539 164.056 48.171 164.056ZM48.291 163.2C48.531 163.2 48.7444 163.147 48.931 163.04C49.123 162.933 49.275 162.779 49.387 162.576C49.5044 162.373 49.563 162.136 49.563 161.864C49.563 161.587 49.5044 161.349 49.387 161.152C49.275 160.949 49.123 160.795 48.931 160.688C48.7444 160.581 48.531 160.528 48.291 160.528C48.051 160.528 47.835 160.581 47.643 160.688C47.4564 160.795 47.3044 160.949 47.187 161.152C47.075 161.349 47.019 161.587 47.019 161.864C47.019 162.136 47.075 162.373 47.187 162.576C47.3044 162.779 47.4564 162.933 47.643 163.04C47.835 163.147 48.051 163.2 48.291 163.2ZM49.587 164V162.992L49.627 161.856L49.547 160.72V158.064H50.539V164H49.587ZM53.8632 164.056C53.3886 164.056 52.9726 163.963 52.6152 163.776C52.2632 163.584 51.9886 163.323 51.7912 162.992C51.5992 162.661 51.5032 162.285 51.5032 161.864C51.5032 161.437 51.5966 161.061 51.7832 160.736C51.9752 160.405 52.2366 160.147 52.5672 159.96C52.9032 159.773 53.2846 159.68 53.7112 159.68C54.1272 159.68 54.4979 159.771 54.8232 159.952C55.1486 160.133 55.4046 160.389 55.5912 160.72C55.7779 161.051 55.8712 161.44 55.8712 161.888C55.8712 161.931 55.8686 161.979 55.8632 162.032C55.8632 162.085 55.8606 162.136 55.8552 162.184H52.2952V161.52H55.3272L54.9352 161.728C54.9406 161.483 54.8899 161.267 54.7832 161.08C54.6766 160.893 54.5299 160.747 54.3432 160.64C54.1619 160.533 53.9512 160.48 53.7112 160.48C53.4659 160.48 53.2499 160.533 53.0632 160.64C52.8819 160.747 52.7379 160.896 52.6312 161.088C52.5299 161.275 52.4792 161.496 52.4792 161.752V161.912C52.4792 162.168 52.5379 162.395 52.6552 162.592C52.7726 162.789 52.9379 162.941 53.1512 163.048C53.3646 163.155 53.6099 163.208 53.8872 163.208C54.1272 163.208 54.3432 163.171 54.5352 163.096C54.7272 163.021 54.8979 162.904 55.0472 162.744L55.5832 163.36C55.3912 163.584 55.1486 163.757 54.8552 163.88C54.5672 163.997 54.2366 164.056 53.8632 164.056ZM59.1998 164.056C58.8371 164.056 58.5144 163.976 58.2318 163.816C57.9491 163.656 57.7251 163.416 57.5598 163.096C57.3998 162.771 57.3198 162.36 57.3198 161.864C57.3198 161.363 57.4024 160.952 57.5678 160.632C57.7384 160.312 57.9651 160.075 58.2478 159.92C58.5358 159.76 58.8531 159.68 59.1998 159.68C59.6211 159.68 59.9918 159.771 60.3118 159.952C60.6371 160.133 60.8931 160.387 61.0798 160.712C61.2718 161.037 61.3678 161.421 61.3678 161.864C61.3678 162.307 61.2718 162.691 61.0798 163.016C60.8931 163.341 60.6371 163.597 60.3118 163.784C59.9918 163.965 59.6211 164.056 59.1998 164.056ZM56.8318 164V158.064H57.8318V160.72L57.7518 161.856L57.7838 162.992V164H56.8318ZM59.0878 163.2C59.3278 163.2 59.5411 163.147 59.7278 163.04C59.9198 162.933 60.0718 162.779 60.1838 162.576C60.2958 162.373 60.3518 162.136 60.3518 161.864C60.3518 161.587 60.2958 161.349 60.1838 161.152C60.0718 160.949 59.9198 160.795 59.7278 160.688C59.5411 160.581 59.3278 160.528 59.0878 160.528C58.8478 160.528 58.6318 160.581 58.4398 160.688C58.2478 160.795 58.0958 160.949 57.9838 161.152C57.8718 161.349 57.8158 161.587 57.8158 161.864C57.8158 162.136 57.8718 162.373 57.9838 162.576C58.0958 162.779 58.2478 162.933 58.4398 163.04C58.6318 163.147 58.8478 163.2 59.0878 163.2ZM64.8935 164V163.136L64.8375 162.952V161.44C64.8375 161.147 64.7495 160.92 64.5735 160.76C64.3975 160.595 64.1308 160.512 63.7735 160.512C63.5335 160.512 63.2961 160.549 63.0615 160.624C62.8321 160.699 62.6375 160.803 62.4775 160.936L62.0855 160.208C62.3148 160.032 62.5868 159.901 62.9015 159.816C63.2215 159.725 63.5521 159.68 63.8935 159.68C64.5121 159.68 64.9895 159.829 65.3255 160.128C65.6668 160.421 65.8375 160.877 65.8375 161.496V164H64.8935ZM63.5495 164.056C63.2295 164.056 62.9495 164.003 62.7095 163.896C62.4695 163.784 62.2828 163.632 62.1495 163.44C62.0215 163.243 61.9575 163.021 61.9575 162.776C61.9575 162.536 62.0135 162.32 62.1255 162.128C62.2428 161.936 62.4321 161.784 62.6935 161.672C62.9548 161.56 63.3015 161.504 63.7335 161.504H64.9735V162.168H63.8055C63.4641 162.168 63.2348 162.224 63.1175 162.336C63.0001 162.443 62.9415 162.576 62.9415 162.736C62.9415 162.917 63.0135 163.061 63.1575 163.168C63.3015 163.275 63.5015 163.328 63.7575 163.328C64.0028 163.328 64.2215 163.272 64.4135 163.16C64.6108 163.048 64.7521 162.883 64.8375 162.664L65.0055 163.264C64.9095 163.515 64.7361 163.709 64.4855 163.848C64.2401 163.987 63.9281 164.056 63.5495 164.056ZM68.7288 164.056C68.2595 164.056 67.8968 163.936 67.6408 163.696C67.3848 163.451 67.2568 163.091 67.2568 162.616V158.784H68.2568V162.592C68.2568 162.795 68.3075 162.952 68.4088 163.064C68.5155 163.176 68.6622 163.232 68.8488 163.232C69.0728 163.232 69.2595 163.173 69.4088 163.056L69.6888 163.768C69.5715 163.864 69.4275 163.936 69.2568 163.984C69.0862 164.032 68.9102 164.056 68.7288 164.056ZM66.5528 160.56V159.76H69.4008V160.56H66.5528ZM72.3788 164.056C71.9042 164.056 71.4882 163.963 71.1308 163.776C70.7788 163.584 70.5042 163.323 70.3068 162.992C70.1148 162.661 70.0188 162.285 70.0188 161.864C70.0188 161.437 70.1122 161.061 70.2988 160.736C70.4908 160.405 70.7522 160.147 71.0828 159.96C71.4188 159.773 71.8002 159.68 72.2268 159.68C72.6428 159.68 73.0135 159.771 73.3388 159.952C73.6642 160.133 73.9202 160.389 74.1068 160.72C74.2935 161.051 74.3868 161.44 74.3868 161.888C74.3868 161.931 74.3842 161.979 74.3788 162.032C74.3788 162.085 74.3762 162.136 74.3708 162.184H70.8108V161.52H73.8428L73.4508 161.728C73.4562 161.483 73.4055 161.267 73.2988 161.08C73.1922 160.893 73.0455 160.747 72.8588 160.64C72.6775 160.533 72.4668 160.48 72.2268 160.48C71.9815 160.48 71.7655 160.533 71.5788 160.64C71.3975 160.747 71.2535 160.896 71.1468 161.088C71.0455 161.275 70.9948 161.496 70.9948 161.752V161.912C70.9948 162.168 71.0535 162.395 71.1708 162.592C71.2882 162.789 71.4535 162.941 71.6668 163.048C71.8802 163.155 72.1255 163.208 72.4028 163.208C72.6428 163.208 72.8588 163.171 73.0508 163.096C73.2428 163.021 73.4135 162.904 73.5628 162.744L74.0988 163.36C73.9068 163.584 73.6642 163.757 73.3708 163.88C73.0828 163.997 72.7522 164.056 72.3788 164.056ZM74.4514 164.8L77.0914 157.264H77.9874L75.3474 164.8H74.4514ZM79.6007 164.056C79.1901 164.056 78.8194 163.965 78.4887 163.784C78.1634 163.597 77.9074 163.341 77.7207 163.016C77.5341 162.691 77.4407 162.307 77.4407 161.864C77.4407 161.421 77.5341 161.037 77.7207 160.712C77.9074 160.387 78.1634 160.133 78.4887 159.952C78.8194 159.771 79.1901 159.68 79.6007 159.68C79.9581 159.68 80.2781 159.76 80.5607 159.92C80.8434 160.075 81.0674 160.312 81.2327 160.632C81.3981 160.952 81.4807 161.363 81.4807 161.864C81.4807 162.36 81.4007 162.771 81.2407 163.096C81.0807 163.416 80.8594 163.656 80.5767 163.816C80.2941 163.976 79.9687 164.056 79.6007 164.056ZM79.7207 163.2C79.9607 163.2 80.1741 163.147 80.3607 163.04C80.5527 162.933 80.7047 162.779 80.8167 162.576C80.9341 162.373 80.9927 162.136 80.9927 161.864C80.9927 161.587 80.9341 161.349 80.8167 161.152C80.7047 160.949 80.5527 160.795 80.3607 160.688C80.1741 160.581 79.9607 160.528 79.7207 160.528C79.4807 160.528 79.2647 160.581 79.0727 160.688C78.8861 160.795 78.7341 160.949 78.6167 161.152C78.5047 161.349 78.4487 161.587 78.4487 161.864C78.4487 162.136 78.5047 162.373 78.6167 162.576C78.7341 162.779 78.8861 162.933 79.0727 163.04C79.2647 163.147 79.4807 163.2 79.7207 163.2ZM81.0167 164V162.992L81.0567 161.856L80.9767 160.72V158.064H81.9687V164H81.0167ZM83.2849 164V159.728H84.2849V164H83.2849ZM83.7889 159.024C83.6022 159.024 83.4476 158.965 83.3249 158.848C83.2076 158.731 83.1489 158.589 83.1489 158.424C83.1489 158.253 83.2076 158.112 83.3249 158C83.4476 157.883 83.6022 157.824 83.7889 157.824C83.9756 157.824 84.1276 157.88 84.2449 157.992C84.3676 158.099 84.4289 158.235 84.4289 158.4C84.4289 158.576 84.3702 158.725 84.2529 158.848C84.1356 158.965 83.9809 159.024 83.7889 159.024ZM86.9174 164.056C86.5601 164.056 86.2161 164.011 85.8854 163.92C85.5601 163.824 85.3014 163.709 85.1094 163.576L85.4934 162.816C85.6854 162.939 85.9147 163.04 86.1814 163.12C86.4481 163.2 86.7147 163.24 86.9814 163.24C87.2961 163.24 87.5227 163.197 87.6614 163.112C87.8054 163.027 87.8774 162.912 87.8774 162.768C87.8774 162.651 87.8294 162.563 87.7334 162.504C87.6374 162.44 87.5121 162.392 87.3574 162.36C87.2027 162.328 87.0294 162.299 86.8374 162.272C86.6507 162.245 86.4614 162.211 86.2694 162.168C86.0827 162.12 85.9121 162.053 85.7574 161.968C85.6027 161.877 85.4774 161.757 85.3814 161.608C85.2854 161.459 85.2374 161.261 85.2374 161.016C85.2374 160.744 85.3147 160.509 85.4694 160.312C85.6241 160.109 85.8401 159.955 86.1174 159.848C86.4001 159.736 86.7334 159.68 87.1174 159.68C87.4054 159.68 87.6961 159.712 87.9894 159.776C88.2827 159.84 88.5254 159.931 88.7174 160.048L88.3334 160.808C88.1307 160.685 87.9254 160.603 87.7174 160.56C87.5147 160.512 87.3121 160.488 87.1094 160.488C86.8054 160.488 86.5787 160.533 86.4294 160.624C86.2854 160.715 86.2134 160.829 86.2134 160.968C86.2134 161.096 86.2614 161.192 86.3574 161.256C86.4534 161.32 86.5787 161.371 86.7334 161.408C86.8881 161.445 87.0587 161.477 87.2454 161.504C87.4374 161.525 87.6267 161.56 87.8134 161.608C88.0001 161.656 88.1707 161.723 88.3254 161.808C88.4854 161.888 88.6134 162.003 88.7094 162.152C88.8054 162.301 88.8534 162.496 88.8534 162.736C88.8534 163.003 88.7734 163.235 88.6134 163.432C88.4587 163.629 88.2374 163.784 87.9494 163.896C87.6614 164.003 87.3174 164.056 86.9174 164.056ZM91.6746 164.056C91.2266 164.056 90.8266 163.963 90.4746 163.776C90.1279 163.584 89.8559 163.323 89.6586 162.992C89.4613 162.661 89.3626 162.285 89.3626 161.864C89.3626 161.437 89.4613 161.061 89.6586 160.736C89.8559 160.405 90.1279 160.147 90.4746 159.96C90.8266 159.773 91.2266 159.68 91.6746 159.68C92.0906 159.68 92.4559 159.765 92.7706 159.936C93.0906 160.101 93.3333 160.347 93.4986 160.672L92.7306 161.12C92.6026 160.917 92.4453 160.768 92.2586 160.672C92.0773 160.576 91.8799 160.528 91.6666 160.528C91.4213 160.528 91.1999 160.581 91.0026 160.688C90.8053 160.795 90.6506 160.949 90.5386 161.152C90.4266 161.349 90.3706 161.587 90.3706 161.864C90.3706 162.141 90.4266 162.381 90.5386 162.584C90.6506 162.781 90.8053 162.933 91.0026 163.04C91.1999 163.147 91.4213 163.2 91.6666 163.2C91.8799 163.2 92.0773 163.152 92.2586 163.056C92.4453 162.96 92.6026 162.811 92.7306 162.608L93.4986 163.056C93.3333 163.376 93.0906 163.624 92.7706 163.8C92.4559 163.971 92.0906 164.056 91.6746 164.056ZM96.171 164.056C95.8084 164.056 95.4884 163.989 95.211 163.856C94.9337 163.717 94.7177 163.509 94.563 163.232C94.4084 162.949 94.331 162.595 94.331 162.168V159.728H95.331V162.032C95.331 162.416 95.4164 162.704 95.587 162.896C95.763 163.083 96.011 163.176 96.331 163.176C96.5657 163.176 96.7684 163.128 96.939 163.032C97.115 162.936 97.251 162.792 97.347 162.6C97.4484 162.408 97.499 162.171 97.499 161.888V159.728H98.499V164H97.547V162.848L97.715 163.2C97.571 163.477 97.3604 163.691 97.083 163.84C96.8057 163.984 96.5017 164.056 96.171 164.056ZM101.128 164.056C100.771 164.056 100.427 164.011 100.096 163.92C99.771 163.824 99.5123 163.709 99.3203 163.576L99.7043 162.816C99.8963 162.939 100.126 163.04 100.392 163.12C100.659 163.2 100.926 163.24 101.192 163.24C101.507 163.24 101.734 163.197 101.872 163.112C102.016 163.027 102.088 162.912 102.088 162.768C102.088 162.651 102.04 162.563 101.944 162.504C101.848 162.44 101.723 162.392 101.568 162.36C101.414 162.328 101.24 162.299 101.048 162.272C100.862 162.245 100.672 162.211 100.48 162.168C100.294 162.12 100.123 162.053 99.9683 161.968C99.8137 161.877 99.6883 161.757 99.5923 161.608C99.4963 161.459 99.4483 161.261 99.4483 161.016C99.4483 160.744 99.5257 160.509 99.6803 160.312C99.835 160.109 100.051 159.955 100.328 159.848C100.611 159.736 100.944 159.68 101.328 159.68C101.616 159.68 101.907 159.712 102.2 159.776C102.494 159.84 102.736 159.931 102.928 160.048L102.544 160.808C102.342 160.685 102.136 160.603 101.928 160.56C101.726 160.512 101.523 160.488 101.32 160.488C101.016 160.488 100.79 160.533 100.64 160.624C100.496 160.715 100.424 160.829 100.424 160.968C100.424 161.096 100.472 161.192 100.568 161.256C100.664 161.32 100.79 161.371 100.944 161.408C101.099 161.445 101.27 161.477 101.456 161.504C101.648 161.525 101.838 161.56 102.024 161.608C102.211 161.656 102.382 161.723 102.536 161.808C102.696 161.888 102.824 162.003 102.92 162.152C103.016 162.301 103.064 162.496 103.064 162.736C103.064 163.003 102.984 163.235 102.824 163.432C102.67 163.629 102.448 163.784 102.16 163.896C101.872 164.003 101.528 164.056 101.128 164.056ZM105.246 164.056C104.888 164.056 104.544 164.011 104.214 163.92C103.888 163.824 103.63 163.709 103.438 163.576L103.822 162.816C104.014 162.939 104.243 163.04 104.51 163.12C104.776 163.2 105.043 163.24 105.31 163.24C105.624 163.24 105.851 163.197 105.99 163.112C106.134 163.027 106.206 162.912 106.206 162.768C106.206 162.651 106.158 162.563 106.062 162.504C105.966 162.44 105.84 162.392 105.686 162.36C105.531 162.328 105.358 162.299 105.166 162.272C104.979 162.245 104.79 162.211 104.598 162.168C104.411 162.12 104.24 162.053 104.086 161.968C103.931 161.877 103.806 161.757 103.71 161.608C103.614 161.459 103.566 161.261 103.566 161.016C103.566 160.744 103.643 160.509 103.798 160.312C103.952 160.109 104.168 159.955 104.446 159.848C104.728 159.736 105.062 159.68 105.446 159.68C105.734 159.68 106.024 159.712 106.318 159.776C106.611 159.84 106.854 159.931 107.046 160.048L106.662 160.808C106.459 160.685 106.254 160.603 106.046 160.56C105.843 160.512 105.64 160.488 105.438 160.488C105.134 160.488 104.907 160.533 104.758 160.624C104.614 160.715 104.542 160.829 104.542 160.968C104.542 161.096 104.59 161.192 104.686 161.256C104.782 161.32 104.907 161.371 105.062 161.408C105.216 161.445 105.387 161.477 105.574 161.504C105.766 161.525 105.955 161.56 106.142 161.608C106.328 161.656 106.499 161.723 106.654 161.808C106.814 161.888 106.942 162.003 107.038 162.152C107.134 162.301 107.182 162.496 107.182 162.736C107.182 163.003 107.102 163.235 106.942 163.432C106.787 163.629 106.566 163.784 106.278 163.896C105.99 164.003 105.646 164.056 105.246 164.056ZM108.043 164V159.728H109.043V164H108.043ZM108.547 159.024C108.36 159.024 108.205 158.965 108.083 158.848C107.965 158.731 107.907 158.589 107.907 158.424C107.907 158.253 107.965 158.112 108.083 158C108.205 157.883 108.36 157.824 108.547 157.824C108.733 157.824 108.885 157.88 109.003 157.992C109.125 158.099 109.187 158.235 109.187 158.4C109.187 158.576 109.128 158.725 109.011 158.848C108.893 158.965 108.739 159.024 108.547 159.024ZM112.779 159.68C113.121 159.68 113.425 159.747 113.691 159.88C113.963 160.013 114.177 160.219 114.331 160.496C114.486 160.768 114.563 161.12 114.563 161.552V164H113.563V161.68C113.563 161.301 113.473 161.019 113.291 160.832C113.115 160.645 112.867 160.552 112.547 160.552C112.313 160.552 112.105 160.6 111.923 160.696C111.742 160.792 111.601 160.936 111.499 161.128C111.403 161.315 111.355 161.552 111.355 161.84V164H110.355V159.728H111.307V160.88L111.139 160.528C111.289 160.256 111.505 160.048 111.787 159.904C112.075 159.755 112.406 159.68 112.779 159.68ZM119.963 164.056C119.525 164.056 119.136 163.963 118.795 163.776C118.453 163.584 118.184 163.323 117.987 162.992C117.789 162.661 117.691 162.285 117.691 161.864C117.691 161.437 117.789 161.061 117.987 160.736C118.184 160.405 118.453 160.147 118.795 159.96C119.136 159.773 119.525 159.68 119.963 159.68C120.405 159.68 120.797 159.773 121.139 159.96C121.485 160.147 121.755 160.403 121.947 160.728C122.144 161.053 122.243 161.432 122.243 161.864C122.243 162.285 122.144 162.661 121.947 162.992C121.755 163.323 121.485 163.584 121.139 163.776C120.797 163.963 120.405 164.056 119.963 164.056ZM119.963 163.2C120.208 163.2 120.427 163.147 120.619 163.04C120.811 162.933 120.96 162.779 121.067 162.576C121.179 162.373 121.235 162.136 121.235 161.864C121.235 161.587 121.179 161.349 121.067 161.152C120.96 160.949 120.811 160.795 120.619 160.688C120.427 160.581 120.211 160.528 119.971 160.528C119.725 160.528 119.507 160.581 119.315 160.688C119.128 160.795 118.979 160.949 118.867 161.152C118.755 161.349 118.699 161.587 118.699 161.864C118.699 162.136 118.755 162.373 118.867 162.576C118.979 162.779 119.128 162.933 119.315 163.04C119.507 163.147 119.723 163.2 119.963 163.2ZM125.623 159.68C125.964 159.68 126.268 159.747 126.535 159.88C126.807 160.013 127.02 160.219 127.175 160.496C127.33 160.768 127.407 161.12 127.407 161.552V164H126.407V161.68C126.407 161.301 126.316 161.019 126.135 160.832C125.959 160.645 125.711 160.552 125.391 160.552C125.156 160.552 124.948 160.6 124.767 160.696C124.586 160.792 124.444 160.936 124.343 161.128C124.247 161.315 124.199 161.552 124.199 161.84V164H123.199V159.728H124.151V160.88L123.983 160.528C124.132 160.256 124.348 160.048 124.631 159.904C124.919 159.755 125.25 159.68 125.623 159.68ZM132.494 164.056C132.025 164.056 131.662 163.936 131.406 163.696C131.15 163.451 131.022 163.091 131.022 162.616V158.784H132.022V162.592C132.022 162.795 132.073 162.952 132.174 163.064C132.281 163.176 132.428 163.232 132.614 163.232C132.838 163.232 133.025 163.173 133.174 163.056L133.454 163.768C133.337 163.864 133.193 163.936 133.022 163.984C132.852 164.032 132.676 164.056 132.494 164.056ZM130.318 160.56V159.76H133.166V160.56H130.318ZM136.701 159.68C137.042 159.68 137.346 159.747 137.613 159.88C137.885 160.013 138.098 160.219 138.253 160.496C138.408 160.768 138.485 161.12 138.485 161.552V164H137.485V161.68C137.485 161.301 137.394 161.019 137.213 160.832C137.037 160.645 136.789 160.552 136.469 160.552C136.234 160.552 136.026 160.6 135.845 160.696C135.664 160.792 135.522 160.936 135.421 161.128C135.325 161.315 135.277 161.552 135.277 161.84V164H134.277V158.064H135.277V160.88L135.061 160.528C135.21 160.256 135.426 160.048 135.709 159.904C135.997 159.755 136.328 159.68 136.701 159.68ZM141.769 164.056C141.295 164.056 140.879 163.963 140.521 163.776C140.169 163.584 139.895 163.323 139.697 162.992C139.505 162.661 139.409 162.285 139.409 161.864C139.409 161.437 139.503 161.061 139.689 160.736C139.881 160.405 140.143 160.147 140.473 159.96C140.809 159.773 141.191 159.68 141.617 159.68C142.033 159.68 142.404 159.771 142.729 159.952C143.055 160.133 143.311 160.389 143.497 160.72C143.684 161.051 143.777 161.44 143.777 161.888C143.777 161.931 143.775 161.979 143.769 162.032C143.769 162.085 143.767 162.136 143.761 162.184H140.201V161.52H143.233L142.841 161.728C142.847 161.483 142.796 161.267 142.689 161.08C142.583 160.893 142.436 160.747 142.249 160.64C142.068 160.533 141.857 160.48 141.617 160.48C141.372 160.48 141.156 160.533 140.969 160.64C140.788 160.747 140.644 160.896 140.537 161.088C140.436 161.275 140.385 161.496 140.385 161.752V161.912C140.385 162.168 140.444 162.395 140.561 162.592C140.679 162.789 140.844 162.941 141.057 163.048C141.271 163.155 141.516 163.208 141.793 163.208C142.033 163.208 142.249 163.171 142.441 163.096C142.633 163.021 142.804 162.904 142.953 162.744L143.489 163.36C143.297 163.584 143.055 163.757 142.761 163.88C142.473 163.997 142.143 164.056 141.769 164.056ZM47.3074 174.056C46.8594 174.056 46.4594 173.963 46.1074 173.776C45.7607 173.584 45.4887 173.323 45.2914 172.992C45.0941 172.661 44.9954 172.285 44.9954 171.864C44.9954 171.437 45.0941 171.061 45.2914 170.736C45.4887 170.405 45.7607 170.147 46.1074 169.96C46.4594 169.773 46.8594 169.68 47.3074 169.68C47.7234 169.68 48.0887 169.765 48.4034 169.936C48.7234 170.101 48.9661 170.347 49.1314 170.672L48.3634 171.12C48.2354 170.917 48.0781 170.768 47.8914 170.672C47.7101 170.576 47.5127 170.528 47.2994 170.528C47.0541 170.528 46.8327 170.581 46.6354 170.688C46.4381 170.795 46.2834 170.949 46.1714 171.152C46.0594 171.349 46.0034 171.587 46.0034 171.864C46.0034 172.141 46.0594 172.381 46.1714 172.584C46.2834 172.781 46.4381 172.933 46.6354 173.04C46.8327 173.147 47.0541 173.2 47.2994 173.2C47.5127 173.2 47.7101 173.152 47.8914 173.056C48.0781 172.96 48.2354 172.811 48.3634 172.608L49.1314 173.056C48.9661 173.376 48.7234 173.624 48.4034 173.8C48.0887 173.971 47.7234 174.056 47.3074 174.056ZM51.8038 174.056C51.4412 174.056 51.1212 173.989 50.8438 173.856C50.5665 173.717 50.3505 173.509 50.1958 173.232C50.0412 172.949 49.9638 172.595 49.9638 172.168V169.728H50.9638V172.032C50.9638 172.416 51.0492 172.704 51.2198 172.896C51.3958 173.083 51.6438 173.176 51.9638 173.176C52.1985 173.176 52.4012 173.128 52.5718 173.032C52.7478 172.936 52.8838 172.792 52.9798 172.6C53.0812 172.408 53.1318 172.171 53.1318 171.888V169.728H54.1318V174H53.1798V172.848L53.3478 173.2C53.2038 173.477 52.9932 173.691 52.7158 173.84C52.4385 173.984 52.1345 174.056 51.8038 174.056ZM55.4412 174V169.728H56.3932V170.904L56.2812 170.56C56.4092 170.272 56.6092 170.053 56.8812 169.904C57.1585 169.755 57.5025 169.68 57.9132 169.68V170.632C57.8705 170.621 57.8305 170.616 57.7932 170.616C57.7558 170.611 57.7185 170.608 57.6812 170.608C57.3025 170.608 57.0012 170.72 56.7772 170.944C56.5532 171.163 56.4412 171.491 56.4412 171.928V174H55.4412ZM58.7615 174V169.728H59.7135V170.904L59.6015 170.56C59.7295 170.272 59.9295 170.053 60.2015 169.904C60.4788 169.755 60.8228 169.68 61.2335 169.68V170.632C61.1908 170.621 61.1508 170.616 61.1135 170.616C61.0761 170.611 61.0388 170.608 61.0015 170.608C60.6228 170.608 60.3215 170.72 60.0975 170.944C59.8735 171.163 59.7615 171.491 59.7615 171.928V174H58.7615ZM64.0507 174.056C63.5761 174.056 63.1601 173.963 62.8027 173.776C62.4507 173.584 62.1761 173.323 61.9787 172.992C61.7867 172.661 61.6907 172.285 61.6907 171.864C61.6907 171.437 61.7841 171.061 61.9707 170.736C62.1627 170.405 62.4241 170.147 62.7547 169.96C63.0907 169.773 63.4721 169.68 63.8987 169.68C64.3147 169.68 64.6854 169.771 65.0107 169.952C65.3361 170.133 65.5921 170.389 65.7787 170.72C65.9654 171.051 66.0587 171.44 66.0587 171.888C66.0587 171.931 66.0561 171.979 66.0507 172.032C66.0507 172.085 66.0481 172.136 66.0427 172.184H62.4827V171.52H65.5147L65.1227 171.728C65.1281 171.483 65.0774 171.267 64.9707 171.08C64.8641 170.893 64.7174 170.747 64.5307 170.64C64.3494 170.533 64.1387 170.48 63.8987 170.48C63.6534 170.48 63.4374 170.533 63.2507 170.64C63.0694 170.747 62.9254 170.896 62.8187 171.088C62.7174 171.275 62.6667 171.496 62.6667 171.752V171.912C62.6667 172.168 62.7254 172.395 62.8427 172.592C62.9601 172.789 63.1254 172.941 63.3387 173.048C63.5521 173.155 63.7974 173.208 64.0747 173.208C64.3147 173.208 64.5307 173.171 64.7227 173.096C64.9147 173.021 65.0854 172.904 65.2347 172.744L65.7707 173.36C65.5787 173.584 65.3361 173.757 65.0427 173.88C64.7547 173.997 64.4241 174.056 64.0507 174.056ZM69.4433 169.68C69.7846 169.68 70.0886 169.747 70.3553 169.88C70.6273 170.013 70.8406 170.219 70.9953 170.496C71.1499 170.768 71.2273 171.12 71.2273 171.552V174H70.2273V171.68C70.2273 171.301 70.1366 171.019 69.9553 170.832C69.7793 170.645 69.5313 170.552 69.2113 170.552C68.9766 170.552 68.7686 170.6 68.5873 170.696C68.4059 170.792 68.2646 170.936 68.1633 171.128C68.0673 171.315 68.0193 171.552 68.0193 171.84V174H67.0193V169.728H67.9713V170.88L67.8033 170.528C67.9526 170.256 68.1686 170.048 68.4513 169.904C68.7393 169.755 69.0699 169.68 69.4433 169.68ZM74.1038 174.056C73.6345 174.056 73.2718 173.936 73.0158 173.696C72.7598 173.451 72.6318 173.091 72.6318 172.616V168.784H73.6318V172.592C73.6318 172.795 73.6825 172.952 73.7838 173.064C73.8905 173.176 74.0372 173.232 74.2238 173.232C74.4478 173.232 74.6345 173.173 74.7838 173.056L75.0638 173.768C74.9465 173.864 74.8025 173.936 74.6318 173.984C74.4612 174.032 74.2852 174.056 74.1038 174.056ZM71.9278 170.56V169.76H74.7758V170.56H71.9278ZM79.7054 174.056C79.2361 174.056 78.8734 173.936 78.6174 173.696C78.3614 173.451 78.2334 173.091 78.2334 172.616V168.784H79.2334V172.592C79.2334 172.795 79.2841 172.952 79.3854 173.064C79.4921 173.176 79.6387 173.232 79.8254 173.232C80.0494 173.232 80.2361 173.173 80.3854 173.056L80.6654 173.768C80.5481 173.864 80.4041 173.936 80.2334 173.984C80.0627 174.032 79.8867 174.056 79.7054 174.056ZM77.5294 170.56V169.76H80.3774V170.56H77.5294ZM81.488 174V169.728H82.44V170.904L82.328 170.56C82.456 170.272 82.656 170.053 82.928 169.904C83.2054 169.755 83.5494 169.68 83.96 169.68V170.632C83.9174 170.621 83.8774 170.616 83.84 170.616C83.8027 170.611 83.7654 170.608 83.728 170.608C83.3494 170.608 83.048 170.72 82.824 170.944C82.6 171.163 82.488 171.491 82.488 171.928V174H81.488ZM86.7773 174.056C86.3026 174.056 85.8866 173.963 85.5293 173.776C85.1773 173.584 84.9026 173.323 84.7053 172.992C84.5133 172.661 84.4173 172.285 84.4173 171.864C84.4173 171.437 84.5106 171.061 84.6973 170.736C84.8893 170.405 85.1506 170.147 85.4813 169.96C85.8173 169.773 86.1986 169.68 86.6253 169.68C87.0413 169.68 87.4119 169.771 87.7373 169.952C88.0626 170.133 88.3186 170.389 88.5053 170.72C88.6919 171.051 88.7853 171.44 88.7853 171.888C88.7853 171.931 88.7826 171.979 88.7773 172.032C88.7773 172.085 88.7746 172.136 88.7693 172.184H85.2093V171.52H88.2413L87.8493 171.728C87.8546 171.483 87.8039 171.267 87.6973 171.08C87.5906 170.893 87.4439 170.747 87.2573 170.64C87.0759 170.533 86.8653 170.48 86.6253 170.48C86.3799 170.48 86.1639 170.533 85.9773 170.64C85.7959 170.747 85.6519 170.896 85.5453 171.088C85.4439 171.275 85.3933 171.496 85.3933 171.752V171.912C85.3933 172.168 85.4519 172.395 85.5693 172.592C85.6866 172.789 85.8519 172.941 86.0653 173.048C86.2786 173.155 86.5239 173.208 86.8013 173.208C87.0413 173.208 87.2573 173.171 87.4493 173.096C87.6413 173.021 87.8119 172.904 87.9613 172.744L88.4973 173.36C88.3053 173.584 88.0626 173.757 87.7693 173.88C87.4813 173.997 87.1506 174.056 86.7773 174.056ZM92.1698 169.68C92.5112 169.68 92.8152 169.747 93.0818 169.88C93.3538 170.013 93.5672 170.219 93.7218 170.496C93.8765 170.768 93.9538 171.12 93.9538 171.552V174H92.9538V171.68C92.9538 171.301 92.8632 171.019 92.6818 170.832C92.5058 170.645 92.2578 170.552 91.9378 170.552C91.7032 170.552 91.4952 170.6 91.3138 170.696C91.1325 170.792 90.9912 170.936 90.8898 171.128C90.7938 171.315 90.7458 171.552 90.7458 171.84V174H89.7458V169.728H90.6978V170.88L90.5298 170.528C90.6792 170.256 90.8952 170.048 91.1778 169.904C91.4658 169.755 91.7965 169.68 92.1698 169.68ZM97.0382 174.056C96.6276 174.056 96.2569 173.965 95.9262 173.784C95.6009 173.597 95.3449 173.341 95.1582 173.016C94.9716 172.691 94.8782 172.307 94.8782 171.864C94.8782 171.421 94.9716 171.037 95.1582 170.712C95.3449 170.387 95.6009 170.133 95.9262 169.952C96.2569 169.771 96.6276 169.68 97.0382 169.68C97.3956 169.68 97.7156 169.76 97.9982 169.92C98.2809 170.075 98.5049 170.312 98.6702 170.632C98.8356 170.952 98.9182 171.363 98.9182 171.864C98.9182 172.36 98.8382 172.771 98.6782 173.096C98.5182 173.416 98.2969 173.656 98.0142 173.816C97.7316 173.976 97.4062 174.056 97.0382 174.056ZM97.1582 173.2C97.3982 173.2 97.6116 173.147 97.7982 173.04C97.9902 172.933 98.1422 172.779 98.2542 172.576C98.3716 172.373 98.4302 172.136 98.4302 171.864C98.4302 171.587 98.3716 171.349 98.2542 171.152C98.1422 170.949 97.9902 170.795 97.7982 170.688C97.6116 170.581 97.3982 170.528 97.1582 170.528C96.9182 170.528 96.7022 170.581 96.5102 170.688C96.3236 170.795 96.1716 170.949 96.0542 171.152C95.9422 171.349 95.8862 171.587 95.8862 171.864C95.8862 172.136 95.9422 172.373 96.0542 172.576C96.1716 172.779 96.3236 172.933 96.5102 173.04C96.7022 173.147 96.9182 173.2 97.1582 173.2ZM98.4542 174V172.992L98.4942 171.856L98.4142 170.72V168.064H99.4062V174H98.4542ZM105.357 169.68C105.699 169.68 106.003 169.747 106.269 169.88C106.541 170.013 106.755 170.219 106.909 170.496C107.064 170.768 107.141 171.12 107.141 171.552V174H106.141V171.68C106.141 171.301 106.051 171.019 105.869 170.832C105.693 170.645 105.445 170.552 105.125 170.552C104.891 170.552 104.683 170.6 104.501 170.696C104.32 170.792 104.179 170.936 104.077 171.128C103.981 171.315 103.933 171.552 103.933 171.84V174H102.933V168.064H103.933V170.88L103.717 170.528C103.867 170.256 104.083 170.048 104.365 169.904C104.653 169.755 104.984 169.68 105.357 169.68ZM110.338 174.056C109.9 174.056 109.511 173.963 109.17 173.776C108.828 173.584 108.559 173.323 108.362 172.992C108.164 172.661 108.066 172.285 108.066 171.864C108.066 171.437 108.164 171.061 108.362 170.736C108.559 170.405 108.828 170.147 109.17 169.96C109.511 169.773 109.9 169.68 110.338 169.68C110.78 169.68 111.172 169.773 111.514 169.96C111.86 170.147 112.13 170.403 112.322 170.728C112.519 171.053 112.618 171.432 112.618 171.864C112.618 172.285 112.519 172.661 112.322 172.992C112.13 173.323 111.86 173.584 111.514 173.776C111.172 173.963 110.78 174.056 110.338 174.056ZM110.338 173.2C110.583 173.2 110.802 173.147 110.994 173.04C111.186 172.933 111.335 172.779 111.442 172.576C111.554 172.373 111.61 172.136 111.61 171.864C111.61 171.587 111.554 171.349 111.442 171.152C111.335 170.949 111.186 170.795 110.994 170.688C110.802 170.581 110.586 170.528 110.346 170.528C110.1 170.528 109.882 170.581 109.69 170.688C109.503 170.795 109.354 170.949 109.242 171.152C109.13 171.349 109.074 171.587 109.074 171.864C109.074 172.136 109.13 172.373 109.242 172.576C109.354 172.779 109.503 172.933 109.69 173.04C109.882 173.147 110.098 173.2 110.338 173.2ZM115.182 174.056C114.713 174.056 114.35 173.936 114.094 173.696C113.838 173.451 113.71 173.091 113.71 172.616V168.784H114.71V172.592C114.71 172.795 114.761 172.952 114.862 173.064C114.969 173.176 115.115 173.232 115.302 173.232C115.526 173.232 115.713 173.173 115.862 173.056L116.142 173.768C116.025 173.864 115.881 173.936 115.71 173.984C115.539 174.032 115.363 174.056 115.182 174.056ZM113.006 170.56V169.76H115.854V170.56H113.006ZM37.1458 184V179.28H35.2898V178.4H40.0418V179.28H38.1858V184H37.1458ZM42.2968 184.056C41.8221 184.056 41.4061 183.963 41.0488 183.776C40.6968 183.584 40.4221 183.323 40.2248 182.992C40.0328 182.661 39.9368 182.285 39.9368 181.864C39.9368 181.437 40.0301 181.061 40.2168 180.736C40.4088 180.405 40.6701 180.147 41.0008 179.96C41.3368 179.773 41.7181 179.68 42.1448 179.68C42.5608 179.68 42.9315 179.771 43.2568 179.952C43.5821 180.133 43.8381 180.389 44.0248 180.72C44.2115 181.051 44.3048 181.44 44.3048 181.888C44.3048 181.931 44.3021 181.979 44.2968 182.032C44.2968 182.085 44.2941 182.136 44.2888 182.184H40.7288V181.52H43.7608L43.3688 181.728C43.3741 181.483 43.3235 181.267 43.2168 181.08C43.1101 180.893 42.9635 180.747 42.7768 180.64C42.5955 180.533 42.3848 180.48 42.1448 180.48C41.8995 180.48 41.6835 180.533 41.4968 180.64C41.3155 180.747 41.1715 180.896 41.0648 181.088C40.9635 181.275 40.9128 181.496 40.9128 181.752V181.912C40.9128 182.168 40.9715 182.395 41.0888 182.592C41.2061 182.789 41.3715 182.941 41.5848 183.048C41.7981 183.155 42.0435 183.208 42.3208 183.208C42.5608 183.208 42.7768 183.171 42.9688 183.096C43.1608 183.021 43.3315 182.904 43.4808 182.744L44.0168 183.36C43.8248 183.584 43.5821 183.757 43.2888 183.88C43.0008 183.997 42.6701 184.056 42.2968 184.056ZM47.2254 184.056C46.7774 184.056 46.3774 183.963 46.0254 183.776C45.6787 183.584 45.4067 183.323 45.2094 182.992C45.012 182.661 44.9134 182.285 44.9134 181.864C44.9134 181.437 45.012 181.061 45.2094 180.736C45.4067 180.405 45.6787 180.147 46.0254 179.96C46.3774 179.773 46.7774 179.68 47.2254 179.68C47.6414 179.68 48.0067 179.765 48.3214 179.936C48.6414 180.101 48.884 180.347 49.0494 180.672L48.2814 181.12C48.1534 180.917 47.996 180.768 47.8094 180.672C47.628 180.576 47.4307 180.528 47.2174 180.528C46.972 180.528 46.7507 180.581 46.5534 180.688C46.356 180.795 46.2014 180.949 46.0894 181.152C45.9774 181.349 45.9214 181.587 45.9214 181.864C45.9214 182.141 45.9774 182.381 46.0894 182.584C46.2014 182.781 46.356 182.933 46.5534 183.04C46.7507 183.147 46.972 183.2 47.2174 183.2C47.4307 183.2 47.628 183.152 47.8094 183.056C47.996 182.96 48.1534 182.811 48.2814 182.608L49.0494 183.056C48.884 183.376 48.6414 183.624 48.3214 183.8C48.0067 183.971 47.6414 184.056 47.2254 184.056ZM52.2988 179.68C52.6401 179.68 52.9441 179.747 53.2108 179.88C53.4828 180.013 53.6961 180.219 53.8508 180.496C54.0054 180.768 54.0828 181.12 54.0828 181.552V184H53.0828V181.68C53.0828 181.301 52.9921 181.019 52.8108 180.832C52.6348 180.645 52.3868 180.552 52.0668 180.552C51.8321 180.552 51.6241 180.6 51.4428 180.696C51.2614 180.792 51.1201 180.936 51.0188 181.128C50.9228 181.315 50.8748 181.552 50.8748 181.84V184H49.8748V178.064H50.8748V180.88L50.6588 180.528C50.8081 180.256 51.0241 180.048 51.3068 179.904C51.5948 179.755 51.9254 179.68 52.2988 179.68ZM57.7753 179.68C58.1166 179.68 58.4206 179.747 58.6873 179.88C58.9593 180.013 59.1726 180.219 59.3273 180.496C59.482 180.768 59.5593 181.12 59.5593 181.552V184H58.5593V181.68C58.5593 181.301 58.4686 181.019 58.2873 180.832C58.1113 180.645 57.8633 180.552 57.5433 180.552C57.3086 180.552 57.1006 180.6 56.9193 180.696C56.738 180.792 56.5966 180.936 56.4953 181.128C56.3993 181.315 56.3513 181.552 56.3513 181.84V184H55.3513V179.728H56.3033V180.88L56.1353 180.528C56.2846 180.256 56.5006 180.048 56.7833 179.904C57.0713 179.755 57.402 179.68 57.7753 179.68ZM60.8279 184V179.728H61.8279V184H60.8279ZM61.3319 179.024C61.1452 179.024 60.9905 178.965 60.8679 178.848C60.7505 178.731 60.6919 178.589 60.6919 178.424C60.6919 178.253 60.7505 178.112 60.8679 178C60.9905 177.883 61.1452 177.824 61.3319 177.824C61.5185 177.824 61.6705 177.88 61.7879 177.992C61.9105 178.099 61.9719 178.235 61.9719 178.4C61.9719 178.576 61.9132 178.725 61.7959 178.848C61.6785 178.965 61.5239 179.024 61.3319 179.024ZM65.1004 184.056C64.6524 184.056 64.2524 183.963 63.9004 183.776C63.5537 183.584 63.2817 183.323 63.0844 182.992C62.887 182.661 62.7884 182.285 62.7884 181.864C62.7884 181.437 62.887 181.061 63.0844 180.736C63.2817 180.405 63.5537 180.147 63.9004 179.96C64.2524 179.773 64.6524 179.68 65.1004 179.68C65.5164 179.68 65.8817 179.765 66.1964 179.936C66.5164 180.101 66.759 180.347 66.9244 180.672L66.1564 181.12C66.0284 180.917 65.871 180.768 65.6844 180.672C65.503 180.576 65.3057 180.528 65.0924 180.528C64.847 180.528 64.6257 180.581 64.4284 180.688C64.231 180.795 64.0764 180.949 63.9644 181.152C63.8524 181.349 63.7964 181.587 63.7964 181.864C63.7964 182.141 63.8524 182.381 63.9644 182.584C64.0764 182.781 64.231 182.933 64.4284 183.04C64.6257 183.147 64.847 183.2 65.0924 183.2C65.3057 183.2 65.503 183.152 65.6844 183.056C65.871 182.96 66.0284 182.811 66.1564 182.608L66.9244 183.056C66.759 183.376 66.5164 183.624 66.1964 183.8C65.8817 183.971 65.5164 184.056 65.1004 184.056ZM70.4208 184V183.136L70.3648 182.952V181.44C70.3648 181.147 70.2768 180.92 70.1008 180.76C69.9248 180.595 69.6581 180.512 69.3008 180.512C69.0608 180.512 68.8235 180.549 68.5888 180.624C68.3595 180.699 68.1648 180.803 68.0048 180.936L67.6128 180.208C67.8421 180.032 68.1141 179.901 68.4288 179.816C68.7488 179.725 69.0795 179.68 69.4208 179.68C70.0395 179.68 70.5168 179.829 70.8528 180.128C71.1941 180.421 71.3648 180.877 71.3648 181.496V184H70.4208ZM69.0768 184.056C68.7568 184.056 68.4768 184.003 68.2368 183.896C67.9968 183.784 67.8101 183.632 67.6768 183.44C67.5488 183.243 67.4848 183.021 67.4848 182.776C67.4848 182.536 67.5408 182.32 67.6528 182.128C67.7701 181.936 67.9595 181.784 68.2208 181.672C68.4821 181.56 68.8288 181.504 69.2608 181.504H70.5008V182.168H69.3328C68.9915 182.168 68.7621 182.224 68.6448 182.336C68.5275 182.443 68.4688 182.576 68.4688 182.736C68.4688 182.917 68.5408 183.061 68.6848 183.168C68.8288 183.275 69.0288 183.328 69.2848 183.328C69.5301 183.328 69.7488 183.272 69.9408 183.16C70.1381 183.048 70.2795 182.883 70.3648 182.664L70.5328 183.264C70.4368 183.515 70.2635 183.709 70.0128 183.848C69.7675 183.987 69.4555 184.056 69.0768 184.056ZM72.6482 184V178.064H73.6482V184H72.6482ZM79.5956 179.68C79.937 179.68 80.241 179.747 80.5076 179.88C80.7796 180.013 80.993 180.219 81.1476 180.496C81.3023 180.768 81.3796 181.12 81.3796 181.552V184H80.3796V181.68C80.3796 181.301 80.289 181.019 80.1076 180.832C79.9316 180.645 79.6836 180.552 79.3636 180.552C79.129 180.552 78.921 180.6 78.7396 180.696C78.5583 180.792 78.417 180.936 78.3156 181.128C78.2196 181.315 78.1716 181.552 78.1716 181.84V184H77.1716V178.064H78.1716V180.88L77.9556 180.528C78.105 180.256 78.321 180.048 78.6036 179.904C78.8916 179.755 79.2223 179.68 79.5956 179.68ZM85.2802 184V183.136L85.2242 182.952V181.44C85.2242 181.147 85.1362 180.92 84.9602 180.76C84.7842 180.595 84.5175 180.512 84.1602 180.512C83.9202 180.512 83.6829 180.549 83.4482 180.624C83.2189 180.699 83.0242 180.803 82.8642 180.936L82.4722 180.208C82.7015 180.032 82.9735 179.901 83.2882 179.816C83.6082 179.725 83.9389 179.68 84.2802 179.68C84.8989 179.68 85.3762 179.829 85.7122 180.128C86.0535 180.421 86.2242 180.877 86.2242 181.496V184H85.2802ZM83.9362 184.056C83.6162 184.056 83.3362 184.003 83.0962 183.896C82.8562 183.784 82.6695 183.632 82.5362 183.44C82.4082 183.243 82.3442 183.021 82.3442 182.776C82.3442 182.536 82.4002 182.32 82.5122 182.128C82.6295 181.936 82.8189 181.784 83.0802 181.672C83.3415 181.56 83.6882 181.504 84.1202 181.504H85.3602V182.168H84.1922C83.8509 182.168 83.6215 182.224 83.5042 182.336C83.3869 182.443 83.3282 182.576 83.3282 182.736C83.3282 182.917 83.4002 183.061 83.5442 183.168C83.6882 183.275 83.8882 183.328 84.1442 183.328C84.3895 183.328 84.6082 183.272 84.8002 183.16C84.9975 183.048 85.1389 182.883 85.2242 182.664L85.3922 183.264C85.2962 183.515 85.1229 183.709 84.8722 183.848C84.6269 183.987 84.3149 184.056 83.9362 184.056ZM89.8756 184.056C89.5289 184.056 89.2116 183.976 88.9236 183.816C88.6409 183.656 88.4142 183.416 88.2436 183.096C88.0782 182.771 87.9956 182.36 87.9956 181.864C87.9956 181.363 88.0756 180.952 88.2356 180.632C88.4009 180.312 88.6249 180.075 88.9076 179.92C89.1902 179.76 89.5129 179.68 89.8756 179.68C90.2969 179.68 90.6676 179.771 90.9876 179.952C91.3129 180.133 91.5689 180.387 91.7556 180.712C91.9476 181.037 92.0436 181.421 92.0436 181.864C92.0436 182.307 91.9476 182.693 91.7556 183.024C91.5689 183.349 91.3129 183.603 90.9876 183.784C90.6676 183.965 90.2969 184.056 89.8756 184.056ZM87.5076 185.552V179.728H88.4596V180.736L88.4276 181.872L88.5076 183.008V185.552H87.5076ZM89.7636 183.2C90.0036 183.2 90.2169 183.147 90.4036 183.04C90.5956 182.933 90.7476 182.779 90.8596 182.576C90.9716 182.373 91.0276 182.136 91.0276 181.864C91.0276 181.587 90.9716 181.349 90.8596 181.152C90.7476 180.949 90.5956 180.795 90.4036 180.688C90.2169 180.581 90.0036 180.528 89.7636 180.528C89.5236 180.528 89.3076 180.581 89.1156 180.688C88.9236 180.795 88.7716 180.949 88.6596 181.152C88.5476 181.349 88.4916 181.587 88.4916 181.864C88.4916 182.136 88.5476 182.373 88.6596 182.576C88.7716 182.779 88.9236 182.933 89.1156 183.04C89.3076 183.147 89.5236 183.2 89.7636 183.2ZM95.3599 184.056C95.0133 184.056 94.6959 183.976 94.4079 183.816C94.1253 183.656 93.8986 183.416 93.7279 183.096C93.5626 182.771 93.4799 182.36 93.4799 181.864C93.4799 181.363 93.5599 180.952 93.7199 180.632C93.8853 180.312 94.1093 180.075 94.3919 179.92C94.6746 179.76 94.9973 179.68 95.3599 179.68C95.7813 179.68 96.1519 179.771 96.4719 179.952C96.7973 180.133 97.0533 180.387 97.2399 180.712C97.4319 181.037 97.5279 181.421 97.5279 181.864C97.5279 182.307 97.4319 182.693 97.2399 183.024C97.0533 183.349 96.7973 183.603 96.4719 183.784C96.1519 183.965 95.7813 184.056 95.3599 184.056ZM92.9919 185.552V179.728H93.9439V180.736L93.9119 181.872L93.9919 183.008V185.552H92.9919ZM95.2479 183.2C95.4879 183.2 95.7013 183.147 95.8879 183.04C96.0799 182.933 96.2319 182.779 96.3439 182.576C96.4559 182.373 96.5119 182.136 96.5119 181.864C96.5119 181.587 96.4559 181.349 96.3439 181.152C96.2319 180.949 96.0799 180.795 95.8879 180.688C95.7013 180.581 95.4879 180.528 95.2479 180.528C95.0079 180.528 94.7919 180.581 94.5999 180.688C94.4079 180.795 94.2559 180.949 94.1439 181.152C94.0319 181.349 93.9759 181.587 93.9759 181.864C93.9759 182.136 94.0319 182.373 94.1439 182.576C94.2559 182.779 94.4079 182.933 94.5999 183.04C94.7919 183.147 95.0079 183.2 95.2479 183.2ZM100.484 184.056C100.01 184.056 99.5936 183.963 99.2363 183.776C98.8843 183.584 98.6096 183.323 98.4123 182.992C98.2203 182.661 98.1243 182.285 98.1243 181.864C98.1243 181.437 98.2176 181.061 98.4043 180.736C98.5963 180.405 98.8576 180.147 99.1883 179.96C99.5243 179.773 99.9056 179.68 100.332 179.68C100.748 179.68 101.119 179.771 101.444 179.952C101.77 180.133 102.026 180.389 102.212 180.72C102.399 181.051 102.492 181.44 102.492 181.888C102.492 181.931 102.49 181.979 102.484 182.032C102.484 182.085 102.482 182.136 102.476 182.184H98.9163V181.52H101.948L101.556 181.728C101.562 181.483 101.511 181.267 101.404 181.08C101.298 180.893 101.151 180.747 100.964 180.64C100.783 180.533 100.572 180.48 100.332 180.48C100.087 180.48 99.871 180.533 99.6843 180.64C99.503 180.747 99.359 180.896 99.2523 181.088C99.151 181.275 99.1003 181.496 99.1003 181.752V181.912C99.1003 182.168 99.159 182.395 99.2763 182.592C99.3936 182.789 99.559 182.941 99.7723 183.048C99.9856 183.155 100.231 183.208 100.508 183.208C100.748 183.208 100.964 183.171 101.156 183.096C101.348 183.021 101.519 182.904 101.668 182.744L102.204 183.36C102.012 183.584 101.77 183.757 101.476 183.88C101.188 183.997 100.858 184.056 100.484 184.056ZM105.877 179.68C106.218 179.68 106.522 179.747 106.789 179.88C107.061 180.013 107.274 180.219 107.429 180.496C107.584 180.768 107.661 181.12 107.661 181.552V184H106.661V181.68C106.661 181.301 106.57 181.019 106.389 180.832C106.213 180.645 105.965 180.552 105.645 180.552C105.41 180.552 105.202 180.6 105.021 180.696C104.84 180.792 104.698 180.936 104.597 181.128C104.501 181.315 104.453 181.552 104.453 181.84V184H103.453V179.728H104.405V180.88L104.237 180.528C104.386 180.256 104.602 180.048 104.885 179.904C105.173 179.755 105.504 179.68 105.877 179.68ZM108.929 184V179.728H109.929V184H108.929ZM109.433 179.024C109.247 179.024 109.092 178.965 108.969 178.848C108.852 178.731 108.793 178.589 108.793 178.424C108.793 178.253 108.852 178.112 108.969 178C109.092 177.883 109.247 177.824 109.433 177.824C109.62 177.824 109.772 177.88 109.889 177.992C110.012 178.099 110.073 178.235 110.073 178.4C110.073 178.576 110.015 178.725 109.897 178.848C109.78 178.965 109.625 179.024 109.433 179.024ZM113.666 179.68C114.007 179.68 114.311 179.747 114.578 179.88C114.85 180.013 115.063 180.219 115.218 180.496C115.373 180.768 115.45 181.12 115.45 181.552V184H114.45V181.68C114.45 181.301 114.359 181.019 114.178 180.832C114.002 180.645 113.754 180.552 113.434 180.552C113.199 180.552 112.991 180.6 112.81 180.696C112.629 180.792 112.487 180.936 112.386 181.128C112.29 181.315 112.242 181.552 112.242 181.84V184H111.242V179.728H112.194V180.88L112.026 180.528C112.175 180.256 112.391 180.048 112.674 179.904C112.962 179.755 113.293 179.68 113.666 179.68ZM118.662 185.608C118.268 185.608 117.881 185.555 117.502 185.448C117.129 185.347 116.822 185.197 116.582 185L117.03 184.248C117.217 184.403 117.452 184.525 117.734 184.616C118.022 184.712 118.313 184.76 118.606 184.76C119.076 184.76 119.42 184.651 119.638 184.432C119.857 184.219 119.966 183.896 119.966 183.464V182.704L120.046 181.736L120.014 180.768V179.728H120.966V183.352C120.966 184.125 120.769 184.693 120.374 185.056C119.98 185.424 119.409 185.608 118.662 185.608ZM118.534 183.808C118.129 183.808 117.761 183.723 117.43 183.552C117.105 183.376 116.846 183.133 116.654 182.824C116.468 182.515 116.374 182.152 116.374 181.736C116.374 181.325 116.468 180.965 116.654 180.656C116.846 180.347 117.105 180.107 117.43 179.936C117.761 179.765 118.129 179.68 118.534 179.68C118.897 179.68 119.222 179.752 119.51 179.896C119.798 180.04 120.028 180.264 120.198 180.568C120.374 180.872 120.462 181.261 120.462 181.736C120.462 182.211 120.374 182.603 120.198 182.912C120.028 183.216 119.798 183.443 119.51 183.592C119.222 183.736 118.897 183.808 118.534 183.808ZM118.686 182.96C118.937 182.96 119.161 182.909 119.358 182.808C119.556 182.701 119.708 182.557 119.814 182.376C119.926 182.189 119.982 181.976 119.982 181.736C119.982 181.496 119.926 181.285 119.814 181.104C119.708 180.917 119.556 180.776 119.358 180.68C119.161 180.579 118.937 180.528 118.686 180.528C118.436 180.528 118.209 180.579 118.006 180.68C117.809 180.776 117.654 180.917 117.542 181.104C117.436 181.285 117.382 181.496 117.382 181.736C117.382 181.976 117.436 182.189 117.542 182.376C117.654 182.557 117.809 182.701 118.006 182.808C118.209 182.909 118.436 182.96 118.686 182.96ZM123.601 184.056C123.244 184.056 122.9 184.011 122.569 183.92C122.244 183.824 121.985 183.709 121.793 183.576L122.177 182.816C122.369 182.939 122.598 183.04 122.865 183.12C123.132 183.2 123.398 183.24 123.665 183.24C123.98 183.24 124.206 183.197 124.345 183.112C124.489 183.027 124.561 182.912 124.561 182.768C124.561 182.651 124.513 182.563 124.417 182.504C124.321 182.44 124.196 182.392 124.041 182.36C123.886 182.328 123.713 182.299 123.521 182.272C123.334 182.245 123.145 182.211 122.953 182.168C122.766 182.12 122.596 182.053 122.441 181.968C122.286 181.877 122.161 181.757 122.065 181.608C121.969 181.459 121.921 181.261 121.921 181.016C121.921 180.744 121.998 180.509 122.153 180.312C122.308 180.109 122.524 179.955 122.801 179.848C123.084 179.736 123.417 179.68 123.801 179.68C124.089 179.68 124.38 179.712 124.673 179.776C124.966 179.84 125.209 179.931 125.401 180.048L125.017 180.808C124.814 180.685 124.609 180.603 124.401 180.56C124.198 180.512 123.996 180.488 123.793 180.488C123.489 180.488 123.262 180.533 123.113 180.624C122.969 180.715 122.897 180.829 122.897 180.968C122.897 181.096 122.945 181.192 123.041 181.256C123.137 181.32 123.262 181.371 123.417 181.408C123.572 181.445 123.742 181.477 123.929 181.504C124.121 181.525 124.31 181.56 124.497 181.608C124.684 181.656 124.854 181.723 125.009 181.808C125.169 181.888 125.297 182.003 125.393 182.152C125.489 182.301 125.537 182.496 125.537 182.736C125.537 183.003 125.457 183.235 125.297 183.432C125.142 183.629 124.921 183.784 124.633 183.896C124.345 184.003 124.001 184.056 123.601 184.056Z" fill="#E8E3D2"/>
<g clip-path="url(#clip0_444_2938)">
<path d="M102.18 92.4835L100.865 94.5376L101.631 91.8636C100.013 90.187 97.7733 88.9604 97.7733 88.9604C97.7733 88.9604 95.0154 93.4621 95.7577 96.2312C96.5 99.0003 98.4166 99.5289 100.461 98.9882C102.506 98.4476 103.904 97.0425 103.162 94.2734C102.997 93.6571 102.638 93.052 102.18 92.4835Z" fill="#F2F2F2"/>
<path d="M100.439 94.7423L100.476 94.8788C100.893 96.4675 100.955 97.7767 100.66 98.7881C100.656 98.8029 100.651 98.8173 100.647 98.8321L100.578 98.8119L100.513 98.7917C100.847 97.6954 100.698 96.31 100.334 94.9242C100.323 94.8794 100.311 94.834 100.299 94.7889C100.139 94.2036 99.9445 93.6205 99.7324 93.0601C99.7164 93.0166 99.6995 92.9726 99.6826 92.9286C99.3987 92.1903 99.0885 91.4952 98.8011 90.896C98.781 90.8536 98.7602 90.8113 98.7396 90.7697C98.249 89.7576 97.8331 89.0405 97.7396 88.8822C97.7286 88.8626 97.7221 88.8521 97.7207 88.8495L97.7804 88.8142L97.7809 88.8133L97.8414 88.7778C97.8428 88.7804 97.8647 88.8158 97.9029 88.8824C98.0474 89.1307 98.4313 89.8071 98.8739 90.7162C98.8936 90.7572 98.9144 90.7995 98.9345 90.8419C99.1683 91.3279 99.4161 91.8746 99.6517 92.4548C99.7112 92.6004 99.768 92.7446 99.8223 92.8873C99.8399 92.9311 99.8568 92.9751 99.8728 93.0186C100.102 93.6244 100.291 94.199 100.439 94.7423Z" fill="white"/>
<path d="M98.8743 90.7159C98.8304 90.7341 98.7857 90.7524 98.7401 90.7695C98.6161 90.8162 98.4898 90.8567 98.3616 90.8906C97.8156 91.0357 97.2438 91.0573 96.6883 90.9538C96.6693 90.9972 96.6503 91.0406 96.6309 91.0848C97.2167 91.1991 97.8211 91.1788 98.3978 91.0257C98.5346 90.9895 98.6694 90.9461 98.8016 90.8958C98.8466 90.8788 98.8912 90.8605 98.935 90.8417C99.2969 90.6886 99.6333 90.4818 99.9327 90.2284C99.8935 90.199 99.8551 90.17 99.8176 90.1416C99.5334 90.3781 99.2155 90.5717 98.8743 90.7159Z" fill="white"/>
<path d="M99.8235 92.8871C99.7773 92.9022 99.7307 92.9159 99.6838 92.9284C99.6697 92.9328 99.6547 92.9368 99.6404 92.9406C99.0486 93.097 98.4275 93.1091 97.8299 92.9756C97.2324 92.8422 96.6763 92.5672 96.2089 92.1742C96.1923 92.2213 96.1758 92.2683 96.1602 92.3159C96.6434 92.7108 97.2144 92.9858 97.8259 93.1179C98.4374 93.2501 99.0719 93.2356 99.6766 93.0757C99.6957 93.0707 99.7147 93.0656 99.7336 93.0599C99.781 93.0466 99.8276 93.0329 99.874 93.0184C100.591 92.7894 101.225 92.3603 101.703 91.7823C101.67 91.7482 101.638 91.7141 101.605 91.6802C101.142 92.2461 100.523 92.6655 99.8235 92.8871Z" fill="white"/>
<path d="M100.44 94.742C100.393 94.7587 100.346 94.774 100.299 94.7886C100.249 94.8041 100.198 94.8189 100.147 94.8324C99.3516 95.0418 98.5092 94.9896 97.7461 94.6837C96.983 94.3778 96.3401 93.8346 95.9138 93.1355C95.8979 93.1983 95.8818 93.2605 95.8672 93.3229C96.3213 94.0128 96.9827 94.5431 97.7575 94.8383C98.5323 95.1335 99.3811 95.1788 100.183 94.9676C100.234 94.9541 100.285 94.9399 100.335 94.9239C100.383 94.9098 100.43 94.8945 100.476 94.8785C101.418 94.5494 102.199 93.8771 102.661 92.9978C102.633 92.9515 102.603 92.9065 102.574 92.8608C102.136 93.7396 101.37 94.4144 100.44 94.742Z" fill="white"/>
<path d="M95.4027 45.7057L94.0872 47.7598L94.8535 45.0857C93.2356 43.4091 90.9959 42.1826 90.9959 42.1826C90.9959 42.1826 88.2381 46.6842 88.9804 49.4533C89.7226 52.2224 91.6393 52.751 93.6839 52.2104C95.7285 51.6698 97.1268 50.2647 96.3846 47.4956C96.2193 46.8792 95.8605 46.2742 95.4027 45.7057Z" fill="#F2F2F2"/>
<path d="M93.6617 47.9645L93.6983 48.101C94.1154 49.6897 94.1778 50.9988 93.8828 52.0103C93.8788 52.0251 93.8739 52.0394 93.8698 52.0542L93.8011 52.0341L93.7352 52.0139C94.0693 50.9175 93.9202 49.5322 93.5567 48.1464C93.5454 48.1016 93.534 48.0561 93.5212 48.0111C93.3621 47.4258 93.1672 46.8427 92.955 46.2823C92.939 46.2388 92.9221 46.1947 92.9052 46.1507C92.6213 45.4125 92.3112 44.7173 92.0238 44.1182C92.0037 44.0758 91.9829 44.0335 91.9622 43.9919C91.4716 42.9798 91.0558 42.2627 90.9623 42.1043C90.9512 42.0848 90.9448 42.0742 90.9434 42.0717L91.0031 42.0364L91.0036 42.0355L91.064 42C91.0654 42.0025 91.0873 42.038 91.1256 42.1046C91.2701 42.3529 91.6539 43.0293 92.0965 43.9383C92.1163 43.9794 92.1371 44.0217 92.1572 44.0641C92.3909 44.5501 92.6387 45.0967 92.8744 45.677C92.9338 45.8226 92.9907 45.9668 93.045 46.1094C93.0625 46.1533 93.0794 46.1973 93.0955 46.2408C93.3249 46.8466 93.5136 47.4211 93.6617 47.9645Z" fill="white"/>
<path d="M92.097 43.9381C92.053 43.9562 92.0084 43.9745 91.9627 43.9917C91.8387 44.0384 91.7124 44.0788 91.5843 44.1127C91.0383 44.2579 90.4665 44.2795 89.9109 44.176C89.892 44.2194 89.873 44.2627 89.8535 44.307C90.4393 44.4212 91.0437 44.401 91.6205 44.2479C91.7573 44.2117 91.8921 44.1683 92.0243 44.118C92.0693 44.101 92.1139 44.0827 92.1577 44.0639C92.5196 43.9108 92.8559 43.704 93.1553 43.4506C93.1161 43.4211 93.0778 43.3922 93.0403 43.3638C92.756 43.6003 92.4382 43.7938 92.097 43.9381Z" fill="white"/>
<path d="M93.0442 46.1092C92.998 46.1244 92.9514 46.1381 92.9045 46.1505C92.8904 46.155 92.8754 46.1589 92.8611 46.1627C92.2693 46.3192 91.6482 46.3313 91.0506 46.1978C90.4531 46.0644 89.897 45.7894 89.4296 45.3964C89.413 45.4434 89.3965 45.4905 89.3809 45.538C89.8641 45.933 90.4351 46.208 91.0466 46.3401C91.6581 46.4722 92.2926 46.4577 92.8973 46.2979C92.9164 46.2928 92.9354 46.2878 92.9543 46.2821C93.0017 46.2688 93.0483 46.255 93.0947 46.2406C93.8112 46.0116 94.4462 45.5824 94.9236 45.0045C94.8911 44.9704 94.8587 44.9363 94.8255 44.9023C94.3627 45.4682 93.7436 45.8877 93.0442 46.1092Z" fill="white"/>
<path d="M93.6605 47.9642C93.6139 47.9808 93.567 47.9961 93.5199 48.0107C93.4695 48.0263 93.4188 48.0411 93.3678 48.0546C92.5723 48.264 91.7299 48.2118 90.9668 47.9059C90.2037 47.6 89.5608 47.0568 89.1345 46.3577C89.1186 46.4205 89.1025 46.4826 89.0879 46.5451C89.542 47.235 90.2034 47.7652 90.9782 48.0605C91.753 48.3557 92.6018 48.4009 93.404 48.1897C93.455 48.1763 93.5059 48.1621 93.5555 48.1461C93.6034 48.1319 93.6503 48.1167 93.6971 48.1007C94.639 47.7716 95.4198 47.0993 95.8813 46.2199C95.8536 46.1737 95.8241 46.1287 95.7944 46.083C95.3564 46.9618 94.591 47.6366 93.6605 47.9642Z" fill="white"/>
<path d="M59.2282 95.9313L56.7771 95.9423L59.4565 95.1372C60.0023 92.8792 59.8307 90.3447 59.8307 90.3447C59.8307 90.3447 54.5266 90.4735 52.5821 92.5904C50.6376 94.7074 51.2258 96.5947 52.7889 98.011C54.352 99.4272 56.2981 99.8362 58.2426 97.7192C58.6754 97.248 58.994 96.6211 59.2282 95.9313Z" fill="#F2F2F2"/>
<path d="M56.373 95.6978L56.2771 95.8021C55.1568 97.0094 54.0815 97.7692 53.0653 98.0694C53.0505 98.074 53.0358 98.0776 53.021 98.0823L53.0009 98.0139L52.9824 97.9479C54.0917 97.6345 55.1847 96.7611 56.1622 95.7084C56.194 95.6747 56.2263 95.6406 56.2576 95.6055C56.6674 95.1562 57.056 94.6782 57.4161 94.198C57.4443 94.1611 57.4724 94.1232 57.5006 94.0853C57.9725 93.4491 58.3937 92.8141 58.7459 92.2502C58.771 92.2104 58.7955 92.1702 58.8196 92.1305C59.4118 91.1735 59.7945 90.4384 59.8781 90.2747C59.8887 90.2549 59.8942 90.2438 59.8955 90.2412L59.9578 90.272L59.9588 90.272L60.0215 90.3033C60.0201 90.3058 60.0019 90.3433 59.9662 90.4112C59.8339 90.6662 59.4684 91.3526 58.9376 92.2137C58.9135 92.2524 58.8889 92.2927 58.8638 92.3324C58.5785 92.7904 58.2494 93.2929 57.8852 93.8035C57.794 93.9319 57.7026 94.0573 57.6111 94.1798C57.5834 94.2181 57.5553 94.256 57.5271 94.293C57.1379 94.8121 56.7532 95.2804 56.373 95.6978Z" fill="white"/>
<path d="M58.9372 92.2137C58.8981 92.1868 58.8585 92.1594 58.8193 92.1305C58.7126 92.0521 58.6101 91.9684 58.5121 91.8796C58.0941 91.5019 57.7667 91.0357 57.5541 90.5156C57.5071 90.5232 57.4601 90.5308 57.4121 90.5384C57.632 91.0897 57.9758 91.5838 58.4172 91.983C58.5219 92.0777 58.6314 92.1669 58.7455 92.2501C58.7842 92.2786 58.8239 92.306 58.8635 92.3324C59.1888 92.552 59.5458 92.7213 59.9222 92.8345C59.926 92.7858 59.9298 92.7382 59.9336 92.6915C59.5796 92.5818 59.2438 92.4208 58.9372 92.2137Z" fill="white"/>
<path d="M57.6113 94.1801C57.5735 94.1497 57.5367 94.1182 57.5008 94.0857C57.4894 94.0763 57.4779 94.0659 57.467 94.056C57.0146 93.6461 56.6686 93.1336 56.4587 92.5622C56.2488 91.9908 56.1811 91.3774 56.2614 90.7744C56.2126 90.786 56.1638 90.7977 56.1151 90.8103C56.0417 91.4276 56.1174 92.0533 56.336 92.6357C56.5546 93.2181 56.9098 93.7404 57.3721 94.1593C57.3867 94.1725 57.4013 94.1857 57.4163 94.1984C57.4532 94.2309 57.49 94.2624 57.5273 94.2933C58.1086 94.7683 58.8153 95.0668 59.563 95.1534C59.5743 95.1078 59.5857 95.0623 59.5965 95.0162C58.8669 94.9353 58.177 94.6447 57.6113 94.1801Z" fill="white"/>
<path d="M56.3735 95.6981C56.3343 95.6682 56.296 95.6372 56.2581 95.6058C56.2177 95.572 56.1778 95.5377 56.1387 95.5024C55.5314 94.9508 55.1203 94.2187 54.967 93.4157C54.8136 92.6127 54.9263 91.7819 55.2881 91.0479C55.2263 91.0685 55.1649 91.0886 55.1041 91.1102C54.7652 91.8625 54.6735 92.7018 54.8422 93.5088C55.0109 94.3158 55.4314 95.0495 56.0438 95.6057C56.0829 95.641 56.1223 95.6758 56.1627 95.7087C56.2006 95.7411 56.2389 95.772 56.2777 95.8024C57.0656 96.4116 58.0571 96.7006 59.0515 96.611C59.0757 96.5629 59.0979 96.5139 59.1205 96.4643C58.1394 96.5734 57.154 96.2985 56.3735 95.6981Z" fill="white"/>
<path d="M51.0901 97.8416L52.4984 97.8415L53.1684 92.4463L51.0898 92.4464L51.0901 97.8416Z" fill="#FFB6B6"/>
<path d="M50.7305 97.3844L53.504 97.3843H53.5041C53.9729 97.3843 54.4225 97.5693 54.7539 97.8985C55.0854 98.2277 55.2716 98.6742 55.2717 99.1397V99.1968L50.7306 99.1969L50.7305 97.3844Z" fill="#2F2E41"/>
<path d="M39.9475 97.8416L41.3559 97.8415L42.0258 92.4463L39.9473 92.4464L39.9475 97.8416Z" fill="#FFB6B6"/>
<path d="M39.5879 97.3849L42.3614 97.3848H42.3616C42.8303 97.3848 43.2799 97.5697 43.6113 97.899C43.9428 98.2282 44.129 98.6746 44.1291 99.1402V99.1973L39.588 99.1974L39.5879 97.3849Z" fill="#2F2E41"/>
<path d="M42.3349 75.6802L41.3857 76.5478L40.3159 87.0302L39.5957 95.3768L41.772 95.6683L47.0508 81.4069L50.9132 95.6006L53.5172 95.6683L51.7889 77.1406L42.3349 75.6802Z" fill="#2F2E41"/>
<path d="M46.9225 60.1802C48.4157 60.1802 49.6262 58.9779 49.6262 57.4949C49.6262 56.0118 48.4157 54.8096 46.9225 54.8096C45.4293 54.8096 44.2188 56.0118 44.2188 57.4949C44.2188 58.9779 45.4293 60.1802 46.9225 60.1802Z" fill="#FFB9B9"/>
<path d="M45.5385 56.2479C45.5385 56.2479 45.2161 56.9407 46.5055 56.6636C46.5055 56.6636 46.989 56.9407 46.989 56.525C46.989 56.525 47.6337 57.2178 47.7948 56.8021C47.956 56.3864 48.2784 56.9407 48.2784 56.9407L48.6007 56.2479L48.923 56.6636H50.0512C50.0512 56.6636 50.3736 53.8923 46.5055 54.1694C42.6374 54.4465 44.5403 58.8374 44.5403 58.8374C44.5403 58.8374 44.5714 58.0492 44.8938 58.4649C45.2161 58.8806 45.5385 56.2479 45.5385 56.2479Z" fill="#2F2E41"/>
<path d="M48.983 61.0564L45.1705 60.8193L41.773 61.7144L42.288 70.4097L41.3867 76.5475C41.3867 76.5475 46.3314 79.5496 51.9442 77.1869L51.4111 75.794C51.4111 75.794 51.3927 73.6622 50.9424 73.2449C50.4921 72.8276 50.5279 69.3867 50.5279 69.3867L52.2017 62.9932L48.983 61.0564Z" fill="#3F3D56"/>
<path d="M42.6801 61.9888L41.7725 61.7144C41.7725 61.7144 40.3591 61.7612 39.6241 63.3582C38.8892 64.9552 38.4297 67.237 38.4297 67.237L43.0975 67.4046L42.6801 61.9888Z" fill="#3F3D56"/>
<path d="M53.5154 77.2323L53.3643 67.8076L51.3477 68.1081L51.7931 77.0373C51.6097 77.1868 51.4748 77.3866 51.4051 77.6117C51.3354 77.8369 51.334 78.0775 51.4011 78.3035C51.4683 78.5294 51.6009 78.7307 51.7825 78.8822C51.9642 79.0338 52.1867 79.1288 52.4224 79.1555C52.658 79.1821 52.8964 79.1393 53.1077 79.0322C53.319 78.9252 53.4938 78.7587 53.6104 78.5535C53.727 78.3484 53.7802 78.1137 53.7633 77.8787C53.7464 77.6437 53.6602 77.4189 53.5154 77.2323Z" fill="#FFB9B9"/>
<path d="M51.0667 63.8143L52.2019 62.9932C52.2019 62.9932 54.3833 64.6875 54.3907 68.4153L51.3476 69.1484L49.627 66.6904L51.0667 63.8143Z" fill="#3F3D56"/>
<path d="M112.289 97.8362L113.698 97.8361L114.368 92.4409L112.289 92.441L112.289 97.8362Z" fill="#9E616A"/>
<path d="M111.932 97.3795L114.705 97.3794C115.174 97.3794 115.624 97.5644 115.955 97.8936C116.287 98.2228 116.473 98.6693 116.473 99.1348V99.1919L111.932 99.1921L111.932 97.3795Z" fill="#2F2E41"/>
<path d="M103.953 96.6464L105.296 97.0683L107.573 92.125L105.591 91.5024L103.953 96.6464Z" fill="#9E616A"/>
<path d="M103.75 96.1035L106.394 96.9343C106.841 97.0747 107.213 97.3857 107.43 97.7989C107.646 98.2121 107.688 98.6936 107.546 99.1375L107.529 99.1919L103.199 97.8317L103.75 96.1035Z" fill="#2F2E41"/>
<path d="M107.125 73.1958L106.344 75.385L106.322 87.2035L104.105 95.2951L106.826 96.0492L109.831 88.4195L110.795 81.718L112.066 88.4585L111.891 96.4701H114.745L114.961 84.1241C115.021 80.6569 114.41 77.2103 113.161 73.972L107.125 73.1958Z" fill="#2F2E41"/>
<path d="M106.195 64.3276H110.809L112.737 66.2424L113.312 74.1571L106.344 75.2708L104.105 67.7191L105.325 64.5096L106.195 64.3276Z" fill="#6C63FF"/>
<path d="M104.535 67.7948L97.431 65.1402L97.2461 64.0429L101.726 60.2778L103.217 61.3886L100.515 64.3278L105.324 64.5097L104.535 67.7948Z" fill="#6C63FF"/>
<path d="M102.588 61.818C103.223 61.818 103.737 61.3072 103.737 60.6771C103.737 60.0469 103.223 59.5361 102.588 59.5361C101.954 59.5361 101.439 60.0469 101.439 60.6771C101.439 61.3072 101.954 61.818 102.588 61.818Z" fill="#9E616A"/>
<path d="M105.252 62.1139L105.771 59.7892C105.957 58.9636 106.464 58.2449 107.183 57.7908C107.901 57.3368 108.772 57.1846 109.603 57.3677C110.434 57.5508 111.158 58.0542 111.616 58.7674C112.074 59.4805 112.228 60.345 112.045 61.1708L111.525 63.4956C111.501 63.6065 111.432 63.7031 111.336 63.7641C111.239 63.8252 111.122 63.8457 111.011 63.8212L105.58 62.6252C105.469 62.6004 105.371 62.5327 105.31 62.4369C105.248 62.341 105.228 62.2249 105.252 62.1139Z" fill="#2F2E41"/>
<path d="M108.172 63.0826C109.473 63.0826 110.527 62.0352 110.527 60.7432C110.527 59.4512 109.473 58.4038 108.172 58.4038C106.871 58.4038 105.816 59.4512 105.816 60.7432C105.816 62.0352 106.871 63.0826 108.172 63.0826Z" fill="#9E616A"/>
<path d="M104.987 59.812C105.134 59.1589 105.535 58.5901 106.103 58.2306C106.672 57.8711 107.36 57.7501 108.018 57.8943L108.486 57.9974C109.144 58.143 109.717 58.5418 110.079 59.1062C110.441 59.6706 110.563 60.3546 110.417 61.0081L110.407 61.0546L109.418 60.8367L109.29 59.8239L109.013 60.7475L108.501 60.6349L108.437 60.1239L108.297 60.5899L104.977 59.8585L104.987 59.812Z" fill="#2F2E41"/>
<path d="M107.367 63.293C107.334 63.2203 107.323 63.1399 107.334 63.0612C107.346 62.9825 107.38 62.9086 107.431 62.848C108.137 62.0201 109.218 60.4414 108.535 59.1704L108.485 59.0791L111.162 59.6686L110.271 63.6597L107.744 63.5503C107.719 63.5492 107.693 63.5459 107.668 63.5404C107.602 63.5258 107.54 63.4957 107.487 63.4527C107.435 63.4097 107.394 63.355 107.367 63.293Z" fill="#2F2E41"/>
<path d="M136.863 99.3308H24.1364C24.1002 99.3307 24.0655 99.3163 24.0399 99.2908C24.0144 99.2654 24 99.2309 24 99.1949C24 99.159 24.0144 99.1245 24.0399 99.099C24.0655 99.0735 24.1002 99.0592 24.1364 99.0591H136.863C136.899 99.0591 136.934 99.0734 136.96 99.0989C136.985 99.1243 137 99.1589 137 99.1949C137 99.231 136.985 99.2655 136.96 99.291C136.934 99.3165 136.899 99.3308 136.863 99.3308Z" fill="#CACACA"/>
<path d="M80.9728 65.6992H44.5212C44.2445 65.6992 43.9705 65.7533 43.7148 65.8585C43.4592 65.9637 43.2269 66.1178 43.0312 66.3122C42.8356 66.5065 42.6803 66.7372 42.5745 66.9911C42.4686 67.245 42.4141 67.5171 42.4141 67.792V76.4989C42.4141 76.7737 42.4686 77.0458 42.5745 77.2997C42.6803 77.5536 42.8356 77.7843 43.0312 77.9787C43.2269 78.173 43.4592 78.3271 43.7148 78.4323C43.9705 78.5375 44.2445 78.5916 44.5212 78.5916H45.0562V80.1647C45.0562 80.2601 45.0847 80.3534 45.1381 80.4328C45.1915 80.5122 45.2674 80.574 45.3562 80.6105C45.445 80.6471 45.5427 80.6566 45.6369 80.638C45.7312 80.6194 45.8178 80.5734 45.8857 80.5059L47.8132 78.5916H80.9728C81.2495 78.5916 81.5235 78.5375 81.7792 78.4323C82.0348 78.3271 82.2671 78.173 82.4628 77.9787C82.6584 77.7843 82.8136 77.5536 82.9195 77.2997C83.0254 77.0458 83.0799 76.7737 83.0799 76.4989V67.792C83.0799 67.5171 83.0254 67.245 82.9195 66.9911C82.8136 66.7372 82.6584 66.5065 82.4628 66.3122C82.2671 66.1178 82.0348 65.9637 81.7792 65.8585C81.5235 65.7533 81.2495 65.6992 80.9728 65.6992Z" fill="#E6E6E6"/>
<path d="M72.2066 77.5078H44.5217C44.2524 77.5075 43.9942 77.4011 43.8037 77.212C43.6133 77.0228 43.5062 76.7664 43.5059 76.4989V67.792C43.5062 67.5246 43.6133 67.2682 43.8037 67.079C43.9941 66.8899 44.2523 66.7835 44.5216 66.7832H80.9733C81.2426 66.7835 81.5008 66.8899 81.6912 67.079C81.8817 67.2682 81.9888 67.5246 81.9891 67.7921C81.9861 70.368 80.9546 72.8375 79.1206 74.6589C77.2867 76.4803 74.8002 77.5049 72.2066 77.5078Z" fill="white"/>
<path d="M70.4829 68.6655H55.0896C54.709 68.6655 54.4004 68.972 54.4004 69.3501V69.3501C54.4004 69.7281 54.709 70.0346 55.0896 70.0346H70.4829C70.8636 70.0346 71.1722 69.7281 71.1722 69.3501C71.1722 68.972 70.8636 68.6655 70.4829 68.6655Z" fill="#6C63FF"/>
<path d="M73.7574 71.4038H51.8162C51.4355 71.4038 51.127 71.7103 51.127 72.0884V72.0884C51.127 72.4664 51.4355 72.7729 51.8162 72.7729H73.7574C74.1381 72.7729 74.4466 72.4664 74.4466 72.0884C74.4466 71.7103 74.1381 71.4038 73.7574 71.4038Z" fill="#E6E6E6"/>
<path d="M73.7574 74.1421H51.8162C51.4355 74.1421 51.127 74.4486 51.127 74.8266V74.8266C51.127 75.2047 51.4355 75.5112 51.8162 75.5112H73.7574C74.1381 75.5112 74.4466 75.2047 74.4466 74.8266C74.4466 74.4486 74.1381 74.1421 73.7574 74.1421Z" fill="#E6E6E6"/>
<path d="M132.906 71.7617H106.545C106.345 71.7617 106.147 71.8009 105.962 71.8769C105.777 71.953 105.609 72.0644 105.468 72.205C105.326 72.3455 105.214 72.5123 105.137 72.696C105.061 72.8796 105.021 73.0764 105.021 73.2751V79.5716C105.021 79.7704 105.061 79.9672 105.137 80.1508C105.214 80.3344 105.326 80.5012 105.468 80.6418C105.609 80.7823 105.777 80.8938 105.962 80.9698C106.147 81.0459 106.345 81.085 106.545 81.085H106.932V82.2226C106.932 82.2916 106.953 82.3591 106.991 82.4165C107.03 82.4739 107.085 82.5186 107.149 82.5451C107.213 82.5715 107.284 82.5784 107.352 82.5649C107.42 82.5514 107.483 82.5182 107.532 82.4694L108.926 81.085H132.906C133.106 81.085 133.304 81.0459 133.489 80.9698C133.674 80.8938 133.842 80.7823 133.983 80.6418C134.125 80.5012 134.237 80.3344 134.314 80.1508C134.39 79.9672 134.43 79.7704 134.43 79.5716V73.2751C134.43 73.0764 134.39 72.8796 134.314 72.696C134.237 72.5123 134.125 72.3455 133.983 72.205C133.842 72.0644 133.674 71.953 133.489 71.8769C133.304 71.8009 133.106 71.7617 132.906 71.7617Z" fill="#E6E6E6"/>
<path d="M132.906 80.3171H106.545C106.346 80.3169 106.156 80.2383 106.015 80.0986C105.874 79.9588 105.795 79.7694 105.795 79.5717V73.2752C105.795 73.0775 105.874 72.8881 106.015 72.7483C106.156 72.6086 106.346 72.53 106.545 72.5298H126.566C128.446 72.5319 130.248 73.2745 131.577 74.5947C132.907 75.9148 133.654 77.7048 133.656 79.5717C133.656 79.7694 133.577 79.9588 133.436 80.0986C133.296 80.2383 133.105 80.3169 132.906 80.3171Z" fill="white"/>
<path d="M125.32 73.9067H114.188C113.913 73.9067 113.689 74.1284 113.689 74.4018C113.689 74.6752 113.913 74.8968 114.188 74.8968H125.32C125.595 74.8968 125.818 74.6752 125.818 74.4018C125.818 74.1284 125.595 73.9067 125.32 73.9067Z" fill="#6C63FF"/>
<path d="M127.688 75.8872H111.821C111.545 75.8872 111.322 76.1088 111.322 76.3823C111.322 76.6557 111.545 76.8773 111.821 76.8773H127.688C127.963 76.8773 128.186 76.6557 128.186 76.3823C128.186 76.1088 127.963 75.8872 127.688 75.8872Z" fill="#E6E6E6"/>
<path d="M127.688 77.8672H111.821C111.545 77.8672 111.322 78.0888 111.322 78.3622C111.322 78.6356 111.545 78.8573 111.821 78.8573H127.688C127.963 78.8573 128.186 78.6356 128.186 78.3622C128.186 78.0888 127.963 77.8672 127.688 77.8672Z" fill="#E6E6E6"/>
<path d="M76.6781 49.6279H103.039C103.239 49.6279 103.437 49.6671 103.622 49.7431C103.807 49.8192 103.975 49.9307 104.116 50.0712C104.258 50.2117 104.37 50.3786 104.446 50.5622C104.523 50.7458 104.562 50.9426 104.562 51.1413V57.4379C104.562 57.6366 104.523 57.8334 104.446 58.017C104.37 58.2006 104.258 58.3675 104.116 58.508C103.975 58.6485 103.807 58.76 103.622 58.836C103.437 58.9121 103.239 58.9512 103.039 58.9512H102.652V60.0888C102.652 60.1579 102.631 60.2253 102.592 60.2827C102.554 60.3401 102.499 60.3848 102.435 60.4113C102.371 60.4377 102.3 60.4446 102.232 60.4311C102.164 60.4177 102.101 60.3844 102.052 60.3356L100.658 58.9512H76.6781C76.478 58.9512 76.2798 58.9121 76.095 58.836C75.9101 58.76 75.7421 58.6485 75.6006 58.508C75.4591 58.3675 75.3469 58.2006 75.2703 58.017C75.1937 57.8334 75.1543 57.6366 75.1543 57.4379V51.1413C75.1543 50.9426 75.1937 50.7458 75.2703 50.5622C75.3469 50.3786 75.4591 50.2117 75.6006 50.0712C75.7421 49.9307 75.9101 49.8192 76.095 49.7431C76.2798 49.6671 76.478 49.6279 76.6781 49.6279Z" fill="#E6E6E6"/>
<path d="M103.039 58.1833H83.018C81.1382 58.1812 79.336 57.4386 78.0068 56.1184C76.6776 54.7983 75.9299 53.0084 75.9277 51.1414C75.928 50.9438 76.0071 50.7543 76.1478 50.6146C76.2885 50.4748 76.4793 50.3962 76.6782 50.396H103.039C103.238 50.3962 103.428 50.4748 103.569 50.6146C103.71 50.7543 103.789 50.9438 103.789 51.1414V57.4379C103.789 57.6355 103.71 57.825 103.569 57.9647C103.428 58.1045 103.238 58.1831 103.039 58.1833Z" fill="white"/>
<path d="M84.2642 52.7632H95.3961C95.6714 52.7632 95.8945 52.5415 95.8945 52.2681C95.8945 51.9947 95.6714 51.7731 95.3961 51.7731H84.2642C83.9889 51.7731 83.7658 51.9947 83.7658 52.2681C83.7658 52.5415 83.9889 52.7632 84.2642 52.7632Z" fill="#6C63FF"/>
<path d="M81.8962 54.7432H97.7633C98.0386 54.7432 98.2617 54.5215 98.2617 54.2481C98.2617 53.9747 98.0386 53.7531 97.7633 53.7531H81.8962C81.6209 53.7531 81.3978 53.9747 81.3978 54.2481C81.3978 54.5215 81.6209 54.7432 81.8962 54.7432Z" fill="#E6E6E6"/>
<path d="M81.8962 56.7236H97.7633C98.0386 56.7236 98.2617 56.502 98.2617 56.2286C98.2617 55.9552 98.0386 55.7335 97.7633 55.7335H81.8962C81.6209 55.7335 81.3978 55.9552 81.3978 56.2286C81.3978 56.502 81.6209 56.7236 81.8962 56.7236Z" fill="#E6E6E6"/>
<path d="M46.2994 65.5256C46.2994 65.2079 46.1724 64.9032 45.9462 64.6785C45.7199 64.4539 45.4131 64.3276 45.0932 64.3276C44.7733 64.3276 44.4665 64.4539 44.2403 64.6785C44.0141 64.9032 43.8871 65.2079 43.8871 65.5256C43.8871 65.5373 43.8885 65.5486 43.8888 65.5602L41.7733 67.6613L41.9342 67.294L39.5218 67.1799L39.1699 69.7096C39.139 69.9431 39.182 70.1804 39.2927 70.3886C39.4035 70.5969 39.5766 70.7659 39.7882 70.8723C39.9998 70.9786 40.2394 71.0171 40.474 70.9824C40.7085 70.9478 40.9265 70.8416 41.0977 70.6787L45.2677 66.7096C45.5542 66.6682 45.8161 66.5258 46.0055 66.3084C46.1949 66.091 46.2993 65.8131 46.2994 65.5256Z" fill="#FFB9B9"/>
<path d="M110.625 64.3755L118.14 65.4367L118.56 66.468L115.009 71.1085L113.31 70.3454L115.307 66.894L110.572 67.7524L110.625 64.3755Z" fill="#6C63FF"/>
<path d="M113.961 72.4283C114.596 72.4283 115.11 71.9175 115.11 71.2874C115.11 70.6573 114.596 70.1465 113.961 70.1465C113.327 70.1465 112.812 70.6573 112.812 71.2874C112.812 71.9175 113.327 72.4283 113.961 72.4283Z" fill="#9E616A"/>
</g>
<defs>
<linearGradient id="paint0_linear_444_2938" x1="11.475" y1="10.9091" x2="148.31" y2="190.366" gradientUnits="userSpaceOnUse">
<stop stop-color="#6B2BB7"/>
<stop offset="1" stop-color="#150B54"/>
</linearGradient>
<clipPath id="clip0_444_2938">
<rect width="113" height="57.3309" fill="white" transform="translate(24 42)"/>
</clipPath>
</defs>
</svg>
