<svg width="342" height="220" viewBox="0 0 342 220" fill="none" xmlns="http://www.w3.org/2000/svg">
<rect width="342" height="220" rx="16" fill="url(#paint0_linear_454_13285)"/>
<g clip-path="url(#clip0_454_13285)">
<path d="M171.001 181.694C217.427 181.694 255.064 174.332 255.064 165.251C255.064 156.17 217.427 148.809 171.001 148.809C124.574 148.809 86.9375 156.17 86.9375 165.251C86.9375 174.332 124.574 181.694 171.001 181.694Z" fill="#12375A"/>
<path d="M102.212 159.287C102.212 159.287 102.595 158.547 104.197 158.59C104.332 158.593 104.466 158.607 104.599 158.632C104.028 158.047 103.521 157.471 103.07 156.911C103.029 156.94 102.986 156.966 102.942 156.99C102.942 156.99 102.938 156.983 102.932 156.973C102.695 157.097 102.269 157.226 101.626 157.125C99.927 156.859 99.8093 156.068 99.8093 156.068C99.8093 156.068 100.346 155.43 101.9 155.823C102.06 155.862 102.216 155.918 102.365 155.988C102.001 155.486 101.682 155 101.402 154.538C101.346 154.565 101.287 154.588 101.227 154.608L101.22 154.589C100.966 154.668 100.536 154.715 99.9341 154.503C98.3443 153.942 98.3696 153.16 98.3696 153.16C98.3696 153.16 99.0014 152.641 100.428 153.297C100.571 153.363 100.707 153.442 100.834 153.534C100.568 153.023 100.351 152.549 100.177 152.121H100.164L100.158 152.102C99.901 152.164 99.469 152.19 98.879 151.944C97.3231 151.296 97.3911 150.515 97.3911 150.515C97.3911 150.515 98.0497 150.032 99.4389 150.766C99.5525 150.825 99.6613 150.893 99.7643 150.969C99.6853 150.703 99.6214 150.474 99.5764 150.285C99.4184 150.169 98.8703 149.715 98.6594 148.79C98.3001 147.217 98.954 146.693 98.954 146.693C98.954 146.693 99.7438 146.833 99.976 148.548C100.055 149.069 99.9788 149.601 99.7572 150.079C99.8474 150.486 99.9611 150.887 100.098 151.28L100.117 151.303C100.157 150.98 100.254 150.668 100.405 150.38C101.124 148.983 101.94 149.003 101.94 149.003C101.94 149.003 102.443 149.605 101.538 151.026C101.263 151.474 100.859 151.829 100.379 152.043C100.604 152.593 100.859 153.13 101.142 153.651C101.176 153.377 101.251 153.11 101.365 152.858C102.006 151.423 102.822 151.398 102.822 151.398C102.822 151.398 103.358 151.971 102.532 153.441C102.31 153.848 101.986 154.191 101.591 154.434C101.907 154.949 102.265 155.492 102.683 156.056C102.665 155.771 102.691 155.485 102.758 155.208C103.134 153.65 103.949 153.471 103.949 153.471C103.949 153.471 104.592 153.944 104.038 155.573C103.887 156.039 103.612 156.455 103.243 156.777C103.808 157.473 104.409 158.138 105.046 158.769L105.058 158.775C104.949 158.462 104.897 158.132 104.904 157.801C104.929 156.198 105.685 155.847 105.685 155.847C105.685 155.847 106.417 156.169 106.233 157.878C106.184 158.414 105.975 158.922 105.633 159.336C106.274 159.937 106.984 160.546 107.77 161.152C107.782 161.161 107.792 161.172 107.799 161.185C107.807 161.198 107.811 161.212 107.813 161.227C107.815 161.242 107.814 161.257 107.81 161.271C107.806 161.285 107.799 161.299 107.79 161.31C107.786 161.316 107.781 161.321 107.776 161.326C107.756 161.343 107.731 161.353 107.705 161.353C107.679 161.354 107.654 161.346 107.634 161.33C106.844 160.715 106.125 160.102 105.478 159.494L105.471 159.5L105.457 159.485C105.25 159.659 104.866 159.88 104.216 159.92C102.502 160.035 102.212 159.287 102.212 159.287Z" fill="#F1334F"/>
<path d="M103.379 162.496C103.379 162.496 103.3 161.667 104.668 160.833C104.783 160.762 104.903 160.701 105.028 160.649C104.231 160.468 103.494 160.259 102.81 160.035C102.791 160.081 102.769 160.126 102.745 160.169L102.727 160.16C102.593 160.397 102.309 160.733 101.713 160.998C100.142 161.696 99.611 161.097 99.611 161.097C99.611 161.097 99.7145 160.27 101.233 159.754C101.389 159.701 101.55 159.663 101.713 159.642C101.135 159.417 100.608 159.183 100.117 158.946C100.085 159.001 100.049 159.054 100.008 159.104L99.9925 159.092C99.8219 159.294 99.487 159.566 98.8655 159.717C97.2267 160.112 96.8223 159.438 96.8223 159.438C96.8223 159.438 97.0695 158.66 98.6246 158.436C98.7798 158.413 98.9369 158.405 99.0937 158.412C98.5922 158.127 98.1539 157.847 97.7748 157.582L97.7653 157.591L97.7511 157.579C97.5687 157.771 97.2196 158.027 96.5909 158.141C94.9324 158.442 94.5659 157.746 94.5659 157.746C94.5659 157.746 94.8558 156.982 96.4211 156.845C96.5487 156.833 96.6771 156.831 96.8049 156.839C96.5917 156.661 96.4156 156.501 96.2758 156.365C96.0791 156.355 95.3739 156.27 94.6963 155.608C93.5408 154.482 93.8054 153.686 93.8054 153.686C93.8054 153.686 94.547 153.371 95.6708 154.69C96.0191 155.085 96.244 155.573 96.3177 156.095C96.6132 156.387 96.9255 156.661 97.2527 156.918L97.2804 156.926C97.1394 156.634 97.0519 156.318 97.0221 155.995C96.8642 154.431 97.5639 154.005 97.5639 154.005C97.5639 154.005 98.3126 154.237 98.3245 155.922C98.3374 156.446 98.1918 156.962 97.9067 157.402C98.3943 157.741 98.9 158.054 99.4215 158.339C99.301 158.09 99.2187 157.823 99.1774 157.549C98.9405 155.997 99.6086 155.532 99.6086 155.532C99.6086 155.532 100.369 155.723 100.477 157.405C100.511 157.867 100.425 158.329 100.226 158.747C100.767 159.01 101.366 159.27 102.025 159.517C101.855 159.287 101.722 159.033 101.63 158.763C101.1 157.251 101.687 156.66 101.687 156.66C101.687 156.66 102.486 156.709 102.904 158.377C103.029 158.85 103.024 159.348 102.889 159.818C103.741 160.097 104.607 160.329 105.485 160.514H105.498C105.236 160.311 105.014 160.062 104.84 159.78C103.991 158.42 104.435 157.715 104.435 157.715C104.435 157.715 105.225 157.588 105.998 159.124C106.248 159.6 106.348 160.14 106.285 160.673C107.15 160.831 108.077 160.956 109.068 161.04C109.097 161.043 109.124 161.057 109.144 161.08C109.163 161.102 109.172 161.132 109.17 161.161C109.17 161.168 109.17 161.175 109.17 161.182C109.162 161.206 109.146 161.227 109.125 161.242C109.104 161.256 109.078 161.263 109.053 161.261C108.053 161.175 107.119 161.047 106.245 160.889V160.897L106.225 160.893C106.146 161.151 105.943 161.543 105.42 161.931C104.027 162.964 103.379 162.496 103.379 162.496Z" fill="#F1334F"/>
<path d="M248.393 92.3607V83.515L241.447 82.3809C241.231 81.7922 240.982 81.2158 240.702 80.6544L244.505 74.8588L238.25 68.6036L232.536 72.7145C231.966 72.4504 231.383 72.2181 230.788 72.0187L229.378 65.2344H220.533L219.399 72.1846C218.81 72.4014 218.233 72.6503 217.671 72.9302L211.877 69.1289L205.623 75.3833L209.73 81.0982C209.466 81.6677 209.234 82.2511 209.035 82.846L202.252 84.2527V93.0984L209.202 94.2325C209.418 94.8215 209.667 95.3981 209.947 95.9598L206.146 101.755L212.401 108.009L218.114 103.902C218.684 104.166 219.267 104.398 219.862 104.597L221.272 111.382H230.117L231.252 104.432C231.839 104.215 232.414 103.966 232.974 103.686L238.769 107.487L245.024 101.233L240.917 95.5183C241.181 94.949 241.413 94.3655 241.613 93.7705L248.393 92.3607ZM234.799 88.3067C234.799 90.1812 234.243 92.0136 233.202 93.5721C232.161 95.1307 230.68 96.3455 228.949 97.0628C227.217 97.7802 225.311 97.9678 223.473 97.6022C221.635 97.2365 219.946 96.3338 218.621 95.0083C217.295 93.6829 216.392 91.9941 216.027 90.1557C215.661 88.3172 215.849 86.4116 216.566 84.6798C217.283 82.948 218.498 81.4678 220.057 80.4264C221.615 79.385 223.448 78.8291 225.322 78.8291C227.835 78.8291 230.246 79.8277 232.023 81.6051C233.801 83.3824 234.799 85.7931 234.799 88.3067Z" fill="#12375A"/>
<path d="M119.214 102.796V97.1344L114.768 96.4086C114.631 96.0316 114.472 95.6624 114.294 95.3029L116.727 91.5908L112.724 87.5882L109.062 90.2229C108.698 90.0541 108.324 89.9054 107.944 89.7775L107.042 85.4336H101.382L100.656 89.8786C100.279 90.0164 99.9103 90.1746 99.5507 90.3524L95.8387 87.9199L91.8362 91.9234L94.4661 95.5801C94.2976 95.9445 94.1491 96.3178 94.0215 96.6985L89.6777 97.6012V103.267L94.1234 103.993C94.2607 104.37 94.4189 104.739 94.5972 105.099L92.1647 108.811L96.1673 112.814L99.8247 110.183C100.189 110.352 100.562 110.501 100.943 110.628L101.845 114.972H107.506L108.232 110.526C108.609 110.389 108.978 110.231 109.337 110.052L113.049 112.485L117.052 108.482L114.422 104.825C114.591 104.46 114.739 104.087 114.867 103.706L119.214 102.796ZM110.513 100.201C110.514 101.401 110.158 102.574 109.492 103.571C108.825 104.569 107.878 105.346 106.77 105.806C105.661 106.265 104.442 106.385 103.265 106.151C102.089 105.917 101.008 105.34 100.159 104.491C99.311 103.643 98.7333 102.562 98.4992 101.386C98.2651 100.209 98.3852 98.9894 98.8442 97.881C99.3033 96.7726 100.081 95.8252 101.078 95.1587C102.076 94.4921 103.248 94.1364 104.448 94.1364C105.245 94.1363 106.033 94.2931 106.769 94.5978C107.505 94.9025 108.174 95.3493 108.737 95.9124C109.3 96.4756 109.747 97.1442 110.052 97.8801C110.357 98.616 110.513 99.4047 110.513 100.201Z" fill="#F9B653"/>
<path d="M77.037 52.1117C76.2661 52.1119 75.5124 51.8834 74.8713 51.4552C74.2303 51.0269 73.7306 50.4182 73.4355 49.706C73.1404 48.9938 73.0632 48.21 73.2135 47.4539C73.3639 46.6977 73.7351 46.0031 74.2802 45.458C74.8254 44.9129 75.5199 44.5416 76.276 44.3913C77.0321 44.2409 77.8159 44.3181 78.5281 44.6132C79.2403 44.9084 79.849 45.408 80.2772 46.0491C80.7054 46.6902 80.9339 47.4439 80.9337 48.2148C80.9324 49.248 80.5215 50.2384 79.791 50.969C79.0605 51.6995 78.0701 52.1104 77.037 52.1117ZM77.037 46.2601C76.6503 46.2599 76.2724 46.3745 75.9508 46.5891C75.6293 46.8038 75.3786 47.1091 75.2305 47.4662C75.0825 47.8234 75.0436 48.2165 75.119 48.5957C75.1943 48.9749 75.3804 49.3233 75.6537 49.5968C75.9271 49.8702 76.2754 50.0565 76.6546 50.132C77.0338 50.2075 77.4268 50.1688 77.784 50.0209C78.1412 49.8729 78.4466 49.6224 78.6614 49.3009C78.8762 48.9795 78.9909 48.6015 78.9909 48.2148C78.9911 47.6962 78.7854 47.1987 78.4191 46.8316C78.0527 46.4644 77.5556 46.2578 77.037 46.2569V46.2601Z" fill="#12375A"/>
<path d="M168.033 60.0179C167.262 60.0176 166.508 59.7888 165.868 59.3603C165.227 58.9318 164.728 58.323 164.433 57.6108C164.138 56.8985 164.061 56.1149 164.212 55.3589C164.362 54.603 164.734 53.9086 165.279 53.3637C165.824 52.8188 166.518 52.4477 167.274 52.2974C168.03 52.1472 168.814 52.2244 169.526 52.5195C170.238 52.8145 170.847 53.3141 171.275 53.9551C171.703 54.596 171.932 55.3495 171.932 56.1203C171.93 57.1539 171.519 58.1448 170.788 58.8755C170.057 59.6063 169.066 60.0171 168.033 60.0179ZM168.033 54.1663C167.646 54.1662 167.268 54.2807 166.946 54.4955C166.625 54.7102 166.374 55.0155 166.226 55.3727C166.078 55.7299 166.039 56.123 166.115 56.5023C166.19 56.8815 166.376 57.2299 166.65 57.5033C166.923 57.7767 167.271 57.9629 167.651 58.0383C168.03 58.1137 168.423 58.0749 168.78 57.9269C169.137 57.7788 169.443 57.5282 169.657 57.2066C169.872 56.885 169.987 56.507 169.987 56.1203C169.986 55.602 169.78 55.105 169.414 54.7383C169.048 54.3717 168.551 54.1654 168.033 54.1648V54.1663Z" fill="#12375A"/>
<path d="M193.789 71.1768H191.899V69.4471C191.899 69.1636 191.525 68.9346 191.062 68.9346C190.6 68.9346 190.226 69.1636 190.226 69.4471V71.1768H188.336C188.035 71.1768 187.791 71.5512 187.791 72.0132C187.791 72.4752 188.035 72.8496 188.336 72.8496H190.226V74.5792C190.226 74.8628 190.6 75.0918 191.062 75.0918C191.525 75.0918 191.899 74.8628 191.899 74.5792V72.8496H193.789C194.09 72.8496 194.334 72.4752 194.334 72.0132C194.334 71.5512 194.09 71.1768 193.789 71.1768Z" fill="#F1334F"/>
<path d="M140.693 77.1037H139.509V76.0177C139.509 75.84 139.272 75.6963 138.983 75.6963C138.694 75.6963 138.458 75.84 138.458 76.0177V77.1037H137.274C137.085 77.1037 136.932 77.3406 136.932 77.6297C136.932 77.9196 137.085 78.1549 137.274 78.1549H138.458V79.2409C138.458 79.4186 138.695 79.5623 138.983 79.5623C139.273 79.5623 139.509 79.4186 139.509 79.2409V78.1549H140.693C140.882 78.1549 141.035 77.918 141.035 77.6297C141.035 77.3391 140.882 77.1037 140.693 77.1037Z" fill="#F9B653"/>
<path d="M194.582 177.926C194.739 178.237 194.8 178.587 194.758 178.932C194.716 179.278 194.572 179.603 194.346 179.867C194.119 180.131 193.819 180.322 193.484 180.415C193.149 180.509 192.793 180.501 192.463 180.393C192.132 180.285 191.841 180.081 191.626 179.807C191.411 179.534 191.282 179.202 191.255 178.855C191.228 178.508 191.305 178.161 191.475 177.858C191.646 177.555 191.902 177.308 192.212 177.151C192.419 177.046 192.644 176.983 192.875 176.965C193.106 176.947 193.338 176.975 193.558 177.047C193.778 177.119 193.982 177.234 194.157 177.385C194.333 177.536 194.477 177.72 194.582 177.926ZM193.799 178.321C193.72 178.165 193.597 178.036 193.445 177.95C193.293 177.864 193.119 177.825 192.944 177.838C192.77 177.851 192.604 177.916 192.466 178.023C192.329 178.131 192.226 178.277 192.172 178.443C192.117 178.609 192.113 178.788 192.16 178.956C192.207 179.125 192.303 179.275 192.436 179.389C192.569 179.503 192.732 179.574 192.905 179.595C193.079 179.616 193.255 179.585 193.411 179.506C193.618 179.4 193.775 179.216 193.847 178.995C193.92 178.774 193.903 178.533 193.799 178.325V178.321Z" fill="#F9B653"/>
<path d="M259.134 116.742C259.405 117.275 259.51 117.877 259.439 118.47C259.367 119.064 259.121 119.623 258.731 120.077C258.342 120.531 257.826 120.859 257.251 121.019C256.675 121.18 256.064 121.167 255.496 120.98C254.927 120.794 254.427 120.444 254.058 119.973C253.689 119.503 253.468 118.933 253.423 118.337C253.377 117.741 253.51 117.144 253.803 116.623C254.097 116.102 254.538 115.68 255.072 115.41C255.787 115.049 256.617 114.986 257.379 115.235C258.14 115.485 258.772 116.027 259.134 116.742ZM257.792 117.422C257.656 117.155 257.445 116.934 257.184 116.787C256.923 116.639 256.624 116.573 256.325 116.596C256.026 116.618 255.741 116.729 255.505 116.914C255.269 117.099 255.093 117.35 255 117.635C254.906 117.919 254.899 118.225 254.98 118.514C255.06 118.803 255.225 119.061 255.452 119.257C255.679 119.452 255.96 119.575 256.257 119.611C256.555 119.648 256.856 119.595 257.124 119.459C257.482 119.277 257.753 118.96 257.878 118.579C258.003 118.197 257.971 117.781 257.79 117.422H257.792Z" fill="#F9B653"/>
<path d="M202.142 173.406L201.083 173.942L201.573 174.911C201.652 175.069 201.509 175.306 201.25 175.436C200.991 175.567 200.716 175.545 200.636 175.386L200.145 174.417L199.087 174.953C198.919 175.038 198.675 174.898 198.544 174.637C198.413 174.378 198.444 174.099 198.612 174.014L199.671 173.478L199.18 172.509C199.101 172.351 199.245 172.114 199.504 171.984C199.763 171.854 200.038 171.876 200.117 172.035L200.608 173.003L201.667 172.468C201.835 172.382 202.078 172.523 202.21 172.784C202.337 173.042 202.31 173.321 202.142 173.406Z" fill="#12375A"/>
<path d="M280.853 135.771L279.794 136.307L280.284 137.276C280.363 137.434 280.22 137.671 279.961 137.8C279.702 137.931 279.427 137.909 279.347 137.751L278.856 136.781L277.798 137.318C277.629 137.403 277.387 137.262 277.255 137.002C277.124 136.743 277.154 136.464 277.323 136.379L278.382 135.842L277.891 134.873C277.812 134.715 277.956 134.478 278.214 134.349C278.473 134.218 278.748 134.241 278.829 134.399L279.319 135.368L280.378 134.832C280.546 134.746 280.789 134.888 280.92 135.148C281.051 135.406 281.021 135.685 280.853 135.771Z" fill="#12375A"/>
<path d="M257.953 57.4978C257.792 57.0259 257.775 56.5169 257.904 56.0353C258.033 55.5537 258.301 55.1211 258.676 54.7922C259.051 54.4634 259.514 54.253 260.009 54.1877C260.503 54.1224 261.005 54.2052 261.452 54.4255C261.9 54.6459 262.271 54.9939 262.521 55.4255C262.77 55.8572 262.886 56.3531 262.853 56.8505C262.821 57.348 262.642 57.8246 262.338 58.2202C262.035 58.6157 261.621 58.9124 261.149 59.0727C260.516 59.2866 259.824 59.241 259.225 58.9458C258.626 58.6506 258.168 58.1299 257.953 57.4978ZM259.142 57.0934C259.222 57.3302 259.371 57.5377 259.569 57.6899C259.768 57.8421 260.007 57.932 260.256 57.9483C260.505 57.9646 260.754 57.9066 260.971 57.7816C261.187 57.6566 261.362 57.4702 261.472 57.246C261.583 57.0218 261.624 56.7698 261.591 56.522C261.559 56.2742 261.453 56.0416 261.288 55.8538C261.123 55.6659 260.907 55.5312 260.665 55.4666C260.424 55.402 260.168 55.4105 259.932 55.491C259.615 55.5988 259.353 55.8282 259.205 56.1287C259.057 56.4292 259.034 56.7762 259.142 57.0934Z" fill="#F1334F"/>
<path d="M78.5069 156.548C78.3022 155.945 78.2808 155.295 78.4454 154.681C78.6099 154.066 78.9531 153.514 79.4314 153.094C79.9098 152.674 80.5018 152.406 81.1327 152.323C81.7636 152.239 82.405 152.345 82.9758 152.626C83.5466 152.908 84.0212 153.352 84.3395 153.903C84.6578 154.454 84.8056 155.087 84.7641 155.722C84.7227 156.357 84.4939 156.966 84.1066 157.471C83.7193 157.976 83.191 158.354 82.5885 158.559C81.7804 158.833 80.897 158.774 80.1318 158.397C79.3667 158.02 78.7823 157.355 78.5069 156.548ZM80.0257 156.032C80.1284 156.334 80.3184 156.599 80.5716 156.793C80.8249 156.987 81.13 157.102 81.4485 157.123C81.7669 157.143 82.0843 157.069 82.3606 156.909C82.6369 156.75 82.8596 156.512 83.0007 156.226C83.1417 155.939 83.1947 155.618 83.1529 155.301C83.1111 154.985 82.9765 154.688 82.766 154.448C82.5555 154.208 82.2787 154.036 81.9704 153.954C81.6621 153.871 81.3363 153.882 81.0342 153.985C80.6292 154.123 80.2956 154.416 80.1065 154.8C79.9174 155.183 79.8883 155.627 80.0257 156.032Z" fill="#F1334F"/>
<path d="M250.549 60.6673L251.672 60.2851L251.323 59.2583C251.266 59.0901 251.443 58.8784 251.718 58.7845C251.993 58.6905 252.262 58.7513 252.319 58.9195L252.669 59.9462L253.792 59.5648C253.971 59.504 254.192 59.6777 254.285 59.9526C254.378 60.2266 254.309 60.4991 254.127 60.5599L253.003 60.9414L253.353 61.9681C253.41 62.1364 253.234 62.3488 252.958 62.442C252.683 62.5352 252.414 62.4744 252.357 62.3062L252.008 61.2794L250.884 61.6609C250.706 61.7217 250.485 61.548 250.391 61.2739C250.301 60.9998 250.37 60.7281 250.549 60.6673Z" fill="#12375A"/>
<path d="M76.55 116.285L77.6738 115.904L77.3247 114.877C77.2671 114.709 77.444 114.496 77.7196 114.403C77.9937 114.31 78.263 114.371 78.3199 114.539L78.6697 115.566L79.7936 115.184C79.9721 115.123 80.1924 115.296 80.2856 115.571C80.3796 115.846 80.3101 116.118 80.1276 116.179L79.007 116.559L79.356 117.586C79.4129 117.754 79.2368 117.966 78.9611 118.06C78.6863 118.154 78.4178 118.093 78.3601 117.925L78.0111 116.898L76.8872 117.28C76.7087 117.34 76.4876 117.167 76.3944 116.892C76.302 116.618 76.3715 116.346 76.55 116.285Z" fill="#12375A"/>
<path d="M154.028 50.7397H153.041C152.964 50.1147 152.745 49.5156 152.401 48.9883C152.057 48.461 151.596 48.0197 151.055 47.6981C150.513 47.3765 149.906 47.1833 149.278 47.1332C148.65 47.0831 148.019 47.1775 147.434 47.4092C146.334 46.0066 144.744 45.0723 142.983 44.794C141.223 44.5156 139.422 44.9138 137.943 45.9085C137.394 44.512 136.415 43.3267 135.147 42.5248C133.879 41.7229 132.388 41.3462 130.891 41.4493C129.394 41.5524 127.969 42.13 126.823 43.0982C125.677 44.0664 124.869 45.3748 124.517 46.8334C123.824 46.5302 123.069 46.3947 122.313 46.4381C121.558 46.4815 120.823 46.7024 120.169 47.083C119.515 47.4636 118.96 47.993 118.549 48.6284C118.138 49.2638 117.883 49.9871 117.804 50.7397H115.869C115.824 50.7397 115.781 50.7576 115.749 50.7895C115.717 50.8213 115.699 50.8645 115.699 50.9095C115.699 50.9546 115.717 50.9978 115.749 51.0296C115.781 51.0615 115.824 51.0793 115.869 51.0793H154.028C154.073 51.0793 154.117 51.0615 154.148 51.0296C154.18 50.9978 154.198 50.9546 154.198 50.9095C154.198 50.8645 154.18 50.8213 154.148 50.7895C154.117 50.7576 154.073 50.7397 154.028 50.7397Z" fill="#F87256"/>
<path d="M155.582 50.7393H154.849C154.804 50.7393 154.761 50.7571 154.729 50.789C154.698 50.8208 154.68 50.864 154.68 50.9091C154.68 50.9541 154.698 50.9973 154.729 51.0291C154.761 51.061 154.804 51.0789 154.849 51.0789H155.582C155.627 51.0789 155.67 51.061 155.702 51.0291C155.734 50.9973 155.751 50.9541 155.751 50.9091C155.751 50.864 155.734 50.8208 155.702 50.789C155.67 50.7571 155.627 50.7393 155.582 50.7393Z" fill="#F2334F"/>
<path d="M114.919 50.7393H113.369C113.324 50.7393 113.281 50.7571 113.249 50.789C113.217 50.8208 113.199 50.864 113.199 50.9091C113.199 50.9541 113.217 50.9973 113.249 51.0291C113.281 51.061 113.324 51.0789 113.369 51.0789H114.919C114.964 51.0789 115.008 51.061 115.039 51.0291C115.071 50.9973 115.089 50.9541 115.089 50.9091C115.089 50.864 115.071 50.8208 115.039 50.789C115.008 50.7571 114.964 50.7393 114.919 50.7393Z" fill="#F2334F"/>
<path d="M248.395 94.4832C252.507 94.4832 255.841 91.1494 255.841 87.037C255.841 82.9246 252.507 79.5908 248.395 79.5908C244.283 79.5908 240.949 82.9246 240.949 87.037C240.949 91.1494 244.283 94.4832 248.395 94.4832Z" fill="#F87256"/>
<path d="M242.549 86.9686L246.377 84.9941V85.5636L243.151 87.1803V87.1969L246.377 88.8144V89.3894L242.549 87.4149V86.9686Z" fill="white"/>
<path d="M246.912 89.7155L249.214 83.7344H249.775L247.465 89.7155H246.912Z" fill="white"/>
<path d="M254.122 87.4225L250.295 89.3899V88.8212L253.545 87.2037V87.1871L250.295 85.5704V85.001L254.122 86.9644V87.4225Z" fill="white"/>
<path d="M75.0288 93.4518C77.6621 90.8184 77.6621 86.5488 75.0288 83.9154C72.3955 81.282 68.126 81.282 65.4927 83.9154C62.8593 86.5488 62.8593 90.8184 65.4927 93.4518C68.126 96.0852 72.3955 96.0852 75.0288 93.4518Z" fill="#F1334F"/>
<path d="M68.5361 90.7213C68.3268 90.8303 67.864 90.9756 67.2724 90.9756C65.9464 90.9756 65.084 90.0769 65.084 88.7326C65.084 87.3884 66.0104 86.3996 67.4446 86.3996C67.8251 86.3955 68.2021 86.4728 68.5503 86.6262L68.3686 87.2439C68.1775 87.1349 67.8782 87.0353 67.4422 87.0353C66.4345 87.0353 65.8896 87.7793 65.8896 88.6939C65.8896 89.7112 66.5435 90.3375 67.4154 90.3375C67.7543 90.3392 68.0892 90.2647 68.3955 90.1195L68.5361 90.7213Z" fill="white"/>
<path d="M69.3611 90.0684C69.6778 90.2659 70.0416 90.375 70.4147 90.3844C70.996 90.3844 71.2684 90.0937 71.2684 89.7304C71.2684 89.3489 71.041 89.1404 70.451 88.9225C69.6612 88.6405 69.2885 88.2053 69.2885 87.6785C69.2885 86.9677 69.8611 86.3888 70.8048 86.3888C71.1824 86.3849 71.5546 86.4788 71.8852 86.6613L71.6854 87.2426C71.4153 87.0759 71.1041 86.9878 70.7867 86.9882C70.3128 86.9882 70.0514 87.2607 70.0514 87.5877C70.0514 87.951 70.3152 88.1145 70.887 88.3325C71.6491 88.6223 72.04 89.0038 72.04 89.6578C72.04 90.4294 71.4406 90.9743 70.3965 90.9743C69.9662 90.982 69.5411 90.8789 69.1621 90.675L69.3611 90.0684Z" fill="white"/>
<path d="M72.9596 90.0684C73.2759 90.266 73.6395 90.3751 74.0123 90.3844C74.5936 90.3844 74.8661 90.0937 74.8661 89.7304C74.8661 89.3489 74.6386 89.1404 74.0487 88.9225C73.2589 88.6405 72.8869 88.2053 72.8869 87.6785C72.8869 86.9677 73.4587 86.3888 74.4025 86.3888C74.7801 86.3849 75.1523 86.4788 75.4829 86.6613L75.2839 87.2426C75.0134 87.076 74.702 86.9879 74.3843 86.9882C73.9105 86.9882 73.649 87.2607 73.649 87.5877C73.649 87.951 73.9128 88.1145 74.4846 88.3325C75.2475 88.6223 75.6377 89.0038 75.6377 89.6578C75.6377 90.4294 75.0383 90.9743 73.9942 90.9743C73.5639 90.9819 73.1388 90.8788 72.7598 90.675L72.9596 90.0684Z" fill="white"/>
<path d="M87.5085 79.0773C92.5054 79.0773 96.5562 75.0264 96.5562 70.0294C96.5562 65.0323 92.5054 60.9814 87.5085 60.9814C82.5117 60.9814 78.4609 65.0323 78.4609 70.0294C78.4609 75.0264 82.5117 79.0773 87.5085 79.0773Z" fill="#F9B653"/>
<path d="M81.5045 68.1123V69.6129H82.9569V68.1123H83.8359V72.0131H82.9569V70.3806H81.5045V72.0131H80.6191V68.1123H81.5045Z" fill="white"/>
<path d="M85.3597 68.8551H84.3125V68.1143H87.3136V68.8551H86.2451V72.0143H85.3597V68.8551Z" fill="white"/>
<path d="M91.0549 70.5196C91.0375 70.0513 91.0201 69.4834 91.0201 68.9171H91.0028C90.8811 69.4147 90.7192 69.9699 90.5692 70.4272L90.0953 71.9491H89.4066L88.9904 70.4383C88.8633 69.9818 88.7298 69.4257 88.6374 68.9171H88.6255C88.6026 69.4431 88.5853 70.0449 88.556 70.5315L88.4858 72.0131H87.6699L87.9187 68.1131H89.0939L89.4753 69.4147C89.597 69.8657 89.7186 70.3514 89.8055 70.8087H89.8228C89.9326 70.3577 90.0653 69.8427 90.1932 69.4084L90.6094 68.1123H91.7609L91.975 72.0131H91.1125L91.0549 70.5196Z" fill="white"/>
<path d="M92.6504 68.1123H93.5357V71.2715H95.0868V72.0131H92.6504V68.1123Z" fill="white"/>
<path d="M276.318 114.075C280.003 110.39 280.003 104.416 276.318 100.731C272.633 97.0464 266.659 97.0464 262.975 100.731C259.29 104.416 259.29 110.39 262.975 114.075C266.659 117.76 272.633 117.76 276.318 114.075Z" fill="#12375A"/>
<path d="M263.938 105.245C264.394 105.176 264.856 105.144 265.318 105.151C265.95 105.151 266.396 105.272 266.698 105.513C266.852 105.64 266.975 105.799 267.059 105.98C267.142 106.161 267.184 106.359 267.18 106.558C267.18 107 267.033 107.375 266.765 107.631C266.417 107.958 265.901 108.104 265.297 108.104C265.181 108.105 265.065 108.099 264.949 108.084V109.699H263.938V105.245ZM264.949 107.299C265.062 107.32 265.177 107.329 265.291 107.326C265.834 107.326 266.169 107.052 266.169 106.589C266.169 106.174 265.88 105.926 265.372 105.926C265.23 105.922 265.088 105.936 264.949 105.966V107.299Z" fill="white"/>
<path d="M268.857 105.186V106.923H270.538V105.186H271.556V109.701H270.538V107.812H268.857V109.701H267.83V105.186H268.857Z" fill="white"/>
<path d="M272.445 105.245C272.902 105.176 273.363 105.144 273.825 105.151C274.457 105.151 274.904 105.272 275.206 105.513C275.359 105.64 275.483 105.799 275.566 105.98C275.649 106.161 275.691 106.359 275.687 106.558C275.687 107 275.54 107.375 275.272 107.63C274.924 107.958 274.408 108.104 273.805 108.104C273.689 108.105 273.573 108.099 273.457 108.084V109.699H272.445V105.245ZM273.457 107.299C273.569 107.32 273.684 107.329 273.798 107.326C274.341 107.326 274.676 107.052 274.676 106.589C274.676 106.174 274.388 105.926 273.879 105.926C273.737 105.922 273.595 105.936 273.457 105.966V107.299Z" fill="white"/>
<path d="M223.399 52.5126C226.855 52.5126 229.656 49.7113 229.656 46.2558C229.656 42.8003 226.855 39.999 223.399 39.999C219.944 39.999 217.143 42.8003 217.143 46.2558C217.143 49.7113 219.944 52.5126 223.399 52.5126Z" fill="#F9B653"/>
<path d="M221.348 44.4756H222.164V46.766C222.164 47.7967 221.67 48.156 220.876 48.156C220.674 48.1557 220.473 48.1267 220.279 48.07L220.371 47.4097C220.506 47.4534 220.647 47.4753 220.789 47.4744C221.133 47.4744 221.348 47.3165 221.348 46.7549V44.4756Z" fill="white"/>
<path d="M222.873 47.2514C223.154 47.3944 223.464 47.4717 223.78 47.4773C224.156 47.4773 224.354 47.3193 224.354 47.0824C224.354 46.8573 224.183 46.7286 223.748 46.573C223.147 46.3629 222.754 46.0304 222.754 45.5044C222.754 44.8868 223.27 44.4145 224.124 44.4145C224.441 44.4083 224.756 44.4706 225.047 44.5969L224.864 45.2572C224.628 45.143 224.369 45.0841 224.107 45.085C223.753 45.085 223.581 45.243 223.581 45.4341C223.581 45.6655 223.785 45.7674 224.252 45.9443C224.891 46.1813 225.192 46.5138 225.192 47.024C225.192 47.6305 224.725 48.1463 223.732 48.1463C223.318 48.1463 222.91 48.0381 222.705 47.9259L222.873 47.2514Z" fill="white"/>
<path d="M248.185 130.185H228.027V129.862H247.862V93.2568H248.185V130.185Z" fill="#12375A"/>
<path d="M248.027 94.031C247.76 94.031 247.499 93.9518 247.277 93.8036C247.055 93.6554 246.883 93.4447 246.78 93.1982C246.678 92.9517 246.652 92.6805 246.704 92.4188C246.756 92.1571 246.884 91.9168 247.073 91.7281C247.261 91.5395 247.502 91.411 247.764 91.3589C248.025 91.3069 248.296 91.3336 248.543 91.4357C248.789 91.5378 249 91.7107 249.148 91.9325C249.296 92.1544 249.376 92.4152 249.376 92.682C249.375 93.0396 249.233 93.3825 248.98 93.6354C248.727 93.8883 248.384 94.0305 248.027 94.031ZM248.027 91.9775C247.888 91.9775 247.752 92.0186 247.637 92.0957C247.522 92.1727 247.432 92.2823 247.379 92.4104C247.326 92.5386 247.312 92.6796 247.339 92.8156C247.366 92.9517 247.433 93.0767 247.531 93.1747C247.629 93.2728 247.754 93.3396 247.89 93.3667C248.026 93.3937 248.167 93.3799 248.295 93.3268C248.423 93.2737 248.533 93.1838 248.61 93.0685C248.687 92.9531 248.728 92.8175 248.728 92.6788C248.727 92.4934 248.653 92.316 248.521 92.1852C248.39 92.0544 248.212 91.9808 248.027 91.9806V91.9775Z" fill="#12375A"/>
<path d="M269.816 148.568H228.027V148.244H269.493V114.931H269.816V148.568Z" fill="#12375A"/>
<path d="M104.457 131.122H70.1094V94.3828H70.4332V130.798H104.457V131.122Z" fill="#12375A"/>
<path d="M70.2688 95.0583C70.0021 95.0583 69.7413 94.9792 69.5194 94.831C69.2976 94.6827 69.1247 94.472 69.0226 94.2256C68.9205 93.9791 68.8938 93.7078 68.9458 93.4462C68.9979 93.1845 69.1264 92.9441 69.315 92.7555C69.5037 92.5668 69.744 92.4383 70.0057 92.3863C70.2674 92.3342 70.5386 92.3609 70.7851 92.463C71.0315 92.5651 71.2422 92.738 71.3904 92.9599C71.5387 93.1817 71.6178 93.4425 71.6178 93.7093C71.6174 94.067 71.4751 94.4098 71.2222 94.6627C70.9693 94.9156 70.6265 95.0579 70.2688 95.0583ZM70.2688 93.0048C70.1301 93.0048 69.9945 93.046 69.8792 93.123C69.7639 93.2001 69.674 93.3096 69.6209 93.4378C69.5678 93.5659 69.5539 93.7069 69.581 93.843C69.6081 93.979 69.6749 94.104 69.7729 94.2021C69.871 94.3002 69.996 94.367 70.132 94.394C70.2681 94.4211 70.4091 94.4072 70.5372 94.3541C70.6654 94.301 70.7749 94.2111 70.852 94.0958C70.929 93.9805 70.9702 93.8449 70.9702 93.7062C70.9689 93.5208 70.8945 93.3435 70.7632 93.2127C70.6318 93.082 70.4542 93.0084 70.2688 93.008V93.0048Z" fill="#12375A"/>
<path d="M62.3528 112.337C62.086 112.337 61.8252 112.257 61.6033 112.109C61.3815 111.961 61.2086 111.75 61.1065 111.504C61.0044 111.257 60.9778 110.986 61.0299 110.724C61.082 110.462 61.2105 110.222 61.3993 110.033C61.588 109.845 61.8284 109.716 62.0902 109.664C62.3519 109.613 62.6231 109.639 62.8696 109.742C63.1161 109.844 63.3267 110.017 63.4748 110.239C63.6229 110.461 63.7019 110.722 63.7018 110.988C63.7013 111.346 63.5591 111.689 63.3062 111.942C63.0533 112.194 62.7104 112.336 62.3528 112.337ZM62.3528 110.287C62.2141 110.287 62.0785 110.328 61.9632 110.405C61.8479 110.482 61.758 110.592 61.7049 110.72C61.6518 110.848 61.6379 110.989 61.665 111.125C61.6921 111.261 61.7588 111.386 61.8569 111.484C61.955 111.582 62.08 111.649 62.216 111.676C62.3521 111.703 62.4931 111.689 62.6212 111.636C62.7494 111.583 62.8589 111.493 62.936 111.378C63.013 111.263 63.0542 111.127 63.0542 110.988C63.0539 110.802 62.98 110.624 62.8485 110.493C62.717 110.361 62.5388 110.287 62.3528 110.287Z" fill="#12375A"/>
<path d="M67.5099 164.967C67.243 164.968 66.9822 164.889 66.7602 164.741C66.5383 164.592 66.3653 164.382 66.2631 164.135C66.1608 163.889 66.134 163.618 66.186 163.356C66.2379 163.094 66.3664 162.854 66.555 162.665C66.7436 162.476 66.9839 162.348 67.2456 162.296C67.5073 162.243 67.7786 162.27 68.0251 162.372C68.2716 162.474 68.4824 162.647 68.6306 162.869C68.7789 163.091 68.858 163.352 68.858 163.619C68.8576 163.976 68.7155 164.319 68.4627 164.572C68.21 164.824 67.8674 164.967 67.5099 164.967ZM67.5099 162.914C67.3711 162.914 67.2355 162.955 67.12 163.032C67.0046 163.109 66.9146 163.218 66.8614 163.346C66.8082 163.475 66.7942 163.616 66.8211 163.752C66.8481 163.888 66.9149 164.013 67.0129 164.111C67.1109 164.209 67.2359 164.276 67.372 164.303C67.508 164.33 67.6491 164.316 67.7773 164.263C67.9055 164.21 68.0151 164.12 68.0922 164.005C68.1692 163.89 68.2104 163.754 68.2104 163.615C68.2087 163.431 68.1342 163.254 68.0031 163.124C67.872 162.993 67.6947 162.92 67.5099 162.92V162.914Z" fill="#12375A"/>
<path d="M87.511 77.6286C87.2443 77.6286 86.9836 77.5495 86.7618 77.4014C86.54 77.2532 86.3671 77.0426 86.2649 76.7962C86.1628 76.5498 86.136 76.2787 86.1879 76.017C86.2398 75.7554 86.3682 75.5151 86.5566 75.3263C86.7451 75.1376 86.9853 75.009 87.2469 74.9568C87.5085 74.9045 87.7796 74.931 88.0262 75.0329C88.2727 75.1348 88.4834 75.3074 88.6319 75.529C88.7803 75.7507 88.8597 76.0113 88.86 76.2781C88.86 76.636 88.7179 76.9793 88.465 77.2325C88.212 77.4857 87.8689 77.6282 87.511 77.6286ZM87.511 75.5751C87.3726 75.5759 87.2374 75.6177 87.1227 75.6951C87.0079 75.7726 86.9186 75.8823 86.8661 76.0104C86.8136 76.1386 86.8001 76.2794 86.8275 76.4151C86.8549 76.5509 86.9218 76.6755 87.0199 76.7732C87.118 76.871 87.2428 76.9375 87.3786 76.9644C87.5145 76.9913 87.6552 76.9775 87.7832 76.9245C87.9111 76.8715 88.0205 76.7819 88.0976 76.6669C88.1747 76.5518 88.216 76.4165 88.2163 76.2781C88.216 76.1858 88.1975 76.0945 88.1619 76.0094C88.1263 75.9242 88.0742 75.847 88.0087 75.782C87.9432 75.717 87.8655 75.6656 87.7801 75.6306C87.6948 75.5957 87.6033 75.5779 87.511 75.5783V75.5751Z" fill="#12375A"/>
<path d="M104.451 116.938H87.3477V77.3047H87.6715V116.614H104.451V116.938Z" fill="#12375A"/>
<path d="M67.6734 162.658H67.3496V143.599H104.455V143.922H67.6734V162.658Z" fill="#12375A"/>
<path d="M68.8583 143.923H62.1895V111.96H62.5133V143.599H68.8583V143.923Z" fill="#12375A"/>
<path d="M227.676 89.332H106.344V157.862H227.676V89.332Z" fill="#343B3B"/>
<path d="M226.348 85.0166H107.714C106.849 85.0166 106.02 85.3602 105.408 85.9717C104.797 86.5833 104.453 87.4128 104.453 88.2777V160.843C104.453 161.66 104.76 162.447 105.313 163.049C105.865 163.65 106.624 164.023 107.438 164.092C107.529 164.099 107.621 164.104 107.714 164.104H130.923L131.482 165.251H201.18L201.739 164.104H226.348C227.212 164.104 228.041 163.76 228.653 163.148C229.264 162.537 229.608 161.708 229.609 160.843V88.2777C229.609 87.4128 229.265 86.5833 228.654 85.9717C228.042 85.3602 227.213 85.0166 226.348 85.0166ZM167.031 85.8854C167.27 85.8854 167.504 85.9563 167.703 86.0891C167.901 86.2219 168.056 86.4107 168.148 86.6315C168.239 86.8524 168.263 87.0954 168.216 87.3298C168.17 87.5642 168.055 87.7795 167.886 87.9485C167.716 88.1175 167.501 88.2325 167.267 88.279C167.032 88.3256 166.789 88.3015 166.568 88.2099C166.348 88.1184 166.159 87.9634 166.026 87.7645C165.894 87.5657 165.823 87.332 165.823 87.093C165.824 86.7732 165.952 86.4668 166.178 86.2411C166.405 86.0153 166.712 85.8885 167.031 85.8885V85.8854ZM227.124 157.548H106.893V89.6416H227.124V157.548Z" fill="#10202B"/>
<path d="M167.031 88.3055C167.27 88.3055 167.503 88.2346 167.702 88.1018C167.901 87.969 168.056 87.7803 168.147 87.5595C168.238 87.3387 168.262 87.0957 168.216 86.8613C168.169 86.6269 168.054 86.4116 167.885 86.2426C167.716 86.0736 167.501 85.9585 167.266 85.9119C167.032 85.8653 166.789 85.8892 166.568 85.9807C166.347 86.0721 166.159 86.227 166.026 86.4257C165.893 86.6244 165.822 86.8581 165.822 87.0971C165.822 87.4175 165.95 87.7249 166.176 87.9515C166.403 88.1781 166.71 88.3055 167.031 88.3055ZM167.031 86.6121C167.127 86.6121 167.221 86.6406 167.301 86.694C167.38 86.7474 167.443 86.8234 167.479 86.9122C167.516 87.001 167.526 87.0987 167.507 87.1929C167.488 87.2871 167.442 87.3737 167.374 87.4416C167.306 87.5095 167.219 87.5557 167.125 87.5743C167.031 87.593 166.933 87.5833 166.844 87.5464C166.755 87.5095 166.68 87.4471 166.626 87.3671C166.573 87.2871 166.545 87.1932 166.545 87.0971C166.545 87.0333 166.557 86.9702 166.582 86.9113C166.606 86.8524 166.642 86.7989 166.687 86.7539C166.732 86.7088 166.786 86.6731 166.845 86.6488C166.904 86.6245 166.967 86.612 167.031 86.6121Z" fill="#343B3B"/>
<path d="M167.029 87.5828C167.125 87.5828 167.219 87.5543 167.299 87.5009C167.378 87.4475 167.441 87.3717 167.477 87.2829C167.514 87.1942 167.524 87.0965 167.505 87.0023C167.486 86.9081 167.44 86.8215 167.372 86.7536C167.304 86.6857 167.218 86.6394 167.123 86.6207C167.029 86.6019 166.932 86.6115 166.843 86.6483C166.754 86.6851 166.678 86.7473 166.625 86.8272C166.571 86.9071 166.543 87.001 166.543 87.0971C166.543 87.1609 166.555 87.2241 166.58 87.2831C166.604 87.342 166.64 87.3956 166.685 87.4407C166.73 87.4859 166.784 87.5216 166.843 87.546C166.902 87.5704 166.965 87.5829 167.029 87.5828Z" fill="#231F20"/>
<path d="M106.891 89.6436V99.8643V157.552H227.122V99.8643V89.6436H106.891Z" fill="#293949"/>
<path d="M226.001 91.001H108.006V156.193H226.001V91.001Z" fill="#E8E3D2"/>
<path d="M226.001 91.001H108.006V96.0501H226.001V91.001Z" fill="#0E2B44"/>
<path d="M110.338 94.37C110.923 94.3376 111.371 93.8372 111.339 93.2523C111.306 92.6674 110.806 92.2195 110.221 92.2519C109.636 92.2843 109.188 92.7847 109.221 93.3696C109.253 93.9545 109.754 94.4024 110.338 94.37Z" fill="#F1334F"/>
<path d="M113.165 94.37C113.75 94.3376 114.197 93.8372 114.165 93.2523C114.133 92.6674 113.632 92.2195 113.047 92.2519C112.462 92.2843 112.015 92.7847 112.047 93.3696C112.079 93.9545 112.58 94.4024 113.165 94.37Z" fill="white"/>
<path d="M116.981 93.4228C117.039 92.8399 116.613 92.3205 116.03 92.2629C115.447 92.2052 114.928 92.631 114.87 93.214C114.812 93.7969 115.238 94.3163 115.821 94.374C116.404 94.4316 116.923 94.0058 116.981 93.4228Z" fill="white"/>
<path d="M235.969 160.182H97.1198C96.3924 160.182 96.1152 160.925 96.398 161.595C97.1159 163.296 100.894 166.412 105.108 166.412H227.982C232.195 166.412 235.973 163.298 236.691 161.595C236.974 160.925 236.697 160.182 235.969 160.182Z" fill="#10202B"/>
<path d="M235.862 160.182H97.0124C96.285 160.182 96.0078 160.925 96.2906 161.595C96.3256 161.676 96.3649 161.755 96.4082 161.832H155.538L156.368 162.662H178.305L178.803 161.832H236.466C236.51 161.755 236.549 161.676 236.584 161.595C236.866 160.925 236.589 160.182 235.862 160.182Z" fill="#283848"/>
<path d="M155.71 100.2H113.236V101.292H155.71V100.2Z" fill="#85A5CA"/>
<path d="M137.481 104.219H113.236V105.311H137.481V104.219Z" fill="#F87256"/>
<path d="M195.383 104.22H140.678V105.312H195.383V104.22Z" fill="#F9B653"/>
<path d="M137.481 147.047H113.236V148.139H137.481V147.047Z" fill="#F9B653"/>
<path d="M153.556 147.047H140.277V148.139H153.556V147.047Z" fill="#F9B653"/>
<path d="M129.446 150.771H113.236V151.864H129.446V150.771Z" fill="#F87256"/>
<path d="M212.787 150.771H132.172V151.864H212.787V150.771Z" fill="#85A5CA"/>
<path d="M160.61 108.236H113.236V109.329H160.61V108.236Z" fill="#F87256"/>
<path d="M156.298 111.961H113.236V113.053H156.298V111.961Z" fill="#85A5CA"/>
<path d="M202.86 111.961H159.799V113.053H202.86V111.961Z" fill="#F87256"/>
<path d="M150.222 115.686H113.236V116.778H150.222V115.686Z" fill="#F87256"/>
<path d="M212.791 115.686H168.24V116.778H212.791V115.686Z" fill="#F9B653"/>
<path d="M170.999 108.236H164.002V109.329H170.999V108.236Z" fill="#F87256"/>
<path d="M205.971 104.22H198.975V105.312H205.971V104.22Z" fill="#F9B653"/>
<path d="M159.801 115.686H152.805V116.778H159.801V115.686Z" fill="#F87256"/>
<path d="M165.085 115.686H161.91V116.778H165.085V115.686Z" fill="#F87256"/>
<path d="M114.329 120.062H113.236V143.762H114.329V120.062Z" fill="#85A5CA"/>
<path d="M244.732 174.728C255.077 174.728 263.464 172.341 263.464 169.397C263.464 166.452 255.077 164.065 244.732 164.065C234.386 164.065 226 166.452 226 169.397C226 172.341 234.386 174.728 244.732 174.728Z" fill="#E1CDBD"/>
<path d="M249.221 169.439C249.221 169.439 252.32 171.767 257.321 170.877C262.321 169.987 257.422 167.153 254.086 166.557C250.751 165.961 249.221 169.439 249.221 169.439Z" fill="#192E35"/>
<path d="M241.969 168.868C241.969 168.868 242.466 168.062 244.043 167.851C244.578 167.78 245.539 167.686 246.297 167.741L249.515 167.713L251.609 167.958L252.012 168.868L250.907 169.927C250.907 169.927 247.928 171.269 246.92 171.055C245.911 170.841 243.366 170.431 243.341 170.359C243.317 170.288 241.969 168.868 241.969 168.868Z" fill="#192E35"/>
<path d="M254.594 158.872C254.594 158.872 262.807 157.903 264.308 161.041C266.459 165.534 251.618 169.994 251.618 169.994C251.618 169.994 249.351 167.807 246.277 167.807L241.98 159.885L245.713 159.124L254.594 158.872Z" fill="#837126"/>
<path d="M244.271 159.53C244.271 159.53 251.884 163.445 257.291 162.64L252.272 165.103L243.854 161.729L244.271 159.53Z" fill="#3B4626"/>
<path d="M247.196 155.581L229.906 156.83L229.281 163.842C229.281 163.842 236.037 163.061 240.338 160.944C246.22 160.253 244.739 160.33 247.199 159.664L247.196 155.581Z" fill="#F9B653"/>
<path d="M229.811 157.866C229.811 157.866 231.528 159.536 241.965 159.189C241.965 159.189 239.381 157.543 239.258 157.543H231.624L229.811 157.866Z" fill="#192E35"/>
<path d="M247.156 139.8C247.156 139.8 240.281 137.904 235.479 138.893C233.532 139.295 231.917 140.289 231.252 141.894C228.947 147.466 227.038 156.821 228.587 157.467C230.747 158.367 233.413 159.125 241.722 159.184L251.953 153.276C251.953 153.276 252.385 147.466 250.512 142.368C249.892 140.682 248.362 140.118 247.156 139.8Z" fill="#F9B653"/>
<path d="M264.529 162.034C264.529 161.985 264.435 161.373 264.435 161.373C264.514 161.697 263.736 163.224 261.871 164.723C259.461 166.657 253.321 168.993 251.229 169.624C251.894 170.06 251.616 169.995 251.616 169.995C251.616 169.995 264.587 166.591 264.529 162.034Z" fill="#3B4626"/>
<path d="M243.065 156.35C243.065 156.35 237.393 154.639 232.475 154.262C232.475 154.262 235.231 147.921 235.861 143.624C235.861 143.624 235.861 146.388 232.72 154.092C232.72 154.092 239.571 154.783 243.738 156.494L243.065 156.35Z" fill="#192E35"/>
<path d="M245.733 139.837H245.723C245.705 139.835 245.688 139.825 245.677 139.81C245.665 139.795 245.66 139.777 245.663 139.758C245.676 139.667 245.686 139.573 245.695 139.479C245.696 139.469 245.698 139.46 245.703 139.451C245.707 139.443 245.713 139.436 245.721 139.43C245.728 139.424 245.737 139.419 245.746 139.417C245.755 139.414 245.765 139.413 245.774 139.415C245.783 139.416 245.793 139.418 245.801 139.423C245.81 139.427 245.817 139.433 245.823 139.441C245.829 139.448 245.834 139.456 245.836 139.466C245.839 139.475 245.84 139.484 245.839 139.494C245.829 139.591 245.818 139.686 245.805 139.78C245.802 139.796 245.793 139.811 245.779 139.822C245.766 139.832 245.75 139.838 245.733 139.837Z" fill="#E59F42"/>
<path d="M242.016 143.024C241.858 143.024 241.7 143.016 241.542 143.003C241.532 143.002 241.523 143 241.515 142.995C241.506 142.991 241.499 142.985 241.493 142.977C241.487 142.97 241.482 142.961 241.479 142.952C241.477 142.943 241.476 142.934 241.477 142.924C241.479 142.905 241.489 142.888 241.503 142.876C241.518 142.864 241.537 142.858 241.556 142.859C241.75 142.876 241.944 142.882 242.138 142.877C242.157 142.877 242.175 142.885 242.188 142.898C242.202 142.912 242.209 142.93 242.209 142.949C242.209 142.967 242.202 142.985 242.188 142.999C242.175 143.012 242.157 143.02 242.138 143.02L242.016 143.024ZM242.726 142.978C242.708 142.979 242.689 142.973 242.675 142.96C242.661 142.948 242.652 142.93 242.651 142.911C242.649 142.893 242.656 142.874 242.668 142.86C242.681 142.846 242.698 142.837 242.717 142.836C242.909 142.81 243.098 142.772 243.285 142.72C243.294 142.717 243.304 142.716 243.313 142.716C243.323 142.717 243.333 142.72 243.341 142.724C243.35 142.729 243.358 142.735 243.364 142.742C243.37 142.75 243.375 142.759 243.377 142.768C243.38 142.778 243.38 142.788 243.379 142.797C243.378 142.807 243.374 142.816 243.369 142.824C243.364 142.833 243.357 142.84 243.349 142.846C243.341 142.851 243.332 142.855 243.323 142.857C243.13 142.91 242.934 142.951 242.736 142.977L242.726 142.978ZM240.965 142.923C240.961 142.924 240.956 142.924 240.952 142.923C240.756 142.886 240.563 142.838 240.372 142.78C240.363 142.777 240.354 142.773 240.346 142.767C240.338 142.762 240.332 142.754 240.327 142.746C240.322 142.737 240.319 142.728 240.318 142.718C240.317 142.709 240.318 142.699 240.321 142.69C240.323 142.681 240.328 142.672 240.334 142.665C240.341 142.657 240.348 142.651 240.357 142.647C240.366 142.642 240.375 142.64 240.385 142.639C240.394 142.639 240.404 142.64 240.413 142.644C240.599 142.7 240.788 142.747 240.979 142.784C240.996 142.788 241.011 142.798 241.021 142.812C241.031 142.826 241.036 142.843 241.035 142.861C241.033 142.878 241.025 142.894 241.012 142.906C240.999 142.918 240.983 142.925 240.965 142.925V142.923ZM243.857 142.656C243.843 142.656 243.83 142.652 243.818 142.644C243.807 142.637 243.798 142.627 243.792 142.614C243.788 142.606 243.786 142.597 243.785 142.588C243.785 142.578 243.786 142.569 243.789 142.56C243.792 142.552 243.797 142.544 243.803 142.537C243.81 142.53 243.817 142.524 243.826 142.52C244 142.439 244.166 142.341 244.323 142.229C244.33 142.223 244.339 142.219 244.348 142.216C244.357 142.214 244.367 142.213 244.376 142.215C244.386 142.216 244.395 142.219 244.403 142.224C244.411 142.229 244.419 142.236 244.424 142.243C244.43 142.251 244.434 142.26 244.436 142.269C244.438 142.279 244.438 142.288 244.436 142.298C244.435 142.307 244.431 142.316 244.426 142.324C244.42 142.332 244.413 142.339 244.405 142.344C244.242 142.462 244.069 142.564 243.887 142.649C243.876 142.654 243.865 142.656 243.853 142.656H243.857ZM239.839 142.577C239.829 142.577 239.82 142.575 239.811 142.571C239.628 142.492 239.449 142.404 239.276 142.306C239.268 142.301 239.26 142.295 239.255 142.288C239.249 142.28 239.244 142.272 239.242 142.263C239.239 142.254 239.239 142.244 239.24 142.235C239.241 142.226 239.244 142.217 239.248 142.209C239.258 142.192 239.273 142.18 239.291 142.175C239.31 142.17 239.329 142.173 239.345 142.182C239.514 142.277 239.688 142.363 239.867 142.44C239.884 142.447 239.898 142.461 239.905 142.479C239.912 142.496 239.912 142.516 239.905 142.533C239.899 142.547 239.89 142.559 239.877 142.567C239.865 142.575 239.851 142.579 239.836 142.578L239.839 142.577ZM238.812 141.998C238.797 141.997 238.783 141.993 238.77 141.984C238.609 141.868 238.454 141.742 238.306 141.608C238.298 141.602 238.291 141.595 238.287 141.586C238.282 141.578 238.279 141.568 238.278 141.558C238.277 141.548 238.278 141.538 238.281 141.529C238.284 141.52 238.289 141.511 238.296 141.503C238.302 141.496 238.31 141.49 238.319 141.486C238.328 141.482 238.338 141.48 238.348 141.48C238.358 141.48 238.368 141.482 238.377 141.486C238.386 141.49 238.394 141.496 238.401 141.503C238.545 141.633 238.696 141.755 238.853 141.869C238.866 141.878 238.875 141.89 238.879 141.904C238.884 141.919 238.884 141.934 238.88 141.948C238.875 141.962 238.866 141.975 238.854 141.984C238.842 141.993 238.827 141.998 238.812 141.998ZM244.804 141.966C244.79 141.966 244.776 141.962 244.764 141.955C244.753 141.947 244.744 141.936 244.738 141.924C244.733 141.911 244.731 141.897 244.733 141.883C244.736 141.869 244.742 141.857 244.752 141.847C244.882 141.706 244.999 141.552 245.101 141.389C245.111 141.374 245.127 141.363 245.146 141.359C245.164 141.354 245.183 141.358 245.199 141.367C245.207 141.372 245.214 141.379 245.22 141.386C245.225 141.394 245.229 141.402 245.231 141.412C245.233 141.421 245.234 141.43 245.232 141.439C245.231 141.449 245.227 141.457 245.222 141.465C245.115 141.636 244.993 141.796 244.856 141.943C244.849 141.951 244.841 141.957 244.831 141.961C244.822 141.966 244.812 141.968 244.802 141.968L244.804 141.966ZM237.94 141.206C237.93 141.206 237.92 141.204 237.91 141.2C237.901 141.196 237.893 141.19 237.887 141.182C237.755 141.032 237.633 140.873 237.521 140.708C237.515 140.7 237.511 140.691 237.508 140.682C237.506 140.672 237.505 140.662 237.507 140.653C237.508 140.643 237.512 140.634 237.517 140.626C237.522 140.617 237.529 140.61 237.537 140.605C237.545 140.599 237.554 140.596 237.564 140.594C237.574 140.592 237.584 140.592 237.593 140.595C237.603 140.597 237.612 140.601 237.62 140.607C237.627 140.613 237.634 140.62 237.639 140.629C237.747 140.79 237.866 140.943 237.993 141.089C238.003 141.1 238.009 141.112 238.011 141.126C238.013 141.139 238.011 141.153 238.005 141.166C238 141.179 237.99 141.189 237.979 141.196C237.967 141.204 237.953 141.207 237.94 141.207V141.206ZM245.431 140.974C245.422 140.974 245.412 140.972 245.404 140.969C245.395 140.965 245.387 140.96 245.381 140.953C245.374 140.947 245.369 140.939 245.366 140.93C245.362 140.922 245.36 140.912 245.36 140.903C245.36 140.894 245.362 140.885 245.366 140.876C245.44 140.696 245.501 140.512 245.55 140.323C245.552 140.314 245.556 140.306 245.562 140.298C245.567 140.291 245.574 140.285 245.582 140.28C245.59 140.275 245.599 140.272 245.608 140.271C245.618 140.27 245.627 140.27 245.636 140.273C245.645 140.275 245.654 140.279 245.661 140.285C245.669 140.29 245.675 140.297 245.68 140.305C245.684 140.314 245.688 140.322 245.689 140.332C245.69 140.341 245.69 140.351 245.687 140.36C245.637 140.553 245.573 140.743 245.497 140.927C245.492 140.942 245.483 140.954 245.471 140.962C245.459 140.971 245.445 140.976 245.43 140.976L245.431 140.974ZM237.284 140.229C237.271 140.229 237.258 140.226 237.246 140.219C237.235 140.212 237.226 140.202 237.22 140.19C237.132 140.01 237.057 139.823 236.997 139.631C236.995 139.623 236.994 139.613 236.994 139.604C236.995 139.595 236.998 139.586 237.002 139.577C237.007 139.569 237.013 139.562 237.02 139.556C237.027 139.55 237.035 139.546 237.044 139.543C237.062 139.538 237.081 139.54 237.098 139.548C237.115 139.557 237.127 139.572 237.133 139.59C237.19 139.774 237.262 139.953 237.347 140.127C237.351 140.135 237.354 140.144 237.355 140.154C237.355 140.163 237.354 140.172 237.351 140.181C237.348 140.19 237.343 140.198 237.337 140.205C237.331 140.212 237.323 140.218 237.315 140.222C237.305 140.228 237.294 140.231 237.283 140.231L237.284 140.229Z" fill="#E59F42"/>
<path d="M236.94 139.101C236.922 139.101 236.906 139.094 236.893 139.083C236.88 139.071 236.871 139.056 236.869 139.038C236.858 138.94 236.851 138.843 236.85 138.748C236.849 138.738 236.851 138.729 236.854 138.721C236.858 138.712 236.863 138.704 236.869 138.697C236.876 138.691 236.884 138.685 236.892 138.682C236.901 138.678 236.91 138.676 236.919 138.676C236.929 138.675 236.938 138.677 236.947 138.68C236.955 138.684 236.964 138.689 236.97 138.695C236.977 138.702 236.983 138.709 236.986 138.718C236.99 138.727 236.992 138.736 236.992 138.745C236.992 138.835 237 138.929 237.011 139.022C237.012 139.031 237.011 139.04 237.009 139.049C237.006 139.058 237.002 139.067 236.996 139.074C236.99 139.082 236.983 139.088 236.975 139.092C236.967 139.097 236.958 139.1 236.948 139.101H236.94Z" fill="#E59F42"/>
<path d="M242.06 142.369C244.527 142.369 245.172 140.643 245.172 138.957C245.172 138.99 245.172 138.924 245.172 138.957C243.83 138.698 241.272 138.368 237.609 138.633C237.609 140.319 239.593 142.369 242.06 142.369Z" fill="#FCCBB1"/>
<path d="M240.622 135.667C240.622 135.667 239.292 137.347 237.941 138.984C237.941 138.984 239.858 140.847 239.929 140.847C240 140.847 242.699 138.959 242.699 138.959L241.233 135.505L240.622 135.667Z" fill="#FCCBB1"/>
<path d="M239.572 137.009L244.858 140.118C244.858 140.118 243.602 141.883 242.058 141.481C240.578 141.094 239.572 137.009 239.572 137.009Z" fill="#EBAA89"/>
<path d="M239.572 137.008C239.572 137.008 240.567 139.858 242.209 141.013C243.739 142.088 249.913 136.718 249.46 134.966C249.008 133.214 246.818 130.106 244.382 131.237C241.946 132.367 239.685 135.208 239.572 137.008Z" fill="#FCCBB1"/>
<path d="M241.803 133.367C241.803 133.367 240.986 132.113 240.28 133.017C239.589 133.902 239.734 135.108 240.63 134.94C240.63 134.94 241.785 133.798 241.803 133.367Z" fill="#FCCBB1"/>
<path d="M241.324 133.918C241.324 133.918 241.023 134.612 243.072 132.585C243.072 132.585 244.02 133.024 245.32 132.317C245.32 132.317 248.296 134.397 248.427 137.413C248.427 137.413 249.38 137.966 249.597 136.112C249.597 136.112 252.835 135.875 250.514 132.984C248.193 130.092 246.18 130.516 246.18 130.516C246.18 130.516 243.923 127.064 241.324 133.918Z" fill="#192E35"/>
<path d="M248.159 143.624C248.159 143.624 248.159 148.72 247.822 152.226C247.822 152.226 248.406 148.042 248.159 143.624Z" fill="#192E35"/>
<path d="M244.835 148.521H260.476C260.513 148.521 260.55 148.53 260.584 148.546C260.617 148.562 260.647 148.585 260.67 148.614C260.693 148.643 260.71 148.677 260.718 148.713C260.727 148.749 260.727 148.787 260.719 148.823L258.383 159.665H241.977L244.592 148.713C244.605 148.658 244.636 148.61 244.68 148.575C244.724 148.54 244.779 148.522 244.835 148.521Z" fill="#314E66"/>
<path d="M245.371 148.521H261.012C261.05 148.521 261.086 148.53 261.12 148.546C261.154 148.562 261.183 148.585 261.206 148.614C261.23 148.643 261.246 148.677 261.255 148.713C261.264 148.749 261.264 148.787 261.257 148.823L258.92 159.665H242.514L245.129 148.713C245.142 148.658 245.173 148.61 245.217 148.575C245.261 148.54 245.315 148.522 245.371 148.521Z" fill="#192E35"/>
<path d="M242.506 159.124H233.408V159.664H242.506V159.124Z" fill="#314E66"/>
<path d="M229.285 163.142C229.285 163.142 239.419 158.963 245.087 159.588C248.898 160.008 252.507 165.105 252.507 165.105C252.507 165.105 249.793 166.409 246.576 167.657C246.576 167.657 244.894 166.937 244.271 166.985C243.264 167.064 235.433 172.988 231.062 169.434C228.473 167.329 229.285 163.142 229.285 163.142Z" fill="#837126"/>
<path d="M237.23 168.035C231.676 170.157 230.001 168.155 229.66 167.49C229.962 168.242 230.442 168.909 231.059 169.433C235.191 172.98 242.348 167.713 243.957 167.505C244.914 167.381 246.274 167.807 246.274 167.807C246.741 167.634 247.196 167.432 247.639 167.202C244.797 164.433 244.146 165.394 237.23 168.035Z" fill="#3B4626"/>
<path d="M245.96 168.937C247.206 169.034 252.228 167.314 252.492 170.431C252.785 173.888 247.158 172.76 244.182 171.773C243.194 171.446 242.208 170.836 241.907 170.158C241.499 169.244 242.075 168.263 243.126 168.208C244.234 168.153 244.711 168.842 245.96 168.937Z" fill="#545D77"/>
<path d="M252.236 154.296L253.647 153.527C253.532 153.292 253.353 153.094 253.129 152.958C252.906 152.821 252.649 152.752 252.387 152.757C251.962 152.766 251.554 152.928 251.24 153.214C250.925 153.499 250.724 153.889 250.674 154.311C250.648 154.508 250.665 154.707 250.723 154.897C250.782 155.086 250.881 155.26 251.013 155.408C251.145 155.555 251.307 155.672 251.489 155.751C251.671 155.83 251.867 155.869 252.065 155.864C252.35 155.859 252.63 155.784 252.88 155.647C253.129 155.509 253.342 155.313 253.498 155.074L252.236 154.296Z" fill="#314E66"/>
</g>
<defs>
<linearGradient id="paint0_linear_454_13285" x1="24.225" y1="11.5385" x2="124.291" y2="273.477" gradientUnits="userSpaceOnUse">
<stop stop-color="#6B2BB7"/>
<stop offset="1" stop-color="#150B54"/>
</linearGradient>
<clipPath id="clip0_454_13285">
<rect width="220" height="141.695" fill="white" transform="translate(61 40)"/>
</clipPath>
</defs>
</svg>
